<?xml version="1.0" encoding="utf-8"?>
<!-- Generator: Adobe Illustrator 22.1.0, SVG Export Plug-In . SVG Version: 6.00 Build 0)  -->
<svg version="1.1" id="Layer_1" xmlns="http://www.w3.org/2000/svg" xmlns:xlink="http://www.w3.org/1999/xlink" x="0px" y="0px"
	 viewBox="0 0 209 90" enable-background="new 0 0 209 90" xml:space="preserve">
<g>
	<g id="shape-alteryx-logo">
		<path fill="#1691C6" d="M45.8,52.5L45.8,52.5l-0.2,0.1c-1.8,1.1-3.8,1.8-5.9,1.8c-2.8-0.1-3.9-1.1-3.9-3.8
			c0.1-3.2,1.1-4.1,4.7-4.4l4.9-0.2h0.4L45.8,52.5z M54.8,54c-0.1-0.5-0.6-0.9-1.1-0.9c-0.2,0-0.3,0-0.4,0.1
			c-0.6,0.1-1.2,0.2-1.8,0.3c-1.1,0.1-1.3-0.4-1.4-1.6V34.8c0-0.4-0.2-0.8-0.5-1l-0.1-0.1c0,0-0.1-0.1-0.1-0.1
			c-1.2-0.6-2.5-1-3.8-1.3l-0.1,0c-1.6-0.4-3.3-0.6-5-0.6c-0.8,0-1.5,0-2.3,0.1c-1.2,0.1-2.3,0.3-3.4,0.6c-0.2,0.1-0.8,0.4-0.9,1
			c0.1,0.4,0.2,0.9,0.4,1.3c0.2,0.7,0.5,0.9,0.9,1c0.5,0,1.1-0.1,1.6-0.2c0.9-0.2,1.9-0.3,2.8-0.3c1,0,2,0,3,0.1
			c2.2,0.3,3.1,1,3.1,1V43h-0.2l-4.8,0.1c-6.3,0.2-9.3,2.7-9.3,7.8c0,2.3,0.7,4.2,2.1,5.4c1.3,1.1,3.2,1.7,5.4,1.7
			c2.6,0,5-0.9,7-2.5l0.2-0.2l0.1,0.2c0.5,1.1,1.5,1.9,2.6,2.2c0.6,0.2,1.3,0.2,2,0.2c0.2,0,0.4,0,0.6,0c1-0.1,1.9-0.3,2.8-0.7
			c0.6-0.3,1-0.6,1-1.3C55.1,55.3,55,54.7,54.8,54"/>
		<path fill="#1691C6" d="M125.2,57.9h-2.3c-0.3,0-0.6-0.1-0.8-0.3c-0.2-0.3-0.3-0.6-0.3-0.9V34.7c0-0.3,0.1-0.7,0.3-0.9
			c0.2-0.2,0.5-0.3,0.8-0.3h2.1c0.3,0,0.6,0.1,0.9,0.2c0.2,0.2,0.3,0.5,0.3,0.8v1.1l0.3-0.4c1.3-1.5,3.1-2.3,5.1-2.3
			c0.5,0,1,0.1,1.5,0.2c0.4,0.1,0.6,0.4,0.6,0.8c0,0.1,0,0.2,0,0.3l-0.3,2.2c0,0.4-0.3,0.6-0.7,0.7c-0.2,0-0.4,0-0.6-0.1
			c-0.3-0.1-0.7-0.1-1-0.1c-1.6,0-3.4,1.1-4.6,2.7l0,0v16.9c0,0.3-0.1,0.6-0.3,0.9C125.8,57.8,125.5,57.9,125.2,57.9"/>
		<path fill="#1691C6" d="M110.9,43h-10.6c0.1-5.4,2.2-7.5,5.6-7.5c3.3,0,5.1,1.8,5.1,6C110.9,41.8,110.9,42.7,110.9,43 M105.9,32.1
			c-6,0-10.4,4.1-10.4,13.6c0,8.6,4,12.9,11.7,12.9c1.3,0,2.7-0.2,4-0.4c0.2,0,0.4-0.1,0.7-0.1c0.7-0.2,1.4-0.4,2.1-0.7
			c0.5-0.1,0.8-0.5,0.9-1c-0.1-0.7-0.3-1.4-0.5-2.1c-0.1-0.4-0.6-0.7-1-0.7c-0.1,0-2.2,0.4-2.3,0.5c-1.2,0.3-2.4,0.5-3.7,0.5
			c-5.4,0-7-2.6-7-7.9V46h14.2c0.4,0,0.8-0.4,0.8-0.8c0-0.1,0-0.1,0-0.2c0-0.9,0.1-1.9,0.1-2.7C115.3,35.9,112.1,32.1,105.9,32.1"/>
		<path fill="#1691C6" d="M139.5,67.8h-0.2c-0.7,0-1.5-0.1-2.2-0.2c-0.4-0.1-0.6-0.6-0.5-1.4c0-0.5,0.1-0.9,0.2-1.3
			c0.1-0.6,0.4-0.8,0.7-0.8h0.3l0.5,0c0.4,0,0.8,0.1,1.2,0.1c2.8,0,4.3-1,5.3-3.6l1.2-3.1l0.1-0.3l0-0.1l0-0.2l-8.5-22.5
			c0-0.1-0.1-0.2,0-0.3c0-0.1,0-0.3,0.1-0.4c0.1-0.1,0.3-0.2,0.4-0.2h3.2c0.4,0,0.8,0.2,0.9,0.6l5.6,16.1l0.4,1.1l0.4-1.1l5.8-16
			c0.1-0.4,0.5-0.7,0.9-0.7h2.8c0.2,0,0.3,0,0.5,0.1c0.1,0.1,0.2,0.2,0.1,0.3c0,0.1,0,0.3-0.1,0.4L149.2,60
			C147.1,65.7,144.5,67.8,139.5,67.8"/>
		<path fill="#1691C6" d="M177.9,57.8c-0.5,0-1-0.3-1.3-0.7l-5.1-7.9l-0.2-0.3l-0.2,0.3l-5.1,7.9c-0.3,0.5-0.8,0.8-1.3,0.7H162
			c-0.2,0-0.4,0-0.5-0.2c-0.1-0.1-0.2-0.3-0.2-0.5c0-0.2,0.1-0.5,0.2-0.7l7.4-11.2l0.1-0.1l-0.1-0.1L162,34.6
			c-0.1-0.2-0.2-0.3-0.2-0.5c0-0.4,0.4-0.7,0.8-0.7h2.6c0.5,0,0.9,0.2,1.2,0.6l4.8,7.2l0.2,0.2l0.2-0.2l4.8-7.2
			c0.2-0.4,0.7-0.7,1.1-0.7h2.6c0.4,0,0.8,0.3,0.8,0.7c0,0.2-0.1,0.4-0.2,0.5l-6.8,10.5l-0.1,0.1l0.1,0.1l7.3,11.1
			c0.1,0.2,0.2,0.4,0.2,0.7c0,0.2-0.1,0.4-0.2,0.5c-0.2,0.1-0.3,0.2-0.5,0.2H178H177.9z"/>
		<path fill="#1691C6" d="M67.6,57.9c-1.1,0-2.3-0.2-3.4-0.5c-0.8-0.3-1.6-0.7-2.2-1.4c-1.4-1.6-1.6-3.6-1.6-6.2v-25
			c0-0.2,0.1-0.3,0.2-0.4c0.9-1,2-1.7,3.3-2.1c0.1,0,0.1,0,0.2,0c0.2,0,0.4,0.1,0.6,0.2c0.2,0.2,0.3,0.6,0.3,0.9V50
			c-0.1,1.1,0.3,2.3,0.9,3.2c0.7,0.6,1.5,0.9,2.4,0.9c0.3,0,0.6,0,0.9-0.1c0.7-0.1,1.4-0.3,2-0.5c0.1-0.1,0.3-0.1,0.4-0.1
			c0.4,0,0.8,0.3,0.9,0.7c0.2,0.6,0.3,1.2,0.4,1.9c0,0.5-0.4,0.9-0.9,1C70.7,57.6,69.2,57.9,67.6,57.9"/>
		<path fill="#1691C6" d="M90.9,54.1c-0.1-0.4-0.5-0.7-0.9-0.7c-0.1,0-0.3,0-0.4,0.1c-0.9,0.3-1.9,0.5-2.8,0.5h-0.1
			c-0.9,0.1-1.8-0.2-2.4-0.9c-0.5-0.5-0.9-1.4-0.9-3.1v-0.1l0.1-13.2h5.4c0.3,0,0.5-0.1,0.7-0.2c0.2-0.2,0.3-0.5,0.3-0.7v-1.7
			c0-0.3-0.1-0.6-0.3-0.8c-0.2-0.1-0.5-0.2-0.7-0.2h-5.4V25c0-0.3-0.1-0.6-0.3-0.9c-0.2-0.2-0.4-0.2-0.6-0.2c-0.1,0-0.2,0-0.2,0
			c-0.7,0.3-1.4,0.6-2.1,1.1c-0.3,0.3-0.7,0.5-1,0.8c-0.1,0.1-0.1,0.2-0.1,0.4L79,33.1h-2.8c-0.3,0-0.6,0.1-0.8,0.3
			c-0.2,0.2-0.3,0.5-0.3,0.8v1.5c0,0.3,0,0.6,0.2,0.9c0.2,0.2,0.6,0.3,0.9,0.3h2.6l-0.2,12.4v0.5c0,2.6,0.1,4.6,1.6,6.2
			c1.1,1.2,3.1,1.9,5.6,1.9c1.6,0,3.2-0.3,4.6-0.9c0.4-0.2,0.9-0.5,0.9-1C91.3,55.3,91.1,54.7,90.9,54.1"/>
	</g>
	<g id="shape-alteryx-logo_1_">
		<path fill="#1691C6" d="M45.8,52.5L45.8,52.5l-0.2,0.1c-1.8,1.1-3.8,1.8-5.9,1.8c-2.8-0.1-3.9-1.1-3.9-3.8
			c0.1-3.2,1.1-4.1,4.7-4.4l4.9-0.2h0.4L45.8,52.5z M54.8,54c-0.1-0.5-0.6-0.9-1.1-0.9c-0.2,0-0.3,0-0.4,0.1
			c-0.6,0.1-1.2,0.2-1.8,0.3c-1.1,0.1-1.3-0.4-1.4-1.6V34.8c0-0.4-0.2-0.8-0.5-1l-0.1-0.1c0,0-0.1-0.1-0.1-0.1
			c-1.2-0.6-2.5-1-3.8-1.3l-0.1,0c-1.6-0.4-3.3-0.6-5-0.6c-0.8,0-1.5,0-2.3,0.1c-1.2,0.1-2.3,0.3-3.4,0.6c-0.2,0.1-0.8,0.4-0.9,1
			c0.1,0.4,0.2,0.9,0.4,1.3c0.2,0.7,0.5,0.9,0.9,1c0.5,0,1.1-0.1,1.6-0.2c0.9-0.2,1.9-0.3,2.8-0.3c1,0,2,0,3,0.1
			c2.2,0.3,3.1,1,3.1,1V43h-0.2l-4.8,0.1c-6.3,0.2-9.3,2.7-9.3,7.8c0,2.3,0.7,4.2,2.1,5.4c1.3,1.1,3.2,1.7,5.4,1.7
			c2.6,0,5-0.9,7-2.5l0.2-0.2l0.1,0.2c0.5,1.1,1.5,1.9,2.6,2.2c0.6,0.2,1.3,0.2,2,0.2c0.2,0,0.4,0,0.6,0c1-0.1,1.9-0.3,2.8-0.7
			c0.6-0.3,1-0.6,1-1.3C55.1,55.3,55,54.7,54.8,54"/>
		<path fill="#1691C6" d="M125.2,57.9h-2.3c-0.3,0-0.6-0.1-0.8-0.3c-0.2-0.3-0.3-0.6-0.3-0.9V34.7c0-0.3,0.1-0.7,0.3-0.9
			c0.2-0.2,0.5-0.3,0.8-0.3h2.1c0.3,0,0.6,0.1,0.9,0.2c0.2,0.2,0.3,0.5,0.3,0.8v1.1l0.3-0.4c1.3-1.5,3.1-2.3,5.1-2.3
			c0.5,0,1,0.1,1.5,0.2c0.4,0.1,0.6,0.4,0.6,0.8c0,0.1,0,0.2,0,0.3l-0.3,2.2c0,0.4-0.3,0.6-0.7,0.7c-0.2,0-0.4,0-0.6-0.1
			c-0.3-0.1-0.7-0.1-1-0.1c-1.6,0-3.4,1.1-4.6,2.7l0,0v16.9c0,0.3-0.1,0.6-0.3,0.9C125.8,57.8,125.5,57.9,125.2,57.9"/>
		<path fill="#1691C6" d="M110.9,43h-10.6c0.1-5.4,2.2-7.5,5.6-7.5c3.3,0,5.1,1.8,5.1,6C110.9,41.8,110.9,42.7,110.9,43 M105.9,32.1
			c-6,0-10.4,4.1-10.4,13.6c0,8.6,4,12.9,11.7,12.9c1.3,0,2.7-0.2,4-0.4c0.2,0,0.4-0.1,0.7-0.1c0.7-0.2,1.4-0.4,2.1-0.7
			c0.5-0.1,0.8-0.5,0.9-1c-0.1-0.7-0.3-1.4-0.5-2.1c-0.1-0.4-0.6-0.7-1-0.7c-0.1,0-2.2,0.4-2.3,0.5c-1.2,0.3-2.4,0.5-3.7,0.5
			c-5.4,0-7-2.6-7-7.9V46h14.2c0.4,0,0.8-0.4,0.8-0.8c0-0.1,0-0.1,0-0.2c0-0.9,0.1-1.9,0.1-2.7C115.3,35.9,112.1,32.1,105.9,32.1"/>
		<path fill="#1691C6" d="M139.5,67.8h-0.2c-0.7,0-1.5-0.1-2.2-0.2c-0.4-0.1-0.6-0.6-0.5-1.4c0-0.5,0.1-0.9,0.2-1.3
			c0.1-0.6,0.4-0.8,0.7-0.8h0.3l0.5,0c0.4,0,0.8,0.1,1.2,0.1c2.8,0,4.3-1,5.3-3.6l1.2-3.1l0.1-0.3l0-0.1l0-0.2l-8.5-22.5
			c0-0.1-0.1-0.2,0-0.3c0-0.1,0-0.3,0.1-0.4c0.1-0.1,0.3-0.2,0.4-0.2h3.2c0.4,0,0.8,0.2,0.9,0.6l5.6,16.1l0.4,1.1l0.4-1.1l5.8-16
			c0.1-0.4,0.5-0.7,0.9-0.7h2.8c0.2,0,0.3,0,0.5,0.1c0.1,0.1,0.2,0.2,0.1,0.3c0,0.1,0,0.3-0.1,0.4L149.2,60
			C147.1,65.7,144.5,67.8,139.5,67.8"/>
		<path fill="#1691C6" d="M177.9,57.8c-0.5,0-1-0.3-1.3-0.7l-5.1-7.9l-0.2-0.3l-0.2,0.3l-5.1,7.9c-0.3,0.5-0.8,0.8-1.3,0.7H162
			c-0.2,0-0.4,0-0.5-0.2c-0.1-0.1-0.2-0.3-0.2-0.5c0-0.2,0.1-0.5,0.2-0.7l7.4-11.2l0.1-0.1l-0.1-0.1L162,34.6
			c-0.1-0.2-0.2-0.3-0.2-0.5c0-0.4,0.4-0.7,0.8-0.7h2.6c0.5,0,0.9,0.2,1.2,0.6l4.8,7.2l0.2,0.2l0.2-0.2l4.8-7.2
			c0.2-0.4,0.7-0.7,1.1-0.7h2.6c0.4,0,0.8,0.3,0.8,0.7c0,0.2-0.1,0.4-0.2,0.5l-6.8,10.5l-0.1,0.1l0.1,0.1l7.3,11.1
			c0.1,0.2,0.2,0.4,0.2,0.7c0,0.2-0.1,0.4-0.2,0.5c-0.2,0.1-0.3,0.2-0.5,0.2H178H177.9z"/>
		<path fill="#1691C6" d="M67.6,57.9c-1.1,0-2.3-0.2-3.4-0.5c-0.8-0.3-1.6-0.7-2.2-1.4c-1.4-1.6-1.6-3.6-1.6-6.2v-25
			c0-0.2,0.1-0.3,0.2-0.4c0.9-1,2-1.7,3.3-2.1c0.1,0,0.1,0,0.2,0c0.2,0,0.4,0.1,0.6,0.2c0.2,0.2,0.3,0.6,0.3,0.9V50
			c-0.1,1.1,0.3,2.3,0.9,3.2c0.7,0.6,1.5,0.9,2.4,0.9c0.3,0,0.6,0,0.9-0.1c0.7-0.1,1.4-0.3,2-0.5c0.1-0.1,0.3-0.1,0.4-0.1
			c0.4,0,0.8,0.3,0.9,0.7c0.2,0.6,0.3,1.2,0.4,1.9c0,0.5-0.4,0.9-0.9,1C70.7,57.6,69.2,57.9,67.6,57.9"/>
		<path fill="#1691C6" d="M90.9,54.1c-0.1-0.4-0.5-0.7-0.9-0.7c-0.1,0-0.3,0-0.4,0.1c-0.9,0.3-1.9,0.5-2.8,0.5h-0.1
			c-0.9,0.1-1.8-0.2-2.4-0.9c-0.5-0.5-0.9-1.4-0.9-3.1v-0.1l0.1-13.2h5.4c0.3,0,0.5-0.1,0.7-0.2c0.2-0.2,0.3-0.5,0.3-0.7v-1.7
			c0-0.3-0.1-0.6-0.3-0.8c-0.2-0.1-0.5-0.2-0.7-0.2h-5.4V25c0-0.3-0.1-0.6-0.3-0.9c-0.2-0.2-0.4-0.2-0.6-0.2c-0.1,0-0.2,0-0.2,0
			c-0.7,0.3-1.4,0.6-2.1,1.1c-0.3,0.3-0.7,0.5-1,0.8c-0.1,0.1-0.1,0.2-0.1,0.4L79,33.1h-2.8c-0.3,0-0.6,0.1-0.8,0.3
			c-0.2,0.2-0.3,0.5-0.3,0.8v1.5c0,0.3,0,0.6,0.2,0.9c0.2,0.2,0.6,0.3,0.9,0.3h2.6l-0.2,12.4v0.5c0,2.6,0.1,4.6,1.6,6.2
			c1.1,1.2,3.1,1.9,5.6,1.9c1.6,0,3.2-0.3,4.6-0.9c0.4-0.2,0.9-0.5,0.9-1C91.3,55.3,91.1,54.7,90.9,54.1"/>
	</g>
</g>
</svg>
