<?xml version="1.0" encoding="UTF-8" standalone="no"?>
<svg
   xmlns:dc="http://purl.org/dc/elements/1.1/"
   xmlns:cc="http://creativecommons.org/ns#"
   xmlns:rdf="http://www.w3.org/1999/02/22-rdf-syntax-ns#"
   xmlns:svg="http://www.w3.org/2000/svg"
   xmlns="http://www.w3.org/2000/svg"
   xmlns:sodipodi="http://sodipodi.sourceforge.net/DTD/sodipodi-0.dtd"
   xmlns:inkscape="http://www.inkscape.org/namespaces/inkscape"
   viewBox="0 0 375.70001 107.46"
   data-name="Layer 1"
   id="Layer_1"
   version="1.1"
   sodipodi:docname="beakerx.svg"
   inkscape:version="0.92.4 (unknown)">
  <metadata
     id="metadata21">
    <rdf:RDF>
      <cc:Work
         rdf:about="">
        <dc:format>image/svg+xml</dc:format>
        <dc:type
           rdf:resource="http://purl.org/dc/dcmitype/StillImage" />
        <dc:title>BeakerX Logo - horiz - reverse</dc:title>
      </cc:Work>
    </rdf:RDF>
  </metadata>
  <sodipodi:namedview
     pagecolor="#ffffff"
     bordercolor="#666666"
     borderopacity="1"
     objecttolerance="10"
     gridtolerance="10"
     guidetolerance="10"
     inkscape:pageopacity="0"
     inkscape:pageshadow="2"
     inkscape:window-width="1775"
     inkscape:window-height="1014"
     id="namedview19"
     showgrid="false"
     inkscape:zoom="0.87836037"
     inkscape:cx="194.68092"
     inkscape:cy="53.73"
     inkscape:window-x="2051"
     inkscape:window-y="152"
     inkscape:window-maximized="0"
     inkscape:current-layer="Layer_1" />
  <defs
     id="defs4">
    <style
       id="style2">.cls-1{fill:#fff;}</style>
  </defs>
  <title
     id="title6">BeakerX Logo - horiz - reverse</title>
  <rect
     style="fill:#e37222;fill-opacity:1;stroke:none;stroke-width:18.89763832;stroke-miterlimit:4;stroke-dasharray:none;stroke-opacity:1"
     id="rect831"
     width="447.42453"
     height="171.91121"
     x="-34.154545"
     y="-30.296673" />
  <path
     style="fill:#ffffff"
     id="path8"
     d="m 19.34,18.52 a 9.26,9.26 0 1 1 9.26,-9.26 9.27,9.27 0 0 1 -9.26,9.26 z m 0,-16 a 6.7,6.7 0 1 0 6.69,6.69 6.7,6.7 0 0 0 -6.69,-6.6 z"
     class="cls-1" />
  <path
     style="fill:#ffffff"
     id="path10"
     d="m 15.41,34.44 a 5.3,5.3 0 1 1 5.3,-5.31 5.31,5.31 0 0 1 -5.3,5.31 z m 0,-8 a 2.74,2.74 0 1 0 2.79,2.69 2.75,2.75 0 0 0 -2.79,-2.74 z"
     class="cls-1" />
  <path
     style="fill:#ffffff"
     id="path12"
     d="M 41.14,34.42 A 11.26,11.26 0 1 1 52.39,23.16 11.27,11.27 0 0 1 41.14,34.42 Z m 0,-20 a 8.7,8.7 0 1 0 8.7,8.7 8.71,8.71 0 0 0 -8.7,-8.65 z"
     class="cls-1" />
  <polygon
     transform="translate(-33.8,-20.39)"
     style="fill:#ffffff"
     id="polygon14"
     points="33.8,123.15 33.8,48.81 36.37,48.81 36.37,122.05 39.77,125.29 90.1,125.29 93.55,122.07 93.55,58.31 103.48,47.93 105.33,49.7 96.11,59.34 96.11,123.19 91.11,127.85 38.75,127.85 "
     class="cls-1" />
  <path
     style="fill:#ffffff"
     id="path16"
     d="M 54.41,99.28 H 8.07 V 41.85 H 54.41 Z M 10.63,96.71 H 51.85 V 44.41 H 10.63 Z"
     class="cls-1" />
  <path
     style="fill:#ffffff"
     id="path18"
     d="m 106.41,42.12 a 34.79,34.79 0 0 1 9.06,1 17.55,17.55 0 0 1 6.25,2.95 11.46,11.46 0 0 1 3.6,4.68 16,16 0 0 1 1.15,6.23 12.46,12.46 0 0 1 -0.66,4 12.12,12.12 0 0 1 -2,3.6 14.06,14.06 0 0 1 -3.32,3 18.16,18.16 0 0 1 -4.72,2.17 q 6.29,1.19 9.45,4.48 a 11.9,11.9 0 0 1 3.16,8.62 16,16 0 0 1 -1.33,6.61 14.16,14.16 0 0 1 -3.85,5.15 18.17,18.17 0 0 1 -6.31,3.32 28.42,28.42 0 0 1 -8.52,1.17 H 88.2 v -57 z M 95.9,48.21 v 19.46 h 10.19 a 20,20 0 0 0 5.67,-0.72 11.42,11.42 0 0 0 4,-2 7.78,7.78 0 0 0 2.33,-3.08 10.18,10.18 0 0 0 0.76,-4 q 0,-5.05 -3,-7.38 -3,-2.33 -9.39,-2.33 z m 12.3,44.82 a 19,19 0 0 0 5.69,-0.76 10.56,10.56 0 0 0 3.92,-2.13 8.25,8.25 0 0 0 2.25,-3.26 11.64,11.64 0 0 0 0.72,-4.16 8.54,8.54 0 0 0 -3.14,-7 q -3.15,-2.57 -9.43,-2.57 H 95.9 v 19.86 z"
     class="cls-1" />
  <path
     style="fill:#ffffff"
     id="path20"
     d="m 170.14,93.5 a 13.47,13.47 0 0 1 -3.14,2.77 19.56,19.56 0 0 1 -3.92,1.93 24.85,24.85 0 0 1 -4.32,1.13 26.43,26.43 0 0 1 -4.42,0.38 20.51,20.51 0 0 1 -7.7,-1.41 16.9,16.9 0 0 1 -6.09,-4.14 19,19 0 0 1 -4,-6.75 27.43,27.43 0 0 1 -1.43,-9.23 23.51,23.51 0 0 1 1.29,-7.88 18.57,18.57 0 0 1 3.72,-6.35 17.13,17.13 0 0 1 5.93,-4.22 19.47,19.47 0 0 1 7.88,-1.53 18.16,18.16 0 0 1 6.71,1.21 15.18,15.18 0 0 1 5.33,3.5 16.07,16.07 0 0 1 3.52,5.7 21.54,21.54 0 0 1 1.27,7.66 4.62,4.62 0 0 1 -0.36,2.23 1.49,1.49 0 0 1 -1.35,0.56 h -26.95 a 23.55,23.55 0 0 0 1.05,6.65 13.34,13.34 0 0 0 2.61,4.72 10.51,10.51 0 0 0 4,2.83 13.66,13.66 0 0 0 5.17,0.94 15.17,15.17 0 0 0 4.6,-0.62 21.89,21.89 0 0 0 3.32,-1.33 25.27,25.27 0 0 0 2.33,-1.33 3.09,3.09 0 0 1 1.61,-0.62 1.56,1.56 0 0 1 1.35,0.68 z m -5.73,-18.89 a 14,14 0 0 0 -0.7,-4.52 10.15,10.15 0 0 0 -2,-3.54 9.06,9.06 0 0 0 -3.24,-2.31 12.27,12.27 0 0 0 -12.4,2.15 13.89,13.89 0 0 0 -3.72,8.22 z"
     class="cls-1" />
  <path
     style="fill:#ffffff"
     id="path22"
     d="m 178.42,64.53 a 23,23 0 0 1 7.2,-4.82 22.25,22.25 0 0 1 8.58,-1.59 15.28,15.28 0 0 1 6,1.11 12.32,12.32 0 0 1 4.42,3.1 13.17,13.17 0 0 1 2.71,4.82 20.12,20.12 0 0 1 0.91,6.21 v 25.79 h -3.14 a 3.09,3.09 0 0 1 -1.59,-0.34 2.31,2.31 0 0 1 -0.87,-1.33 l -0.8,-3.82 a 39.57,39.57 0 0 1 -3.11,2.61 17.78,17.78 0 0 1 -3.18,1.91 17.28,17.28 0 0 1 -3.56,1.19 19.49,19.49 0 0 1 -4.2,0.42 14.52,14.52 0 0 1 -4.42,-0.66 10.2,10.2 0 0 1 -3.6,-2 9.26,9.26 0 0 1 -2.43,-3.32 11.62,11.62 0 0 1 -0.9,-4.76 8.87,8.87 0 0 1 1.31,-4.6 11.51,11.51 0 0 1 4.25,-3.84 27.93,27.93 0 0 1 7.68,-2.81 58.62,58.62 0 0 1 11.62,-1.29 v -3.15 q 0,-4.7 -2,-7.11 a 7.32,7.32 0 0 0 -5.93,-2.41 12.75,12.75 0 0 0 -4.4,0.66 16.52,16.52 0 0 0 -3.06,1.47 q -1.29,0.82 -2.23,1.47 a 3.22,3.22 0 0 1 -1.85,0.66 2,2 0 0 1 -1.23,-0.38 3.45,3.45 0 0 1 -0.88,-0.94 z m 22.88,16.48 a 59,59 0 0 0 -8.34,0.78 23.73,23.73 0 0 0 -5.61,1.61 7.75,7.75 0 0 0 -3.14,2.35 5.05,5.05 0 0 0 -1,3 6.67,6.67 0 0 0 0.52,2.75 5.09,5.09 0 0 0 1.41,1.89 5.65,5.65 0 0 0 2.11,1.07 9.65,9.65 0 0 0 2.61,0.34 14.43,14.43 0 0 0 3.42,-0.38 12.87,12.87 0 0 0 2.93,-1.09 16.49,16.49 0 0 0 2.63,-1.71 22.69,22.69 0 0 0 2.45,-2.27 z"
     class="cls-1" />
  <path
     style="fill:#ffffff"
     id="path24"
     d="m 226.14,40.52 v 34.51 h 1.83 a 3.54,3.54 0 0 0 1.33,-0.22 3.23,3.23 0 0 0 1.13,-0.9 L 243.2,60.27 a 4.78,4.78 0 0 1 1.17,-1.05 3.14,3.14 0 0 1 1.65,-0.38 h 6.41 l -14.86,15.77 a 9,9 0 0 1 -2.31,2.11 7.38,7.38 0 0 1 1.29,1.09 10.27,10.27 0 0 1 1.09,1.41 l 15.76,19.9 h -6.33 a 3.78,3.78 0 0 1 -1.57,-0.3 2.62,2.62 0 0 1 -1.13,-1.09 L 231.12,81.21 a 3.17,3.17 0 0 0 -1.17,-1.09 4.57,4.57 0 0 0 -1.77,-0.26 h -2 v 19.27 h -7.12 V 40.52 Z"
     class="cls-1" />
  <path
     style="fill:#ffffff"
     id="path26"
     d="m 289.91,93.5 a 13.47,13.47 0 0 1 -3.14,2.77 19.56,19.56 0 0 1 -3.92,1.93 24.84,24.84 0 0 1 -4.32,1.13 26.43,26.43 0 0 1 -4.42,0.38 20.51,20.51 0 0 1 -7.7,-1.41 16.9,16.9 0 0 1 -6.09,-4.14 19,19 0 0 1 -4,-6.75 27.42,27.42 0 0 1 -1.43,-9.23 23.49,23.49 0 0 1 1.31,-7.88 18.57,18.57 0 0 1 3.72,-6.35 17.13,17.13 0 0 1 5.93,-4.22 19.46,19.46 0 0 1 7.88,-1.53 18.16,18.16 0 0 1 6.71,1.21 15.19,15.19 0 0 1 5.33,3.5 16.06,16.06 0 0 1 3.5,5.7 21.52,21.52 0 0 1 1.27,7.66 4.62,4.62 0 0 1 -0.36,2.23 1.49,1.49 0 0 1 -1.35,0.56 h -26.94 a 23.59,23.59 0 0 0 1.05,6.65 13.34,13.34 0 0 0 2.61,4.72 10.51,10.51 0 0 0 4,2.83 13.67,13.67 0 0 0 5.18,0.94 15.16,15.16 0 0 0 4.6,-0.62 21.85,21.85 0 0 0 3.32,-1.33 25.28,25.28 0 0 0 2.33,-1.33 3.09,3.09 0 0 1 1.61,-0.62 1.56,1.56 0 0 1 1.35,0.68 z M 284.2,74.61 a 14,14 0 0 0 -0.7,-4.52 10.17,10.17 0 0 0 -2,-3.54 9.06,9.06 0 0 0 -3.3,-2.32 12.27,12.27 0 0 0 -12.4,2.15 13.89,13.89 0 0 0 -3.67,8.23 z"
     class="cls-1" />
  <path
     style="fill:#ffffff"
     id="path28"
     d="m 305.95,66.91 a 18.17,18.17 0 0 1 4.7,-6.47 10.25,10.25 0 0 1 6.81,-2.33 10.61,10.61 0 0 1 2.45,0.28 6.6,6.6 0 0 1 2.09,0.88 l -0.53,5.34 a 1.14,1.14 0 0 1 -1.19,1 8.22,8.22 0 0 1 -1.63,-0.24 11.25,11.25 0 0 0 -2.43,-0.24 9.69,9.69 0 0 0 -3.4,0.56 8,8 0 0 0 -2.67,1.65 11.7,11.7 0 0 0 -2.11,2.71 23.27,23.27 0 0 0 -1.69,3.68 V 99.21 H 299.2 V 58.83 h 4.06 a 2.24,2.24 0 0 1 1.59,0.44 2.69,2.69 0 0 1 0.6,1.51 z"
     class="cls-1" />
  <polygon
     transform="translate(-33.8,-20.39)"
     style="fill:#ffffff"
     id="polygon30"
     points="382.59,99.76 368.35,119.6 362.64,119.6 379.74,95.78 379.1,94.9 361.38,119.6 355.68,119.6 376.25,90.92 355.81,62.42 361.52,62.42 379.1,86.95 381.96,90.92 382.6,91.8 385.45,95.77 402.54,119.6 396.83,119.6 "
     class="cls-1" />
  <polygon
     transform="translate(-33.8,-20.39)"
     style="fill:#ffffff"
     id="polygon32"
     points="386.07,94.9 383.22,90.92 382.6,90.04 379.74,86.07 362.78,62.42 368.49,62.42 382.59,82.09 396.7,62.42 402.41,62.42 385.45,86.07 386.07,86.95 403.67,62.42 409.38,62.42 388.93,90.92 409.5,119.6 403.8,119.6 "
     class="cls-1" />
</svg>
