<svg id="Layer_1" data-name="Layer 1" xmlns="http://www.w3.org/2000/svg" viewBox="0 0 1025.76 163.14"><defs><style>.cls-1{fill:#333;}</style></defs><path class="cls-1" d="M158.32,93.8a37.45,37.45,0,0,1-39-8l-15.2,14.91a29.39,29.39,0,1,1-33.32-9.25l.32-.11L66.55,75.14A24.76,24.76,0,1,1,70.9,73.9l4.59,16.25a29.42,29.42,0,0,1,25.56,7.26l15.21-14.92a37.45,37.45,0,0,1,15.82-58.87,36.47,36.47,0,0,1,5.53-1.6A81.56,81.56,0,1,0,167,89.14,39.4,39.4,0,0,1,158.32,93.8Z" transform="translate(-4 -3.25)"/><g id="CAMBRIDGE"><path class="cls-1" d="M165.42,64.56l7.79,1.54a20.42,20.42,0,0,1-8.81,11.45Q158,81.5,148.86,81.49q-9.53,0-15.47-3a20.75,20.75,0,0,1-9.07-8.78,25.58,25.58,0,0,1-3.11-12.34,22.36,22.36,0,0,1,3.51-12.55,21.89,21.89,0,0,1,10-8.14A35.89,35.89,0,0,1,149,33.87q8.82,0,14.84,3.52a18.73,18.73,0,0,1,8.39,9.89l-7.67,1.42a14.4,14.4,0,0,0-5.94-7.32,19,19,0,0,0-9.79-2.3,22.93,22.93,0,0,0-11.33,2.55,14.16,14.16,0,0,0-6.4,6.83,22.18,22.18,0,0,0-1.85,8.84,22.67,22.67,0,0,0,2.19,10.26,14,14,0,0,0,6.8,6.55,23.15,23.15,0,0,0,10,2.17,20,20,0,0,0,11.08-3A14.67,14.67,0,0,0,165.42,64.56Z" transform="translate(-4 -3.25)"/><path class="cls-1" d="M173.87,80.71l22.59-46h8.39l24.07,46.05h-8.87l-6.86-13.95H188.6l-6.46,13.95Zm17-18.91h19.94L204.65,49q-2.82-5.8-4.18-9.55a48.69,48.69,0,0,1-3.17,8.8Z" transform="translate(-4 -3.25)"/><path class="cls-1" d="M232.43,80.71V34.65h11.72l13.92,32.61q1.92,4.56,2.81,6.82c.67-1.68,1.71-4.13,3.13-7.38l14.08-32h10.47V80.71h-7.5V42.16L264,80.71h-7l-17-39.21V80.71Z" transform="translate(-4 -3.25)"/><path class="cls-1" d="M298.33,80.71V34.65H320.4a34.19,34.19,0,0,1,10.81,1.4,13.53,13.53,0,0,1,6.38,4.31,9.62,9.62,0,0,1,2.31,6.07,8.8,8.8,0,0,1-2,5.56,14,14,0,0,1-6.18,4.21,16.19,16.19,0,0,1,8.21,4.18,9.7,9.7,0,0,1,2.87,7,11,11,0,0,1-1.75,6,12.54,12.54,0,0,1-4.31,4.29,20.46,20.46,0,0,1-6.44,2.28,49.84,49.84,0,0,1-9.49.77ZM306.12,54h12.72a35.58,35.58,0,0,0,7.42-.54,8.62,8.62,0,0,0,4.47-2.29,5.67,5.67,0,0,0,1.51-4,6.24,6.24,0,0,0-1.41-4,7.15,7.15,0,0,0-4-2.39,42.51,42.51,0,0,0-8.95-.64H306.12V54Zm0,21.26h14.64a42.3,42.3,0,0,0,5.3-.22,15.21,15.21,0,0,0,4.49-1.25,7.71,7.71,0,0,0,3-2.56,6.7,6.7,0,0,0,1.16-3.88A6.55,6.55,0,0,0,333,62.88a9,9,0,0,0-4.68-2.67,36.74,36.74,0,0,0-8.6-.77h-13.6Z" transform="translate(-4 -3.25)"/><path class="cls-1" d="M351.12,80.71V34.65h26.07q7.88,0,12,1.25a12.63,12.63,0,0,1,6.54,4.38,11,11,0,0,1,2.45,6.94,10.34,10.34,0,0,1-4.05,8.26q-4.06,3.36-12.52,4.27a21.48,21.48,0,0,1,4.69,2.3,34.51,34.51,0,0,1,6.46,6.12L403,80.71h-9.79l-7.78-9.58c-2.27-2.77-4.15-4.88-5.62-6.35a16.74,16.74,0,0,0-3.95-3.08,13.72,13.72,0,0,0-3.55-1.22,29.24,29.24,0,0,0-4.33-.22h-9V80.71ZM358.9,55h16.73a31.8,31.8,0,0,0,8.34-.86,8.91,8.91,0,0,0,4.58-2.77,6.26,6.26,0,0,0-1.47-9.5c-2-1.4-5.21-2.11-9.56-2.11H358.9Z" transform="translate(-4 -3.25)"/><path class="cls-1" d="M409.19,80.71V34.65H417V80.71Z" transform="translate(-4 -3.25)"/><path class="cls-1" d="M428.23,80.71V34.65h20.26a63.59,63.59,0,0,1,10.48.66,22.57,22.57,0,0,1,8.62,3.3,19.55,19.55,0,0,1,7,7.87,25,25,0,0,1,2.31,11,25.75,25.75,0,0,1-1.56,9.3,21,21,0,0,1-4,6.71,19.79,19.79,0,0,1-5.35,4.18,25.49,25.49,0,0,1-7,2.3,50.33,50.33,0,0,1-9.45.79ZM436,75.27h12.55a38.82,38.82,0,0,0,9.13-.84,13,13,0,0,0,9.59-8.22,22.79,22.79,0,0,0,1.55-8.87q0-7.23-3-11.11a14.69,14.69,0,0,0-7.37-5.2q-3.12-.95-10.07-.94H436Z" transform="translate(-4 -3.25)"/><path class="cls-1" d="M512.63,62.65V57.24l24.91,0V74.3a48.22,48.22,0,0,1-11.83,5.39,44,44,0,0,1-12.52,1.8,41.06,41.06,0,0,1-15.75-2.9,22.61,22.61,0,0,1-10.69-8.41,21.83,21.83,0,0,1-3.61-12.28,23.55,23.55,0,0,1,3.59-12.55,21.53,21.53,0,0,1,10.33-8.65,39.8,39.8,0,0,1,15.53-2.83,38.33,38.33,0,0,1,11.53,1.62,19.76,19.76,0,0,1,8.09,4.5,18.42,18.42,0,0,1,4.45,7.54l-7,1.51a15.75,15.75,0,0,0-3.29-5.53,13.79,13.79,0,0,0-5.62-3.22,25.8,25.8,0,0,0-8.1-1.21,29.77,29.77,0,0,0-9.23,1.28,18.09,18.09,0,0,0-6.28,3.34,16,16,0,0,0-3.71,4.56,19.56,19.56,0,0,0-2.25,9.26,18.53,18.53,0,0,0,2.71,10.31A16,16,0,0,0,501.76,74a29.87,29.87,0,0,0,11,2,32.4,32.4,0,0,0,9.87-1.53,27.76,27.76,0,0,0,7.3-3.25V62.65Z" transform="translate(-4 -3.25)"/><path class="cls-1" d="M546.72,80.71V34.65h42.52v5.44H554.5v14.1H587V59.6H554.5V75.27h36.11v5.44Z" transform="translate(-4 -3.25)"/><path class="cls-1" d="M607.68,65.74l7.34-.51a11,11,0,0,0,2.43,5.67,13.31,13.31,0,0,0,5.92,3.59,27.88,27.88,0,0,0,9,1.36,26.85,26.85,0,0,0,7.87-1A11,11,0,0,0,645.33,72,5.71,5.71,0,0,0,647,68a5.19,5.19,0,0,0-1.61-3.78,12.41,12.41,0,0,0-5.29-2.72q-2.37-.72-10.48-2.25a65,65,0,0,1-11.35-2.87A15.32,15.32,0,0,1,612,52.12a8.89,8.89,0,0,1-2.06-5.73,10,10,0,0,1,2.52-6.52,15.55,15.55,0,0,1,7.38-4.6,34.91,34.91,0,0,1,10.8-1.57,36.75,36.75,0,0,1,11.53,1.64,16.52,16.52,0,0,1,7.69,4.86,11.9,11.9,0,0,1,2.88,7.25l-7.46.44a8.86,8.86,0,0,0-4.07-6.59q-3.47-2.23-10.25-2.23-7.07,0-10.29,2c-2.16,1.35-3.23,3-3.23,4.89a4.81,4.81,0,0,0,2.29,4.08q2.24,1.61,11.73,3.28a93.7,93.7,0,0,1,13,2.94,17.74,17.74,0,0,1,7.58,4.7,9.75,9.75,0,0,1,2.45,6.55,10.68,10.68,0,0,1-2.69,6.92,17.29,17.29,0,0,1-7.72,5.06,33.31,33.31,0,0,1-11.34,1.81,42.44,42.44,0,0,1-13.38-1.82A18.47,18.47,0,0,1,610.91,74,13.18,13.18,0,0,1,607.68,65.74Z" transform="translate(-4 -3.25)"/><path class="cls-1" d="M659.13,80.53V34.48h42.53v5.43H666.91V54h32.54v5.4H666.91V75.1H703v5.43Z" transform="translate(-4 -3.25)"/><path class="cls-1" d="M707.37,80.53V34.48h11.72L733,67.09c1.28,3,2.22,5.31,2.81,6.82q1-2.52,3.13-7.39l14.08-32H763.5V80.53H756V42L738.91,80.53h-7l-17-39.2v39.2Z" transform="translate(-4 -3.25)"/><path class="cls-1" d="M763.44,80.53,786,34.48h8.38l24.07,46.05h-8.86l-6.86-13.94h-24.6L771.7,80.53Zm17-18.91h19.94l-6.14-12.75q-2.81-5.82-4.17-9.55a49.65,49.65,0,0,1-3.17,8.79Z" transform="translate(-4 -3.25)"/><path class="cls-1" d="M818.46,80.53V34.48h8l30.9,36.16V34.48h7.46V80.53h-8L825.92,44.34V80.53Z" transform="translate(-4 -3.25)"/><path class="cls-1" d="M886.68,80.53V39.91H867.3V34.48h46.62v5.43H894.46V80.53Z" transform="translate(-4 -3.25)"/><path class="cls-1" d="M917.07,80.53V34.48h7.78V80.53Z" transform="translate(-4 -3.25)"/><path class="cls-1" d="M974.38,64.39l7.78,1.53a20.39,20.39,0,0,1-8.81,11.45q-6.35,4-15.54,3.95-9.51,0-15.47-3a20.8,20.8,0,0,1-9.07-8.78,25.62,25.62,0,0,1-3.11-12.35,22.29,22.29,0,0,1,3.52-12.55,21.9,21.9,0,0,1,10-8.14,35.8,35.8,0,0,1,14.26-2.77q8.82,0,14.84,3.51a18.75,18.75,0,0,1,8.39,9.9l-7.66,1.41a14.5,14.5,0,0,0-5.94-7.32,19,19,0,0,0-9.79-2.29,23.08,23.08,0,0,0-11.34,2.54,14.31,14.31,0,0,0-6.4,6.84,22.1,22.1,0,0,0-1.84,8.84,22.67,22.67,0,0,0,2.19,10.26,14,14,0,0,0,6.8,6.55,23.23,23.23,0,0,0,10,2.16,19.83,19.83,0,0,0,11.07-2.95A14.69,14.69,0,0,0,974.38,64.39Z" transform="translate(-4 -3.25)"/><path class="cls-1" d="M982.94,65.74l7.34-.51a11,11,0,0,0,2.43,5.67,13.31,13.31,0,0,0,5.92,3.59,27.88,27.88,0,0,0,9,1.36,26.85,26.85,0,0,0,7.87-1,11,11,0,0,0,5.07-2.84,5.71,5.71,0,0,0,1.67-3.94,5.19,5.19,0,0,0-1.61-3.78,12.41,12.41,0,0,0-5.29-2.72q-2.37-.72-10.47-2.25a64.92,64.92,0,0,1-11.36-2.87,15.32,15.32,0,0,1-6.28-4.29,8.94,8.94,0,0,1-2.06-5.73,10,10,0,0,1,2.52-6.52,15.54,15.54,0,0,1,7.39-4.6,34.8,34.8,0,0,1,10.79-1.57,36.75,36.75,0,0,1,11.53,1.64,16.47,16.47,0,0,1,7.69,4.86,12,12,0,0,1,2.89,7.25l-7.47.44a8.83,8.83,0,0,0-4.07-6.59q-3.47-2.23-10.25-2.23-7.07,0-10.29,2T992.69,46A4.81,4.81,0,0,0,995,50.06c1.49,1.07,5.41,2.16,11.73,3.28a93.7,93.7,0,0,1,13,2.94,17.74,17.74,0,0,1,7.58,4.7,9.7,9.7,0,0,1,2.45,6.55,10.63,10.63,0,0,1-2.69,6.92,17.23,17.23,0,0,1-7.72,5.06A33.25,33.25,0,0,1,1008,81.32a42.46,42.46,0,0,1-13.39-1.82A18.52,18.52,0,0,1,986.17,74,13.24,13.24,0,0,1,982.94,65.74Z" transform="translate(-4 -3.25)"/></g></svg>