<svg id="svg" xmlns="http://www.w3.org/2000/svg" xmlns:xlink="http://www.w3.org/1999/xlink" width="400" height="116.27906976744187" viewBox="0, 0, 400,116.27906976744187"><g id="svgg"><path id="path0" d="M314.612 24.884 L 314.884 32.093 320.465 32.093 L 326.047 32.093 326.318 24.884 L 326.590 17.674 320.465 17.674 L 314.340 17.674 314.612 24.884 M22.750 36.341 C 4.307 40.762,1.726 72.208,19.070 81.174 C 23.833 83.637,35.055 83.870,40.233 81.615 C 43.712 80.099,43.721 80.080,43.721 74.466 C 43.721 68.247,43.688 68.206,40.453 70.326 C 30.584 76.792,20.465 71.484,20.465 59.840 C 20.465 47.655,29.345 42.237,39.497 48.227 C 43.953 50.856,43.721 51.054,43.721 44.604 C 43.721 39.048,43.678 38.957,40.459 37.612 C 36.196 35.831,27.487 35.206,22.750 36.341 M76.280 36.345 C 75.001 36.882,73.034 38.186,71.908 39.243 L 69.862 41.166 69.249 38.722 C 68.674 36.431,68.296 36.279,63.155 36.279 L 57.674 36.279 57.674 59.070 L 57.674 81.860 63.721 81.860 L 69.767 81.860 69.767 67.877 C 69.767 50.864,71.516 45.581,77.148 45.581 C 81.113 45.581,81.860 48.754,81.860 65.581 L 81.860 81.860 87.907 81.860 L 93.953 81.860 93.953 63.684 C 93.953 44.097,93.149 40.274,88.429 37.421 C 85.692 35.767,79.055 35.179,76.280 36.345 M179.692 36.225 C 177.988 36.654,175.414 38.136,173.971 39.518 L 171.348 42.031 170.716 39.155 C 170.097 36.336,169.977 36.279,164.577 36.279 L 159.070 36.279 159.070 59.070 L 159.070 81.860 165.017 81.860 L 170.964 81.860 171.326 67.674 C 171.715 52.454,172.192 50.744,176.811 48.015 C 180.372 45.912,187.662 46.085,191.395 48.362 L 194.419 50.205 194.419 44.205 C 194.419 39.198,194.117 38.043,192.596 37.229 C 189.986 35.833,183.314 35.314,179.692 36.225 M214.530 36.263 C 205.112 39.251,200.035 55.160,204.070 69.040 C 207.347 80.315,220.010 85.481,228.328 78.938 L 230.698 77.074 230.698 80.346 C 230.698 89.122,221.728 91.371,208.558 85.898 C 207.624 85.510,207.412 86.728,207.628 91.239 C 207.963 98.247,208.748 98.681,221.395 98.851 C 241.104 99.116,242.791 96.158,242.791 61.335 L 242.791 36.279 237.209 36.279 C 231.846 36.279,231.628 36.372,231.628 38.652 L 231.628 41.025 228.520 38.654 C 225.053 36.010,218.733 34.930,214.530 36.263 M365.982 36.172 C 353.551 39.366,347.466 53.898,352.069 69.398 C 357.609 88.051,385.640 88.074,391.177 69.429 C 397.263 48.937,384.072 31.525,365.982 36.172 M103.256 36.887 C 103.256 37.222,106.002 46.117,109.360 56.655 C 112.717 67.192,115.889 77.174,116.408 78.837 L 117.354 81.860 125.188 81.860 C 129.498 81.860,133.023 81.653,133.023 81.399 C 133.023 81.145,136.163 71.138,140.000 59.161 C 143.837 47.184,146.977 37.136,146.977 36.832 C 146.977 36.528,144.141 36.279,140.676 36.279 L 134.375 36.279 129.735 53.435 L 125.096 70.590 120.455 53.439 L 115.814 36.287 109.535 36.283 C 106.081 36.281,103.256 36.553,103.256 36.887 M305.116 41.395 L 305.116 46.512 309.682 46.512 L 314.248 46.512 314.566 60.276 C 315.025 80.148,316.638 82.085,333.202 82.652 L 343.256 82.997 343.256 77.816 L 343.256 72.636 336.071 72.365 C 326.526 72.004,326.543 72.041,326.525 51.860 L 326.512 36.279 315.814 36.279 L 305.116 36.279 305.116 41.395 M225.938 47.098 C 233.748 52.569,231.367 71.628,222.873 71.628 C 215.264 71.628,212.199 54.635,218.646 48.188 C 221.650 45.184,222.931 44.992,225.938 47.098 M376.965 48.500 C 384.827 57.789,378.020 77.082,368.599 72.210 C 361.399 68.487,361.439 49.478,368.653 46.503 C 371.452 45.348,375.023 46.207,376.965 48.500 M267.375 70.772 C 264.781 73.638,265.011 79.702,267.799 81.960 C 273.061 86.221,280.000 82.991,280.000 76.279 C 280.000 69.454,271.803 65.879,267.375 70.772 " stroke="none" fill="#000000" fill-rule="evenodd"></path></g></svg>