<?xml version="1.0" encoding="utf-8"?>
<!-- Generator: Adobe Illustrator 21.0.2, SVG Export Plug-In . SVG Version: 6.00 Build 0)  -->
<svg version="1.1" id="Calque_1" xmlns="http://www.w3.org/2000/svg" xmlns:xlink="http://www.w3.org/1999/xlink" x="0px" y="0px"
	 viewBox="0 0 1920 1080" enable-background="new 0 0 1920 1080" xml:space="preserve">
<g>
	<g>
		<circle fill="#00AFAA" cx="769" cy="430.7" r="9.4"/>
		<path fill="#00AFAA" d="M689.1,309.5c-121.3,0-219.7,98.3-219.7,219.7c0,121.3,98.4,219.7,219.7,219.7
			c121.3,0,219.7-98.4,219.7-219.7C908.8,407.8,810.4,309.5,689.1,309.5z M812.9,599.3H704v-17.5h108.8V599.3z M795.6,432.4
			c0,0-7.9,11.5-3.8,38.7c7.7,51.1-19.1,96.5-66.7,96.5H690v14c0,0-21.2,0-28.1,0s-20.7-1.1-26.9,4.9c-62.5,59.8-75.7,77-80.1,79.4
			c-2.8,1.5-3.5-1.8-3.5-1.8l180.8-222.9c0-40.2,43.9-50.9,61.4-21.1l23.3-8.1L795.6,432.4z"/>
	</g>
	<g>
		<path fill="#333E48" d="M1076.3,482.3h-0.5c-3.7,9.4-11,21.4-31.6,21.4c-33.7,0-47.1-28.1-47.1-77.6c0-64,22.5-73.9,44.4-73.9
			c15.5,0,27.3,7.8,32.7,20.6h0.5v-64h28.9v191.1h-27.3V482.3z M1050.1,375.2c-16.6,0-22.5,13.4-22.5,52.2
			c0,32.7,4.3,53.3,24.4,53.3c19.8,0,24.4-20.3,24.4-51.1C1076.3,395,1072.3,375.2,1050.1,375.2z"/>
		<path fill="#333E48" d="M1228.6,470c0,5.4,3.2,10.2,7.5,10.2c1.9,0,3.7-0.3,4.8-0.8v18.7c-3.5,1.6-8.6,3.5-14.2,3.5
			c-12.8,0-23.6-5.1-24.4-19h-0.5c-7.8,14.2-19,21.1-35.9,21.1c-23,0-37.5-12.8-37.5-40.4c0-32.1,13.9-38.8,33.5-45.2l22.5-6.2
			c10.4-2.9,16.9-5.9,16.9-18.5c0-13.1-4.5-21.4-19.8-21.4c-19.3,0-21.9,13.7-21.9,27.6h-27.3c0-30.5,12.6-47.4,50.6-47.4
			c25.4,0,45.8,9.9,45.8,35.3V470z M1201.3,423.9c-7.5,5.9-23.6,9.4-32.1,13.4c-8.3,4-11.8,12.6-11.8,23.3c0,12,5.9,21.7,17.9,21.7
			c17.4,0,26-13.1,26-34.3V423.9z"/>
		<path fill="#333E48" d="M1247.9,355.9h19.8v-41h28.9v41h23.6v21.4h-23.6v85.9c0,11.2,3.2,15.3,13.1,15.3c4.3,0,7.8-0.3,10.4-0.8
			v21.4c-6.2,1.6-14.2,2.4-23.3,2.4c-19.5,0-29.2-5.4-29.2-34.8v-89.4h-19.8V355.9z"/>
		<path fill="#333E48" d="M1432.3,470c0,5.4,3.2,10.2,7.5,10.2c1.9,0,3.7-0.3,4.8-0.8v18.7c-3.5,1.6-8.6,3.5-14.2,3.5
			c-12.8,0-23.6-5.1-24.4-19h-0.5c-7.8,14.2-19,21.1-35.9,21.1c-23,0-37.5-12.8-37.5-40.4c0-32.1,13.9-38.8,33.5-45.2l22.5-6.2
			c10.4-2.9,16.9-5.9,16.9-18.5c0-13.1-4.5-21.4-19.8-21.4c-19.3,0-21.9,13.7-21.9,27.6H1336c0-30.5,12.6-47.4,50.6-47.4
			c25.4,0,45.8,9.9,45.8,35.3V470z M1405,423.9c-7.5,5.9-23.6,9.4-32.1,13.4c-8.3,4-11.8,12.6-11.8,23.3c0,12,5.9,21.7,17.9,21.7
			c17.4,0,26-13.1,26-34.3V423.9z"/>
		<path fill="#333E48" d="M1004.1,551.1h28.9v28.9h-28.9V551.1z M1004.1,600.4h28.9v144h-28.9V600.4z"/>
		<path fill="#333E48" d="M1064.8,553.3h28.9v107.3h0.5l43.6-60.2l33.5-0.3l-43.4,55.7l49,88.6h-31.6l-35.3-65.6l-16.3,19.8v45.8
			h-28.9V553.3z"/>
		<path fill="#333E48" d="M1265,727.5h-0.8c-7.2,12.8-20.9,20.6-36.9,20.6c-21.4,0-35.9-9.9-35.9-47.1V600.4h28.9v103.3
			c0,16.1,7.2,21.4,19.5,21.4s23.6-8,23.6-24.1V600.4h28.9v144H1265V727.5z"/>
	</g>
</g>
</svg>
