<svg id="Layer_1" data-name="Layer 1" xmlns="http://www.w3.org/2000/svg" viewBox="0 0 220 34.41"><defs><style>.cls-1{fill:#2b4258;}.cls-2,.cls-3{fill:#f0651b;}.cls-3{fill-rule:evenodd;}</style></defs><title>R4</title><path class="cls-1" d="M78.06,15.81c.07,4.2-2.48,8.42-8.25,8.42H63.33V7.71h6.48C75.46,7.71,78,11.74,78.06,15.81ZM66.42,21.23h3.39c3.75,0,5.23-2.73,5.16-5.44s-1.58-5.14-5.16-5.14H66.42Z"/><path class="cls-1" d="M82.66,19.44c.19,1.44,1.44,2.48,3.46,2.48a4.76,4.76,0,0,0,3.11-1.09l1.84,1.82a7.16,7.16,0,0,1-5,1.88c-4,0-6.38-2.47-6.38-6.19a5.81,5.81,0,0,1,6.17-6.08c3.89,0,6.32,2.4,5.87,7.18ZM89,17.06c-.19-1.5-1.36-2.26-3-2.26a3.13,3.13,0,0,0-3.25,2.26Z"/><path class="cls-1" d="M97.32,9.33v3.3h3.21v2.48H97.3v5a1.45,1.45,0,0,0,1.51,1.65,3.38,3.38,0,0,0,1.39-.36l.8,2.45a6.59,6.59,0,0,1-2.38.5c-2.52.09-4.17-1.34-4.17-4.24v-5H92.28V12.63h2.17v-3Z"/><path class="cls-1" d="M104.94,19.44c.19,1.44,1.44,2.48,3.46,2.48a4.76,4.76,0,0,0,3.11-1.09l1.84,1.82a7.13,7.13,0,0,1-5,1.88c-4,0-6.39-2.47-6.39-6.19a5.82,5.82,0,0,1,6.18-6.08c3.88,0,6.31,2.4,5.86,7.18Zm6.32-2.38c-.19-1.5-1.37-2.26-3-2.26A3.13,3.13,0,0,0,105,17.06Z"/><path class="cls-1" d="M118.71,12.61l.21,1.34a3.45,3.45,0,0,1,3.28-1.65,4.44,4.44,0,0,1,3,1.11l-1.3,2.5a2.85,2.85,0,0,0-2.07-.76,2.69,2.69,0,0,0-2.9,3v6.13h-2.87V12.61Z"/><path class="cls-1" d="M133.82,24.23V18c0-1.54-.8-2.93-2.38-2.93A2.65,2.65,0,0,0,129,18v6.22h-2.88V12.59h2.67L129,14A3.35,3.35,0,0,1,132,12.4a3.47,3.47,0,0,1,3.44,2.17,4.21,4.21,0,0,1,3.89-2.12c3.29,0,4.92,2,4.92,5.51v6.27h-2.87V18c0-1.53-.64-2.83-2.19-2.83A2.65,2.65,0,0,0,136.69,18v6.22Z"/><path class="cls-1" d="M150.16,9.33a1.7,1.7,0,0,1-3.4,0A1.7,1.7,0,0,1,150.16,9.33ZM147,12.56V24.23h2.88V12.56Z"/><path class="cls-1" d="M160.86,24.23V18.15c0-1.77-1-3.11-2.8-3.11a3.05,3.05,0,0,0-3,3.25v5.94h-2.85V12.59h2.57l.19,1.58a5.2,5.2,0,0,1,3.81-1.75c2.73,0,4.93,2.05,4.93,5.7v6.11Z"/><path class="cls-1" d="M168.48,19.44c.19,1.44,1.44,2.48,3.46,2.48a4.76,4.76,0,0,0,3.11-1.09l1.84,1.82a7.13,7.13,0,0,1-5,1.88c-4,0-6.39-2.47-6.39-6.19a5.81,5.81,0,0,1,6.17-6.08c3.89,0,6.32,2.4,5.87,7.18Zm6.31-2.38c-.18-1.5-1.36-2.26-3-2.26a3.13,3.13,0,0,0-3.25,2.26Z"/><path class="cls-1" d="M191.65,7.76V24.23H189l-.19-1.61A4.22,4.22,0,0,1,185,24.49a5.7,5.7,0,0,1-6-6.08c0-4,2.52-6.08,5.91-6.08a4.8,4.8,0,0,1,3.81,1.86V7.76Zm-9.73,10.65a3.34,3.34,0,1,0,6.67,0,3.32,3.32,0,0,0-3.37-3.4A3.21,3.21,0,0,0,181.92,18.41Z"/><path class="cls-2" d="M211.13,21.12h-8.62l-1.41,3.11h-3.37l7.39-16.52h3.4l7.39,16.52h-3.39Zm-4.31-10-3.06,7h6.12Z"/><rect class="cls-2" x="216.91" y="7.71" width="3.09" height="16.52"/><path class="cls-3" d="M11.87,3A3.25,3.25,0,1,1,8.81,6.44,3.24,3.24,0,0,1,11.87,3M18,.39a1.76,1.76,0,0,1,1.87,1.67A1.78,1.78,0,1,1,18,.39ZM40.87,10a1.78,1.78,0,1,1-1.67,1.88A1.79,1.79,0,0,1,40.87,10ZM2.53,15.42A2.68,2.68,0,1,1,0,18.25,2.67,2.67,0,0,1,2.53,15.42Zm6.7,6.1A1.78,1.78,0,1,1,7.56,23.4,1.79,1.79,0,0,1,9.23,21.52Zm22.52,7.29a2.78,2.78,0,1,1-2.12,1.1,9.6,9.6,0,0,0-1.69-3.49l-.34,0A3.43,3.43,0,0,1,24,23.21a3.48,3.48,0,0,1,.31-1.64,11.51,11.51,0,0,0-3.54-3.12l0,0a3.42,3.42,0,0,1-1.23.3,3.47,3.47,0,1,1,3-2.18h0A10.66,10.66,0,0,0,25.82,20a3.43,3.43,0,0,1,1.39-.39,3.38,3.38,0,0,1,2,.51,12.35,12.35,0,0,0,4.22-3.76h0a1.33,1.33,0,0,1,0-.28,2.6,2.6,0,1,1,1.69,2.29l0,0a15.13,15.13,0,0,0-4.44,3.46,3.71,3.71,0,0,1,.21,1,3.47,3.47,0,0,1-1,2.63A9.14,9.14,0,0,0,31.75,28.81ZM16.81,20.63a2.9,2.9,0,1,1-2.72,3.06,2.93,2.93,0,0,1,.15-1.11h0a5.58,5.58,0,0,0-2.86-3,3.23,3.23,0,1,1,2.09-3.21,3.32,3.32,0,0,1-.23,1.41,6,6,0,0,0,2.84,2.92l.05,0A3.87,3.87,0,0,1,16.81,20.63Zm19,1a2.56,2.56,0,0,1,.92.12l0,0a6.21,6.21,0,0,0,3.72-3.08h0a2,2,0,1,1,2.11,2,2.26,2.26,0,0,1-.45,0h0a8,8,0,0,0-3.75,3.11h0a1.36,1.36,0,0,1,0,.2,2.47,2.47,0,1,1-2.6-2.33ZM20.1,5.75a2.5,2.5,0,0,1,1.13.2h0a5.24,5.24,0,0,0,3-2.08,2.3,2.3,0,0,1-.05-.45,3.22,3.22,0,1,1,3.39,3A3.19,3.19,0,0,1,25.71,6a4.36,4.36,0,0,0-3,2.11h0A2.48,2.48,0,1,1,20.1,5.75Zm15.11-.82a2.49,2.49,0,0,1,.28,5,2.57,2.57,0,0,1-1.14-.2h0A5.55,5.55,0,0,0,31.08,12a3.11,3.11,0,0,1,.06.44,3.18,3.18,0,1,1-3.36-3,3.15,3.15,0,0,1,1.82.45h0A6.7,6.7,0,0,0,32.87,7.6v0A2.49,2.49,0,0,1,35.21,4.93ZM4.49,7.25A2.68,2.68,0,1,1,2,10.08,2.68,2.68,0,0,1,4.49,7.25Z"/></svg>