<?xml version="1.0" encoding="UTF-8" standalone="no"?>
<svg width="609px" height="205px" viewBox="0 0 609 205" version="1.1" xmlns="http://www.w3.org/2000/svg" xmlns:xlink="http://www.w3.org/1999/xlink">
    <!-- Generator: Sketch 41.2 (35397) - http://www.bohemiancoding.com/sketch -->
    <title>gnarly-text</title>
    <desc>Created with Sketch.</desc>
    <defs></defs>
    <g id="Page-1" stroke="none" stroke-width="1" fill="none" fill-rule="evenodd">
        <g id="gnarly-text">
            <g id="g14" transform="translate(305.000000, 95.999995) scale(1, -1) translate(-305.000000, -95.999995) translate(6.000000, -0.000005)">
                <g id="g20" transform="translate(492.220654, 122.033864)" fill="#393C42">
                    <path d="M23.9999994,11.9999997 C23.9999994,8.56666645 22.8173328,5.81733319 20.4573328,3.8559999 C18.1466662,1.84399995 15.3759996,0.863999978 12.1946664,0.863999978 C9.01599977,0.863999978 6.24399984,1.84399995 3.93333323,3.8559999 C1.57066663,5.81733319 0.393333323,8.56666645 0.393333323,11.9999997 C0.393333323,15.4826663 1.57066663,18.1813329 3.93333323,20.1933328 C6.24399984,22.1559994 9.01599977,23.1359994 12.1946664,23.1359994 C15.3759996,23.1359994 18.1466662,22.1559994 20.4573328,20.1933328 C22.8173328,18.1813329 23.9999994,15.4826663 23.9999994,11.9999997" id="path22"></path>
                </g>
                <polygon id="path24" fill="#393C42" points="494.615988 113.52533 514.371987 113.52533 514.371987 46.8973322 494.615988 46.8973322"></polygon>
                <g id="g26" transform="translate(251.950260, 46.021066)" fill="#393C42">
                    <path d="M43.9999989,51.9999987 C42.2053323,52.4426654 40.0493323,52.8826653 37.6386657,53.3746653 C35.1733325,53.865332 32.5559992,54.0599986 29.7346659,54.0599986 C28.502666,54.0599986 26.9653327,53.9626653 25.2173327,53.7666653 C23.4226661,53.5226653 22.0893328,53.325332 21.2146661,53.0306653 L21.2146661,0.877333311 L0.995999975,0.877333311 L0.995999975,65.4919984 C4.58799989,66.718665 8.89733311,67.846665 13.8239997,68.9266649 C18.7519995,70.0066649 24.2439994,70.5453316 30.2973326,70.5453316 C31.3773325,70.5453316 32.7106658,70.4973316 34.2506658,70.3493316 C35.7919991,70.2519982 37.3293324,70.0559982 38.867999,69.8599983 C40.4093323,69.6146649 41.947999,69.3679983 43.4853322,69.0746649 C45.0266655,68.7799983 46.3093322,68.3893316 47.3879988,67.946665 L43.9999989,51.9999987" id="path28"></path>
                </g>
                <g id="g30" transform="translate(526.648387, 44.810666)" fill="#393C42">
                    <path d="M49.6666654,36.3333324 C49.6666654,42.3186656 48.4333321,47.0293321 45.9706655,50.4146654 C43.4546656,53.8479986 39.9146656,55.5653319 35.2973324,55.5653319 C30.6773325,55.5653319 27.1373326,53.8479986 24.5679994,50.4146654 C22.0559994,47.0293321 20.7733328,42.3186656 20.7733328,36.3333324 C20.7733328,30.3973325 22.0559994,25.638666 24.5679994,22.1559994 C27.1373326,18.6199995 30.6773325,16.9053329 35.2973324,16.9053329 C39.9146656,16.9053329 43.4546656,18.6199995 45.9706655,22.1559994 C48.4333321,25.638666 49.6666654,30.3973325 49.6666654,36.3333324 M70.3493315,36.3333324 C70.3493315,30.9839992 69.5253316,26.0799993 67.8866649,21.6146661 C66.242665,17.1493329 63.8799984,13.3706663 60.7999985,10.1826664 C57.7239985,7.0439998 54.0786653,4.58933319 49.7693321,2.8719999 C45.4573322,1.15466661 40.6333323,0.271999968 35.2973324,0.271999968 C30.0613326,0.271999968 25.2879993,1.15466661 20.9786661,2.8719999 C16.6666662,4.58933319 12.9706663,7.0439998 9.94533306,10.1826664 C6.86533314,13.3706663 4.45199986,17.1493329 2.70799991,21.6146661 C1.01733328,26.0799993 0.142666638,30.9839992 0.142666638,36.3333324 C0.142666638,41.7293323 1.01733328,46.5893321 2.8119999,51.0026654 C4.55866653,55.4186653 7.02133313,59.1959985 10.1493331,62.2866651 C13.229333,65.426665 16.9759996,67.8319983 21.2346661,69.5493316 C25.5453327,71.3146649 30.2133326,72.1493315 35.2973324,72.1493315 C40.4813323,72.1493315 45.2013322,71.3146649 49.5106654,69.5493316 C53.769332,67.8319983 57.4666652,65.426665 60.5453318,62.2866651 C63.6239984,59.1959985 66.0359983,55.4186653 67.7306649,51.0026654 C69.4746649,46.5893321 70.3493315,41.7293323 70.3493315,36.3333324" id="path32"></path>
                </g>
                <g id="g34" transform="translate(302.905059, 44.916532)" fill="#393C42">
                    <path d="M47.9999988,42.9999989 C47.9493321,44.6186655 47.6373321,46.2359988 47.1266655,47.8066654 C46.6146655,49.3266654 45.8413322,50.749332 44.8159989,51.9266653 C43.7933322,53.1546653 42.4573323,54.1346653 40.8653323,54.9199986 C39.3253324,55.7053319 37.3226657,56.0973319 34.9626658,56.0973319 C32.7053325,56.0973319 30.7533326,55.7053319 29.1653326,54.9693319 C27.5213326,54.2319986 26.1893327,53.301332 25.058666,52.0746653 C23.9813327,50.849332 23.1599994,49.4746654 22.5439994,47.8546654 C21.9826661,46.2359988 21.5679995,44.6186655 21.2639995,42.9999989 L47.9999988,42.9999989 Z M0.526666654,35.5893324 C0.526666654,41.6746656 1.50399996,46.9719988 3.45466658,51.4866654 C5.35066653,56.0493319 7.9159998,59.8253318 11.0973331,62.8199984 C14.2839996,65.8613317 17.9253329,68.1666649 22.0333328,69.7359982 C26.1399993,71.2573315 30.3946659,72.0439982 34.7079991,72.0439982 C44.8666655,72.0439982 52.8759987,69.0986649 58.7253319,63.1626651 C64.6279984,57.2253319 67.5519983,48.5413321 67.5519983,37.011999 C67.5519983,35.8853324 67.4999983,34.6559991 67.4493316,33.3319991 C67.3439983,31.9599992 67.242665,30.7813325 67.1413317,29.7519992 L21.2639995,29.7519992 C21.7239995,25.7759993 23.6759994,22.6386661 27.110666,20.2826661 C30.5506659,17.9279995 35.1679991,16.7999996 40.9693323,16.7999996 C44.6626656,16.7999996 48.3039988,17.0933329 51.897332,17.7306662 C55.4413319,18.4173328 58.3639985,19.2026662 60.6213318,20.1359995 L63.3426651,4.43466653 C62.2653318,3.94399988 60.8293318,3.40399989 59.0333319,2.91333324 C57.1826652,2.37599992 55.1839986,1.93333326 52.977332,1.54133327 C50.7693321,1.14799995 48.3599988,0.805333288 45.8413322,0.558666628 C43.3279989,0.313333301 40.7626656,0.166666638 38.247999,0.166666638 C31.8346659,0.166666638 26.2413327,1.09866661 21.4666661,2.91333324 C16.7466662,4.73066652 12.7919997,7.1839998 9.66533309,10.3706664 C6.5346665,13.5119996 4.22399989,17.2399995 2.73599993,21.5559994 C1.2453333,25.9239993 0.526666654,30.5839992 0.526666654,35.5893324 L0.526666654,35.5893324 Z" id="path36"></path>
                </g>
                <g id="g38" transform="translate(380.901724, 46.775199)" fill="#393C42">
                    <path d="M39.999999,36.3333324 C39.999999,42.5626656 39.1813324,46.9773321 37.4853324,49.5786654 C35.7906658,52.1786653 32.9173325,53.453332 28.8666659,53.453332 C27.5813326,53.453332 26.3013327,53.4039986 24.9119994,53.2586653 C23.5759994,53.161332 22.2439994,52.9639987 21.0106661,52.8159987 L21.0106661,0.122666639 L0.742666648,0.122666639 L0.742666648,66.062665 C2.48799994,66.5053316 4.49066655,66.9453316 6.79733316,67.4359983 C9.10799977,67.8773316 11.5719997,68.3199983 14.137333,68.7133316 C16.7013329,69.1053316 19.3706662,69.3986649 22.0919994,69.5959982 C24.8093327,69.8399982 27.4813326,69.9386649 30.0959992,69.9386649 C35.2306658,69.9386649 39.4373323,69.3026649 42.6186656,68.0746649 C45.8506655,66.798665 48.5226655,65.3279983 50.5706654,63.5613317 C53.4999987,65.5719983 56.7826652,67.142665 60.5799985,68.2706649 C64.3253317,69.3986649 67.766665,69.9386649 70.9453316,69.9386649 C76.6426648,69.9386649 81.3133313,69.2026649 85.0066645,67.6826649 C88.6519978,66.162665 91.577331,64.002665 93.7319977,61.2546651 C95.9373309,58.4586652 97.4293309,55.1706653 98.2479975,51.393332 C99.0173309,47.5653321 99.4279975,43.3479989 99.4279975,38.687999 L99.4279975,0.122666639 L79.2093314,0.122666639 L79.2093314,36.3333324 C79.2093314,42.5626656 78.3906647,46.9773321 76.6959981,49.5786654 C75.0519981,52.1786653 72.1786649,53.453332 68.0719983,53.453332 C66.994665,53.453332 65.506665,53.2079986 63.5559984,52.669332 C61.6079985,52.1786653 60.0146652,51.541332 58.7346652,50.7559987 C59.3466652,48.7439988 59.7573318,46.6333321 59.9639985,44.4266655 C60.1159985,42.2199989 60.2226652,39.863999 60.2226652,37.3613324 L60.2226652,0.122666639 L39.999999,0.122666639 L39.999999,36.3333324" id="path40"></path>
                </g>
                <g id="g42" transform="translate(171.229329, 45.020666)" fill="#393C42">
                    <path d="M46.6666655,17.3333329 C45.6399989,17.1359996 44.4079989,16.9893329 42.8693323,16.8906662 C41.327999,16.7439996 39.635999,16.6959996 37.8386657,16.6959996 C32.2973325,16.6959996 28.1399993,18.5106662 25.318666,22.1399994 C22.5479994,25.7719994 21.1093328,30.5799992 21.1093328,36.5159991 C21.1093328,48.9773321 25.9333327,55.2079986 35.5306658,55.2079986 C37.5813324,55.2079986 39.635999,54.9626653 41.6866656,54.4226653 C43.7413322,53.933332 45.3853322,53.2479987 46.6666655,52.5106654 L46.6666655,17.3333329 Z M46.6666655,94.9186643 L46.6666655,68.602665 C44.4079989,69.5346649 42.1493323,70.2706649 39.9426657,70.8106649 C37.7359991,71.2999982 35.2226658,71.5453315 32.3999992,71.5453315 C27.318666,71.5453315 22.8013328,70.7626649 18.9026662,69.0919983 C14.9506663,67.474665 11.6159997,65.0693317 8.89466644,61.9786651 C6.17599985,58.8386652 4.1239999,55.061332 2.68533327,50.5973321 C1.2493333,46.1319988 0.478666655,41.1786656 0.478666655,35.6333324 C0.478666655,30.1879992 1.35199997,25.2799994 2.99199993,20.9159995 C4.68666655,16.5479996 7.09866649,12.8186663 10.2813331,9.72799976 C13.4626663,6.68533317 17.3106662,4.27999989 21.9306661,2.6626666 C26.5479993,0.994666642 31.7826659,0.209333328 37.6853324,0.209333328 C40.1493323,0.209333328 42.7133323,0.309333326 45.3853322,0.502666654 C48.0519988,0.749333315 50.6693321,0.994666642 53.2346653,1.38666663 C55.7999986,1.73199996 58.2626652,2.12399995 60.6253318,2.6146666 C62.9866651,3.05599992 65.0399984,3.54533324 66.8853317,4.08666656 L66.8853317,100.149331 L46.6666655,94.9186643 Z" id="path44"></path>
                </g>
                <g id="g46" transform="translate(0.668533, 0.036400)" fill="#393C42">
                    <path d="M44.3333322,69.3333316 C38.4093323,66.646665 26.8799993,60.6333318 27.9733326,54.1159986 C29.4773326,50.1093321 34.1719991,54.3439986 35.9039991,56.0293319 C39.639999,59.5386652 42.6013322,64.4133317 44.3333322,69.3333316 M79.6933313,83.7306646 C75.7746647,73.4799982 64.3373317,68.6039983 61.1479984,70.3346649 C59.5519985,71.2013316 61.2839984,74.4359981 61.3293318,76.6679981 C59.0053318,75.7573314 55.1773319,74.0719981 52.853332,73.1146648 C58.4133318,68.9693316 61.2839984,61.8159985 61.2386651,55.0266653 C61.2386651,48.0573321 58.3693318,41.6333323 52.9906653,37.2133324 C62.5599984,23.0466661 57.6866652,10.8373331 44.5159989,1.31466663 L43.6946655,0.767999981 L43.4213322,1.72399996 C41.4639989,8.46666646 39.0013323,14.161333 34.3533324,19.5386662 C32.0293325,22.2253328 29.3853326,24.686666 26.7893326,27.146666 C23.3719994,30.3813326 20.0919995,33.6599992 16.9919996,37.1679991 C3.95999988,51.0186654 -1.19066666,75.0279981 0.497333296,93.5706643 C1.36133327,103.137331 4.27999987,112.294664 8.74399976,120.76933 C12.2986663,127.511997 16.8093329,133.707997 22.0053328,139.263997 C33.4879991,151.566663 48.7079988,161.271996 64.8853317,166.054663 C79.1013313,170.289329 95.3679976,171.019996 108.903997,164.049329 C111.090664,162.910663 114.371997,160.906663 116.194664,159.402663 C117.335997,158.355996 118.471997,157.261329 119.566664,156.213329 C119.702664,156.122663 119.84133,155.985329 119.931997,155.850663 L183.226662,188.150662 C188.465329,190.746662 192.383995,190.746662 193.979995,188.877329 C195.847995,186.691995 193.251995,182.137329 189.561329,179.447996 L135.33333,140.08533 C136.28933,136.942663 134.694663,132.386663 132.323997,129.698663 C139.571996,127.19333 133.190663,116.578664 130.00133,112.795997 C120.93333,102.043997 104.301331,93.6159977 89.4919977,87.4653311 C85.5266645,85.7799979 83.2493312,85.0493312 79.6933313,83.7306646" id="path48"></path>
                </g>
                <g id="g50" transform="translate(4.319867, 8.896133)" fill="#55BFCE">
                    <path d="M125.666663,111.999997 C129.722663,117.102664 126.89733,120.063997 124.071997,117.19333 C118.511997,111.499997 110.082664,109.541331 102.473331,110.770664 C91.3519977,112.638664 90.8546644,114.323997 92.721331,115.96533 C105.845331,111.179997 121.10933,117.42133 127.442663,127.763997 C130.17733,131.68133 121.018664,134.82533 115.59733,142.159996 C89.6679977,177.149329 8.51066643,146.623996 0.763999956,85.4386645 C-1.60666665,67.034665 3.54266655,46.6706655 16.2133329,32.3199992 C25.6893327,21.5666661 35.9879991,17.1013329 41.8199989,0.198666662 C53.1679986,9.94933308 51.389332,20.9733328 43.0986656,30.6319992 C57.2679985,38.0133324 55.2173319,57.1946652 45.2386655,63.0253318 C40.591999,45.9413322 23.9119994,33.3213325 20.0386661,45.4399989 C17.5333329,57.7866652 37.8573324,65.9853317 70.4373315,78.331998 C97.6879975,88.5386645 115.27733,96.9666642 125.666663,111.999997" id="path52"></path>
                </g>
                <g id="g54" transform="translate(20.319866, 50.229465)" fill="#FFFFFF">
                    <path d="M109.666664,70.6666649 C113.722664,75.7693314 110.897331,78.7306647 108.071997,75.8599981 C103.289331,70.9399982 96.0879976,68.7973316 89.5253311,69.1173316 C78.315998,69.9373316 69.3839982,72.1239982 61.1826651,71.2599982 C45.0493322,69.6199983 29.3293326,59.4146652 20.8999995,50.8039987 C6.68266647,36.2239991 -8.99333313,5.97466652 6.8199998,0.0959999976 C5.6346665,0.826666646 4.67733319,2.14666661 4.03866654,4.10666656 C1.53333327,16.4533329 21.8573328,24.6519994 54.4373319,36.9986657 C81.6879979,47.2053322 99.2773308,55.6333319 109.666664,70.6666649" id="path56"></path>
                </g>
                <g id="g58" transform="translate(59.886799, 74.357198)" fill="#55BFCE">
                    <path d="M0.3333333,22.6666661 C8.71866642,18.5666662 7.03333313,4.17066656 5.8026665,0.569333319 C21.7053328,5.08133321 16.9666662,28.6333326 24.350666,35.8333324 C15.0986663,36.1066658 -2.21866664,26.8133327 0.3333333,22.6666661" id="path60"></path>
                </g>
                <g id="g62" transform="translate(84.440798, 130.333730)" fill="#393C42">
                    <path d="M2.6666666,9.3333331 C4.94399988,10.5173331 7.72533314,9.69733309 8.95599978,7.41866648 C10.1399997,5.18666654 9.2733331,2.40799994 7.03999982,1.1773333 C4.80799988,-0.0066666665 1.98399995,0.814666646 0.797333313,3.09066659 C-0.431999989,5.32399987 0.433333323,8.10266646 2.6666666,9.3333331" id="path64"></path>
                </g>
                <g id="g66" transform="translate(116.369864, 136.374397)" fill="#55BFCE">
                    <path d="M9.3333331,1.3333333 L73.1293315,45.7533322 C74.9053315,47.0279988 77.2773314,49.7626654 76.3186648,51.0839987 C75.3639981,52.4039987 72.5826649,51.6759987 70.2133316,50.6279987 L1.21999997,13.361333 C-1.01066664,8.71466645 3.49999991,-1.08133331 9.3333331,1.3333333" id="path68"></path>
                </g>
                <g id="g70" transform="translate(116.098797, 137.166930)" fill="#FFFFFF">
                    <path d="M3.9999999,9.3333331 L70.6666649,48.5586655 C73.5826648,50.2906654 74.7226648,50.2453321 76.4973314,50.4279987 C75.4959981,51.565332 72.7613315,50.8826654 70.4839982,49.8359988 L1.49199996,12.569333 C-0.191999995,9.06133311 1.99466662,2.54533327 5.68533319,0.677333316 C4.36399989,3.54799991 3.49866658,6.5546665 3.9999999,9.3333331" id="path72"></path>
                </g>
                <g id="g74" transform="translate(17.898266, 120.718664)" fill="#25ABAD">
                    <path d="M3.9999999,8.3333331 C6.18666651,8.69733309 7.87466647,7.19333313 7.8279998,4.95999985 C7.8279998,2.72933324 6.05199985,0.631999959 3.86533324,0.267999968 C1.72266662,-0.0946666893 0.0346666658,1.40799994 0.0826666646,3.59466655 C0.0826666646,5.8266665 1.85733329,7.92266644 3.9999999,8.3333331" id="path76"></path>
                </g>
                <g id="g78" transform="translate(30.840399, 135.311997)" fill="#25ABAD">
                    <path d="M3.9999999,7.9999998 C5.91466652,8.31866646 7.41733315,6.99733316 7.37066648,5.03733321 C7.32533315,3.03199992 5.77599986,1.21199997 3.86266657,0.846666645 C1.94933328,0.526666653 0.443999989,1.84933329 0.490666654,3.8079999 C0.535999987,5.76666652 2.08533328,7.63599981 3.9999999,7.9999998" id="path80"></path>
                </g>
                <g id="g82" transform="translate(68.650398, 155.171996)" fill="#25ABAD">
                    <path d="M5.3333332,6.9999998 C7.29333315,6.90933314 8.47733312,5.26933318 7.9759998,3.35599989 C7.51999981,1.44133327 5.56133319,-0.0160000246 3.64799991,0.0759999731 C1.73066662,0.166666638 0.547999986,1.80799993 1.00399997,3.71999988 C1.45866663,5.6346665 3.41866658,7.0919998 5.3333332,6.9999998" id="path84"></path>
                </g>
                <g id="g86" transform="translate(81.634398, 158.464796)" fill="#25ABAD">
                    <path d="M4.3333332,5.6666665 C5.92799983,5.30266651 6.70133314,3.84533321 6.06533316,2.29599992 C5.42666651,0.793333289 3.60399988,-0.165333354 2.05599992,0.154666638 C0.461333297,0.518666629 -0.316000017,1.97733326 0.322666634,3.52533322 C0.959999951,5.02799985 2.78266657,5.98666649 4.3333332,5.6666665" id="path88"></path>
                </g>
                <g id="g90" transform="translate(32.310666, 129.049330)" fill="#25ABAD">
                    <path d="M2.6666666,5.3333332 C4.07733323,5.56133319 5.21866654,4.55866655 5.17199987,3.09999992 C5.17199987,1.64266663 3.98666657,0.275999993 2.5746666,0.0466666655 C1.16266664,-0.226666661 0.0693333316,0.775999981 0.0693333316,2.23466661 C0.114666664,3.69199991 1.2533333,5.05999987 2.6666666,5.3333332" id="path92"></path>
                </g>
                <g id="g94" transform="translate(11.789600, 111.950664)" fill="#25ABAD">
                    <path d="M2.9999999,5.6666665 C4.45866653,5.93866649 5.64399983,4.89199985 5.5986665,3.38666656 C5.5986665,1.8386666 4.3693332,0.426666631 2.90933324,0.153333305 C1.40533327,-0.0746666898 0.265333302,0.927999952 0.265333302,2.43066658 C0.313333301,3.97999988 1.49599994,5.43733317 2.9999999,5.6666665" id="path96"></path>
                </g>
                <g id="g98" transform="translate(131.088397, 146.286130)" fill="#25ABAD">
                    <path d="M2.9999999,12.333333 L0.039999974,10.7386664 C0.265333302,6.41066648 3.81999988,1.17066661 6.37066648,0.305333301 C4.36666653,3.35733322 2.54533324,8.64399976 2.9999999,12.333333 M18.9026662,20.9426661 L16.3066662,19.5306662 C16.6253329,15.6586663 19.8146661,11.0119997 21.4093328,10.7386664 C20.1786661,12.605333 18.5839995,17.7986662 18.9026662,20.9426661 M34.6239991,29.4626659 L32.6186658,28.3693326 C32.5733325,25.818666 34.4426658,21.9919994 36.5359991,21.4439994 C35.5346658,23.0386661 34.3039991,26.3199993 34.6239991,29.4626659 M49.7533321,37.6173324 L48.0199988,36.6613324 C48.1586654,34.9746658 50.1173321,31.8319992 51.2106654,31.3306659 C50.7999987,32.5599992 49.5706654,35.0653324 49.7533321,37.6173324" id="path100"></path>
                </g>
            </g>
        </g>
    </g>
</svg>