<svg id="svg" xmlns="http://www.w3.org/2000/svg" xmlns:xlink="http://www.w3.org/1999/xlink" width="400" height="160" viewBox="0, 0, 400,160" version="1.1"><g id="svgg"><path id="path0" d="M128.655 38.829 C 126.668 41.025,126.091 118.434,128.035 122.066 C 129.014 123.895,130.365 124.000,152.964 124.000 C 178.774 124.000,180.000 123.754,180.000 118.584 C 180.000 113.527,177.892 113.000,157.671 113.000 L 139.000 113.000 139.000 99.500 L 139.000 86.000 152.929 86.000 C 168.577 86.000,170.361 85.328,169.804 79.647 C 169.341 74.924,166.482 74.032,151.750 74.015 L 139.000 74.000 139.000 61.500 L 139.000 49.000 156.545 49.000 C 177.947 49.000,183.144 46.235,176.755 38.250 C 174.938 35.978,130.754 36.510,128.655 38.829 M190.557 39.223 C 187.958 42.933,188.298 111.856,190.943 117.684 C 194.274 125.020,205.065 127.882,208.667 122.385 C 210.700 119.283,208.956 114.797,205.466 114.149 C 200.973 113.316,201.000 113.550,201.000 76.033 C 201.000 42.695,200.878 40.199,199.171 38.655 C 196.561 36.293,192.418 36.566,190.557 39.223 M40.942 39.774 C -1.945 56.016,3.087 116.505,47.965 124.201 C 88.958 131.230,115.092 79.961,85.565 50.435 C 74.518 39.388,54.555 34.618,40.942 39.774 M69.468 51.910 C 80.099 57.143,86.764 67.192,87.750 79.474 C 88.468 88.420,87.839 88.261,71.982 75.485 C 63.869 68.949,56.815 64.001,55.613 64.002 C 54.443 64.003,46.579 69.362,38.000 76.002 L 22.500 88.000 22.208 81.650 C 21.086 57.276,47.107 40.901,69.468 51.910 M232.718 63.033 C 206.052 69.724,205.182 117.571,231.591 124.904 C 247.737 129.386,270.612 118.755,262.429 110.571 C 260.166 108.309,256.918 108.628,251.523 111.643 C 239.832 118.177,225.000 111.627,225.000 99.930 C 225.000 99.506,233.310 99.011,243.466 98.829 C 264.212 98.459,264.751 98.277,265.685 91.315 C 268.157 72.884,251.253 58.382,232.718 63.033 M344.718 63.030 C 330.917 66.503,325.642 75.028,325.557 94.000 C 325.458 115.820,333.982 126.000,352.353 126.000 C 370.780 126.000,380.493 114.904,380.367 94.000 C 380.227 70.799,365.317 57.846,344.718 63.030 M269.655 64.829 C 266.949 67.819,267.513 69.750,279.102 97.202 C 290.913 125.178,290.783 124.961,295.724 124.985 C 299.664 125.003,298.846 126.497,311.894 95.455 C 323.636 67.517,324.258 63.000,316.362 63.000 C 312.362 63.000,305.919 75.441,297.290 99.829 C 295.300 105.454,295.303 105.460,287.063 85.090 C 277.702 61.948,275.052 58.865,269.655 64.829 M246.904 75.265 C 249.844 76.776,252.594 80.568,253.421 84.250 L 254.038 87.000 239.412 87.000 C 226.486 87.000,224.857 86.816,225.393 85.418 C 225.727 84.548,226.000 83.458,226.000 82.995 C 226.000 76.826,239.923 71.677,246.904 75.265 M361.102 76.263 C 370.826 82.740,370.920 107.413,361.240 112.359 C 347.539 119.360,336.968 111.172,337.022 93.601 C 337.072 77.309,349.374 68.452,361.102 76.263 M70.252 87.928 C 84.644 99.437,84.429 98.812,76.417 105.865 C 63.272 117.435,43.781 116.590,31.250 103.907 C 28.912 101.541,27.000 99.272,27.000 98.864 C 27.000 97.284,55.406 76.091,56.440 76.900 C 57.023 77.356,63.238 82.319,70.252 87.928 " stroke="none" fill="#4e6ffc" fill-rule="evenodd"></path></g></svg>