<?xml version="1.0" encoding="utf-8"?>
<!-- Generator: Adobe Illustrator 16.0.0, SVG Export Plug-In . SVG Version: 6.00 Build 0)  -->
<svg version="1.2" baseProfile="tiny" id="Layer_1" xmlns="http://www.w3.org/2000/svg" xmlns:xlink="http://www.w3.org/1999/xlink"
	 x="0px" y="0px" width="900px" height="900px" viewBox="0 0 900 900" xml:space="preserve">
<g>
	<path fill="#41A1DA" d="M46.506,472.874l-0.302,117.783H19.28l0.301-117.783H1.986V447.36h17.595v-14.896
		c0-24.056,5.959-33.199,11.265-38.506c7.685-7.684,17.909-14.047,33.931-14.047c5.723,0,13.96,1.486,21.186,6.453l-10.428,22.496
		c-4.581-2.665-7.783-3.582-12.82-3.201c-6.548,0.487-11.728,5.052-13.733,9.15c-2,4.005-2.744,10.64-2.744,25.519v7.031h27.233
		v25.514H46.506z"/>
	<path fill="#41A1DA" d="M188.598,470.691c-4.487-17.158-18.676-28.644-35.841-28.644c-23.67,0-34.081,17.855-35.837,28.644H188.598
		z M220.685,493.192H116.579c0.913,16.456,16.63,32.634,38.157,32.634c16.926,0,28.933-8.782,35.514-19.085l23.772,13.008
		c-4.196,7.148-27.715,30.782-60.013,30.782c-35.68,0-67.338-27.746-67.338-65.244c0-36.069,26.859-67.86,67.346-67.86
		c41.898,0,66.81,37.741,66.81,68.192L220.685,493.192z"/>
	<path fill="#41A1DA" d="M341.79,470.691c-4.486-17.158-18.678-28.644-35.838-28.644c-23.674,0-34.083,17.855-35.84,28.644H341.79z
		 M373.877,493.192H269.771c0.911,16.456,16.633,32.634,38.157,32.634c16.923,0,28.932-8.782,35.518-19.085l23.765,13.008
		c-4.192,7.148-27.712,30.782-60.009,30.782c-35.683,0-67.338-27.746-67.338-65.244c0-36.069,26.849-67.86,67.344-67.86
		c41.9,0,66.812,37.741,66.812,68.192L373.877,493.192z"/>
	<path fill="#41A1DA" d="M458.353,524.767c-21.608,0-39.188-18.154-39.188-40.421c0-22.344,17.58-40.5,39.188-40.5
		c21.607,0,39.109,18.156,39.109,40.5C497.462,506.612,479.96,524.767,458.353,524.767 M497.462,383.782v53.534
		c-8.641-12.147-21.679-19.615-39.109-19.615c-42.252,0-67.742,33.019-67.742,66.645c0,33.244,25.192,66.201,64.521,66.201
		c19.628,0,33.392-7.326,42.33-19.262v16.044h26.666V383.782H497.462z"/>
	<path fill="#41A1DA" d="M769.323,489.46c-2.416,19.857-18.823,35.307-38.745,35.307c-21.598,0-39.104-18.154-39.104-40.421
		c0-22.344,17.506-40.5,39.104-40.5c19.922,0,36.329,15.459,38.745,35.3c0.297,1.687,0.37,3.453,0.37,5.2
		C769.693,486.112,769.62,487.778,769.323,489.46 M769.323,420.992v15.822c-8.641-11.869-21.53-19.123-38.745-19.123
		c-42.256,0-67.738,33.028-67.738,66.654c0,33.244,25.186,66.201,64.586,66.201c19.344,0,32.97-7.096,41.897-18.668v15.45h26.664
		V420.992H769.323z"/>
	<path fill="#41A1DA" d="M769.323,479.146v10.314c0.297-1.666,0.37-3.364,0.37-5.114
		C769.693,482.578,769.62,480.832,769.323,479.146"/>
	<polygon fill="#41A1DA" points="549.985,420.531 650.922,420.531 590.729,521.698 649.543,521.698 649.543,547.329 
		544.717,547.329 605.137,446.856 549.985,446.856 	"/>
	<rect x="830.204" y="420.531" fill="#41A1DA" width="27.153" height="126.798"/>
	<path fill="#91C259" d="M786.021,377.287c28.72,2.625,46.998-20.237,54.171-30.107c-7.43-6.915-23.207-21.325-23.207-21.325
		l81.553-15.572l-7.296,82.51l-21.359-19.509C843.274,389.857,808.251,394.957,786.021,377.287"/>
</g>
</svg>
