<svg xmlns="http://www.w3.org/2000/svg" width="16.52in" height="2.72in" viewBox="0 0 1189.59 195.84">
  <title>Immuta Primary Logo</title>
  <path d="M790.88,32.38H823V96.19c0,43.37-27.45,69.59-64.18,69.59-37.3,0-62.62-26.22-62.62-69.59V32.38h31.7V96.19c0,25.25,10.82,40.29,30.92,40.29,19.72,0,32.09-15,32.09-40.29Zm-458.3,96.19L286.77,32.38H251.59V163.46h31.7V96.57l31.51,66.89h35.37l31.51-66.89v66.89h31.89V32.38H378.2ZM637.63,32.38H602.26l-45.62,96.19L510.83,32.38H475.65V163.46h31.7V96.57l31.51,66.89h35.37l31.51-66.89v66.89h31.89Zm356.64,0H869v29.3H915.6V163.46h32.08V61.68h46.59Zm170.8,131.08h-33.83l-8.5-20.43h-63.4l-8.7,20.43H1017l56.25-131.08h35.37Zm-53.35-46.26-20.49-49-20.87,49ZM195.84,0V195.84H0V0ZM154.5,32.38H122.8V163.46h31.7Zm1031.13,0-7.68,13-7.68-13h-4V53.46h4.48V41.08l6,10.15h2.21l6-10.15V53.46h4.49V32.38Zm-41.35,4h6.61V53.46h4.78V36.35h6.6v-4h-18Z" fill="#1c2029"/>
</svg>
