<?xml version="1.0"?>

<!-- Generator: Adobe Illustrator 18.0.0, SVG Export Plug-In . SVG Version: 6.00 Build 0)  -->

<svg version="1.1" id="Layer_1" xmlns="http://www.w3.org/2000/svg" xmlns:xlink="http://www.w3.org/1999/xlink" x="0px" y="0px" viewBox="0 0 228 160" style="enable-background:new 0 0 228 160;" xml:space="preserve" width="228" height="160">
<g>
	<path style="fill:#2D3135;" d="M55.094,92.119V68.384h4.172v20.067h10.501v3.668H55.094z"></path>
	<path style="fill:#2D3135;" d="M84.151,92.119v-2.302c-1.223,1.367-3.38,2.733-6.114,2.733c-3.668,0-5.538-1.942-5.538-5.466
		V74.857h3.74v10.861c0,2.661,1.367,3.524,3.452,3.524c1.87,0,3.524-1.079,4.387-2.23V74.857h3.74v17.19h-3.668V92.119z"></path>
	<path style="fill:#2D3135;" d="M91.272,83.488c0-5.179,3.668-8.991,8.919-8.991c3.38,0,5.394,1.438,6.617,3.093l-2.445,2.302
		c-0.935-1.367-2.302-2.014-3.956-2.014c-3.165,0-5.179,2.374-5.179,5.682s2.086,5.754,5.179,5.754c1.654,0,3.021-0.719,3.956-2.014
		l2.445,2.302c-1.223,1.654-3.237,3.093-6.617,3.093C94.94,92.551,91.272,88.739,91.272,83.488z"></path>
	<path style="fill:#2D3135;" d="M108.893,70.47c0-1.295,1.079-2.302,2.302-2.302c1.295,0,2.302,1.007,2.302,2.302
		c0,1.295-1.007,2.302-2.302,2.302C109.9,72.772,108.893,71.765,108.893,70.47z M109.325,92.119V74.857h3.74v17.19h-3.74V92.119z"></path>
	<path style="fill:#2D3135;" d="M129.608,92.119v-2.374c-1.295,1.726-3.309,2.805-5.538,2.805c-4.387,0-7.624-3.38-7.624-8.991
		c0-5.538,3.237-9.062,7.624-9.062c2.158,0,4.1,1.007,5.538,2.805v-8.991h3.74v23.735h-3.74V92.119z M129.608,86.941v-6.833
		c-0.863-1.295-2.661-2.302-4.459-2.302c-2.949,0-4.819,2.373-4.819,5.754c0,3.309,1.87,5.682,4.819,5.682
		C126.874,89.17,128.744,88.235,129.608,86.941z"></path>
	<path style="fill:#2D3135;" d="M152.839,92.119l-4.028-12.659l-3.956,12.587h-3.884l-5.322-17.19h3.884l3.596,12.515l4.1-12.515
		h3.309l4.1,12.515l3.668-12.515h3.884l-5.322,17.19h-4.028V92.119z"></path>
	<path style="fill:#2D3135;" d="M162.98,83.488c0-4.891,3.38-8.991,8.847-8.991c5.538,0,8.847,4.1,8.847,8.991
		c0,4.963-3.38,9.062-8.847,9.062S162.98,88.451,162.98,83.488z M176.79,83.488c0-3.021-1.798-5.682-4.963-5.682
		c-3.165,0-4.963,2.661-4.963,5.682c0,3.093,1.798,5.754,4.963,5.754C174.992,89.17,176.79,86.509,176.79,83.488z"></path>
	<path style="fill:#2D3135;" d="M183.982,92.119V74.857h3.74v2.517c1.295-1.654,3.38-2.949,5.61-2.949v3.668
		c-0.288-0.072-0.719-0.072-1.151-0.072c-1.582,0-3.668,1.079-4.387,2.302v11.724h-3.812V92.119z"></path>
	<path style="fill:#2D3135;" d="M207.214,92.119l-5.25-7.121l-2.374,2.445v4.603h-3.74V68.312h3.74v14.816l7.552-8.271h4.603
		l-7.192,7.768l7.336,9.422h-4.675V92.119z"></path>
	<path style="fill:#2D3135;" d="M212.824,89.818l1.726-2.733c1.223,1.223,3.596,2.445,5.826,2.445s3.38-0.935,3.38-2.302
		c0-3.38-10.429-0.935-10.429-7.552c0-2.805,2.445-5.25,6.761-5.25c2.949,0,5.107,1.007,6.689,2.445l-1.582,2.661
		c-1.007-1.151-2.949-2.086-5.107-2.086c-1.942,0-3.237,0.863-3.237,2.086c0,3.093,10.429,0.791,10.429,7.624
		c0,3.021-2.517,5.322-7.192,5.322C217.283,92.551,214.622,91.616,212.824,89.818z"></path>
</g>
<g>
	<polygon style="fill:#AE2028;" points="36.466,84.279 13.738,89.314 8.703,66.586 0.935,68.312 7.696,98.808 38.192,92.047 	"></polygon>
	
		<rect x="17.363" y="63.116" transform="matrix(-0.2162 -0.9763 0.9763 -0.2162 -38.591 111.2188)" style="fill:#DC3032;" width="15.966" height="15.966"></rect>
</g>
</svg>
