<svg width="407" height="407" viewBox="0 0 407 407" fill="none" xmlns="http://www.w3.org/2000/svg">
<rect width="407" height="407" fill="white"/>
<g clip-path="url(#clip0_55374:1222)">
<path d="M280.384 198.791L324.454 170.912L324.595 365.78L72.9853 166.759L72.9149 365.568L29.5485 331.424L29.4781 79.3923L280.313 277.568L280.384 198.791Z" fill="black"/>
<path d="M269.823 200.269L78.1243 48.6276L38.9115 73.0564L269.894 256.096L269.823 200.269Z" fill="black"/>
<path d="M335.296 42.08L195.622 130.714L232.512 160L372.185 71.296L335.296 42.08Z" fill="black"/>
<path d="M83.0523 187.668L82.9115 365.92L126.559 338.183L126.63 222.304L83.0523 187.668Z" fill="black"/>
<path d="M378.521 338.042L335.014 365.779L334.944 152.608L272.851 192.032L240.749 166.266L378.521 79.1105V338.042Z" fill="black"/>
</g>
<defs>
<clipPath id="clip0_55374:1222">
<rect width="352" height="323.84" fill="white" transform="translate(28 42.08)"/>
</clipPath>
</defs>
</svg>
