<?xml version="1.0" encoding="UTF-8" standalone="no"?>
<!-- Created with Inkscape (http://www.inkscape.org/) -->

<svg
   xmlns:dc="http://purl.org/dc/elements/1.1/"
   xmlns:cc="http://creativecommons.org/ns#"
   xmlns:rdf="http://www.w3.org/1999/02/22-rdf-syntax-ns#"
   xmlns:svg="http://www.w3.org/2000/svg"
   xmlns="http://www.w3.org/2000/svg"
   xmlns:sodipodi="http://sodipodi.sourceforge.net/DTD/sodipodi-0.dtd"
   xmlns:inkscape="http://www.inkscape.org/namespaces/inkscape"
   width="157.70239mm"
   height="138.04762mm"
   viewBox="0 0 157.70239 138.04762"
   version="1.1"
   id="svg836"
   inkscape:version="0.92.4 (unknown)"
   sodipodi:docname="no-image.svg">
  <defs
     id="defs830" />
  <sodipodi:namedview
     id="base"
     pagecolor="#ffffff"
     bordercolor="#666666"
     borderopacity="1.0"
     inkscape:pageopacity="0.0"
     inkscape:pageshadow="2"
     inkscape:zoom="0.35"
     inkscape:cx="-177.91892"
     inkscape:cy="223.73454"
     inkscape:document-units="mm"
     inkscape:current-layer="layer1"
     showgrid="false"
     inkscape:window-width="1683"
     inkscape:window-height="1230"
     inkscape:window-x="2067"
     inkscape:window-y="81"
     inkscape:window-maximized="0" />
  <metadata
     id="metadata833">
    <rdf:RDF>
      <cc:Work
         rdf:about="">
        <dc:format>image/svg+xml</dc:format>
        <dc:type
           rdf:resource="http://purl.org/dc/dcmitype/StillImage" />
        <dc:title></dc:title>
      </cc:Work>
    </rdf:RDF>
  </metadata>
  <g
     inkscape:label="Layer 1"
     inkscape:groupmode="layer"
     id="layer1"
     transform="translate(-28.494047,-73.005951)">
    <rect
       style="fill:none;fill-opacity:1;stroke:#000000;stroke-width:5;stroke-miterlimit:4;stroke-dasharray:none;stroke-opacity:1"
       id="rect812"
       width="152.70239"
       height="133.04762"
       x="30.994047"
       y="75.505951" />
    <g
       aria-label="NO IMAGE"
       transform="scale(1.050535,0.95189594)"
       style="font-style:normal;font-weight:normal;font-size:26.83473587px;line-height:1.25;font-family:sans-serif;letter-spacing:0px;word-spacing:0px;fill:#000000;fill-opacity:1;stroke:none;stroke-width:0.67086834"
       id="text822">
      <path
         d="m 82.878337,122.09068 h 3.563991 l 8.674124,16.36553 v -16.36553 h 2.56817 v 19.56264 h -3.563991 l -8.674124,-16.36553 v 16.36553 h -2.56817 z"
         style="font-style:normal;font-variant:normal;font-weight:normal;font-stretch:normal;font-size:26.83475304px;font-family:sans-serif;-inkscape-font-specification:'sans-serif, Normal';font-variant-ligatures:normal;font-variant-caps:normal;font-variant-numeric:normal;font-feature-settings:normal;text-align:center;writing-mode:lr-tb;text-anchor:middle;stroke-width:0.67086834"
         id="path830"
         inkscape:connector-curvature="0" />
      <path
         d="m 110.89235,123.88578 q -2.88264,0 -4.58602,2.14888 -1.69027,2.14887 -1.69027,5.85699 0,3.69502 1.69027,5.8439 1.70338,2.14888 4.58602,2.14888 2.88264,0 4.55981,-2.14888 1.69028,-2.14888 1.69028,-5.8439 0,-3.70812 -1.69028,-5.85699 -1.67717,-2.14888 -4.55981,-2.14888 z m 0,-2.14888 q 4.11431,0 6.57766,2.76472 2.46335,2.75161 2.46335,7.39003 0,4.62533 -2.46335,7.39004 -2.46335,2.75161 -6.57766,2.75161 -4.12741,0 -6.60386,-2.75161 -2.46335,-2.75161 -2.46335,-7.39004 0,-4.63842 2.46335,-7.39003 2.47645,-2.76472 6.60386,-2.76472 z"
         style="font-style:normal;font-variant:normal;font-weight:normal;font-stretch:normal;font-size:26.83475304px;font-family:sans-serif;-inkscape-font-specification:'sans-serif, Normal';font-variant-ligatures:normal;font-variant-caps:normal;font-variant-numeric:normal;font-feature-settings:normal;text-align:center;writing-mode:lr-tb;text-anchor:middle;stroke-width:0.67086834"
         id="path832"
         inkscape:connector-curvature="0" />
      <path
         d="m 60.105485,155.63412 h 2.646788 v 19.56264 h -2.646788 z"
         style="font-style:normal;font-variant:normal;font-weight:normal;font-stretch:normal;font-size:26.83475304px;font-family:sans-serif;-inkscape-font-specification:'sans-serif, Normal';font-variant-ligatures:normal;font-variant-caps:normal;font-variant-numeric:normal;font-feature-settings:normal;text-align:center;writing-mode:lr-tb;text-anchor:middle;stroke-width:0.67086834"
         id="path834"
         inkscape:connector-curvature="0" />
      <path
         d="m 68.019641,155.63412 h 3.943975 l 4.992207,13.31256 5.018414,-13.31256 h 3.943974 v 19.56264 h -2.581272 v -17.17791 l -5.044619,13.41738 h -2.65989 l -5.044619,-13.41738 v 17.17791 h -2.56817 z"
         style="font-style:normal;font-variant:normal;font-weight:normal;font-stretch:normal;font-size:26.83475304px;font-family:sans-serif;-inkscape-font-specification:'sans-serif, Normal';font-variant-ligatures:normal;font-variant-caps:normal;font-variant-numeric:normal;font-feature-settings:normal;text-align:center;writing-mode:lr-tb;text-anchor:middle;stroke-width:0.67086834"
         id="path836"
         inkscape:connector-curvature="0" />
      <path
         d="m 97.723931,158.2416 -3.590196,9.73546 h 7.193495 z M 96.2302,155.63412 h 3.000565 l 7.455555,19.56264 h -2.75161 l -1.782,-5.01841 h -8.818253 l -1.781995,5.01841 h -2.790919 z"
         style="font-style:normal;font-variant:normal;font-weight:normal;font-stretch:normal;font-size:26.83475304px;font-family:sans-serif;-inkscape-font-specification:'sans-serif, Normal';font-variant-ligatures:normal;font-variant-caps:normal;font-variant-numeric:normal;font-feature-settings:normal;text-align:center;writing-mode:lr-tb;text-anchor:middle;stroke-width:0.67086834"
         id="path838"
         inkscape:connector-curvature="0" />
      <path
         d="m 122.3967,172.40584 v -5.25426 h -4.32396 v -2.17509 h 6.94454 v 8.39897 q -1.53304,1.08754 -3.38055,1.65096 -1.84751,0.55033 -3.94397,0.55033 -4.58602,0 -7.18039,-2.673 -2.58128,-2.68609 -2.58128,-7.46865 0,-4.79567 2.58128,-7.46866 2.59437,-2.6861 7.18039,-2.6861 1.91302,0 3.6295,0.47171 1.72959,0.4717 3.18401,1.38891 v 2.81712 q -1.46753,-1.24478 -3.11849,-1.87371 -1.65097,-0.62894 -3.47227,-0.62894 -3.5902,0 -5.3984,2.00474 -1.7951,2.00475 -1.7951,5.97493 0,3.95707 1.7951,5.96182 1.8082,2.00474 5.3984,2.00474 1.40201,0 2.50265,-0.23585 1.10065,-0.24895 1.97854,-0.75997 z"
         style="font-style:normal;font-variant:normal;font-weight:normal;font-stretch:normal;font-size:26.83475304px;font-family:sans-serif;-inkscape-font-specification:'sans-serif, Normal';font-variant-ligatures:normal;font-variant-caps:normal;font-variant-numeric:normal;font-feature-settings:normal;text-align:center;writing-mode:lr-tb;text-anchor:middle;stroke-width:0.67086834"
         id="path840"
         inkscape:connector-curvature="0" />
      <path
         d="m 129.86536,155.63412 h 12.36914 v 2.2275 h -9.72236 v 5.79148 h 9.31617 v 2.22749 h -9.31617 v 7.08868 h 9.95821 v 2.22749 h -12.60499 z"
         style="font-style:normal;font-variant:normal;font-weight:normal;font-stretch:normal;font-size:26.83475304px;font-family:sans-serif;-inkscape-font-specification:'sans-serif, Normal';font-variant-ligatures:normal;font-variant-caps:normal;font-variant-numeric:normal;font-feature-settings:normal;text-align:center;writing-mode:lr-tb;text-anchor:middle;stroke-width:0.67086834"
         id="path842"
         inkscape:connector-curvature="0" />
    </g>
  </g>
</svg>
