<?xml version="1.0" encoding="UTF-8" standalone="no"?>
<!-- Created with Inkscape (http://www.inkscape.org/) -->

<svg
   xmlns:dc="http://purl.org/dc/elements/1.1/"
   xmlns:cc="http://creativecommons.org/ns#"
   xmlns:rdf="http://www.w3.org/1999/02/22-rdf-syntax-ns#"
   xmlns:svg="http://www.w3.org/2000/svg"
   xmlns="http://www.w3.org/2000/svg"
   xmlns:sodipodi="http://sodipodi.sourceforge.net/DTD/sodipodi-0.dtd"
   xmlns:inkscape="http://www.inkscape.org/namespaces/inkscape"
   width="56.311996mm"
   height="46.741127mm"
   viewBox="0 0 56.311996 46.741127"
   version="1.1"
   id="svg1861"
   inkscape:version="0.92.4 (unknown)"
   sodipodi:docname="opendatahub.svg">
  <defs
     id="defs1855" />
  <sodipodi:namedview
     id="base"
     pagecolor="#ffffff"
     bordercolor="#666666"
     borderopacity="1.0"
     inkscape:pageopacity="0.0"
     inkscape:pageshadow="2"
     inkscape:zoom="0.35"
     inkscape:cx="114.98779"
     inkscape:cy="-8.8131657"
     inkscape:document-units="mm"
     inkscape:current-layer="layer1"
     showgrid="false"
     inkscape:window-width="1440"
     inkscape:window-height="757"
     inkscape:window-x="2389"
     inkscape:window-y="228"
     inkscape:window-maximized="0" />
  <metadata
     id="metadata1858">
    <rdf:RDF>
      <cc:Work
         rdf:about="">
        <dc:format>image/svg+xml</dc:format>
        <dc:type
           rdf:resource="http://purl.org/dc/dcmitype/StillImage" />
        <dc:title></dc:title>
      </cc:Work>
    </rdf:RDF>
  </metadata>
  <g
     inkscape:label="Layer 1"
     inkscape:groupmode="layer"
     id="layer1"
     transform="translate(79.560758,-99.760388)">
    <g
       style="display:inline"
       id="g2516"
       transform="matrix(7.0573564,0,0,7.0573564,-869.41197,-24.544864)">
      <g
         aria-label="OPEN DATA HUB"
         style="font-style:normal;font-weight:normal;font-size:0.95044065px;line-height:0.59402531px;font-family:Sans;letter-spacing:0px;word-spacing:0px;fill:#4d5258;fill-opacity:1;stroke:none;stroke-width:0.00579391px;stroke-linecap:butt;stroke-linejoin:miter;stroke-opacity:1"
         id="text2510">
        <path
           d="m 112.30231,22.797083 c -0.2034,0 -0.35737,0.143517 -0.35737,0.337407 0,0.192939 0.15397,0.339307 0.35737,0.339307 0.20339,0 0.35736,-0.147318 0.35736,-0.339307 0,-0.19294 -0.15397,-0.337407 -0.35736,-0.337407 z m 0.002,0.131161 c 0.1112,0 0.20149,0.08934 0.20149,0.206246 0,0.116904 -0.0903,0.208146 -0.20149,0.208146 -0.1112,0 -0.2053,-0.09124 -0.2053,-0.208146 0,-0.116904 0.0931,-0.206246 0.2053,-0.206246 z"
           style="font-style:normal;font-variant:normal;font-weight:600;font-stretch:normal;font-family:Montserrat;-inkscape-font-specification:'Montserrat Semi-Bold';fill:#bbbbbb;stroke-width:0.00579391px"
           id="path81077"
           inkscape:connector-curvature="0" />
        <path
           d="m 113.04141,22.801836 h -0.28228 v 0.665308 h 0.15017 v -0.190088 h 0.13211 c 0.16918,0 0.26612,-0.08934 0.26612,-0.244263 0,-0.147319 -0.0969,-0.230957 -0.26612,-0.230957 z m -0.008,0.349762 h -0.12451 v -0.225255 h 0.12451 c 0.0836,0 0.13116,0.03707 0.13116,0.111202 0,0.07603 -0.0475,0.114053 -0.13116,0.114053 z"
           style="font-style:normal;font-variant:normal;font-weight:600;font-stretch:normal;font-family:Montserrat;-inkscape-font-specification:'Montserrat Semi-Bold';fill:#bbbbbb;stroke-width:0.00579391px"
           id="path81079"
           inkscape:connector-curvature="0" />
        <path
           d="m 113.40328,22.801836 v 0.665308 h 0.51703 v -0.124508 h -0.36687 v -0.147318 h 0.32125 V 23.07081 h -0.32125 v -0.144467 h 0.35642 v -0.124507 z"
           style="font-style:normal;font-variant:normal;font-weight:600;font-stretch:normal;font-family:Montserrat;-inkscape-font-specification:'Montserrat Semi-Bold';fill:#bbbbbb;stroke-width:0.00579391px"
           id="path81081"
           inkscape:connector-curvature="0" />
        <path
           d="m 114.03814,22.801836 v 0.665308 h 0.14352 v -0.426748 l 0.3222,0.426748 h 0.13686 v -0.665308 h -0.14257 v 0.427698 L 114.175,22.801836 Z"
           style="font-style:normal;font-variant:normal;font-weight:600;font-stretch:normal;font-family:Montserrat;-inkscape-font-specification:'Montserrat Semi-Bold';fill:#bbbbbb;stroke-width:0.00579391px"
           id="path81083"
           inkscape:connector-curvature="0" />
        <path
           d="m 115.29685,22.801836 h -0.28228 v 0.665308 h 0.27658 c 0.21004,0 0.35546,-0.136863 0.35546,-0.332654 0,-0.196741 -0.14351,-0.332654 -0.34976,-0.332654 z m 0.004,0.538899 h -0.13591 v -0.412491 h 0.12926 c 0.11405,0 0.19959,0.08459 0.19959,0.207196 0,0.121657 -0.0817,0.205295 -0.19294,0.205295 z"
           style="font-style:normal;font-variant:normal;font-weight:600;font-stretch:normal;font-family:Montserrat;-inkscape-font-specification:'Montserrat Semi-Bold';fill:#4d5258;stroke-width:0.00579391px"
           id="path81085"
           inkscape:connector-curvature="0" />
        <path
           d="m 116.21878,23.467144 h 0.16062 l -0.28418,-0.665308 h -0.15492 l -0.28894,0.665308 h 0.15493 l 0.0523,-0.12926 h 0.30794 z m -0.3108,-0.249966 0.1055,-0.25852 0.10455,0.25852 z"
           style="font-style:normal;font-variant:normal;font-weight:600;font-stretch:normal;font-family:Montserrat;-inkscape-font-specification:'Montserrat Semi-Bold';fill:#4d5258;stroke-width:0.00579391px"
           id="path81087"
           inkscape:connector-curvature="0" />
        <path
           d="m 116.31525,22.801836 v 0.127359 h 0.20244 v 0.537949 h 0.15017 v -0.537949 h 0.2034 v -0.127359 z"
           style="font-style:normal;font-variant:normal;font-weight:600;font-stretch:normal;font-family:Montserrat;-inkscape-font-specification:'Montserrat Semi-Bold';fill:#4d5258;stroke-width:0.00579391px"
           id="path81089"
           inkscape:connector-curvature="0" />
        <path
           d="m 117.37527,23.467144 h 0.16063 l -0.28419,-0.665308 h -0.15492 l -0.28893,0.665308 h 0.15492 l 0.0523,-0.12926 h 0.30795 z m -0.31079,-0.249966 0.1055,-0.25852 0.10454,0.25852 z"
           style="font-style:normal;font-variant:normal;font-weight:600;font-stretch:normal;font-family:Montserrat;-inkscape-font-specification:'Montserrat Semi-Bold';fill:#4d5258;stroke-width:0.00579391px"
           id="path81091"
           inkscape:connector-curvature="0" />
        <path
           d="m 117.83433,22.801836 v 0.665308 h 0.15017 v -0.262322 h 0.30129 v 0.262322 h 0.15017 v -0.665308 h -0.15017 v 0.277528 h -0.30129 v -0.277528 z"
           style="font-style:normal;font-variant:normal;font-weight:600;font-stretch:normal;font-family:Montserrat;-inkscape-font-specification:'Montserrat Semi-Bold';fill:#4d5258;stroke-width:0.00579391px"
           id="path81093"
           inkscape:connector-curvature="0" />
        <path
           d="m 118.72025,23.188665 v -0.386829 h -0.15017 v 0.386829 c 0,0.175831 0.11785,0.285132 0.30224,0.285132 0.18343,0 0.29844,-0.109301 0.29844,-0.285132 v -0.386829 h -0.15017 v 0.386829 c 0,0.09599 -0.0589,0.153971 -0.14827,0.153971 -0.0893,0 -0.15207,-0.05798 -0.15207,-0.153971 z"
           style="font-style:normal;font-variant:normal;font-weight:600;font-stretch:normal;font-family:Montserrat;-inkscape-font-specification:'Montserrat Semi-Bold';fill:#4d5258;stroke-width:0.00579391px"
           id="path81095"
           inkscape:connector-curvature="0" />
        <path
           d="m 119.61059,22.801836 h -0.30604 v 0.665308 h 0.31649 c 0.15492,0 0.25092,-0.07033 0.25092,-0.184385 0,-0.08744 -0.0532,-0.152071 -0.13876,-0.168228 0.0713,-0.01806 0.115,-0.07413 0.115,-0.146368 0,-0.102648 -0.0912,-0.166327 -0.23761,-0.166327 z m -0.008,0.268024 h -0.14826 v -0.145418 h 0.14826 c 0.0561,0 0.0913,0.02566 0.0913,0.07128 0,0.04657 -0.0352,0.07413 -0.0913,0.07413 z m 0,0.274677 h -0.14826 v -0.158723 h 0.14826 c 0.0713,0 0.11406,0.02946 0.11406,0.07794 0,0.05132 -0.0428,0.08079 -0.11406,0.08079 z"
           style="font-style:normal;font-variant:normal;font-weight:600;font-stretch:normal;font-family:Montserrat;-inkscape-font-specification:'Montserrat Semi-Bold';fill:#4d5258;stroke-width:0.00579391px"
           id="path81097"
           inkscape:connector-curvature="0" />
      </g>
      <g
         aria-label="AI Platform powered by Open Source"
         style="font-style:normal;font-weight:normal;font-size:2.24648929px;line-height:1.40405583px;font-family:Sans;letter-spacing:0px;word-spacing:0px;fill:#58595b;fill-opacity:1;stroke:none;stroke-width:0.01041669px;stroke-linecap:butt;stroke-linejoin:miter;stroke-opacity:1"
         id="text2514">
        <path
           d="m 112.19192,24.15027 h 0.0381 l -0.13717,-0.306759 h -0.0364 l -0.1376,0.306759 h 0.0372 l 0.0342,-0.07844 h 0.16696 z m -0.18712,-0.110871 0.0688,-0.157763 0.0697,0.157763 z"
           style="font-style:normal;font-variant:normal;font-weight:300;font-stretch:normal;font-size:0.43822837px;font-family:Montserrat;-inkscape-font-specification:'Montserrat Light';fill:#58595b;stroke-width:0.01041669px"
           id="path81100"
           inkscape:connector-curvature="0" />
        <path
           d="m 112.27858,23.843511 v 0.306759 h 0.0351 v -0.306759 z"
           style="font-style:normal;font-variant:normal;font-weight:300;font-stretch:normal;font-size:0.43822837px;font-family:Montserrat;-inkscape-font-specification:'Montserrat Light';fill:#58595b;stroke-width:0.01041669px"
           id="path81102"
           inkscape:connector-curvature="0" />
        <path
           d="m 112.64205,23.843511 h -0.11525 v 0.306759 h 0.0351 v -0.09729 h 0.0802 c 0.0758,0 0.11964,-0.039 0.11964,-0.10649 0,-0.0653 -0.0438,-0.102983 -0.11964,-0.102983 z m -10e-4,0.177044 h -0.0789 V 23.87594 h 0.0789 c 0.0552,0 0.0872,0.02454 0.0872,0.07143 0,0.0482 -0.032,0.07318 -0.0872,0.07318 z"
           style="font-style:normal;font-variant:normal;font-weight:300;font-stretch:normal;font-size:0.43822837px;font-family:Montserrat;-inkscape-font-specification:'Montserrat Light';fill:#58595b;stroke-width:0.01041669px"
           id="path81104"
           inkscape:connector-curvature="0" />
        <path
           d="m 112.81775,23.825105 v 0.325165 h 0.0342 v -0.325165 z"
           style="font-style:normal;font-variant:normal;font-weight:300;font-stretch:normal;font-size:0.43822837px;font-family:Montserrat;-inkscape-font-specification:'Montserrat Light';fill:#58595b;stroke-width:0.01041669px"
           id="path81106"
           inkscape:connector-curvature="0" />
        <path
           d="m 113.1137,24.15027 -4.4e-4,-0.152503 c -4.4e-4,-0.04908 -0.032,-0.07932 -0.089,-0.07932 -0.0394,0 -0.0644,0.01139 -0.0942,0.03111 l 0.0145,0.0241 c 0.0241,-0.01709 0.0478,-0.02673 0.0732,-0.02673 0.0408,0 0.0618,0.0206 0.0618,0.05434 v 0.01446 h -0.0758 c -0.0543,4.39e-4 -0.0863,0.02586 -0.0863,0.06617 0,0.03944 0.0307,0.06968 0.0784,0.06968 0.0368,0 0.0662,-0.01227 0.0846,-0.03725 v 0.03593 z m -0.11131,-0.02717 c -0.0324,0 -0.053,-0.01709 -0.053,-0.04251 0,-0.02585 0.0202,-0.03769 0.0587,-0.03769 h 0.0719 v 0.02805 c -0.009,0.03287 -0.0386,0.05215 -0.0776,0.05215 z"
           style="font-style:normal;font-variant:normal;font-weight:300;font-stretch:normal;font-size:0.43822837px;font-family:Montserrat;-inkscape-font-specification:'Montserrat Light';fill:#58595b;stroke-width:0.01041669px"
           id="path81108"
           inkscape:connector-curvature="0" />
        <path
           d="m 113.29915,24.108201 c -0.0127,0.0074 -0.025,0.01139 -0.0368,0.01183 -0.0197,0 -0.0307,-0.01139 -0.0307,-0.03944 v -0.127086 h 0.0732 v -0.02673 h -0.0732 v -0.06048 h -0.0337 v 0.06048 h -0.0333 v 0.02673 h 0.0333 v 0.132783 c 0,0.04558 0.025,0.06573 0.0587,0.0653 0.0184,0 0.0359,-0.0061 0.0521,-0.01709 z"
           style="font-style:normal;font-variant:normal;font-weight:300;font-stretch:normal;font-size:0.43822837px;font-family:Montserrat;-inkscape-font-specification:'Montserrat Light';fill:#58595b;stroke-width:0.01041669px"
           id="path81110"
           inkscape:connector-curvature="0" />
        <path
           d="m 113.44228,23.854466 c 0.0118,0 0.0245,0.0044 0.0351,0.01183 l 0.014,-0.02629 c -0.014,-0.01052 -0.032,-0.01622 -0.0495,-0.01622 -0.0386,-4.38e-4 -0.0741,0.02717 -0.0741,0.07713 v 0.02586 h -0.0298 v 0.02673 h 0.0298 v 0.196764 h 0.0337 v -0.196764 h 0.0662 v -0.02673 h -0.0662 v -0.03024 c 0,-0.02717 0.0184,-0.04251 0.0408,-0.04207 z"
           style="font-style:normal;font-variant:normal;font-weight:300;font-stretch:normal;font-size:0.43822837px;font-family:Montserrat;-inkscape-font-specification:'Montserrat Light';fill:#58595b;stroke-width:0.01041669px"
           id="path81112"
           inkscape:connector-curvature="0" />
        <path
           d="m 113.59236,23.918448 c -0.0684,0 -0.11701,0.04777 -0.11701,0.11613 0,0.06924 0.0486,0.117007 0.11701,0.117007 0.0684,0 0.117,-0.04777 0.117,-0.117007 0,-0.06836 -0.0486,-0.11613 -0.117,-0.11613 z m 0,0.03024 c 0.0482,0 0.0828,0.0355 0.0828,0.08633 0,0.05171 -0.0346,0.08677 -0.0828,0.08677 -0.0482,0 -0.0828,-0.03506 -0.0828,-0.08677 0,-0.05083 0.0346,-0.08633 0.0828,-0.08633 z"
           style="font-style:normal;font-variant:normal;font-weight:300;font-stretch:normal;font-size:0.43822837px;font-family:Montserrat;-inkscape-font-specification:'Montserrat Light';fill:#58595b;stroke-width:0.01041669px"
           id="path81114"
           inkscape:connector-curvature="0" />
        <path
           d="m 113.80323,23.971035 v -0.05127 h -0.0342 v 0.230508 h 0.0342 V 24.02757 c 0.004,-0.04645 0.0342,-0.07669 0.0828,-0.07581 v -0.0333 c -0.039,4.38e-4 -0.0675,0.01884 -0.0828,0.05259 z"
           style="font-style:normal;font-variant:normal;font-weight:300;font-stretch:normal;font-size:0.43822837px;font-family:Montserrat;-inkscape-font-specification:'Montserrat Light';fill:#58595b;stroke-width:0.01041669px"
           id="path81116"
           inkscape:connector-curvature="0" />
        <path
           d="m 114.22747,23.918448 c -0.0443,4.38e-4 -0.0767,0.01972 -0.0911,0.06004 -0.01,-0.03813 -0.0394,-0.06004 -0.0828,-0.06004 -0.0416,4.38e-4 -0.0727,0.01753 -0.0881,0.05346 v -0.05215 h -0.0337 v 0.230508 h 0.0337 v -0.113501 c 0,-0.04996 0.0285,-0.08458 0.0758,-0.08589 0.0403,0 0.064,0.02454 0.064,0.06617 v 0.133221 h 0.0346 v -0.113501 c 0,-0.04996 0.0276,-0.08458 0.0754,-0.08589 0.0399,0 0.064,0.02454 0.064,0.06617 v 0.133221 h 0.0342 V 24.00828 c 0,-0.05609 -0.032,-0.08984 -0.0859,-0.08984 z"
           style="font-style:normal;font-variant:normal;font-weight:300;font-stretch:normal;font-size:0.43822837px;font-family:Montserrat;-inkscape-font-specification:'Montserrat Light';fill:#58595b;stroke-width:0.01041669px"
           id="path81118"
           inkscape:connector-curvature="0" />
        <path
           d="m 114.63474,23.918448 c -0.0403,0 -0.0719,0.01884 -0.089,0.05083 v -0.04952 h -0.0342 v 0.315525 h 0.0342 v -0.134536 c 0.0171,0.03199 0.0487,0.05083 0.0898,0.05083 0.0653,0 0.11,-0.04777 0.11,-0.11613 0,-0.0688 -0.0456,-0.117007 -0.11088,-0.117007 z m -0.006,0.202899 c -0.0486,0 -0.0828,-0.03593 -0.0828,-0.08677 0,-0.0504 0.0342,-0.08677 0.0828,-0.08677 0.0482,0 0.0824,0.03681 0.0824,0.08677 0,0.0504 -0.0342,0.08677 -0.0824,0.08677 z"
           style="font-style:normal;font-variant:normal;font-weight:300;font-stretch:normal;font-size:0.43822837px;font-family:Montserrat;-inkscape-font-specification:'Montserrat Light';fill:#58595b;stroke-width:0.01041669px"
           id="path81120"
           inkscape:connector-curvature="0" />
        <path
           d="m 114.89934,23.918448 c -0.0684,0 -0.11701,0.04777 -0.11701,0.11613 0,0.06924 0.0486,0.117007 0.11701,0.117007 0.0684,0 0.117,-0.04777 0.117,-0.117007 0,-0.06836 -0.0486,-0.11613 -0.117,-0.11613 z m 0,0.03024 c 0.0482,0 0.0828,0.0355 0.0828,0.08633 0,0.05171 -0.0346,0.08677 -0.0828,0.08677 -0.0482,0 -0.0828,-0.03506 -0.0828,-0.08677 0,-0.05083 0.0346,-0.08633 0.0828,-0.08633 z"
           style="font-style:normal;font-variant:normal;font-weight:300;font-stretch:normal;font-size:0.43822837px;font-family:Montserrat;-inkscape-font-specification:'Montserrat Light';fill:#58595b;stroke-width:0.01041669px"
           id="path81122"
           inkscape:connector-curvature="0" />
        <path
           d="m 115.02844,23.919762 0.0863,0.230508 h 0.0355 l 0.0675,-0.188876 0.0679,0.188876 h 0.0355 l 0.0855,-0.230508 h -0.0355 l -0.0675,0.195888 -0.0679,-0.195888 h -0.0359 l -0.067,0.195888 -0.0684,-0.195888 z"
           style="font-style:normal;font-variant:normal;font-weight:300;font-stretch:normal;font-size:0.43822837px;font-family:Montserrat;-inkscape-font-specification:'Montserrat Light';fill:#58595b;stroke-width:0.01041669px"
           id="path81124"
           inkscape:connector-curvature="0" />
        <path
           d="m 115.53009,23.918448 c -0.067,4.38e-4 -0.11438,0.04777 -0.11438,0.116568 0,0.0688 0.0469,0.116569 0.11481,0.116569 0.0386,0 0.071,-0.01402 0.0929,-0.03813 l -0.0189,-0.01972 c -0.018,0.01884 -0.0429,0.02936 -0.0714,0.02936 -0.0451,0 -0.078,-0.0298 -0.0837,-0.07538 h 0.18844 c 0.004,-0.07801 -0.0333,-0.129277 -0.1078,-0.129277 z m -0.0806,0.102107 c 0.005,-0.0447 0.0364,-0.07362 0.0806,-0.07362 0.0451,0 0.0749,0.02892 0.0771,0.07362 z"
           style="font-style:normal;font-variant:normal;font-weight:300;font-stretch:normal;font-size:0.43822837px;font-family:Montserrat;-inkscape-font-specification:'Montserrat Light';fill:#58595b;stroke-width:0.01041669px"
           id="path81126"
           inkscape:connector-curvature="0" />
        <path
           d="m 115.73075,23.971035 v -0.05127 h -0.0342 v 0.230508 h 0.0342 V 24.02757 c 0.004,-0.04645 0.0342,-0.07669 0.0828,-0.07581 v -0.0333 c -0.039,4.38e-4 -0.0675,0.01884 -0.0828,0.05259 z"
           style="font-style:normal;font-variant:normal;font-weight:300;font-stretch:normal;font-size:0.43822837px;font-family:Montserrat;-inkscape-font-specification:'Montserrat Light';fill:#58595b;stroke-width:0.01041669px"
           id="path81128"
           inkscape:connector-curvature="0" />
        <path
           d="m 115.95034,23.918448 c -0.067,4.38e-4 -0.11438,0.04777 -0.11438,0.116568 0,0.0688 0.0469,0.116569 0.11482,0.116569 0.0386,0 0.071,-0.01402 0.0929,-0.03813 l -0.0188,-0.01972 c -0.018,0.01884 -0.0429,0.02936 -0.0714,0.02936 -0.0451,0 -0.078,-0.0298 -0.0837,-0.07538 h 0.18843 c 0.004,-0.07801 -0.0333,-0.129277 -0.1078,-0.129277 z m -0.0806,0.102107 c 0.005,-0.0447 0.0364,-0.07362 0.0806,-0.07362 0.0451,0 0.0749,0.02892 0.0771,0.07362 z"
           style="font-style:normal;font-variant:normal;font-weight:300;font-stretch:normal;font-size:0.43822837px;font-family:Montserrat;-inkscape-font-specification:'Montserrat Light';fill:#58595b;stroke-width:0.01041669px"
           id="path81130"
           inkscape:connector-curvature="0" />
        <path
           d="m 116.29474,23.825105 v 0.144615 c -0.0171,-0.03287 -0.0491,-0.05171 -0.0903,-0.05171 -0.0653,0 -0.11087,0.04777 -0.11087,0.116569 0,0.0688 0.0456,0.117445 0.11131,0.117445 0.0412,0 0.0727,-0.01884 0.0898,-0.05127 v 0.04952 h 0.0342 v -0.325165 z m -0.0833,0.297557 c -0.0491,0 -0.0837,-0.03637 -0.0837,-0.08721 0,-0.05083 0.0346,-0.08765 0.0837,-0.08765 0.0486,0 0.0833,0.03681 0.0833,0.08765 0,0.05083 -0.0346,0.08721 -0.0833,0.08721 z"
           style="font-style:normal;font-variant:normal;font-weight:300;font-stretch:normal;font-size:0.43822837px;font-family:Montserrat;-inkscape-font-specification:'Montserrat Light';fill:#58595b;stroke-width:0.01041669px"
           id="path81132"
           inkscape:connector-curvature="0" />
        <path
           d="m 116.65984,23.918448 c -0.0403,0 -0.0719,0.01884 -0.089,0.05083 v -0.144177 h -0.0342 v 0.325165 h 0.0342 v -0.04952 c 0.0171,0.03199 0.0486,0.05083 0.0898,0.05083 0.0653,0 0.11,-0.04777 0.11,-0.11613 0,-0.0688 -0.0456,-0.117007 -0.11087,-0.117007 z m -0.006,0.202899 c -0.0486,0 -0.0828,-0.03593 -0.0828,-0.08677 0,-0.0504 0.0342,-0.08677 0.0828,-0.08677 0.0482,0 0.0824,0.03681 0.0824,0.08677 0,0.0504 -0.0342,0.08677 -0.0824,0.08677 z"
           style="font-style:normal;font-variant:normal;font-weight:300;font-stretch:normal;font-size:0.43822837px;font-family:Montserrat;-inkscape-font-specification:'Montserrat Light';fill:#58595b;stroke-width:0.01041669px"
           id="path81134"
           inkscape:connector-curvature="0" />
        <path
           d="m 116.89657,24.183138 0.10605,-0.263376 h -0.0351 l -0.0732,0.191944 -0.0767,-0.191944 h -0.0359 l 0.0955,0.228756 -0.01,0.02191 c -0.009,0.02191 -0.0241,0.03331 -0.0421,0.03331 -0.0114,0 -0.0219,-0.0035 -0.0324,-0.01095 l -0.0145,0.02717 c 0.014,0.01139 0.0294,0.01665 0.0486,0.01665 0.0307,0 0.0548,-0.01841 0.0692,-0.05346 z"
           style="font-style:normal;font-variant:normal;font-weight:300;font-stretch:normal;font-size:0.43822837px;font-family:Montserrat;-inkscape-font-specification:'Montserrat Light';fill:#58595b;stroke-width:0.01041669px"
           id="path81136"
           inkscape:connector-curvature="0" />
        <path
           d="m 117.29947,23.842634 c -0.0898,0 -0.16083,0.06793 -0.16083,0.154257 0,0.08633 0.071,0.154694 0.16083,0.154694 0.0894,0 0.16039,-0.06836 0.16039,-0.154694 0,-0.08633 -0.071,-0.154257 -0.16039,-0.154257 z m 0,0.03243 c 0.0684,0 0.12446,0.0539 0.12446,0.121828 0,0.06792 -0.0561,0.122703 -0.12446,0.122703 -0.0684,0 -0.12533,-0.05478 -0.12533,-0.122703 0,-0.06793 0.057,-0.121828 0.12533,-0.121828 z"
           style="font-style:normal;font-variant:normal;font-weight:300;font-stretch:normal;font-size:0.43822837px;font-family:Montserrat;-inkscape-font-specification:'Montserrat Light';fill:#58595b;stroke-width:0.01041669px"
           id="path81138"
           inkscape:connector-curvature="0" />
        <path
           d="m 117.64414,23.918448 c -0.0403,0 -0.0719,0.01884 -0.089,0.05083 v -0.04952 h -0.0342 v 0.315525 h 0.0342 v -0.134536 c 0.0171,0.03199 0.0486,0.05083 0.0898,0.05083 0.0653,0 0.10999,-0.04777 0.10999,-0.11613 0,-0.0688 -0.0456,-0.117007 -0.11087,-0.117007 z m -0.006,0.202899 c -0.0486,0 -0.0828,-0.03593 -0.0828,-0.08677 0,-0.0504 0.0342,-0.08677 0.0828,-0.08677 0.0482,0 0.0824,0.03681 0.0824,0.08677 0,0.0504 -0.0342,0.08677 -0.0824,0.08677 z"
           style="font-style:normal;font-variant:normal;font-weight:300;font-stretch:normal;font-size:0.43822837px;font-family:Montserrat;-inkscape-font-specification:'Montserrat Light';fill:#58595b;stroke-width:0.01041669px"
           id="path81140"
           inkscape:connector-curvature="0" />
        <path
           d="m 117.9061,23.918448 c -0.067,4.38e-4 -0.11437,0.04777 -0.11437,0.116568 0,0.0688 0.0469,0.116569 0.11481,0.116569 0.0386,0 0.071,-0.01402 0.0929,-0.03813 l -0.0189,-0.01972 c -0.018,0.01884 -0.0429,0.02936 -0.0714,0.02936 -0.0451,0 -0.078,-0.0298 -0.0837,-0.07538 h 0.18844 c 0.004,-0.07801 -0.0333,-0.129277 -0.10781,-0.129277 z m -0.0806,0.102107 c 0.005,-0.0447 0.0364,-0.07362 0.0806,-0.07362 0.0451,0 0.0749,0.02892 0.0771,0.07362 z"
           style="font-style:normal;font-variant:normal;font-weight:300;font-stretch:normal;font-size:0.43822837px;font-family:Montserrat;-inkscape-font-specification:'Montserrat Light';fill:#58595b;stroke-width:0.01041669px"
           id="path81142"
           inkscape:connector-curvature="0" />
        <path
           d="m 118.19616,23.918448 c -0.0421,4.38e-4 -0.0732,0.01709 -0.0894,0.05215 v -0.05084 h -0.0342 v 0.230508 h 0.0342 v -0.12358 c 0.004,-0.0447 0.032,-0.07494 0.0776,-0.07537 0.0408,0 0.0653,0.02454 0.0653,0.06573 v 0.133221 h 0.0342 v -0.141986 c 0,-0.05609 -0.0324,-0.08984 -0.0876,-0.08984 z"
           style="font-style:normal;font-variant:normal;font-weight:300;font-stretch:normal;font-size:0.43822837px;font-family:Montserrat;-inkscape-font-specification:'Montserrat Light';fill:#58595b;stroke-width:0.01041669px"
           id="path81144"
           inkscape:connector-curvature="0" />
        <path
           d="m 118.65836,23.901795 0.0149,-0.03111 c -0.0254,-0.01709 -0.0618,-0.02848 -0.0973,-0.02848 -0.0635,0 -0.10605,0.03068 -0.10605,0.07888 0,0.109995 0.17266,0.06661 0.17222,0.148559 0,0.0298 -0.0276,0.04777 -0.0719,0.04777 -0.0346,0 -0.0736,-0.01578 -0.1021,-0.04295 l -0.0158,0.03024 c 0.0289,0.02761 0.0727,0.04689 0.11745,0.04689 0.0657,0 0.11087,-0.03287 0.11087,-0.0837 4.4e-4,-0.11131 -0.17223,-0.06968 -0.17223,-0.149436 0,-0.02629 0.0259,-0.04207 0.0653,-0.04207 0.0245,0 0.057,0.0075 0.0846,0.02542 z"
           style="font-style:normal;font-variant:normal;font-weight:300;font-stretch:normal;font-size:0.43822837px;font-family:Montserrat;-inkscape-font-specification:'Montserrat Light';fill:#58595b;stroke-width:0.01041669px"
           id="path81146"
           inkscape:connector-curvature="0" />
        <path
           d="m 118.84168,23.918448 c -0.0684,0 -0.11701,0.04777 -0.11701,0.11613 0,0.06924 0.0486,0.117007 0.11701,0.117007 0.0684,0 0.11701,-0.04777 0.11701,-0.117007 0,-0.06836 -0.0487,-0.11613 -0.11701,-0.11613 z m 0,0.03024 c 0.0482,0 0.0828,0.0355 0.0828,0.08633 0,0.05171 -0.0346,0.08677 -0.0828,0.08677 -0.0482,0 -0.0828,-0.03506 -0.0828,-0.08677 0,-0.05083 0.0346,-0.08633 0.0828,-0.08633 z"
           style="font-style:normal;font-variant:normal;font-weight:300;font-stretch:normal;font-size:0.43822837px;font-family:Montserrat;-inkscape-font-specification:'Montserrat Light';fill:#58595b;stroke-width:0.01041669px"
           id="path81148"
           inkscape:connector-curvature="0" />
        <path
           d="m 119.18446,23.919762 v 0.113063 c 0,0.04996 -0.0281,0.08502 -0.0758,0.08589 -0.0399,0 -0.064,-0.02454 -0.064,-0.06573 v -0.133222 h -0.0342 v 0.141986 c 0,0.05565 0.0324,0.08984 0.0863,0.08984 0.0416,-4.38e-4 0.0723,-0.01753 0.0876,-0.05346 v 0.05215 h 0.0342 v -0.230508 z"
           style="font-style:normal;font-variant:normal;font-weight:300;font-stretch:normal;font-size:0.43822837px;font-family:Montserrat;-inkscape-font-specification:'Montserrat Light';fill:#58595b;stroke-width:0.01041669px"
           id="path81150"
           inkscape:connector-curvature="0" />
        <path
           d="m 119.33586,23.971035 v -0.05127 h -0.0342 v 0.230508 h 0.0342 V 24.02757 c 0.004,-0.04645 0.0342,-0.07669 0.0828,-0.07581 v -0.0333 c -0.039,4.38e-4 -0.0675,0.01884 -0.0828,0.05259 z"
           style="font-style:normal;font-variant:normal;font-weight:300;font-stretch:normal;font-size:0.43822837px;font-family:Montserrat;-inkscape-font-specification:'Montserrat Light';fill:#58595b;stroke-width:0.01041669px"
           id="path81152"
           inkscape:connector-curvature="0" />
        <path
           d="m 119.62557,23.976294 0.0188,-0.02366 c -0.021,-0.02147 -0.0517,-0.03418 -0.089,-0.03418 -0.0666,0 -0.11438,0.0482 -0.11438,0.116568 0,0.0688 0.0473,0.116569 0.11438,0.116569 0.0399,0 0.0719,-0.0149 0.0925,-0.03988 l -0.0197,-0.02016 c -0.0162,0.01928 -0.0412,0.0298 -0.0714,0.0298 -0.0478,0 -0.082,-0.03506 -0.082,-0.08633 0,-0.05083 0.0342,-0.08589 0.082,-0.08589 0.028,0 0.0513,0.01008 0.0688,0.02717 z"
           style="font-style:normal;font-variant:normal;font-weight:300;font-stretch:normal;font-size:0.43822837px;font-family:Montserrat;-inkscape-font-specification:'Montserrat Light';fill:#58595b;stroke-width:0.01041669px"
           id="path81154"
           inkscape:connector-curvature="0" />
        <path
           d="m 119.78997,23.918448 c -0.067,4.38e-4 -0.11437,0.04777 -0.11437,0.116568 0,0.0688 0.0469,0.116569 0.11481,0.116569 0.0386,0 0.071,-0.01402 0.0929,-0.03813 l -0.0189,-0.01972 c -0.018,0.01884 -0.0429,0.02936 -0.0714,0.02936 -0.0451,0 -0.078,-0.0298 -0.0837,-0.07538 h 0.18844 c 0.004,-0.07801 -0.0333,-0.129277 -0.10781,-0.129277 z m -0.0806,0.102107 c 0.005,-0.0447 0.0364,-0.07362 0.0806,-0.07362 0.0451,0 0.0749,0.02892 0.0771,0.07362 z"
           style="font-style:normal;font-variant:normal;font-weight:300;font-stretch:normal;font-size:0.43822837px;font-family:Montserrat;-inkscape-font-specification:'Montserrat Light';fill:#58595b;stroke-width:0.01041669px"
           id="path81156"
           inkscape:connector-curvature="0" />
      </g>
    </g>
    <g
       style="display:inline"
       id="g3275"
       transform="matrix(1.3700822,0,0,1.3700822,488.24698,-67.243904)">
      <g
         transform="matrix(4.3155193,0,0,4.3155193,-742.34439,61.063341)"
         id="g3273">
        <path
           sodipodi:nodetypes="cccscccscccsssccccccc"
           inkscape:connector-curvature="0"
           id="path3261"
           transform="matrix(0.01041667,0,0,0.01041667,0,-7.75)"
           d="m 7808.8125,2097.1875 c -9.6898,0.1378 -17.423,8.1233 -17.25,17.8125 v 329.875 c -0.8781,10.2195 7.1804,19 17.4375,19 10.2571,0 19.0227,-8.7805 18.1446,-19 v -77.7324 l 0.4179,-6.1426 c 0,-55.1597 44.2153,-99.5625 99.375,-99.5625 55.1596,0 99.5625,44.4028 99.5625,99.5625 0.01,0.1837 0.015,0.3674 0.027,0.5508 -0.026,0.4409 -0.035,0.8826 -0.027,1.3242 v 110 c 0,9.6822 7.849,17.5312 17.5312,17.5312 9.6823,0 17.5313,-7.849 17.5313,-17.5312 v -110 c 0,-0.3245 -0.012,-0.6488 -0.031,-0.9727 0.018,-0.3004 0.029,-0.6013 0.031,-0.9023 1e-4,-74.075 -60.55,-134.4374 -134.625,-134.4375 -39.9177,1e-4 -75.8465,17.5354 -100.5,45.293 V 2115 c 0.1749,-9.8356 -7.7881,-17.8833 -17.625,-17.8125 z"
           style="color:#000000;font-style:normal;font-variant:normal;font-weight:normal;font-stretch:normal;font-size:medium;line-height:normal;font-family:sans-serif;font-variant-ligatures:normal;font-variant-position:normal;font-variant-caps:normal;font-variant-numeric:normal;font-variant-alternates:normal;font-feature-settings:normal;text-indent:0;text-align:start;text-decoration:none;text-decoration-line:none;text-decoration-style:solid;text-decoration-color:#000000;letter-spacing:normal;word-spacing:normal;text-transform:none;writing-mode:lr-tb;direction:ltr;text-orientation:mixed;dominant-baseline:auto;baseline-shift:baseline;text-anchor:start;white-space:normal;shape-padding:0;clip-rule:nonzero;display:inline;overflow:visible;visibility:visible;opacity:1;isolation:auto;mix-blend-mode:normal;color-interpolation:sRGB;color-interpolation-filters:linearRGB;solid-color:#000000;solid-opacity:1;vector-effect:none;fill:#a586f3;fill-opacity:1;fill-rule:nonzero;stroke:none;stroke-width:35;stroke-linecap:round;stroke-linejoin:round;stroke-miterlimit:4;stroke-dasharray:none;stroke-dashoffset:0;stroke-opacity:1;color-rendering:auto;image-rendering:auto;shape-rendering:auto;text-rendering:auto;enable-background:accumulate" />
        <path
           sodipodi:nodetypes="cccsssccscsccczccc"
           inkscape:connector-curvature="0"
           id="path3263"
           transform="matrix(0.01041667,0,0,0.01041667,0,-7.75)"
           d="m 7765.8027,2098.123 c -0.038,5e-4 -0.077,0 -0.1152,0 -9.6898,0.1378 -17.423,8.1233 -17.25,17.8125 V 2361 c 0,41.9333 -26.0162,79.2671 -65.4375,93.5625 -39.4213,14.2954 -83.5594,2.3741 -110.4375,-29.8125 -26.878,-32.1865 -30.6579,-77.5719 -9.5625,-113.8125 21.0955,-36.2406 62.4262,-55.2897 103.6875,-47.8125 9.5173,1.7397 18.6463,-4.5547 20.4043,-14.0686 1.758,-9.514 -4.5187,-18.6551 -14.0293,-20.4314 -55.6354,-10.082 -111.8054,15.8219 -140.25,64.6875 -28.4446,48.8656 -23.3039,110.5381 12.9375,153.9375 36.2415,43.3993 95.908,59.4005 149.0625,40.125 44.7667,-16.2337 77.0286,-54.658 86.0977,-100.1562 0,0 1.9812,-4.7686 2.5898,-9.1563 0.6086,-4.3877 0,-17.0625 0,-17.0625 v -245.0625 c 0.1769,-9.865 -7.8313,-17.9263 -17.6973,-17.8145 z"
           style="color:#000000;font-style:normal;font-variant:normal;font-weight:normal;font-stretch:normal;font-size:medium;line-height:normal;font-family:sans-serif;font-variant-ligatures:normal;font-variant-position:normal;font-variant-caps:normal;font-variant-numeric:normal;font-variant-alternates:normal;font-feature-settings:normal;text-indent:0;text-align:start;text-decoration:none;text-decoration-line:none;text-decoration-style:solid;text-decoration-color:#000000;letter-spacing:normal;word-spacing:normal;text-transform:none;writing-mode:lr-tb;direction:ltr;text-orientation:mixed;dominant-baseline:auto;baseline-shift:baseline;text-anchor:start;white-space:normal;shape-padding:0;clip-rule:nonzero;display:inline;overflow:visible;visibility:visible;opacity:1;isolation:auto;mix-blend-mode:normal;color-interpolation:sRGB;color-interpolation-filters:linearRGB;solid-color:#000000;solid-opacity:1;vector-effect:none;fill:#5ed3ee;fill-opacity:1;fill-rule:nonzero;stroke:none;stroke-width:35;stroke-linecap:round;stroke-linejoin:round;stroke-miterlimit:4;stroke-dasharray:none;stroke-dashoffset:0;stroke-opacity:1;color-rendering:auto;image-rendering:auto;shape-rendering:auto;text-rendering:auto;enable-background:accumulate" />
        <g
           id="g3271">
          <circle
             r="0.64509356"
             cy="16.822931"
             cx="79.677254"
             id="circle3265"
             style="opacity:1;fill:none;fill-opacity:1;stroke:#c6ea70;stroke-width:0.36458334;stroke-miterlimit:4;stroke-dasharray:none;stroke-dashoffset:0;stroke-opacity:1" />
          <path
             style="opacity:1;fill:none;fill-opacity:1;stroke:#dff3b1;stroke-width:0.36458334;stroke-linecap:round;stroke-linejoin:round;stroke-miterlimit:4;stroke-dasharray:none;stroke-dashoffset:0;stroke-opacity:1"
             id="path3267"
             sodipodi:type="arc"
             sodipodi:cx="79.677261"
             sodipodi:cy="16.822931"
             sodipodi:rx="1.8088735"
             sodipodi:ry="1.8088735"
             sodipodi:start="0.89506385"
             sodipodi:end="5.0494266"
             d="m 80.808656,18.234303 a 1.8088735,1.8088735 0 0 1 -2.309183,-0.03848 1.8088735,1.8088735 0 0 1 -0.389241,-2.276466 1.8088735,1.8088735 0 0 1 2.165211,-0.803532"
             sodipodi:open="true" />
          <path
             d="m 82.216272,17.248644 a 2.455857,2.4425189 0 0 1 -2.468226,2.016391 2.455857,2.4425189 0 0 1 -2.383743,-2.114547 2.455857,2.4425189 0 0 1 1.733108,-2.668494"
             sodipodi:end="4.4231027"
             sodipodi:start="0.17514985"
             sodipodi:ry="2.4425189"
             sodipodi:rx="2.455857"
             sodipodi:cy="16.823021"
             sodipodi:cx="79.797989"
             sodipodi:type="arc"
             id="path3269"
             style="opacity:1;fill:none;fill-opacity:1;stroke:#f2fadf;stroke-width:0.36458337;stroke-linecap:round;stroke-linejoin:round;stroke-miterlimit:4;stroke-dasharray:none;stroke-dashoffset:0;stroke-opacity:1"
             sodipodi:open="true" />
        </g>
      </g>
    </g>
  </g>
</svg>
