<?xml version="1.0" encoding="utf-8"?>
<!-- Generator: Adobe Illustrator 23.0.3, SVG Export Plug-In . SVG Version: 6.00 Build 0)  -->
<svg version="1.1" id="LOGO" xmlns="http://www.w3.org/2000/svg" xmlns:xlink="http://www.w3.org/1999/xlink" x="0px" y="0px"
	 viewBox="0 0 1250 703" style="enable-background:new 0 0 1250 703;" xml:space="preserve">
<style type="text/css">
	.st0{fill:url(#SVGID_1_);}
</style>
<title>gtc19-dc-partner-logo-wekaio</title>
<path d="M488.8,326c0.1,5-1.1,10-3.6,14.4c-2.4,4.2-6,7.7-10.3,9.9c-4.8,2.5-10.1,3.8-15.5,3.6h-21v36.2h-14.1v-92.2h35.2
	c4.1,0,8.2,0.7,12.1,2.1c3.5,1.3,6.8,3.3,9.5,5.9c2.5,2.5,4.5,5.5,5.9,8.8C488.3,318.3,488.9,322.1,488.8,326z M474.9,326
	c0.2-4.2-1.4-8.3-4.4-11.3c-3.3-2.9-7.5-4.4-11.9-4.2h-20.1v30.6h20.1c4.3,0.2,8.6-1.3,11.9-4.2c3-2.8,4.7-6.8,4.6-10.9H474.9z"/>
<path d="M564.7,390.1h-58.9v-92.2h58.9v12.6h-44.8v26.8h38.2v12.6h-38.2v27.6h44.8V390.1z"/>
<path d="M653.1,390.1h-12.8l-42.5-64.7v64.7h-14v-92.2h12.9l42.5,64.6v-64.4h14L653.1,390.1z"/>
<path d="M740.4,354.4c0.1,5.1-0.5,10.1-1.8,15c-1.3,4.1-3.5,7.8-6.4,10.9c-6.5,6.9-15.7,10.7-25.1,10.5c-3.1,0-6.1-0.4-9.1-1.1
	c-2.9-0.7-5.6-1.9-8.2-3.4c-2.5-1.5-4.9-3.3-6.9-5.3c-2.8-2.7-4.9-5.9-6.4-9.5c-1.3-3.5-2.1-7.1-2.3-10.8c-0.3-3.9-0.4-9.5-0.4-16.8
	c0-5.6,0-10,0.2-13.3c0.1-3,0.5-6,1-9c0.5-2.7,1.4-5.2,2.6-7.7c1.3-2.6,3.1-4.9,5.2-7c6.3-6.4,15-9.9,24-9.6
	c5.7-0.1,11.4,1.1,16.5,3.7c4.6,2.4,8.5,5.9,11.3,10.2c2.9,4.4,4.8,9.4,5.7,14.6h-14.2c-0.7-3-1.9-5.9-3.7-8.4
	c-1.7-2.3-3.9-4.2-6.5-5.5c-2.9-1.3-6-2-9.1-1.9c-2.6,0-5.2,0.5-7.5,1.5c-2.3,0.9-4.4,2.4-6.1,4.2c-2.3,2.6-3.8,5.8-4.4,9.3
	c-0.9,6.4-1.3,12.8-1.1,19.3c0,4.9,0,8.7,0.2,11.5c0.1,2.6,0.4,5.1,0.8,7.6c0.3,1.9,0.8,3.7,1.6,5.4c0.8,1.5,1.7,2.9,2.8,4.2
	c1.7,1.8,3.8,3.2,6,4.2c2.4,1,5,1.5,7.6,1.5c5.7,0.2,11.2-2.1,15-6.5c3.3-4.1,5-9.2,4.7-14.4v-5.5h-19.7v-11.9h33.5L740.4,354.4z"/>
<path d="M825.5,359c0.2,5.9-1.3,11.7-4.2,16.8c-2.8,4.8-6.9,8.7-11.9,11.2c-10.6,5.3-23.1,5.3-33.8,0c-4.9-2.5-9-6.4-11.9-11.2
	c-2.9-5.1-4.4-10.9-4.2-16.8v-60.8h14v60.3c-0.1,3.7,0.7,7.3,2.3,10.6c1.4,2.9,3.7,5.2,6.5,6.8c3.1,1.7,6.5,2.5,10,2.4
	c3.5,0.1,7-0.8,10.1-2.4c2.9-1.6,5.2-4,6.7-6.9c1.6-3.3,2.4-6.9,2.3-10.6v-60.1h14V359H825.5z"/>
<path d="M862.1,390.1H848v-92.2h14.1V390.1z"/>
<path d="M955.3,390.1h-12.8l-42.4-64.7v64.7h-14v-92.2H899l42.4,64.8v-64.6h14L955.3,390.1z"/>
<path d="M474.2,459.3c-0.5,3.2-1.6,6.3-3.1,9.2c-1.4,2.6-3.2,4.9-5.4,6.7c-2.2,1.8-4.7,3.3-7.4,4.2c-2.9,0.9-5.9,1.4-8.9,1.4
	c-2.3,0-4.6-0.3-6.9-0.8c-2.2-0.5-4.3-1.4-6.2-2.6c-1.9-1.2-3.7-2.6-5.3-4.2c-2-2-3.6-4.5-4.7-7.1c-1-2.7-1.6-5.5-1.8-8.4
	c-0.2-2.9-0.3-7.2-0.3-12.6c0-4.2,0-7.6,0-10.1c0.1-2.3,0.4-4.6,0.8-6.9c0.4-2,1.1-4,2-5.8c1-2,2.3-3.8,3.9-5.3
	c2.4-2.4,5.2-4.3,8.4-5.5c3.2-1.3,6.6-1.9,10.1-1.9c6-0.2,11.8,1.8,16.4,5.6c4.6,4.1,7.6,9.8,8.4,15.9h-10.8
	c-0.7-3.4-2.4-6.4-4.9-8.8c-2.6-2.2-5.9-3.3-9.2-3.2c-2,0-3.9,0.3-5.8,1.1c-1.7,0.7-3.3,1.7-4.6,3.1c-0.9,0.9-1.6,1.9-2.1,3.1
	c-0.6,1.3-1.1,2.7-1.3,4.2c-0.4,1.9-0.6,3.8-0.7,5.7c0,2.1,0,5.1,0,8.8s0,6.6,0,8.7c0.1,1.9,0.3,3.8,0.7,5.7
	c0.2,1.5,0.6,2.9,1.3,4.2c0.6,1.1,1.3,2.2,2.1,3.2c1.3,1.3,2.9,2.4,4.6,3.1c1.8,0.8,3.8,1.1,5.8,1.1c2.3,0,4.6-0.5,6.6-1.5
	c1.9-1,3.6-2.4,4.8-4.2c1.3-1.9,2.2-4,2.7-6.2L474.2,459.3z"/>
<path d="M535.2,445.2c0,5.5,0,9.8-0.3,12.6c-0.2,2.9-0.8,5.7-1.8,8.4c-1,2.7-2.6,5.1-4.6,7.1c-10.2,9.9-26.5,9.9-36.7,0
	c-2-2-3.6-4.5-4.7-7.1c-1-2.7-1.6-5.5-1.8-8.4c-0.3-2.9-0.3-7.2-0.3-12.6c0-4.2,0-7.6,0-10.1c0.1-2.3,0.3-4.6,0.8-6.9
	c0.4-2,1-4,2-5.8c1-2,2.3-3.8,3.9-5.3c4.8-4.9,11.4-7.6,18.3-7.4c6.9-0.2,13.6,2.5,18.4,7.4c2,2,3.6,4.5,4.7,7.2
	c1,2.7,1.5,5.5,1.7,8.4C535.1,435.5,535.2,439.8,535.2,445.2z M524.7,445.2c0.1-4.9-0.2-9.8-0.8-14.7c-0.4-2.6-1.6-5-3.4-7
	c-1.3-1.4-2.9-2.4-4.6-3.1c-3.7-1.5-7.9-1.5-11.6,0c-1.8,0.7-3.3,1.8-4.7,3.1c-1.7,2-2.9,4.4-3.3,7c-0.7,4.8-0.9,9.7-0.8,14.6
	c0,3.7,0,6.6,0,8.8c0.1,2,0.3,3.9,0.7,5.8c0.2,1.3,0.6,2.6,1.1,3.9c0.6,1.1,1.3,2.2,2.1,3.1c1.3,1.4,2.9,2.4,4.7,3.2
	c1.8,0.8,3.8,1.1,5.7,1.1c3.9,0.2,7.7-1.4,10.4-4.2c1.2-1.2,2.1-2.6,2.6-4.2c0.7-2.1,1.1-4.3,1.2-6.5
	C524.5,453.4,524.7,449.8,524.7,445.2L524.7,445.2z"/>
<path d="M611.8,480.2h-10.7v-46.7l-16,34h-7.8l-16.4-34v46.7h-10.7v-69.8h10.7l20.4,43.4l19.9-43.4H612L611.8,480.2z"/>
<path d="M678,431.5c0.1,3.8-0.9,7.6-2.7,10.9c-1.8,3.2-4.6,5.8-7.8,7.5c-3.6,1.9-7.7,2.8-11.8,2.8H640v27.4h-10.7v-69.8h26.5
	c3.1,0,6.3,0.5,9.2,1.6c2.7,1,5.1,2.5,7.2,4.4c1.9,1.9,3.5,4.2,4.5,6.7C677.6,425.8,678.1,428.7,678,431.5z M667.5,431.5
	c0.1-3.1-1.1-6.2-3.4-8.4c-2.5-2.2-5.7-3.3-9-3.1h-15.3v23.2h15.3c3.3,0.2,6.5-0.9,9-3.1C666.5,438,667.7,434.8,667.5,431.5z"/>
<path d="M739.2,456.6c0.1,4.4-1.1,8.8-3.3,12.6c-2.1,3.6-5.2,6.5-9,8.4c-8.1,4-17.6,4-25.6,0c-3.7-1.9-6.8-4.8-8.9-8.4
	c-2.2-3.8-3.3-8.2-3.3-12.6v-46.1h10.6v45.6c-0.1,2.8,0.5,5.5,1.8,8c1.1,2.2,2.9,4.1,5,5.3c2.3,1.3,4.9,1.9,7.6,1.8
	c2.7,0.1,5.3-0.6,7.6-1.8c2.2-1.2,4-3,5.1-5.2c1.2-2.5,1.8-5.3,1.8-8v-45.7h10.6L739.2,456.6L739.2,456.6z"/>
<path d="M798.5,419.9h-19.2v60.3h-10.6v-60.3h-19.2v-9.5h49V419.9z"/>
<path d="M820.5,480.2h-10.7v-69.8h10.7V480.2z"/>
<path d="M890.5,480.2h-9.7L848.6,431v49.2H838v-69.8h9.8l32.3,49v-49h10.6v69.8H890.5z"/>
<path d="M956.2,453.1c0.1,3.9-0.4,7.7-1.4,11.4c-0.9,3.1-2.6,6-4.9,8.4c-5,5.3-12,8.2-19.2,7.9c-2.3,0-4.6-0.3-6.9-0.8
	c-4.3-1.1-8.3-3.4-11.4-6.6c-2-2-3.6-4.5-4.7-7.1c-1-2.7-1.6-5.5-1.8-8.4c0-2.9-0.3-7.2-0.3-12.6c0-4.2,0-7.6,0-10.1
	c0.1-2.3,0.4-4.6,0.8-6.9c0.4-2,1-4,2-5.8c1-2,2.3-3.8,3.9-5.3c4.8-4.9,11.4-7.6,18.3-7.4c4.4-0.1,8.7,0.9,12.6,2.8
	c3.5,1.8,6.5,4.5,8.6,7.8c2.1,3.4,3.6,7.1,4.2,11.1h-10.3c-0.5-2.3-1.5-4.5-2.8-6.5c-1.3-1.8-3-3.2-5-4.2c-2.2-1-4.5-1.5-6.9-1.4
	c-2,0-3.9,0.4-5.7,1.1s-3.3,1.8-4.7,3.1c-1.7,2-2.9,4.4-3.4,7c-0.7,4.9-1,9.8-0.8,14.7c0,3.7,0,6.6,0,8.7c0.1,1.9,0.3,3.8,0.6,5.7
	c0.2,1.4,0.7,2.9,1.3,4.2c0.6,1.1,1.3,2.2,2.1,3.2c1.3,1.3,2.9,2.4,4.6,3.1c1.8,0.8,3.8,1.1,5.7,1.1c4.3,0.2,8.5-1.6,11.4-4.9
	c2.5-3.1,3.8-7.1,3.5-11.1v-3.9h-14.9v-9h25.4L956.2,453.1z"/>
<linearGradient id="SVGID_1_" gradientUnits="userSpaceOnUse" x1="625" y1="604.9311" x2="625" y2="272.4" gradientTransform="matrix(1 0 0 1 0 -88)">
	<stop  offset="0" style="stop-color:#F3A010"/>
	<stop  offset="1" style="stop-color:#F9D300"/>
</linearGradient>
<path class="st0" d="M730.1,203c-242.6,0-411.8,91.5-411.8,187.2c0,45.3,39.7,90.9,121.1,126.7c2.5,1-165.3-21.7-165.3-129.1
	c0-133.7,213.3-203.4,411.9-203.4c127.1,0,257.4,34.8,289.8,56.6C975.9,240.9,886.6,203,730.1,203z"/>
</svg>
