<?xml version="1.0" encoding="UTF-8" standalone="no"?>
<svg
   xmlns:dc="http://purl.org/dc/elements/1.1/"
   xmlns:cc="http://creativecommons.org/ns#"
   xmlns:rdf="http://www.w3.org/1999/02/22-rdf-syntax-ns#"
   xmlns:svg="http://www.w3.org/2000/svg"
   xmlns="http://www.w3.org/2000/svg"
   xmlns:sodipodi="http://sodipodi.sourceforge.net/DTD/sodipodi-0.dtd"
   xmlns:inkscape="http://www.inkscape.org/namespaces/inkscape"
   width="45.076778"
   height="59"
   viewBox="0 0 45.076778 59"
   version="1.1"
   id="svg30"
   sodipodi:docname="perceptilabs.svg"
   inkscape:version="0.92.4 (unknown)"
   style="fill:none">
  <metadata
     id="metadata36">
    <rdf:RDF>
      <cc:Work
         rdf:about="">
        <dc:format>image/svg+xml</dc:format>
        <dc:type
           rdf:resource="http://purl.org/dc/dcmitype/StillImage" />
        <dc:title></dc:title>
      </cc:Work>
    </rdf:RDF>
  </metadata>
  <defs
     id="defs34" />
  <sodipodi:namedview
     pagecolor="#ffffff"
     bordercolor="#666666"
     borderopacity="1"
     objecttolerance="10"
     gridtolerance="10"
     guidetolerance="10"
     inkscape:pageopacity="0"
     inkscape:pageshadow="2"
     inkscape:window-width="1274"
     inkscape:window-height="850"
     id="namedview32"
     showgrid="false"
     inkscape:zoom="0.64579256"
     inkscape:cx="196.79086"
     inkscape:cy="29.5"
     inkscape:window-x="2053"
     inkscape:window-y="181"
     inkscape:window-maximized="0"
     inkscape:current-layer="svg30" />
  <rect
     style="fill:#000000;fill-opacity:1;stroke:none;stroke-width:18.89763832;stroke-miterlimit:4;stroke-dasharray:none;stroke-opacity:1"
     id="rect845"
     width="55.853886"
     height="73.07576"
     x="-6.3023686"
     y="-6.3333335" />
  <path
     d="m 44.939956,29.8 -4.3,-8.2 -0.5,-4.9 c -0.1,-2.6 -0.7,-5.2 -2,-7.5 -1.3,-2.5 -3.3,-4.7 -5.7,-6.2 v 13.1 l 2.6,2.6 c 0.2,-0.1 0.4,-0.1 0.6,-0.1 1.3,0 2.3,1 2.3,2.3 0,1.3 -1,2.3 -2.3,2.3 -1.3,0 -2.3,-1 -2.3,-2.3 0,-0.2 0,-0.4 0.1,-0.6 l -3.3,-3.3 V 1.9 c -0.1,0 -0.1999,-0.1 -0.2999,-0.2 -0.8,-0.3 -1.6,-0.6 -2.5,-0.9 v 24.3 l 2.6,2.6 c 0.2,-0.1 0.4,-0.1 0.6,-0.1 1.3,0 2.2999,1 2.2999,2.3 0,1.3 -0.9999,2.3 -2.2999,2.3 -1.3,0 -2.3,-1 -2.3,-2.3 0,-0.2 0,-0.4 0.1,-0.6 l -3.3,-3.3 V 0.3 c -0.9,-0.2 -1.9,-0.3 -2.8,-0.3 v 33.3 c 0.7,0.4 1.2,1.1 1.2,2 0,1.3 -1.0001,2.3 -2.3001,2.3 -1.3,0 -2.2999,-1 -2.2999,-2.3 0,-0.9 0.5,-1.6 1.2,-2 V 0 c -1,0 -1.9,0.1 -2.8,0.2 V 26 l -3.3,3.3 c 0.1,0.2 0.1,0.4 0.1,0.6 0,1.3 -1,2.3 -2.3,2.3 -1.3,0 -2.3000004,-1 -2.3000004,-2.3 0,-1.3 1.0000004,-2.3 2.3000004,-2.3 0.2,0 0.4,0 0.6,0.1 l 2.6,-2.6 V 0.6 c -1,0.2 -1.9,0.5 -2.8,0.7 v 15.6 l -3.3000004,3.3 c 0.1,0.2 0.1,0.4 0.1,0.6 0,1.3 -1,2.3 -2.3,2.3 -1.3,0 -2.3,-1 -2.3,-2.3 0,-1.3 1,-2.3 2.3,-2.3 0.2,0 0.4,0 0.6,0.1 l 2.6,-2.6 V 2.1 c -3.7,1.8 -6.7,4.8 -8.4,8.6 l -0.1,0.3 c -1.69999995,4.1 -1.79999995,8.6 -0.2,12.7 l 2.2,5.6 c 0,0.1 0.1,0.2 0.2,0.3 l 1.8,2.9 c 0.2,0.4 0.3,0.8 0.3,1.2 l -1,6.9 20.1000004,18.4 4.1,-9.8 c 0.3,-0.6 0.9,-1.1 1.6,-1.2 l 6.0999,-0.7 c 1.3,-0.1 2.4,-0.8 3.3,-1.8 0.8,-1 1.2,-2.3 1.1,-3.6 l -0.6,-6.8 c -0.1,-0.8 0.4,-1.6 1.1,-1.9 l 2.3,-1 c 1.1,-0.4 1.6,-1.5 1.2,-2.4 z"
     id="path28"
     inkscape:connector-curvature="0"
     style="fill:#ffffff" />
</svg>
