<svg id="svg" version="1.1" xmlns="http://www.w3.org/2000/svg" xmlns:xlink="http://www.w3.org/1999/xlink" width="400" height="98.78048780487805" viewBox="0, 0, 400,98.78048780487805"><g id="svgg"><path id="path0" d="M349.605 16.513 C 349.389 16.683,348.862 16.826,348.327 16.860 C 347.676 16.902,347.417 16.986,347.417 17.156 C 347.417 17.319,347.212 17.400,346.774 17.411 C 346.390 17.421,346.053 17.536,345.935 17.697 C 345.826 17.846,345.552 17.994,345.327 18.026 C 345.057 18.064,344.925 18.184,344.940 18.375 C 344.953 18.535,344.859 18.667,344.731 18.667 C 344.604 18.667,344.350 18.817,344.167 19.000 C 343.983 19.183,343.882 19.333,343.942 19.333 C 344.002 19.333,343.878 19.483,343.667 19.667 C 343.455 19.850,343.211 20.000,343.123 20.000 C 343.036 20.000,343.005 20.107,343.056 20.238 C 343.106 20.369,343.024 20.575,342.875 20.696 C 342.646 20.881,342.625 20.879,342.744 20.683 C 342.840 20.522,342.823 20.487,342.690 20.569 C 342.582 20.635,342.535 20.754,342.583 20.833 C 342.632 20.912,342.591 21.027,342.491 21.089 C 342.392 21.150,342.351 21.305,342.400 21.434 C 342.451 21.565,342.387 21.667,342.255 21.667 C 342.125 21.667,341.978 21.735,341.926 21.818 C 341.875 21.901,342.002 21.936,342.208 21.897 L 342.583 21.825 342.208 22.021 C 342.002 22.129,341.833 22.340,341.833 22.489 C 341.833 22.638,341.686 22.866,341.506 22.995 C 341.242 23.186,341.218 23.279,341.381 23.481 C 341.545 23.683,341.539 23.704,341.353 23.592 C 341.194 23.496,341.149 23.524,341.207 23.685 C 341.253 23.812,341.146 24.077,340.968 24.272 C 340.785 24.474,340.632 24.905,340.615 25.272 C 340.597 25.637,340.468 26.003,340.317 26.117 C 340.130 26.257,340.048 26.599,340.041 27.264 C 340.032 28.201,339.741 28.718,339.466 28.283 C 339.397 28.173,339.366 28.440,339.398 28.875 C 339.450 29.601,339.382 29.738,338.986 29.696 C 338.933 29.690,338.882 29.775,338.873 29.884 C 338.865 29.994,338.803 30.264,338.736 30.484 C 338.640 30.802,338.663 30.857,338.849 30.750 C 338.978 30.676,338.893 30.833,338.659 31.099 C 338.426 31.365,338.213 31.802,338.186 32.069 C 338.158 32.337,337.976 32.772,337.780 33.036 C 337.496 33.421,337.469 33.545,337.648 33.655 C 337.784 33.739,337.802 33.817,337.696 33.855 C 337.599 33.889,337.494 34.104,337.463 34.333 C 337.431 34.563,337.267 34.956,337.100 35.209 C 336.932 35.461,336.834 35.817,336.882 36.000 C 336.937 36.212,336.887 36.333,336.744 36.333 C 336.394 36.333,336.282 36.653,336.527 36.956 C 336.664 37.125,336.674 37.185,336.552 37.112 C 336.416 37.030,336.338 37.190,336.302 37.622 C 336.269 38.023,336.173 38.234,336.037 38.207 C 335.729 38.144,335.575 38.673,335.851 38.848 C 336.017 38.953,336.024 38.996,335.875 38.997 C 335.760 38.999,335.667 39.141,335.667 39.313 C 335.667 39.485,335.559 39.715,335.428 39.824 C 335.297 39.933,335.189 40.148,335.188 40.303 C 335.187 40.907,335.071 41.260,334.796 41.500 C 334.615 41.658,334.496 42.034,334.474 42.525 C 334.449 43.088,334.379 43.277,334.220 43.215 C 333.941 43.109,333.935 43.367,334.208 43.643 C 334.375 43.811,334.364 43.833,334.154 43.753 C 333.941 43.672,333.893 43.776,333.904 44.301 C 333.913 44.779,333.851 44.945,333.667 44.933 C 333.492 44.922,333.417 45.080,333.418 45.458 C 333.419 45.756,333.355 46.000,333.274 46.000 C 333.194 46.000,333.162 46.223,333.202 46.496 C 333.260 46.893,333.230 46.955,333.054 46.809 C 332.791 46.591,332.794 46.584,332.755 47.377 C 332.738 47.722,332.578 48.172,332.401 48.377 C 332.223 48.582,332.060 48.971,332.038 49.241 C 332.016 49.511,331.907 49.788,331.795 49.857 C 331.683 49.927,331.579 50.306,331.564 50.700 C 331.528 51.679,331.532 51.667,331.250 51.667 C 331.112 51.667,330.994 51.723,330.987 51.792 C 330.980 51.860,330.949 52.052,330.917 52.218 C 330.871 52.463,330.905 52.482,331.101 52.319 C 331.296 52.157,331.321 52.170,331.236 52.393 C 331.178 52.544,331.066 52.667,330.987 52.667 C 330.908 52.667,330.885 52.773,330.935 52.904 C 330.987 53.040,330.877 53.221,330.675 53.329 C 330.482 53.432,330.364 53.582,330.413 53.661 C 330.462 53.740,330.408 53.843,330.293 53.890 C 330.134 53.954,330.144 54.018,330.333 54.151 C 330.517 54.282,330.526 54.329,330.365 54.331 C 330.216 54.333,330.172 54.493,330.226 54.837 C 330.290 55.240,330.250 55.332,330.028 55.296 C 329.827 55.263,329.723 55.411,329.652 55.833 C 329.505 56.704,329.314 57.174,329.148 57.072 C 329.066 57.021,329.000 57.055,329.000 57.147 C 329.000 57.239,329.079 57.362,329.175 57.422 C 329.295 57.496,329.290 57.601,329.160 57.758 C 329.056 57.883,329.020 58.064,329.079 58.159 C 329.138 58.255,329.068 58.333,328.922 58.333 C 328.558 58.333,328.246 59.170,328.535 59.374 C 328.705 59.494,328.707 59.543,328.542 59.610 C 328.427 59.656,328.333 59.793,328.333 59.913 C 328.333 60.033,328.230 60.171,328.103 60.219 C 327.960 60.274,327.869 60.573,327.863 61.006 C 327.856 61.505,327.760 61.770,327.524 61.935 C 327.294 62.096,327.196 62.355,327.198 62.791 C 327.202 63.727,327.178 63.900,327.057 63.779 C 326.865 63.587,326.521 64.255,326.572 64.720 C 326.599 64.966,326.556 65.167,326.477 65.167 C 326.398 65.167,326.333 65.284,326.333 65.427 C 326.333 65.569,326.268 65.646,326.187 65.596 C 326.107 65.546,326.060 65.729,326.083 66.001 C 326.111 66.328,325.997 66.635,325.746 66.905 C 325.468 67.205,325.373 67.495,325.392 67.991 C 325.408 68.441,325.346 68.667,325.204 68.667 C 324.918 68.667,324.692 69.309,324.726 70.027 C 324.747 70.489,324.697 70.600,324.489 70.545 C 324.266 70.487,324.221 70.679,324.198 71.769 C 324.181 72.566,324.094 73.108,323.971 73.184 C 323.820 73.278,323.818 73.364,323.964 73.540 C 324.069 73.667,324.177 74.340,324.203 75.035 C 324.243 76.113,324.291 76.290,324.530 76.244 C 324.728 76.206,324.792 76.283,324.748 76.508 C 324.711 76.700,324.853 76.956,325.108 77.156 C 325.361 77.355,325.478 77.567,325.403 77.688 C 325.316 77.829,325.367 77.856,325.571 77.778 C 325.780 77.698,325.889 77.761,325.951 77.997 C 325.999 78.180,326.104 78.289,326.184 78.239 C 326.264 78.190,326.289 78.256,326.239 78.387 C 326.135 78.656,326.411 78.798,326.951 78.754 C 327.153 78.737,327.279 78.786,327.232 78.862 C 327.185 78.938,327.202 79.089,327.269 79.197 C 327.353 79.333,327.430 79.294,327.517 79.072 C 327.637 78.766,327.644 78.767,327.655 79.099 C 327.665 79.395,327.771 79.449,328.349 79.449 C 328.728 79.449,329.091 79.545,329.165 79.664 C 329.238 79.783,329.625 79.909,330.024 79.945 C 330.552 79.992,330.682 79.963,330.500 79.841 C 330.296 79.703,330.321 79.671,330.635 79.669 C 330.846 79.668,330.979 79.733,330.929 79.814 C 330.788 80.041,331.699 79.933,332.167 79.667 C 332.396 79.536,332.648 79.448,332.727 79.471 C 332.806 79.494,332.975 79.378,333.102 79.215 C 333.317 78.938,333.327 78.938,333.233 79.208 C 333.106 79.572,333.274 79.583,333.622 79.235 C 333.848 79.010,333.852 78.947,333.652 78.818 C 333.498 78.719,333.599 78.702,333.944 78.768 C 334.423 78.860,334.520 78.802,334.988 78.143 C 335.272 77.744,335.672 77.234,335.877 77.010 C 336.082 76.787,336.137 76.670,336.000 76.751 C 335.786 76.876,335.782 76.857,335.973 76.623 C 336.095 76.472,336.140 76.258,336.072 76.148 C 335.994 76.022,336.019 75.992,336.141 76.067 C 336.253 76.136,336.333 76.085,336.333 75.944 C 336.333 75.811,336.440 75.661,336.570 75.611 C 336.732 75.549,336.797 75.293,336.774 74.802 C 336.748 74.228,336.810 74.049,337.079 73.912 C 337.308 73.795,337.418 73.572,337.421 73.216 C 337.423 72.928,337.573 72.529,337.754 72.329 C 337.935 72.129,338.063 71.935,338.039 71.898 C 337.955 71.773,338.216 70.917,338.437 70.595 C 338.611 70.340,338.615 70.220,338.454 70.021 C 338.290 69.818,338.293 69.795,338.473 69.903 C 338.636 70.002,338.687 69.933,338.663 69.644 C 338.606 68.959,338.655 68.839,338.946 68.951 C 339.157 69.032,339.199 68.990,339.117 68.779 C 339.058 68.623,339.091 68.500,339.192 68.500 C 339.312 68.500,339.304 68.415,339.167 68.250 C 339.037 68.094,339.026 68.000,339.135 68.000 C 339.232 68.000,339.335 67.794,339.364 67.542 C 339.393 67.290,339.501 67.099,339.604 67.118 C 339.716 67.139,339.774 66.953,339.749 66.660 C 339.726 66.389,339.773 66.167,339.854 66.167 C 339.934 66.167,340.000 66.057,340.000 65.923 C 340.000 65.360,340.576 65.333,352.547 65.333 C 365.864 65.333,365.072 65.260,365.037 66.497 C 365.029 66.770,365.092 67.037,365.178 67.090 C 365.263 67.143,365.333 67.107,365.333 67.010 C 365.333 66.913,365.398 66.833,365.478 66.833 C 365.557 66.833,365.597 67.133,365.566 67.500 C 365.520 68.041,365.564 68.167,365.796 68.169 C 366.027 68.171,366.038 68.201,365.851 68.319 C 365.538 68.517,365.754 69.066,366.093 68.936 C 366.247 68.877,366.308 68.907,366.244 69.009 C 366.186 69.104,366.231 69.294,366.345 69.431 C 366.502 69.619,366.505 69.728,366.361 69.873 C 366.216 70.017,366.247 70.149,366.487 70.407 C 366.661 70.596,366.826 71.012,366.851 71.333 C 366.877 71.654,366.988 72.029,367.098 72.167 C 367.207 72.304,367.349 72.736,367.413 73.126 C 367.477 73.516,367.598 73.793,367.681 73.741 C 367.765 73.689,367.833 73.731,367.833 73.833 C 367.833 73.936,367.890 73.985,367.958 73.942 C 368.027 73.900,368.076 74.135,368.066 74.466 C 368.041 75.318,368.151 75.624,368.516 75.719 C 368.740 75.778,368.801 75.889,368.722 76.095 C 368.651 76.282,368.674 76.348,368.788 76.278 C 368.885 76.218,369.007 76.277,369.057 76.409 C 369.122 76.577,369.064 76.623,368.867 76.561 C 368.708 76.512,368.804 76.671,369.083 76.922 C 369.358 77.168,369.490 77.320,369.375 77.258 C 369.014 77.065,369.161 77.395,369.715 78.018 C 370.009 78.350,370.419 78.673,370.625 78.738 C 370.832 78.803,371.077 78.999,371.171 79.174 C 371.294 79.404,371.480 79.476,371.842 79.434 C 372.133 79.400,372.497 79.493,372.713 79.656 C 373.172 80.002,373.963 80.069,374.306 79.792 C 374.514 79.624,374.539 79.625,374.436 79.797 C 374.338 79.960,374.454 79.995,374.922 79.943 C 375.261 79.906,375.596 79.781,375.667 79.666 C 375.739 79.550,376.086 79.440,376.440 79.420 C 377.299 79.373,377.774 79.170,377.472 78.979 C 377.320 78.883,377.399 78.838,377.719 78.836 C 378.340 78.833,378.881 78.531,378.773 78.249 C 378.713 78.095,378.792 78.043,379.018 78.087 C 379.215 78.125,379.392 78.041,379.454 77.880 C 379.511 77.731,379.695 77.472,379.862 77.304 C 380.190 76.977,380.282 76.576,379.988 76.758 C 379.886 76.820,379.899 76.724,380.017 76.534 C 380.132 76.350,380.322 76.237,380.439 76.282 C 380.568 76.331,380.699 76.180,380.769 75.899 C 380.841 75.613,380.816 75.411,380.705 75.374 C 380.577 75.331,380.575 75.168,380.697 74.818 C 380.792 74.546,380.831 74.175,380.784 73.995 C 380.736 73.814,380.766 73.667,380.849 73.667 C 380.932 73.667,381.000 73.554,381.000 73.417 C 381.000 73.279,380.932 73.167,380.849 73.167 C 380.766 73.167,380.735 73.026,380.779 72.855 C 380.824 72.683,380.786 72.270,380.693 71.936 C 380.596 71.585,380.591 71.370,380.680 71.425 C 380.764 71.477,380.833 71.406,380.833 71.268 C 380.833 71.130,380.734 70.957,380.612 70.883 C 380.313 70.703,380.109 70.168,380.156 69.690 C 380.179 69.457,380.126 69.339,380.026 69.401 C 379.933 69.458,379.802 69.418,379.736 69.310 C 379.663 69.193,379.687 69.160,379.796 69.227 C 379.896 69.288,380.024 69.263,380.082 69.169 C 380.139 69.076,380.102 69.000,380.000 69.000 C 379.898 69.000,379.859 68.926,379.915 68.835 C 379.974 68.741,379.907 68.713,379.759 68.770 C 379.510 68.865,379.403 68.506,379.490 67.863 C 379.507 67.741,379.422 67.521,379.302 67.372 C 379.141 67.173,379.138 67.136,379.292 67.228 C 379.592 67.408,379.549 67.274,379.164 66.831 C 378.974 66.612,378.869 66.317,378.921 66.153 C 378.972 65.992,378.934 65.812,378.837 65.753 C 378.741 65.693,378.699 65.582,378.745 65.507 C 378.792 65.432,378.718 65.278,378.581 65.165 C 378.445 65.052,378.333 64.776,378.333 64.553 C 378.333 64.277,378.267 64.185,378.125 64.265 C 377.962 64.357,377.960 64.335,378.118 64.165 C 378.277 63.993,378.235 63.848,377.920 63.474 C 377.606 63.100,377.541 62.876,377.616 62.416 C 377.674 62.058,377.642 61.833,377.534 61.833 C 377.437 61.833,377.245 61.607,377.107 61.331 C 376.969 61.054,376.926 60.871,377.011 60.924 C 377.097 60.976,377.167 60.945,377.167 60.853 C 377.167 60.761,377.090 60.639,376.997 60.582 C 376.904 60.524,376.874 60.402,376.931 60.311 C 376.987 60.219,376.890 60.107,376.714 60.061 C 376.463 59.995,376.411 59.867,376.470 59.465 C 376.529 59.061,376.496 58.982,376.314 59.092 C 376.118 59.210,376.118 59.188,376.312 58.949 C 376.455 58.772,376.473 58.667,376.358 58.667 C 376.102 58.667,375.711 57.814,375.795 57.439 C 375.846 57.213,375.804 57.164,375.641 57.262 C 375.454 57.375,375.453 57.352,375.639 57.123 C 375.892 56.812,375.770 56.500,375.397 56.500 C 375.259 56.500,375.195 56.422,375.255 56.326 C 375.314 56.230,375.271 56.043,375.161 55.909 C 375.019 55.738,375.015 55.667,375.146 55.667 C 375.249 55.667,375.333 55.587,375.333 55.490 C 375.333 55.393,375.253 55.363,375.156 55.424 C 375.058 55.484,374.992 55.432,375.009 55.308 C 375.071 54.852,374.994 54.667,374.740 54.667 C 374.597 54.667,374.529 54.588,374.588 54.493 C 374.647 54.397,374.610 54.216,374.506 54.091 C 374.382 53.941,374.375 53.827,374.486 53.759 C 374.586 53.697,374.508 53.487,374.292 53.238 C 374.033 52.941,373.943 52.645,373.975 52.203 C 374.011 51.698,373.921 51.483,373.490 51.042 C 373.107 50.650,373.035 50.500,373.230 50.500 C 373.611 50.500,373.565 50.213,373.117 49.784 C 372.833 49.512,372.741 49.253,372.764 48.787 C 372.786 48.330,372.706 48.096,372.470 47.931 C 372.241 47.770,372.143 47.501,372.137 47.006 C 372.131 46.573,372.040 46.274,371.897 46.219 C 371.770 46.171,371.667 45.989,371.667 45.816 C 371.667 45.642,371.573 45.499,371.458 45.497 C 371.297 45.495,371.298 45.464,371.465 45.359 C 371.740 45.184,371.449 44.333,371.114 44.333 C 370.952 44.333,370.899 44.138,370.930 43.653 C 370.969 43.043,370.950 43.004,370.745 43.278 C 370.531 43.563,370.523 43.559,370.611 43.207 C 370.663 43.001,370.621 42.729,370.517 42.604 C 370.413 42.479,370.307 42.111,370.280 41.786 C 370.253 41.461,370.136 41.080,370.018 40.939 C 369.901 40.797,369.784 40.434,369.760 40.132 C 369.691 39.303,369.685 39.291,369.417 39.394 C 369.154 39.495,369.135 39.435,369.133 38.500 C 369.133 38.140,368.999 37.771,368.783 37.537 C 368.546 37.280,368.445 36.973,368.471 36.591 C 368.497 36.203,368.413 35.956,368.204 35.804 C 367.999 35.655,367.910 35.401,367.931 35.023 C 367.951 34.671,367.851 34.351,367.662 34.162 C 367.497 33.997,367.337 33.611,367.307 33.306 C 367.252 32.742,367.007 32.314,366.807 32.434 C 366.747 32.471,366.737 32.350,366.785 32.167 C 366.833 31.983,366.795 31.833,366.701 31.833 C 366.607 31.833,366.551 31.702,366.577 31.542 C 366.603 31.381,366.540 31.142,366.437 31.010 C 366.288 30.818,366.300 30.798,366.500 30.912 C 366.640 30.991,366.597 30.877,366.403 30.652 C 366.194 30.409,366.075 30.068,366.102 29.792 C 366.126 29.540,366.072 29.333,365.980 29.333 C 365.889 29.333,365.868 29.246,365.934 29.138 C 366.015 29.007,365.964 28.978,365.777 29.050 C 365.483 29.163,365.443 29.024,365.493 28.071 C 365.509 27.780,365.408 27.464,365.260 27.342 C 365.117 27.223,365.000 26.981,365.000 26.803 C 365.000 26.626,364.936 26.520,364.857 26.568 C 364.779 26.617,364.751 26.469,364.795 26.239 C 364.845 25.978,364.761 25.697,364.572 25.488 C 364.406 25.304,364.263 24.886,364.255 24.560 C 364.246 24.204,364.124 23.881,363.953 23.756 C 363.796 23.641,363.653 23.330,363.635 23.065 C 363.609 22.665,363.000 21.742,363.000 22.103 C 363.000 22.166,362.850 22.083,362.667 21.917 C 362.302 21.586,362.234 21.333,362.510 21.333 C 362.607 21.333,362.633 21.420,362.567 21.526 C 362.489 21.653,362.522 21.673,362.667 21.583 C 362.806 21.497,362.844 21.514,362.773 21.629 C 362.712 21.729,362.737 21.857,362.831 21.915 C 363.153 22.114,362.999 21.518,362.668 21.286 C 362.485 21.158,362.385 21.004,362.446 20.943 C 362.506 20.883,362.449 20.832,362.319 20.831 C 362.125 20.829,362.123 20.803,362.307 20.686 C 362.478 20.578,362.414 20.461,362.038 20.194 C 361.767 20.001,361.486 19.897,361.413 19.963 C 361.340 20.029,361.338 19.982,361.410 19.859 C 361.557 19.605,360.636 18.667,360.240 18.667 C 360.104 18.667,360.000 18.508,360.000 18.300 C 360.000 18.015,359.956 17.978,359.800 18.133 C 359.572 18.362,359.269 18.406,359.401 18.191 C 359.567 17.924,359.084 17.501,358.544 17.439 C 358.247 17.405,357.880 17.275,357.729 17.149 C 357.578 17.024,357.037 16.899,356.526 16.872 C 355.988 16.844,355.480 16.716,355.316 16.567 C 355.147 16.414,354.993 16.377,354.932 16.475 C 354.877 16.565,354.925 16.674,355.041 16.719 C 355.156 16.763,355.087 16.791,354.888 16.782 C 354.610 16.768,354.558 16.702,354.667 16.499 C 354.891 16.080,350.138 16.093,349.605 16.513 M390.694 17.143 C 390.440 17.363,390.133 17.439,389.638 17.404 C 388.840 17.347,388.266 17.585,388.395 17.921 C 388.455 18.077,388.398 18.117,388.214 18.047 C 388.014 17.970,387.982 18.004,388.088 18.180 C 388.211 18.384,388.191 18.384,387.940 18.181 C 387.683 17.972,387.639 17.986,387.555 18.306 C 387.504 18.504,387.366 18.667,387.251 18.667 C 387.135 18.667,386.948 18.891,386.834 19.165 C 386.720 19.440,386.550 19.614,386.452 19.554 C 386.344 19.487,386.317 19.549,386.381 19.717 C 386.438 19.867,386.402 20.041,386.300 20.104 C 386.188 20.173,386.162 20.142,386.234 20.026 C 386.299 19.920,386.276 19.833,386.182 19.833 C 385.899 19.833,385.634 20.459,385.876 20.557 C 386.040 20.623,386.040 20.643,385.875 20.654 C 385.760 20.661,385.667 20.807,385.667 20.980 C 385.667 21.152,385.553 21.387,385.414 21.502 C 385.144 21.726,385.145 22.173,385.417 22.372 C 385.517 22.446,385.494 22.496,385.357 22.497 C 385.197 22.499,385.162 22.626,385.239 22.931 C 385.309 23.210,385.286 23.324,385.173 23.254 C 385.054 23.180,385.000 30.963,385.000 48.417 C 385.000 65.870,385.054 73.653,385.173 73.579 C 385.286 73.510,385.309 73.623,385.239 73.903 C 385.162 74.207,385.197 74.334,385.357 74.336 C 385.494 74.337,385.517 74.387,385.417 74.461 C 385.067 74.718,385.290 75.650,385.648 75.428 C 385.708 75.391,385.742 75.654,385.721 76.013 C 385.701 76.373,385.760 76.667,385.852 76.667 C 385.944 76.667,385.965 76.754,385.899 76.862 C 385.818 76.993,385.870 77.022,386.056 76.950 C 386.237 76.881,386.333 76.929,386.333 77.089 C 386.333 77.223,386.333 77.371,386.333 77.417 C 386.333 77.658,387.071 78.187,387.318 78.122 C 387.521 78.069,387.602 78.145,387.594 78.380 C 387.588 78.566,387.704 78.732,387.858 78.756 C 388.009 78.779,388.289 78.955,388.480 79.146 C 388.745 79.412,388.984 79.479,389.489 79.430 C 389.923 79.388,390.353 79.475,390.741 79.683 C 391.468 80.073,391.983 80.087,392.247 79.726 C 392.392 79.528,392.710 79.450,393.383 79.448 C 393.898 79.446,394.281 79.383,394.234 79.308 C 394.188 79.232,394.279 79.220,394.437 79.281 C 394.660 79.366,394.700 79.326,394.614 79.104 C 394.553 78.944,394.572 78.858,394.657 78.911 C 394.741 78.963,394.855 78.932,394.910 78.843 C 394.966 78.754,395.116 78.722,395.245 78.771 C 395.373 78.820,395.645 78.670,395.848 78.436 C 396.051 78.202,396.299 78.058,396.400 78.116 C 396.501 78.173,396.532 78.163,396.468 78.092 C 396.405 78.022,396.540 77.766,396.768 77.524 C 397.066 77.208,397.160 76.960,397.101 76.647 C 397.031 76.285,397.077 76.215,397.369 76.231 C 397.562 76.241,397.756 76.146,397.798 76.018 C 397.841 75.891,397.804 75.832,397.716 75.886 C 397.628 75.941,397.556 75.879,397.556 75.750 C 397.556 75.621,397.617 75.552,397.691 75.598 C 397.766 75.644,397.809 63.285,397.788 48.133 C 397.763 29.903,397.694 20.583,397.583 20.583 C 397.492 20.583,397.248 20.415,397.042 20.208 C 396.835 20.002,396.735 19.833,396.818 19.833 C 396.901 19.833,396.882 19.646,396.776 19.418 C 396.670 19.190,396.523 19.002,396.448 19.001 C 396.374 19.001,396.367 18.913,396.433 18.808 C 396.504 18.693,396.479 18.660,396.370 18.727 C 396.271 18.789,396.076 18.676,395.937 18.478 C 395.774 18.245,395.479 18.103,395.108 18.078 C 394.444 18.034,394.166 17.896,394.169 17.615 C 394.171 17.494,394.232 17.512,394.327 17.662 C 394.412 17.797,394.540 17.849,394.611 17.778 C 394.835 17.554,394.279 17.345,393.629 17.408 C 393.183 17.451,392.879 17.369,392.566 17.123 C 392.207 16.841,392.070 16.814,391.813 16.974 C 391.621 17.094,391.500 17.105,391.500 17.001 C 391.500 16.733,391.082 16.807,390.694 17.143 M352.878 32.346 C 352.826 32.546,352.880 32.668,353.022 32.669 C 353.200 32.671,353.195 32.708,353.000 32.836 C 352.789 32.974,352.804 33.015,353.094 33.095 C 353.371 33.171,353.429 33.303,353.391 33.777 C 353.352 34.273,353.390 34.348,353.631 34.256 C 353.860 34.168,353.875 34.189,353.708 34.357 C 353.594 34.472,353.500 34.639,353.500 34.728 C 353.500 34.816,353.545 34.843,353.601 34.788 C 353.802 34.587,354.106 35.075,354.029 35.477 C 353.966 35.806,354.006 35.867,354.225 35.783 C 354.386 35.721,354.505 35.762,354.513 35.880 C 354.520 35.992,354.551 36.215,354.581 36.376 C 354.612 36.537,354.569 36.626,354.485 36.574 C 354.402 36.523,354.333 36.372,354.333 36.240 C 354.333 36.108,354.254 36.000,354.157 36.000 C 353.967 36.000,354.074 36.249,354.453 36.692 C 354.582 36.843,354.695 37.198,354.703 37.480 C 354.711 37.763,354.854 38.118,355.021 38.269 C 355.189 38.421,355.280 38.618,355.225 38.708 C 355.169 38.797,355.227 38.936,355.354 39.016 C 355.520 39.121,355.526 39.162,355.375 39.164 C 355.260 39.166,355.167 39.246,355.167 39.343 C 355.167 39.440,355.253 39.466,355.359 39.401 C 355.482 39.325,355.506 39.355,355.426 39.485 C 355.357 39.596,355.402 39.814,355.525 39.969 C 356.021 40.589,356.151 40.949,355.951 41.149 C 355.805 41.295,355.859 41.432,356.171 41.712 C 356.470 41.982,356.579 42.243,356.566 42.667 C 356.555 43.045,356.650 43.321,356.836 43.453 C 357.030 43.590,357.105 43.822,357.065 44.164 C 357.023 44.521,357.115 44.782,357.372 45.039 C 357.601 45.268,357.741 45.617,357.745 45.966 C 357.748 46.280,357.867 46.613,358.015 46.722 C 358.160 46.829,358.248 47.010,358.209 47.125 C 358.170 47.240,358.206 47.333,358.287 47.333 C 358.369 47.333,358.421 47.554,358.402 47.823 C 358.381 48.119,358.487 48.421,358.670 48.586 C 358.868 48.766,358.951 49.028,358.911 49.347 C 358.877 49.614,358.925 49.833,359.018 49.833 C 359.110 49.833,359.132 49.921,359.066 50.028 C 358.985 50.159,359.036 50.188,359.223 50.117 C 359.483 50.017,359.615 50.608,359.518 51.436 C 359.505 51.538,359.609 51.716,359.748 51.832 C 359.887 51.947,360.000 52.144,360.000 52.270 C 360.000 52.397,360.094 52.501,360.208 52.503 C 360.347 52.504,360.333 52.559,360.167 52.667 C 360.015 52.765,356.963 52.829,352.394 52.831 L 344.872 52.833 344.793 52.417 C 344.741 52.145,344.788 52.000,344.930 52.000 C 345.274 52.000,345.382 51.677,345.139 51.377 C 344.952 51.146,344.953 51.125,345.149 51.243 C 345.331 51.352,345.364 51.288,345.299 50.952 C 345.206 50.465,345.383 50.084,345.702 50.083 C 345.844 50.083,345.914 49.844,345.910 49.375 C 345.906 48.985,345.960 48.667,346.031 48.667 C 346.349 48.667,346.730 47.809,346.487 47.640 C 346.306 47.513,346.299 47.455,346.458 47.390 C 346.573 47.344,346.667 47.208,346.667 47.090 C 346.667 46.971,346.783 46.778,346.925 46.660 C 347.082 46.530,347.164 46.245,347.134 45.937 C 347.098 45.580,347.199 45.313,347.473 45.040 C 347.775 44.740,347.820 44.601,347.673 44.424 C 347.534 44.257,347.533 44.166,347.670 44.081 C 347.772 44.018,347.816 43.861,347.767 43.733 C 347.717 43.605,347.754 43.500,347.848 43.500 C 347.943 43.500,347.975 43.427,347.920 43.339 C 347.865 43.250,347.973 43.082,348.160 42.965 C 348.573 42.707,348.599 42.500,348.218 42.500 C 347.973 42.500,347.978 42.469,348.260 42.264 C 348.437 42.134,348.531 41.976,348.468 41.913 C 348.327 41.771,348.702 41.339,348.875 41.444 C 348.944 41.486,349.000 41.440,349.000 41.343 C 349.000 41.246,348.925 41.167,348.833 41.167 C 348.742 41.167,348.667 41.087,348.667 40.990 C 348.667 40.893,348.748 40.864,348.848 40.926 C 348.961 40.996,349.017 40.890,348.996 40.644 C 348.941 39.990,348.989 39.833,349.240 39.833 C 349.568 39.833,349.743 39.510,349.531 39.297 C 349.352 39.119,349.502 38.727,349.975 38.136 C 350.098 37.981,350.143 37.763,350.074 37.651 C 349.994 37.522,350.018 37.492,350.141 37.567 C 350.247 37.633,350.333 37.607,350.333 37.510 C 350.333 37.413,350.249 37.333,350.146 37.333 C 350.018 37.333,350.026 37.253,350.170 37.079 C 350.286 36.940,350.333 36.778,350.275 36.719 C 350.216 36.661,350.318 36.509,350.501 36.380 C 350.728 36.222,350.833 35.958,350.833 35.551 C 350.833 35.190,350.941 34.874,351.106 34.754 C 351.269 34.635,351.409 34.228,351.456 33.736 C 351.498 33.285,351.612 32.842,351.708 32.750 C 351.827 32.636,351.840 32.657,351.749 32.817 C 351.658 32.976,351.678 33.012,351.810 32.931 C 351.918 32.865,351.965 32.746,351.917 32.667 C 351.868 32.588,351.904 32.476,351.997 32.418 C 352.090 32.361,352.167 32.239,352.167 32.147 C 352.167 32.055,352.084 32.031,351.983 32.094 C 351.859 32.170,351.864 32.088,351.996 31.840 C 352.104 31.639,352.149 31.349,352.097 31.195 C 352.045 31.042,352.218 31.166,352.482 31.471 C 352.784 31.819,352.931 32.144,352.878 32.346 " stroke="none" fill="#fc1c04" fill-rule="evenodd"></path><path id="path1" d="M64.333 14.667 C 64.333 14.937,64.222 15.000,63.750 15.000 C 63.343 15.000,63.167 15.075,63.167 15.250 C 63.167 15.389,63.019 15.500,62.833 15.500 C 62.611 15.500,62.500 15.611,62.500 15.833 C 62.500 16.056,62.389 16.167,62.167 16.167 C 61.944 16.167,61.833 16.278,61.833 16.500 C 61.833 16.685,61.722 16.833,61.583 16.833 C 61.409 16.833,61.333 17.009,61.333 17.417 C 61.333 17.889,61.270 18.000,61.000 18.000 C 60.680 18.000,60.667 18.111,60.667 20.749 C 60.667 23.317,60.689 23.511,61.000 23.705 C 61.183 23.820,61.333 24.083,61.333 24.290 C 61.333 24.514,61.435 24.667,61.583 24.667 C 61.721 24.667,61.833 24.752,61.833 24.856 C 61.833 25.119,62.632 25.833,62.925 25.833 C 63.058 25.833,63.167 25.983,63.167 26.167 C 63.167 26.360,63.278 26.500,63.432 26.500 C 63.578 26.500,63.888 26.650,64.121 26.833 C 64.503 27.134,64.797 27.167,67.121 27.167 C 69.558 27.167,69.703 27.149,69.785 26.833 C 69.848 26.594,70.012 26.500,70.368 26.500 C 70.724 26.500,70.889 26.406,70.952 26.167 C 71.000 25.982,71.179 25.833,71.353 25.833 C 71.525 25.833,71.667 25.729,71.667 25.601 C 71.667 25.473,71.779 25.326,71.917 25.273 C 72.054 25.220,72.167 25.079,72.167 24.959 C 72.167 24.839,72.317 24.612,72.500 24.455 C 72.683 24.298,72.833 23.993,72.833 23.777 C 72.833 23.562,72.983 23.249,73.167 23.083 C 73.466 22.813,73.500 22.570,73.500 20.724 C 73.500 18.778,73.482 18.667,73.167 18.667 C 72.889 18.667,72.833 18.556,72.833 18.000 C 72.833 17.528,72.763 17.333,72.591 17.333 C 72.446 17.333,72.305 17.099,72.239 16.750 C 72.179 16.429,72.034 16.167,71.918 16.167 C 71.801 16.167,71.666 16.017,71.618 15.833 C 71.556 15.594,71.391 15.500,71.033 15.500 C 70.745 15.500,70.495 15.395,70.440 15.250 C 70.387 15.112,70.238 15.000,70.108 15.000 C 69.978 15.000,69.833 14.850,69.785 14.667 C 69.702 14.351,69.558 14.333,67.016 14.333 C 64.444 14.333,64.333 14.347,64.333 14.667 M202.833 14.667 C 202.833 14.937,202.722 15.000,202.245 15.000 C 201.875 15.000,201.620 15.093,201.560 15.250 C 201.508 15.387,201.360 15.500,201.232 15.500 C 201.104 15.500,201.000 15.650,201.000 15.833 C 201.000 16.056,200.889 16.167,200.667 16.167 C 200.451 16.167,200.333 16.278,200.333 16.481 C 200.333 16.654,200.184 16.833,200.000 16.882 C 199.757 16.945,199.667 17.109,199.667 17.484 C 199.667 17.832,199.585 18.000,199.417 18.000 C 199.205 18.000,199.167 18.415,199.167 20.738 C 199.167 22.950,199.215 23.524,199.417 23.726 C 199.554 23.864,199.667 24.101,199.667 24.254 C 199.667 24.406,199.817 24.570,200.000 24.618 C 200.183 24.666,200.333 24.816,200.333 24.951 C 200.333 25.221,200.973 25.819,201.272 25.828 C 201.376 25.831,201.500 25.983,201.548 26.167 C 201.596 26.350,201.758 26.500,201.908 26.500 C 202.058 26.500,202.342 26.650,202.538 26.833 C 202.864 27.137,203.127 27.167,205.464 27.167 C 207.891 27.167,208.036 27.148,208.118 26.833 C 208.180 26.598,208.346 26.500,208.680 26.500 C 208.984 26.500,209.219 26.380,209.333 26.167 C 209.431 25.983,209.622 25.833,209.756 25.833 C 209.890 25.833,210.000 25.730,210.000 25.603 C 210.000 25.476,210.150 25.333,210.333 25.285 C 210.517 25.237,210.667 25.078,210.667 24.932 C 210.667 24.786,210.817 24.517,211.000 24.333 C 211.183 24.150,211.336 23.869,211.339 23.708 C 211.342 23.548,211.454 23.271,211.589 23.093 C 211.950 22.615,211.945 18.667,211.583 18.667 C 211.407 18.667,211.333 18.489,211.333 18.068 C 211.333 17.609,211.255 17.448,211.000 17.382 C 210.761 17.319,210.667 17.154,210.667 16.798 C 210.667 16.450,210.572 16.277,210.349 16.219 C 210.174 16.173,209.993 15.993,209.948 15.818 C 209.888 15.592,209.716 15.500,209.349 15.500 C 209.002 15.500,208.833 15.418,208.833 15.250 C 208.833 15.111,208.685 15.000,208.500 15.000 C 208.278 15.000,208.167 14.889,208.167 14.667 C 208.167 14.347,208.056 14.333,205.500 14.333 C 202.944 14.333,202.833 14.347,202.833 14.667 M4.584 17.375 C 4.300 18.956,4.582 75.523,4.875 75.687 C 5.065 75.793,5.167 76.051,5.167 76.425 C 5.167 76.889,5.231 77.000,5.500 77.000 C 5.683 77.000,5.833 77.109,5.833 77.241 C 5.833 77.535,6.548 78.333,6.811 78.333 C 6.915 78.333,7.000 78.446,7.000 78.583 C 7.000 78.722,7.148 78.833,7.333 78.833 C 7.517 78.833,7.667 78.938,7.667 79.066 C 7.667 79.392,8.043 79.500,9.180 79.500 C 9.946 79.500,10.167 79.556,10.167 79.750 C 10.167 79.939,10.370 80.000,11.000 80.000 C 11.630 80.000,11.833 79.939,11.833 79.750 C 11.833 79.550,12.083 79.500,13.083 79.500 C 14.222 79.500,14.333 79.470,14.333 79.167 C 14.333 78.897,14.444 78.833,14.917 78.833 C 15.312 78.833,15.500 78.756,15.500 78.595 C 15.500 78.463,15.650 78.308,15.833 78.250 C 16.017 78.192,16.167 78.034,16.167 77.900 C 16.167 77.766,16.275 77.615,16.406 77.564 C 16.538 77.514,16.693 77.260,16.750 77.000 C 16.807 76.740,16.962 76.486,17.094 76.436 C 17.298 76.357,17.333 75.084,17.333 67.839 L 17.333 59.333 28.903 59.333 C 37.799 59.333,40.488 59.287,40.539 59.132 C 40.580 59.010,41.125 58.888,41.912 58.824 C 42.842 58.748,43.276 58.638,43.419 58.442 C 43.557 58.253,43.868 58.167,44.409 58.167 C 45.058 58.167,45.213 58.107,45.285 57.833 C 45.347 57.596,45.512 57.500,45.858 57.500 C 46.136 57.500,46.385 57.393,46.440 57.250 C 46.492 57.112,46.669 57.000,46.832 57.000 C 46.995 57.000,47.167 56.850,47.215 56.667 C 47.279 56.421,47.442 56.333,47.833 56.333 C 48.224 56.333,48.388 56.245,48.452 56.000 C 48.500 55.817,48.643 55.667,48.769 55.667 C 48.896 55.667,49.000 55.554,49.000 55.417 C 49.000 55.278,49.148 55.167,49.333 55.167 C 49.556 55.167,49.667 55.056,49.667 54.833 C 49.667 54.626,49.778 54.500,49.960 54.500 C 50.121 54.500,50.347 54.350,50.461 54.167 C 50.576 53.983,50.781 53.833,50.917 53.833 C 51.298 53.833,52.167 52.831,52.167 52.392 C 52.167 52.155,52.265 52.000,52.417 52.000 C 52.554 52.000,52.667 51.887,52.667 51.750 C 52.667 51.611,52.815 51.500,53.000 51.500 C 53.222 51.500,53.333 51.389,53.333 51.167 C 53.333 50.983,53.438 50.833,53.566 50.833 C 53.820 50.833,54.000 50.483,54.000 49.986 C 54.000 49.811,54.112 49.667,54.250 49.667 C 54.431 49.667,54.500 49.481,54.500 49.000 C 54.500 48.444,54.556 48.333,54.833 48.333 C 55.103 48.333,55.167 48.222,55.167 47.750 C 55.167 47.278,55.230 47.167,55.500 47.167 C 55.770 47.167,55.833 47.056,55.833 46.583 C 55.833 46.176,55.909 46.000,56.083 46.000 C 56.280 46.000,56.333 45.769,56.333 44.918 C 56.333 44.017,56.389 43.801,56.667 43.628 C 56.966 43.441,57.000 43.239,57.000 41.627 C 57.000 40.211,57.049 39.833,57.231 39.833 C 57.556 39.833,57.662 39.299,57.664 37.639 C 57.667 36.053,57.582 35.667,57.232 35.667 C 57.048 35.667,57.000 35.289,57.000 33.833 C 57.000 32.111,56.980 32.000,56.667 32.000 C 56.365 32.000,56.333 31.889,56.333 30.828 C 56.333 29.940,56.273 29.633,56.083 29.560 C 55.938 29.505,55.833 29.255,55.833 28.967 C 55.833 28.609,55.739 28.444,55.500 28.382 C 55.250 28.316,55.167 28.154,55.167 27.731 C 55.167 27.278,55.101 27.167,54.833 27.167 C 54.563 27.167,54.500 27.056,54.500 26.578 C 54.500 26.209,54.407 25.954,54.250 25.894 C 54.112 25.841,54.000 25.693,54.000 25.566 C 54.000 25.438,53.850 25.333,53.667 25.333 C 53.460 25.333,53.333 25.222,53.333 25.040 C 53.333 24.879,53.183 24.653,53.000 24.539 C 52.812 24.421,52.667 24.150,52.667 23.915 C 52.667 23.657,52.572 23.500,52.417 23.500 C 52.279 23.500,52.167 23.380,52.167 23.234 C 52.167 23.088,52.017 22.930,51.833 22.882 C 51.650 22.834,51.500 22.696,51.500 22.575 C 51.500 22.454,51.350 22.308,51.167 22.250 C 50.983 22.192,50.833 22.037,50.833 21.905 C 50.833 21.774,50.738 21.667,50.620 21.667 C 50.503 21.667,50.279 21.517,50.122 21.333 C 49.965 21.150,49.648 21.000,49.418 21.000 C 49.111 21.000,49.000 20.911,49.000 20.667 C 49.000 20.481,48.889 20.333,48.750 20.333 C 48.612 20.333,48.500 20.221,48.500 20.083 C 48.500 19.907,48.322 19.833,47.901 19.833 C 47.442 19.833,47.282 19.755,47.215 19.500 C 47.149 19.250,46.988 19.167,46.564 19.167 C 46.193 19.167,46.000 19.087,46.000 18.934 C 46.000 18.680,45.650 18.500,45.153 18.500 C 44.977 18.500,44.833 18.387,44.833 18.250 C 44.833 18.058,44.620 18.000,43.917 18.000 C 43.244 18.000,43.000 17.938,43.000 17.768 C 43.000 17.403,42.608 17.333,40.570 17.333 C 38.989 17.333,38.667 17.291,38.667 17.083 C 38.667 16.863,36.668 16.833,21.674 16.833 L 4.682 16.833 4.584 17.375 M184.060 17.083 C 183.998 17.246,183.738 17.333,183.316 17.333 C 182.778 17.333,182.667 17.390,182.667 17.667 C 182.667 17.935,182.556 18.000,182.095 18.000 C 181.669 18.000,181.495 18.085,181.417 18.333 C 181.358 18.517,181.203 18.667,181.072 18.667 C 180.941 18.667,180.833 18.761,180.833 18.877 C 180.833 18.992,180.683 19.180,180.500 19.295 C 180.317 19.409,180.167 19.652,180.167 19.835 C 180.167 20.017,180.016 20.317,179.832 20.501 C 179.341 20.992,179.384 76.048,179.875 76.407 C 180.035 76.524,180.167 76.688,180.167 76.770 C 180.167 76.852,180.317 77.013,180.500 77.128 C 180.683 77.242,180.833 77.514,180.833 77.732 C 180.833 77.988,180.951 78.159,181.167 78.215 C 181.350 78.263,181.500 78.422,181.500 78.568 C 181.500 78.760,181.661 78.833,182.083 78.833 C 182.556 78.833,182.667 78.897,182.667 79.167 C 182.667 79.468,182.778 79.500,183.839 79.500 C 184.727 79.500,185.034 79.561,185.106 79.750 C 185.243 80.106,186.833 80.106,186.833 79.750 C 186.833 79.556,187.054 79.500,187.820 79.500 C 188.957 79.500,189.333 79.392,189.333 79.066 C 189.333 78.938,189.483 78.833,189.667 78.833 C 189.850 78.833,190.000 78.737,190.000 78.620 C 190.000 78.502,190.226 78.321,190.501 78.217 C 190.859 78.082,191.031 77.885,191.103 77.529 C 191.162 77.234,191.331 76.996,191.518 76.947 C 191.739 76.889,191.833 76.715,191.833 76.367 C 191.833 76.078,191.938 75.829,192.083 75.773 C 192.304 75.688,192.333 72.494,192.333 48.417 C 192.333 24.339,192.304 21.145,192.083 21.060 C 191.938 21.005,191.833 20.755,191.833 20.467 C 191.833 20.109,191.739 19.944,191.500 19.882 C 191.261 19.819,191.167 19.654,191.167 19.298 C 191.167 18.950,191.072 18.777,190.849 18.719 C 190.674 18.673,190.493 18.493,190.448 18.318 C 190.389 18.095,190.216 18.000,189.868 18.000 C 189.512 18.000,189.348 17.906,189.285 17.667 C 189.212 17.388,189.058 17.333,188.349 17.333 C 187.705 17.333,187.500 17.273,187.500 17.083 C 187.500 16.878,187.203 16.833,185.828 16.833 C 184.496 16.833,184.137 16.884,184.060 17.083 M148.548 28.667 C 148.467 28.978,148.321 29.000,146.332 29.000 C 144.593 29.000,144.185 29.046,144.106 29.250 C 144.035 29.437,143.736 29.500,142.922 29.500 C 141.944 29.500,141.833 29.534,141.833 29.833 C 141.833 30.126,141.722 30.167,140.917 30.167 C 140.111 30.167,140.000 30.207,140.000 30.500 C 140.000 30.778,139.889 30.833,139.333 30.833 C 138.852 30.833,138.667 30.903,138.667 31.083 C 138.667 31.252,138.498 31.333,138.151 31.333 C 137.776 31.333,137.612 31.424,137.548 31.667 C 137.483 31.917,137.321 32.000,136.897 32.000 C 136.444 32.000,136.333 32.066,136.333 32.333 C 136.333 32.556,136.222 32.667,136.000 32.667 C 135.815 32.667,135.667 32.778,135.667 32.917 C 135.667 33.054,135.520 33.167,135.340 33.167 C 135.160 33.167,134.879 33.305,134.715 33.473 C 134.551 33.642,134.285 33.827,134.125 33.885 C 133.965 33.942,133.833 34.104,133.833 34.245 C 133.833 34.385,133.718 34.500,133.578 34.500 C 133.438 34.500,133.280 34.612,133.227 34.750 C 133.174 34.887,133.027 35.000,132.899 35.000 C 132.771 35.000,132.667 35.150,132.667 35.333 C 132.667 35.556,132.556 35.667,132.333 35.667 C 132.111 35.667,132.000 35.778,132.000 36.000 C 132.000 36.183,131.891 36.333,131.758 36.333 C 131.612 36.333,131.471 36.567,131.406 36.917 C 131.343 37.251,131.197 37.500,131.065 37.500 C 130.937 37.500,130.833 37.612,130.833 37.750 C 130.833 37.887,130.714 38.000,130.568 38.000 C 130.422 38.000,130.263 38.150,130.215 38.333 C 130.167 38.517,130.032 38.667,129.916 38.667 C 129.799 38.667,129.656 38.922,129.597 39.234 C 129.539 39.546,129.380 39.844,129.245 39.895 C 129.093 39.954,129.000 40.214,129.000 40.578 C 129.000 41.056,128.937 41.167,128.667 41.167 C 128.397 41.167,128.333 41.278,128.333 41.750 C 128.333 42.137,128.255 42.333,128.102 42.333 C 127.969 42.333,127.823 42.585,127.759 42.925 C 127.698 43.251,127.540 43.559,127.407 43.610 C 127.230 43.678,127.167 44.001,127.167 44.832 C 127.167 45.821,127.125 45.972,126.833 46.048 C 126.540 46.125,126.500 46.276,126.500 47.318 C 126.500 48.207,126.443 48.500,126.272 48.500 C 126.091 48.500,126.019 49.171,125.923 51.746 C 125.764 56.016,125.955 61.167,126.272 61.167 C 126.441 61.167,126.500 61.445,126.500 62.249 C 126.500 63.150,126.556 63.365,126.833 63.539 C 127.097 63.703,127.167 63.927,127.167 64.612 C 127.167 65.124,127.260 65.570,127.396 65.706 C 127.523 65.832,127.680 66.180,127.745 66.479 C 127.811 66.778,127.970 67.063,128.099 67.112 C 128.228 67.162,128.333 67.344,128.333 67.518 C 128.333 67.691,128.483 67.983,128.667 68.167 C 128.850 68.350,129.000 68.616,129.000 68.759 C 129.000 69.148,129.720 70.331,129.958 70.332 C 130.073 70.333,130.167 70.483,130.167 70.667 C 130.167 70.889,130.278 71.000,130.500 71.000 C 130.743 71.000,130.833 71.111,130.833 71.411 C 130.833 71.659,131.065 72.054,131.417 72.406 C 131.737 72.726,132.000 73.066,132.000 73.161 C 132.000 73.256,132.150 73.333,132.333 73.333 C 132.556 73.333,132.667 73.444,132.667 73.667 C 132.667 73.850,132.774 74.000,132.905 74.000 C 133.037 74.000,133.192 74.150,133.250 74.333 C 133.308 74.517,133.463 74.667,133.595 74.667 C 133.726 74.667,133.833 74.779,133.833 74.917 C 133.833 75.054,133.946 75.167,134.083 75.167 C 134.221 75.167,134.483 75.317,134.667 75.500 C 134.850 75.683,135.141 75.833,135.314 75.833 C 135.488 75.833,135.667 75.982,135.715 76.167 C 135.763 76.350,135.922 76.500,136.068 76.500 C 136.214 76.500,136.333 76.612,136.333 76.750 C 136.333 76.925,136.509 77.000,136.917 77.000 C 137.389 77.000,137.500 77.063,137.500 77.333 C 137.500 77.603,137.611 77.667,138.083 77.667 C 138.471 77.667,138.667 77.745,138.667 77.899 C 138.667 78.168,139.022 78.333,139.597 78.333 C 139.844 78.333,140.000 78.430,140.000 78.583 C 140.000 78.758,140.176 78.833,140.583 78.833 C 140.944 78.833,141.294 78.960,141.500 79.167 C 141.753 79.419,142.056 79.500,142.750 79.500 C 143.415 79.500,143.667 79.563,143.667 79.728 C 143.667 80.010,144.517 80.162,146.107 80.165 C 147.010 80.166,147.321 80.227,147.394 80.417 C 147.474 80.626,147.968 80.667,150.411 80.667 C 152.898 80.667,153.333 80.629,153.333 80.417 C 153.333 80.265,153.488 80.167,153.729 80.167 C 154.480 80.167,155.167 79.958,155.167 79.729 C 155.167 79.584,155.356 79.500,155.682 79.500 C 156.058 79.500,156.222 79.409,156.285 79.167 C 156.333 78.982,156.512 78.833,156.686 78.833 C 156.934 78.833,157.000 78.710,157.000 78.250 C 157.000 77.778,157.063 77.667,157.333 77.667 C 157.573 77.667,157.667 77.556,157.667 77.270 C 157.667 77.052,157.779 76.781,157.917 76.667 C 158.115 76.502,158.167 76.019,158.167 74.325 C 158.167 72.650,158.113 72.137,157.917 71.940 C 157.779 71.803,157.667 71.547,157.667 71.371 C 157.667 71.195,157.517 70.916,157.333 70.750 C 157.150 70.584,157.000 70.315,157.000 70.152 C 157.000 69.989,156.850 69.808,156.667 69.750 C 156.483 69.692,156.333 69.537,156.333 69.405 C 156.333 69.274,156.223 69.167,156.089 69.167 C 155.955 69.167,155.765 69.017,155.667 68.833 C 155.550 68.615,155.318 68.500,154.994 68.500 C 154.685 68.500,154.500 68.414,154.500 68.269 C 154.500 67.960,153.975 67.838,152.625 67.836 C 151.737 67.834,151.500 67.781,151.500 67.583 C 151.500 67.374,151.150 67.333,149.353 67.333 C 147.346 67.333,147.200 67.312,147.118 67.000 C 147.046 66.722,146.891 66.667,146.182 66.667 C 145.539 66.667,145.333 66.606,145.333 66.417 C 145.333 66.242,145.157 66.167,144.750 66.167 C 144.278 66.167,144.167 66.103,144.167 65.833 C 144.167 65.648,144.056 65.500,143.917 65.500 C 143.779 65.500,143.517 65.350,143.333 65.167 C 143.150 64.983,142.850 64.833,142.667 64.833 C 142.481 64.833,142.333 64.722,142.333 64.583 C 142.333 64.446,142.221 64.333,142.083 64.333 C 141.944 64.333,141.833 64.185,141.833 64.000 C 141.833 63.669,141.944 63.667,158.031 63.667 L 174.229 63.667 174.780 63.292 L 175.331 62.917 175.332 58.722 C 175.333 54.407,175.296 54.000,174.899 54.000 C 174.711 54.000,174.667 53.522,174.667 51.471 C 174.667 49.443,174.617 48.888,174.413 48.663 C 174.254 48.487,174.121 47.876,174.054 47.010 C 173.983 46.093,173.874 45.608,173.724 45.550 C 173.590 45.499,173.500 45.205,173.500 44.816 C 173.500 44.278,173.443 44.167,173.167 44.167 C 172.874 44.167,172.833 44.056,172.833 43.250 C 172.833 42.546,172.775 42.333,172.583 42.333 C 172.432 42.333,172.333 42.178,172.333 41.939 C 172.333 41.722,172.183 41.354,172.000 41.121 C 171.817 40.888,171.667 40.533,171.667 40.333 C 171.667 40.109,171.538 39.935,171.333 39.882 C 171.096 39.820,171.000 39.654,171.000 39.309 C 171.000 39.031,170.893 38.782,170.750 38.727 C 170.612 38.674,170.500 38.537,170.500 38.421 C 170.500 38.306,170.350 38.021,170.167 37.788 C 169.983 37.555,169.833 37.245,169.833 37.099 C 169.833 36.944,169.694 36.833,169.500 36.833 C 169.312 36.833,169.167 36.722,169.167 36.578 C 169.167 36.438,169.054 36.280,168.917 36.227 C 168.779 36.174,168.667 36.027,168.667 35.899 C 168.667 35.771,168.530 35.530,168.362 35.362 C 168.195 35.195,168.010 34.932,167.951 34.779 C 167.892 34.626,167.729 34.500,167.589 34.500 C 167.448 34.500,167.333 34.385,167.333 34.245 C 167.333 34.104,167.208 33.941,167.054 33.883 C 166.901 33.824,166.638 33.638,166.471 33.471 C 166.304 33.304,166.017 33.167,165.833 33.167 C 165.648 33.167,165.500 33.056,165.500 32.917 C 165.500 32.779,165.387 32.667,165.250 32.667 C 165.112 32.667,165.000 32.552,165.000 32.413 C 165.000 32.273,164.813 32.087,164.583 32.000 C 164.354 31.913,164.167 31.771,164.167 31.684 C 164.167 31.597,163.937 31.476,163.655 31.414 C 163.374 31.352,163.104 31.196,163.054 31.068 C 163.001 30.930,162.731 30.833,162.399 30.833 C 161.944 30.833,161.833 30.768,161.833 30.500 C 161.833 30.229,161.722 30.167,161.243 30.167 C 160.883 30.167,160.513 30.037,160.295 29.833 C 160.030 29.587,159.707 29.500,159.052 29.500 C 158.376 29.500,158.167 29.441,158.167 29.250 C 158.167 29.047,157.891 29.000,156.686 29.000 C 155.346 29.000,155.197 28.968,155.118 28.667 C 155.035 28.348,154.891 28.333,151.833 28.333 C 148.776 28.333,148.632 28.348,148.548 28.667 M293.667 28.667 C 293.667 28.983,293.556 29.000,291.518 29.000 C 289.762 29.000,289.351 29.046,289.273 29.250 C 289.201 29.437,288.904 29.500,288.100 29.500 C 287.169 29.500,287.008 29.545,286.917 29.833 C 286.829 30.108,286.664 30.167,285.973 30.167 C 285.276 30.167,285.121 30.222,285.048 30.500 C 284.983 30.750,284.821 30.833,284.397 30.833 C 284.007 30.833,283.833 30.910,283.833 31.083 C 283.833 31.258,283.657 31.333,283.250 31.333 C 282.778 31.333,282.667 31.397,282.667 31.667 C 282.667 31.935,282.556 32.000,282.095 32.000 C 281.669 32.000,281.495 32.085,281.417 32.333 C 281.358 32.517,281.203 32.667,281.072 32.667 C 280.941 32.667,280.833 32.779,280.833 32.917 C 280.833 33.056,280.685 33.167,280.500 33.167 C 280.317 33.167,280.030 33.304,279.862 33.471 C 279.695 33.638,279.432 33.824,279.279 33.883 C 279.126 33.941,279.000 34.104,279.000 34.245 C 279.000 34.389,278.855 34.500,278.667 34.500 C 278.481 34.500,278.333 34.611,278.333 34.750 C 278.333 34.887,278.221 35.000,278.083 35.000 C 277.946 35.000,277.833 35.120,277.833 35.266 C 277.833 35.412,277.683 35.570,277.500 35.618 C 277.317 35.666,277.167 35.838,277.167 36.000 C 277.167 36.162,277.017 36.334,276.833 36.382 C 276.591 36.445,276.500 36.609,276.500 36.984 C 276.500 37.332,276.418 37.500,276.250 37.500 C 276.112 37.500,276.000 37.612,276.000 37.750 C 276.000 37.887,275.880 38.000,275.734 38.000 C 275.588 38.000,275.431 38.143,275.386 38.318 C 275.340 38.493,275.159 38.673,274.985 38.719 C 274.758 38.778,274.667 38.951,274.667 39.318 C 274.667 39.665,274.585 39.833,274.417 39.833 C 274.236 39.833,274.167 40.019,274.167 40.500 C 274.167 41.056,274.111 41.167,273.833 41.167 C 273.566 41.167,273.500 41.278,273.500 41.731 C 273.500 42.154,273.417 42.316,273.167 42.382 C 272.923 42.445,272.833 42.609,272.833 42.990 C 272.833 43.299,272.732 43.549,272.583 43.606 C 272.395 43.679,272.333 43.982,272.333 44.832 C 272.333 45.821,272.292 45.972,272.000 46.048 C 271.707 46.125,271.667 46.276,271.667 47.298 C 271.667 48.321,271.626 48.472,271.333 48.548 C 271.008 48.633,271.000 48.776,271.000 54.833 C 271.000 60.891,271.008 61.033,271.333 61.118 C 271.626 61.195,271.667 61.346,271.667 62.342 C 271.667 63.331,271.710 63.491,272.000 63.583 C 272.279 63.672,272.333 63.836,272.333 64.583 C 272.333 65.155,272.423 65.566,272.583 65.726 C 272.721 65.864,272.833 66.132,272.833 66.321 C 272.833 66.511,272.983 66.817,273.167 67.000 C 273.350 67.183,273.500 67.484,273.500 67.668 C 273.500 67.853,273.650 68.132,273.833 68.289 C 274.017 68.446,274.167 68.736,274.167 68.933 C 274.167 69.131,274.279 69.386,274.417 69.500 C 274.554 69.614,274.667 69.848,274.667 70.020 C 274.667 70.222,274.785 70.333,275.000 70.333 C 275.222 70.333,275.333 70.444,275.333 70.667 C 275.333 70.889,275.444 71.000,275.667 71.000 C 275.927 71.000,276.000 71.111,276.000 71.505 C 276.000 71.785,276.104 72.050,276.234 72.100 C 276.362 72.149,276.505 72.335,276.551 72.512 C 276.598 72.689,276.755 72.833,276.901 72.833 C 277.047 72.833,277.167 72.946,277.167 73.083 C 277.167 73.221,277.274 73.333,277.405 73.333 C 277.537 73.333,277.692 73.483,277.750 73.667 C 277.808 73.850,277.954 74.000,278.075 74.000 C 278.196 74.000,278.334 74.150,278.382 74.333 C 278.430 74.517,278.588 74.667,278.734 74.667 C 278.880 74.667,279.000 74.779,279.000 74.917 C 279.000 75.054,279.112 75.167,279.250 75.167 C 279.387 75.167,279.650 75.317,279.833 75.500 C 280.017 75.683,280.317 75.833,280.500 75.833 C 280.722 75.833,280.833 75.944,280.833 76.167 C 280.833 76.355,280.944 76.500,281.089 76.500 C 281.229 76.500,281.387 76.612,281.440 76.750 C 281.499 76.904,281.752 77.000,282.101 77.000 C 282.556 77.000,282.667 77.065,282.667 77.333 C 282.667 77.603,282.778 77.667,283.250 77.667 C 283.637 77.667,283.833 77.745,283.833 77.899 C 283.833 78.150,284.182 78.333,284.662 78.333 C 284.828 78.333,285.008 78.446,285.060 78.583 C 285.119 78.736,285.371 78.833,285.708 78.833 C 286.053 78.833,286.366 78.958,286.545 79.167 C 286.765 79.424,287.036 79.500,287.740 79.500 C 288.412 79.500,288.690 79.572,288.804 79.774 C 288.926 79.992,289.312 80.065,290.687 80.130 C 291.906 80.187,292.456 80.278,292.550 80.439 C 292.756 80.791,298.304 80.770,298.440 80.417 C 298.492 80.279,298.706 80.167,298.914 80.167 C 299.648 80.167,300.333 79.956,300.333 79.729 C 300.333 79.584,300.523 79.500,300.849 79.500 C 301.216 79.500,301.388 79.408,301.448 79.182 C 301.493 79.007,301.674 78.827,301.849 78.781 C 302.075 78.722,302.167 78.549,302.167 78.182 C 302.167 77.835,302.248 77.667,302.417 77.667 C 302.565 77.667,302.667 77.514,302.667 77.290 C 302.667 77.083,302.817 76.820,303.000 76.705 C 303.306 76.515,303.333 76.317,303.333 74.330 C 303.333 72.370,303.302 72.136,303.000 71.878 C 302.817 71.721,302.667 71.474,302.667 71.328 C 302.667 71.183,302.557 70.918,302.422 70.740 C 302.287 70.562,302.175 70.290,302.172 70.136 C 302.169 69.982,302.017 69.808,301.833 69.750 C 301.650 69.692,301.500 69.537,301.500 69.405 C 301.500 69.274,301.350 69.167,301.167 69.167 C 300.983 69.167,300.833 69.062,300.833 68.934 C 300.833 68.680,300.483 68.500,299.986 68.500 C 299.811 68.500,299.667 68.396,299.667 68.269 C 299.667 67.961,299.142 67.838,297.809 67.836 C 296.981 67.834,296.678 67.770,296.606 67.583 C 296.528 67.380,296.127 67.333,294.441 67.333 C 292.512 67.333,292.366 67.311,292.285 67.000 C 292.212 66.722,292.058 66.667,291.349 66.667 C 290.705 66.667,290.500 66.606,290.500 66.417 C 290.500 66.242,290.324 66.167,289.917 66.167 C 289.444 66.167,289.333 66.103,289.333 65.833 C 289.333 65.625,289.222 65.500,289.037 65.500 C 288.874 65.500,288.612 65.350,288.455 65.167 C 288.298 64.983,288.019 64.833,287.835 64.833 C 287.648 64.833,287.500 64.723,287.500 64.583 C 287.500 64.444,287.352 64.333,287.167 64.333 C 286.944 64.333,286.833 64.222,286.833 64.000 C 286.833 63.669,286.944 63.667,303.179 63.667 L 319.526 63.667 320.013 63.179 L 320.500 62.692 320.499 59.471 C 320.497 55.544,320.373 54.000,320.059 54.000 C 319.879 54.000,319.833 53.493,319.833 51.500 C 319.833 49.222,319.804 48.970,319.500 48.667 C 319.227 48.394,319.167 48.111,319.167 47.104 C 319.167 46.214,319.098 45.817,318.917 45.667 C 318.779 45.553,318.667 45.287,318.667 45.077 C 318.667 44.521,318.498 44.167,318.232 44.167 C 318.064 44.167,318.000 43.932,318.000 43.318 C 318.000 42.609,317.945 42.454,317.667 42.382 C 317.416 42.316,317.333 42.154,317.333 41.731 C 317.333 41.420,317.261 41.167,317.173 41.167 C 317.085 41.167,316.932 40.867,316.833 40.500 C 316.728 40.108,316.553 39.833,316.410 39.833 C 316.249 39.833,316.167 39.659,316.167 39.318 C 316.167 38.942,316.076 38.778,315.833 38.715 C 315.650 38.667,315.500 38.492,315.500 38.326 C 315.500 38.160,315.387 37.911,315.250 37.774 C 315.112 37.636,315.000 37.399,315.000 37.246 C 315.000 37.094,314.857 36.931,314.682 36.886 C 314.507 36.840,314.327 36.659,314.281 36.485 C 314.235 36.310,314.078 36.167,313.932 36.167 C 313.761 36.167,313.667 36.021,313.667 35.756 C 313.667 35.516,313.528 35.271,313.333 35.167 C 313.150 35.069,313.000 34.878,313.000 34.744 C 313.000 34.610,312.931 34.500,312.847 34.500 C 312.762 34.500,312.390 34.200,312.020 33.833 C 311.649 33.467,311.193 33.167,311.007 33.167 C 310.816 33.167,310.667 33.057,310.667 32.917 C 310.667 32.778,310.519 32.667,310.333 32.667 C 310.111 32.667,310.000 32.556,310.000 32.333 C 310.000 32.111,309.889 32.000,309.667 32.000 C 309.483 32.000,309.333 31.891,309.333 31.758 C 309.333 31.612,309.099 31.471,308.750 31.406 C 308.416 31.343,308.167 31.197,308.167 31.065 C 308.167 30.911,307.970 30.833,307.583 30.833 C 307.111 30.833,307.000 30.770,307.000 30.500 C 307.000 30.224,306.889 30.167,306.359 30.167 C 305.930 30.167,305.619 30.057,305.417 29.833 C 305.187 29.579,304.903 29.500,304.224 29.500 C 303.543 29.500,303.333 29.441,303.333 29.250 C 303.333 29.047,303.058 29.000,301.853 29.000 C 300.512 29.000,300.364 28.968,300.285 28.667 C 300.202 28.348,300.058 28.333,296.932 28.333 C 293.778 28.333,293.667 28.345,293.667 28.667 M81.560 29.250 C 81.508 29.387,81.322 29.500,81.149 29.500 C 80.944 29.500,80.833 29.617,80.833 29.833 C 80.833 30.103,80.722 30.167,80.250 30.167 C 79.790 30.167,79.667 30.233,79.667 30.481 C 79.667 30.654,79.518 30.833,79.333 30.882 C 79.091 30.945,79.000 31.109,79.000 31.484 C 79.000 31.889,78.928 32.000,78.667 32.000 C 78.374 32.000,78.333 32.111,78.333 32.917 C 78.333 33.580,78.270 33.833,78.106 33.833 C 77.688 33.833,77.667 35.206,77.669 62.565 C 77.670 89.916,77.687 91.000,78.105 91.000 C 78.271 91.000,78.333 91.252,78.333 91.917 C 78.333 92.722,78.374 92.833,78.667 92.833 C 78.934 92.833,79.000 92.944,79.000 93.397 C 79.000 93.821,79.083 93.983,79.333 94.048 C 79.517 94.096,79.667 94.255,79.667 94.401 C 79.667 94.573,79.813 94.667,80.082 94.667 C 80.317 94.667,80.588 94.812,80.705 95.000 C 80.820 95.183,81.045 95.333,81.207 95.333 C 81.368 95.333,81.500 95.441,81.500 95.573 C 81.500 96.108,86.992 96.186,87.388 95.656 C 87.496 95.513,87.715 95.347,87.875 95.287 C 88.035 95.226,88.167 95.062,88.167 94.922 C 88.167 94.741,88.337 94.667,88.750 94.667 C 89.291 94.667,89.333 94.629,89.333 94.151 C 89.333 93.776,89.424 93.612,89.667 93.548 C 89.851 93.500,90.000 93.321,90.000 93.147 C 90.000 92.975,90.112 92.833,90.250 92.833 C 90.448 92.833,90.500 92.594,90.500 91.678 C 90.500 90.669,90.542 90.509,90.833 90.417 C 91.158 90.314,91.167 90.164,91.167 84.572 C 91.167 78.944,91.173 78.833,91.500 78.833 C 91.722 78.833,91.833 78.944,91.833 79.167 C 91.833 79.485,91.944 79.500,94.255 79.500 C 96.254 79.500,96.694 79.544,96.773 79.750 C 96.851 79.953,97.243 80.000,98.851 80.000 C 100.502 80.000,100.833 79.958,100.833 79.750 C 100.833 79.543,101.148 79.500,102.667 79.500 C 104.389 79.500,104.500 79.480,104.500 79.167 C 104.500 78.868,104.611 78.833,105.563 78.833 C 106.304 78.833,106.689 78.758,106.833 78.583 C 106.947 78.446,107.175 78.333,107.340 78.333 C 107.818 78.333,108.167 78.150,108.167 77.899 C 108.167 77.743,108.365 77.667,108.766 77.667 C 109.224 77.667,109.385 77.589,109.452 77.333 C 109.513 77.097,109.679 77.000,110.019 77.000 C 110.284 77.000,110.500 76.923,110.500 76.830 C 110.500 76.736,110.688 76.574,110.917 76.470 C 111.146 76.365,111.333 76.179,111.333 76.057 C 111.333 75.934,111.446 75.833,111.583 75.833 C 111.722 75.833,111.833 75.685,111.833 75.500 C 111.833 75.278,111.944 75.167,112.167 75.167 C 112.350 75.167,112.500 75.090,112.500 74.996 C 112.500 74.902,112.695 74.751,112.934 74.660 C 113.583 74.413,114.333 73.635,114.333 73.209 C 114.333 72.976,114.434 72.833,114.599 72.833 C 114.745 72.833,114.904 72.683,114.952 72.500 C 115.000 72.317,115.143 72.167,115.269 72.167 C 115.396 72.167,115.500 72.017,115.500 71.833 C 115.500 71.611,115.611 71.500,115.833 71.500 C 116.101 71.500,116.167 71.389,116.167 70.936 C 116.167 70.512,116.250 70.351,116.500 70.285 C 116.683 70.237,116.833 70.078,116.833 69.932 C 116.833 69.786,116.946 69.667,117.083 69.667 C 117.258 69.667,117.333 69.491,117.333 69.083 C 117.333 68.611,117.397 68.500,117.667 68.500 C 117.937 68.500,118.000 68.389,118.000 67.917 C 118.000 67.529,118.078 67.333,118.232 67.333 C 118.501 67.333,118.667 66.978,118.667 66.403 C 118.667 66.156,118.763 66.000,118.917 66.000 C 119.109 66.000,119.167 65.787,119.167 65.083 C 119.167 64.278,119.207 64.167,119.500 64.167 C 119.793 64.167,119.833 64.056,119.833 63.250 C 119.833 62.583,119.896 62.333,120.063 62.333 C 120.319 62.333,120.497 61.637,120.505 60.604 C 120.508 60.226,120.621 59.771,120.755 59.593 C 121.126 59.104,121.121 47.915,120.750 47.773 C 120.587 47.710,120.500 47.451,120.500 47.026 C 120.500 46.038,120.318 45.333,120.063 45.333 C 119.896 45.333,119.833 45.083,119.833 44.415 C 119.833 43.703,119.758 43.433,119.500 43.211 C 119.314 43.052,119.167 42.720,119.167 42.458 C 119.167 42.200,119.062 41.949,118.933 41.900 C 118.805 41.851,118.653 41.560,118.595 41.255 C 118.538 40.949,118.380 40.656,118.245 40.605 C 118.110 40.553,118.000 40.364,118.000 40.186 C 118.000 39.684,117.821 39.333,117.566 39.333 C 117.438 39.333,117.333 39.183,117.333 39.000 C 117.333 38.817,117.230 38.667,117.103 38.667 C 116.976 38.667,116.833 38.517,116.785 38.333 C 116.737 38.150,116.578 38.000,116.432 38.000 C 116.277 38.000,116.167 37.860,116.167 37.665 C 116.167 37.481,116.017 37.202,115.833 37.045 C 115.650 36.888,115.500 36.663,115.500 36.546 C 115.500 36.429,115.388 36.333,115.250 36.333 C 115.112 36.333,115.000 36.214,115.000 36.068 C 115.000 35.922,114.857 35.765,114.682 35.719 C 114.507 35.673,114.327 35.493,114.281 35.318 C 114.235 35.143,114.078 35.000,113.932 35.000 C 113.786 35.000,113.667 34.887,113.667 34.750 C 113.667 34.612,113.525 34.500,113.353 34.500 C 113.179 34.500,113.000 34.351,112.952 34.167 C 112.900 33.968,112.724 33.833,112.517 33.833 C 112.326 33.833,112.076 33.683,111.961 33.500 C 111.847 33.317,111.659 33.167,111.543 33.167 C 111.428 33.167,111.333 33.054,111.333 32.917 C 111.333 32.761,111.176 32.667,110.917 32.667 C 110.688 32.667,110.500 32.588,110.500 32.491 C 110.500 32.395,110.247 32.210,109.937 32.081 C 109.627 31.952,109.330 31.730,109.275 31.590 C 109.217 31.437,108.973 31.333,108.672 31.333 C 108.334 31.333,108.167 31.251,108.167 31.083 C 108.167 30.909,107.991 30.833,107.583 30.833 C 107.222 30.833,106.873 30.706,106.667 30.500 C 106.414 30.247,106.111 30.167,105.417 30.167 C 104.611 30.167,104.500 30.126,104.500 29.833 C 104.500 29.525,104.389 29.500,103.000 29.500 C 101.778 29.500,101.500 29.454,101.500 29.250 C 101.500 29.035,100.983 29.000,97.845 29.000 C 94.819 29.000,94.147 29.043,93.940 29.250 C 93.765 29.426,93.336 29.500,92.496 29.500 C 91.442 29.500,91.292 29.539,91.215 29.833 C 91.143 30.107,90.976 30.171,90.272 30.193 C 88.963 30.232,88.679 30.179,88.326 29.826 C 88.147 29.647,87.858 29.500,87.684 29.500 C 87.511 29.500,87.326 29.387,87.273 29.250 C 87.193 29.042,86.717 29.000,84.417 29.000 C 82.117 29.000,81.640 29.042,81.560 29.250 M219.167 52.403 C 219.167 75.903,219.174 76.333,219.601 76.333 C 219.729 76.333,219.833 76.483,219.833 76.667 C 219.833 76.889,219.944 77.000,220.167 77.000 C 220.437 77.000,220.500 77.111,220.500 77.583 C 220.500 77.946,220.581 78.167,220.713 78.167 C 220.830 78.167,221.054 78.317,221.211 78.500 C 221.368 78.683,221.685 78.833,221.915 78.833 C 222.222 78.833,222.333 78.922,222.333 79.167 C 222.333 79.468,222.444 79.500,223.500 79.500 C 224.426 79.500,224.667 79.552,224.667 79.750 C 224.667 79.942,224.880 80.000,225.583 80.000 C 226.287 80.000,226.500 79.942,226.500 79.750 C 226.500 79.551,226.742 79.500,227.682 79.500 C 228.724 79.500,228.875 79.460,228.952 79.167 C 229.013 78.933,229.179 78.833,229.508 78.833 C 229.822 78.833,230.011 78.729,230.078 78.518 C 230.133 78.345,230.325 78.164,230.506 78.117 C 230.742 78.055,230.833 77.888,230.833 77.516 C 230.833 77.168,230.915 77.000,231.083 77.000 C 231.221 77.000,231.333 76.859,231.333 76.686 C 231.333 76.512,231.482 76.333,231.667 76.285 C 231.997 76.199,232.000 76.058,232.000 58.932 L 232.000 41.667 238.981 41.667 C 245.821 41.667,245.963 41.673,246.048 42.000 C 246.125 42.293,246.276 42.333,247.298 42.333 C 248.321 42.333,248.472 42.374,248.548 42.667 C 248.612 42.909,248.776 43.000,249.151 43.000 C 249.498 43.000,249.667 43.082,249.667 43.250 C 249.667 43.387,249.808 43.500,249.981 43.500 C 250.154 43.500,250.333 43.649,250.382 43.833 C 250.430 44.017,250.588 44.167,250.734 44.167 C 250.880 44.167,251.000 44.279,251.000 44.417 C 251.000 44.554,251.112 44.667,251.250 44.667 C 251.389 44.667,251.500 44.815,251.500 45.000 C 251.500 45.222,251.611 45.333,251.833 45.333 C 252.134 45.333,252.167 45.444,252.167 46.482 C 252.167 47.342,252.229 47.655,252.413 47.726 C 252.627 47.808,252.665 49.672,252.705 62.007 C 252.746 75.081,252.772 76.210,253.031 76.399 C 253.185 76.512,253.362 76.806,253.424 77.052 C 253.486 77.298,253.641 77.500,253.768 77.500 C 253.896 77.500,254.000 77.645,254.000 77.822 C 254.000 77.999,254.150 78.192,254.333 78.250 C 254.517 78.308,254.667 78.463,254.667 78.595 C 254.667 78.756,254.855 78.833,255.250 78.833 C 255.722 78.833,255.833 78.897,255.833 79.167 C 255.833 79.468,255.944 79.500,257.005 79.500 C 257.893 79.500,258.200 79.561,258.273 79.750 C 258.340 79.925,258.613 80.000,259.184 80.000 C 259.798 80.000,260.000 79.938,260.000 79.750 C 260.000 79.551,260.242 79.500,261.182 79.500 C 262.224 79.500,262.375 79.460,262.452 79.167 C 262.500 78.982,262.679 78.833,262.853 78.833 C 263.025 78.833,263.167 78.757,263.167 78.663 C 263.167 78.569,263.373 78.402,263.625 78.291 C 264.180 78.048,264.327 77.860,264.331 77.394 C 264.332 77.180,264.466 77.004,264.667 76.952 C 264.909 76.888,265.000 76.724,265.000 76.349 C 265.000 76.002,265.082 75.833,265.250 75.833 C 265.470 75.833,265.500 73.935,265.500 59.745 C 265.500 45.598,265.470 43.645,265.250 43.560 C 265.078 43.494,264.999 43.223,264.998 42.691 C 264.995 41.679,264.849 41.167,264.564 41.167 C 264.398 41.167,264.333 40.929,264.333 40.318 C 264.333 39.609,264.278 39.454,264.000 39.382 C 263.750 39.316,263.667 39.154,263.667 38.731 C 263.667 38.361,263.587 38.167,263.435 38.167 C 263.303 38.167,263.157 37.917,263.094 37.583 C 263.029 37.234,262.888 37.000,262.742 37.000 C 262.609 37.000,262.500 36.855,262.500 36.678 C 262.500 36.501,262.350 36.308,262.167 36.250 C 261.983 36.192,261.833 36.037,261.833 35.905 C 261.833 35.774,261.721 35.667,261.583 35.667 C 261.444 35.667,261.333 35.519,261.333 35.333 C 261.333 35.111,261.222 35.000,261.000 35.000 C 260.763 35.000,260.667 34.889,260.667 34.617 C 260.667 34.128,260.372 33.833,259.883 33.833 C 259.611 33.833,259.500 33.737,259.500 33.500 C 259.500 33.278,259.389 33.167,259.167 33.167 C 258.981 33.167,258.833 33.056,258.833 32.917 C 258.833 32.778,258.685 32.667,258.500 32.667 C 258.278 32.667,258.167 32.556,258.167 32.333 C 258.167 32.089,258.056 32.000,257.751 32.000 C 257.517 32.000,257.246 31.855,257.128 31.667 C 257.001 31.463,256.739 31.333,256.455 31.333 C 256.195 31.333,255.947 31.223,255.894 31.083 C 255.841 30.946,255.597 30.833,255.352 30.833 C 255.098 30.833,254.804 30.690,254.667 30.500 C 254.509 30.282,254.235 30.167,253.873 30.167 C 253.550 30.167,253.170 30.028,252.962 29.833 C 252.699 29.589,252.373 29.500,251.736 29.500 C 251.119 29.500,250.841 29.428,250.773 29.250 C 250.689 29.030,248.773 29.000,234.922 29.000 L 219.167 29.000 219.167 52.403 M66.375 29.609 C 66.260 29.656,66.167 29.801,66.167 29.931 C 66.167 30.112,65.893 30.167,64.984 30.167 C 63.942 30.167,63.792 30.206,63.715 30.500 C 63.658 30.717,63.488 30.833,63.225 30.833 C 62.702 30.833,61.833 31.721,61.833 32.256 C 61.833 32.510,61.738 32.667,61.583 32.667 C 61.446 32.667,61.333 32.770,61.333 32.897 C 61.333 33.024,61.183 33.167,61.000 33.215 C 60.669 33.302,60.667 33.442,60.667 54.806 C 60.667 76.164,60.669 76.312,61.000 76.417 C 61.183 76.475,61.333 76.598,61.333 76.690 C 61.333 76.782,61.446 76.970,61.583 77.107 C 61.721 77.245,61.833 77.509,61.833 77.694 C 61.833 77.886,61.971 78.067,62.151 78.114 C 62.326 78.160,62.507 78.341,62.552 78.515 C 62.611 78.738,62.784 78.833,63.132 78.833 C 63.488 78.833,63.652 78.928,63.715 79.167 C 63.792 79.460,63.942 79.500,64.984 79.500 C 65.924 79.500,66.167 79.551,66.167 79.750 C 66.167 80.106,67.803 80.106,67.940 79.750 C 68.011 79.563,68.310 79.500,69.117 79.500 C 70.058 79.500,70.209 79.457,70.285 79.167 C 70.333 78.982,70.512 78.833,70.686 78.833 C 70.859 78.833,71.000 78.737,71.000 78.620 C 71.000 78.502,71.230 78.320,71.511 78.214 C 71.834 78.092,72.092 77.834,72.214 77.511 C 72.320 77.230,72.502 77.000,72.620 77.000 C 72.751 77.000,72.833 76.783,72.833 76.436 C 72.833 76.012,72.916 75.851,73.167 75.785 C 73.498 75.698,73.500 75.558,73.500 55.029 C 73.500 34.262,73.491 33.833,73.066 33.833 C 72.911 33.833,72.833 33.637,72.833 33.250 C 72.833 32.843,72.758 32.667,72.583 32.667 C 72.446 32.667,72.331 32.573,72.328 32.458 C 72.320 32.142,71.551 31.333,71.258 31.333 C 71.116 31.333,71.000 31.221,71.000 31.083 C 71.000 30.946,70.859 30.833,70.686 30.833 C 70.512 30.833,70.333 30.684,70.285 30.500 C 70.209 30.208,70.058 30.167,69.076 30.167 C 68.310 30.167,67.895 30.092,67.768 29.932 C 67.564 29.674,66.703 29.474,66.375 29.609 M204.875 29.609 C 204.760 29.656,204.667 29.801,204.667 29.931 C 204.667 30.113,204.384 30.167,203.417 30.167 C 202.278 30.167,202.167 30.196,202.167 30.500 C 202.167 30.758,202.056 30.833,201.675 30.833 C 201.405 30.833,201.123 30.933,201.050 31.054 C 200.977 31.176,200.785 31.323,200.625 31.382 C 200.423 31.457,200.333 31.670,200.333 32.078 C 200.333 32.556,200.270 32.667,200.000 32.667 C 199.815 32.667,199.667 32.778,199.667 32.917 C 199.667 33.054,199.554 33.167,199.417 33.167 C 199.196 33.167,199.167 35.677,199.167 54.755 C 199.167 73.791,199.196 76.355,199.417 76.440 C 199.554 76.492,199.667 76.622,199.667 76.728 C 199.667 76.833,199.817 77.013,200.000 77.128 C 200.188 77.246,200.333 77.517,200.333 77.751 C 200.333 78.020,200.427 78.167,200.599 78.167 C 200.745 78.167,200.904 78.317,200.952 78.500 C 201.017 78.750,201.179 78.833,201.603 78.833 C 202.056 78.833,202.167 78.899,202.167 79.167 C 202.167 79.470,202.278 79.500,203.417 79.500 C 204.417 79.500,204.667 79.550,204.667 79.750 C 204.667 79.939,204.870 80.000,205.500 80.000 C 206.130 80.000,206.333 79.939,206.333 79.750 C 206.333 79.556,206.554 79.500,207.320 79.500 C 208.457 79.500,208.833 79.392,208.833 79.066 C 208.833 78.938,208.983 78.833,209.167 78.833 C 209.350 78.833,209.500 78.737,209.500 78.620 C 209.500 78.502,209.726 78.321,210.001 78.217 C 210.364 78.080,210.531 77.886,210.606 77.514 C 210.677 77.159,210.805 77.000,211.021 77.000 C 211.265 77.000,211.333 76.876,211.333 76.434 C 211.333 76.086,211.429 75.832,211.583 75.773 C 211.804 75.688,211.833 73.207,211.833 54.833 C 211.833 36.459,211.804 33.978,211.583 33.894 C 211.429 33.834,211.333 33.581,211.333 33.232 C 211.333 32.778,211.268 32.667,211.000 32.667 C 210.817 32.667,210.667 32.558,210.667 32.424 C 210.667 32.155,209.908 31.333,209.659 31.333 C 209.572 31.333,209.500 31.221,209.500 31.083 C 209.500 30.946,209.368 30.833,209.207 30.833 C 209.045 30.833,208.820 30.683,208.705 30.500 C 208.532 30.223,208.317 30.167,207.424 30.167 C 206.687 30.167,206.308 30.095,206.217 29.937 C 206.070 29.685,205.205 29.473,204.875 29.609 M39.333 30.398 C 39.333 30.529,39.579 30.676,39.901 30.736 C 40.213 30.795,40.510 30.953,40.562 31.088 C 40.614 31.223,40.845 31.333,41.077 31.333 C 41.317 31.333,41.587 31.476,41.705 31.667 C 41.820 31.850,42.008 32.000,42.123 32.000 C 42.239 32.000,42.333 32.098,42.333 32.219 C 42.333 32.339,42.483 32.598,42.667 32.795 C 42.850 32.992,43.000 33.275,43.000 33.425 C 43.000 33.575,43.150 33.737,43.333 33.785 C 43.584 33.851,43.667 34.012,43.667 34.436 C 43.667 34.826,43.744 35.000,43.917 35.000 C 44.129 35.000,44.167 35.417,44.167 37.750 C 44.167 40.083,44.129 40.500,43.917 40.500 C 43.741 40.500,43.667 40.678,43.667 41.099 C 43.667 41.558,43.589 41.718,43.333 41.785 C 43.083 41.851,43.000 42.012,43.000 42.436 C 43.000 42.889,42.934 43.000,42.667 43.000 C 42.478 43.000,42.333 43.111,42.333 43.255 C 42.333 43.396,42.221 43.554,42.083 43.606 C 41.946 43.659,41.833 43.798,41.833 43.915 C 41.833 44.032,41.683 44.167,41.500 44.215 C 41.317 44.263,41.167 44.422,41.167 44.568 C 41.167 44.714,41.052 44.833,40.911 44.833 C 40.771 44.833,40.613 44.946,40.560 45.083 C 40.508 45.221,40.374 45.333,40.264 45.333 C 40.153 45.333,39.902 45.483,39.705 45.667 C 39.418 45.935,39.117 46.000,38.174 46.000 C 37.111 46.000,37.000 46.032,37.000 46.333 C 37.000 46.663,36.889 46.667,27.167 46.667 L 17.333 46.667 17.333 38.417 L 17.333 30.167 28.333 30.167 C 37.608 30.167,39.333 30.203,39.333 30.398 M154.667 42.000 C 154.667 42.270,154.778 42.333,155.250 42.333 C 155.649 42.333,155.833 42.410,155.833 42.576 C 155.833 42.721,156.067 42.862,156.417 42.928 C 156.751 42.990,157.000 43.136,157.000 43.269 C 157.000 43.396,157.150 43.500,157.333 43.500 C 157.556 43.500,157.667 43.611,157.667 43.833 C 157.667 44.019,157.778 44.167,157.917 44.167 C 158.054 44.167,158.167 44.274,158.167 44.405 C 158.167 44.537,158.317 44.692,158.500 44.750 C 158.683 44.808,158.833 44.963,158.833 45.095 C 158.833 45.226,158.983 45.333,159.167 45.333 C 159.435 45.333,159.500 45.444,159.500 45.899 C 159.500 46.248,159.596 46.501,159.750 46.560 C 159.898 46.617,160.000 46.868,160.000 47.177 C 160.000 47.558,160.090 47.721,160.333 47.785 C 160.610 47.857,160.667 48.012,160.667 48.702 C 160.667 49.391,160.723 49.546,161.000 49.618 C 161.184 49.667,161.333 49.846,161.333 50.019 C 161.333 50.324,160.995 50.333,150.333 50.333 L 139.333 50.333 139.333 49.686 C 139.333 49.179,139.406 49.020,139.667 48.952 C 139.906 48.889,140.000 48.724,140.000 48.367 C 140.000 48.078,140.105 47.829,140.250 47.773 C 140.398 47.716,140.500 47.466,140.500 47.156 C 140.500 46.776,140.590 46.612,140.833 46.548 C 141.017 46.500,141.167 46.357,141.167 46.231 C 141.167 46.104,141.317 45.850,141.500 45.667 C 141.683 45.483,141.833 45.221,141.833 45.083 C 141.833 44.946,141.946 44.833,142.083 44.833 C 142.222 44.833,142.333 44.685,142.333 44.500 C 142.333 44.283,142.444 44.167,142.653 44.167 C 143.150 44.167,143.500 43.987,143.500 43.732 C 143.500 43.604,143.650 43.500,143.833 43.500 C 144.019 43.500,144.167 43.389,144.167 43.250 C 144.167 43.084,144.333 43.000,144.661 43.000 C 144.984 43.000,145.217 42.885,145.333 42.667 C 145.475 42.402,145.682 42.333,146.339 42.333 C 147.056 42.333,147.167 42.289,147.167 42.000 C 147.167 41.677,147.278 41.667,150.917 41.667 C 154.556 41.667,154.667 41.677,154.667 42.000 M299.715 42.000 C 299.782 42.255,299.942 42.333,300.401 42.333 C 300.814 42.333,301.000 42.409,301.000 42.576 C 301.000 42.721,301.234 42.862,301.583 42.928 C 301.917 42.990,302.167 43.136,302.167 43.269 C 302.167 43.396,302.317 43.500,302.500 43.500 C 302.722 43.500,302.833 43.611,302.833 43.833 C 302.833 44.019,302.944 44.167,303.083 44.167 C 303.221 44.167,303.333 44.286,303.333 44.432 C 303.333 44.578,303.483 44.737,303.667 44.785 C 303.850 44.833,304.000 44.976,304.000 45.103 C 304.000 45.230,304.112 45.333,304.250 45.333 C 304.406 45.333,304.500 45.491,304.500 45.752 C 304.500 45.982,304.650 46.298,304.833 46.455 C 305.041 46.633,305.167 46.947,305.167 47.287 C 305.167 47.722,305.234 47.833,305.500 47.833 C 305.793 47.833,305.833 47.944,305.833 48.750 C 305.833 49.454,305.891 49.667,306.083 49.667 C 306.222 49.667,306.333 49.815,306.333 50.000 C 306.333 50.330,306.222 50.333,295.417 50.333 L 284.500 50.333 284.500 49.667 C 284.500 49.185,284.569 49.000,284.750 49.000 C 284.923 49.000,285.000 48.826,285.000 48.436 C 285.000 48.012,285.083 47.851,285.333 47.785 C 285.579 47.721,285.667 47.558,285.667 47.167 C 285.667 46.776,285.755 46.612,286.000 46.548 C 286.183 46.500,286.333 46.328,286.333 46.165 C 286.333 46.002,286.446 45.826,286.583 45.773 C 286.721 45.720,286.833 45.487,286.833 45.255 C 286.833 44.980,286.926 44.833,287.099 44.833 C 287.245 44.833,287.404 44.683,287.452 44.500 C 287.500 44.316,287.679 44.167,287.853 44.167 C 288.025 44.167,288.317 44.017,288.500 43.833 C 288.683 43.650,288.946 43.500,289.083 43.500 C 289.221 43.500,289.333 43.387,289.333 43.250 C 289.333 43.082,289.502 43.000,289.849 43.000 C 290.224 43.000,290.388 42.909,290.452 42.667 C 290.525 42.385,290.679 42.333,291.436 42.333 C 292.222 42.333,292.333 42.292,292.333 42.000 C 292.333 41.677,292.444 41.667,295.981 41.667 C 299.488 41.667,299.631 41.679,299.715 42.000 M99.533 42.333 C 100.706 42.333,101.000 42.382,101.000 42.576 C 101.000 42.727,101.235 42.856,101.625 42.918 C 101.969 42.973,102.362 43.089,102.500 43.177 C 102.638 43.264,102.862 43.386,103.000 43.448 C 103.138 43.511,103.348 43.698,103.468 43.864 C 103.588 44.030,103.756 44.167,103.843 44.167 C 103.929 44.167,104.150 44.317,104.333 44.500 C 104.517 44.683,104.779 44.833,104.917 44.833 C 105.054 44.833,105.167 44.946,105.167 45.083 C 105.167 45.221,105.317 45.483,105.500 45.667 C 105.683 45.850,105.833 46.112,105.833 46.250 C 105.833 46.387,105.946 46.500,106.083 46.500 C 106.221 46.500,106.333 46.601,106.333 46.724 C 106.333 46.847,106.483 47.084,106.667 47.250 C 106.851 47.417,107.000 47.763,107.000 48.026 C 107.000 48.287,107.150 48.650,107.333 48.833 C 107.578 49.078,107.667 49.389,107.667 50.000 C 107.667 50.630,107.728 50.833,107.917 50.833 C 108.129 50.833,108.167 51.250,108.167 53.583 C 108.167 55.917,108.129 56.333,107.917 56.333 C 107.717 56.333,107.667 56.583,107.667 57.583 C 107.667 58.541,107.612 58.833,107.434 58.833 C 107.135 58.833,107.000 59.199,107.000 60.014 C 107.000 60.474,106.928 60.667,106.758 60.667 C 106.613 60.667,106.472 60.898,106.408 61.238 C 106.349 61.553,106.195 61.851,106.067 61.900 C 105.938 61.950,105.833 62.215,105.833 62.495 C 105.833 62.889,105.760 63.000,105.500 63.000 C 105.278 63.000,105.167 63.111,105.167 63.333 C 105.167 63.519,105.056 63.667,104.917 63.667 C 104.778 63.667,104.667 63.815,104.667 64.000 C 104.667 64.222,104.556 64.333,104.333 64.333 C 104.148 64.333,104.000 64.444,104.000 64.583 C 104.000 64.721,103.880 64.833,103.734 64.833 C 103.588 64.833,103.430 64.983,103.382 65.167 C 103.334 65.350,103.191 65.500,103.065 65.500 C 102.939 65.500,102.742 65.650,102.628 65.833 C 102.473 66.082,102.239 66.167,101.710 66.167 C 101.190 66.167,101.000 66.234,101.000 66.417 C 101.000 66.629,100.576 66.667,98.184 66.667 C 95.836 66.667,95.353 66.625,95.273 66.417 C 95.201 66.230,94.902 66.167,94.089 66.167 C 93.111 66.167,93.000 66.133,93.000 65.833 C 93.000 65.565,92.889 65.500,92.428 65.500 C 92.002 65.500,91.829 65.415,91.750 65.167 C 91.692 64.983,91.537 64.833,91.405 64.833 C 91.201 64.833,91.167 63.468,91.167 55.333 C 91.167 47.236,91.202 45.833,91.403 45.833 C 91.534 45.833,91.691 45.603,91.752 45.322 C 91.814 45.041,91.970 44.770,92.099 44.721 C 92.237 44.668,92.333 44.398,92.333 44.066 C 92.333 43.530,92.365 43.500,92.917 43.500 C 93.324 43.500,93.500 43.425,93.500 43.250 C 93.500 43.111,93.648 43.000,93.833 43.000 C 94.017 43.000,94.317 42.850,94.500 42.667 C 94.771 42.395,95.058 42.333,96.042 42.331 C 96.706 42.329,97.362 42.258,97.499 42.171 C 97.655 42.072,97.806 42.073,97.907 42.174 C 97.995 42.261,98.727 42.333,99.533 42.333 " stroke="none" fill="#040404" fill-rule="evenodd"></path><path id="path2" d="" stroke="none" fill="#1001404" fill-rule="evenodd"></path><path id="path3" d="" stroke="none" fill="#441404" fill-rule="evenodd"></path><path id="path4" d="" stroke="none" fill="#041804" fill-rule="evenodd"></path></g></svg>