<?xml version="1.0" encoding="UTF-8" standalone="no"?>
<svg
   xmlns:dc="http://purl.org/dc/elements/1.1/"
   xmlns:cc="http://creativecommons.org/ns#"
   xmlns:rdf="http://www.w3.org/1999/02/22-rdf-syntax-ns#"
   xmlns:svg="http://www.w3.org/2000/svg"
   xmlns="http://www.w3.org/2000/svg"
   xmlns:sodipodi="http://sodipodi.sourceforge.net/DTD/sodipodi-0.dtd"
   xmlns:inkscape="http://www.inkscape.org/namespaces/inkscape"
   viewBox="0 0 191.59 46.76"
   version="1.1"
   id="svg36"
   sodipodi:docname="r-brain.svg"
   inkscape:version="0.92.4 (unknown)">
  <metadata
     id="metadata40">
    <rdf:RDF>
      <cc:Work
         rdf:about="">
        <dc:format>image/svg+xml</dc:format>
        <dc:type
           rdf:resource="http://purl.org/dc/dcmitype/StillImage" />
        <dc:title>Asset 1</dc:title>
      </cc:Work>
    </rdf:RDF>
  </metadata>
  <sodipodi:namedview
     pagecolor="#ffffff"
     bordercolor="#666666"
     borderopacity="1"
     objecttolerance="10"
     gridtolerance="10"
     guidetolerance="10"
     inkscape:pageopacity="0"
     inkscape:pageshadow="2"
     inkscape:window-width="1507"
     inkscape:window-height="902"
     id="namedview38"
     showgrid="false"
     inkscape:zoom="1.7224281"
     inkscape:cx="99.278453"
     inkscape:cy="23.379999"
     inkscape:window-x="2106"
     inkscape:window-y="63"
     inkscape:window-maximized="0"
     inkscape:current-layer="g32" />
  <defs
     id="defs4">
    <style
       id="style2"> .cls-1 { fill: #447ed5; } .cls-2 { fill: #d43a36; } .cls-3 { fill: #605ea2; } .cls-4 { fill: #39a892; } .cls-5 { fill: #fff; } </style>
  </defs>
  <title
     id="title6">Asset 1</title>
  <g
     id="Layer_1-2">
    <g
       id="g32">
      <path
         style="fill:#447ed5"
         inkscape:connector-curvature="0"
         id="path8"
         d="M 34.52,20.86 A 10.19,10.19 0 0 1 24.61,10.43 10.19,10.19 0 0 1 34.52,0 10.2,10.2 0 0 1 44.43,10.43 10.2,10.2 0 0 1 34.52,20.86 Z M 34.52,5 a 5.27,5.27 0 0 0 -5.13,5.39 5.13,5.13 0 1 0 10.25,0 A 5.27,5.27 0 0 0 34.52,5 Z"
         class="cls-1" />
      <path
         style="fill:#d43a36"
         inkscape:connector-curvature="0"
         id="path10"
         d="M 9.91,20.86 A 10.2,10.2 0 0 1 0,10.43 10.2,10.2 0 0 1 9.91,0 10.19,10.19 0 0 1 19.82,10.43 10.19,10.19 0 0 1 9.91,20.86 Z M 9.91,5 A 5.27,5.27 0 0 0 4.78,10.39 5.27,5.27 0 0 0 9.91,15.79 5.27,5.27 0 0 0 15,10.43 5.27,5.27 0 0 0 9.91,5 Z"
         class="cls-2" />
      <path
         style="fill:#605ea2"
         inkscape:connector-curvature="0"
         id="path12"
         d="M 34.52,46.76 A 10.19,10.19 0 0 1 24.61,36.33 10.19,10.19 0 0 1 34.52,25.9 10.2,10.2 0 0 1 44.43,36.33 10.2,10.2 0 0 1 34.52,46.76 Z m 0,-15.83 a 5.4,5.4 0 1 0 5.12,5.4 5.27,5.27 0 0 0 -5.12,-5.4 z"
         class="cls-3" />
      <polygon
         style="fill:#39a892"
         id="polygon14"
         points="4.8,25.65 20.06,41.71 15.71,46.29 0.45,30.23 "
         class="cls-4" />
      <g
         id="g30"
         style="fill:#000000;fill-opacity:1">
        <path
           style="fill:#000000;fill-opacity:1"
           inkscape:connector-curvature="0"
           id="path16"
           d="M 61,38.49 V 8.28 h 11.69 a 9.9,9.9 0 0 1 7.15,2.61 9.25,9.25 0 0 1 2.73,7 9.4,9.4 0 0 1 -1.57,5.58 8.72,8.72 0 0 1 -4.45,3.24 l 6.11,11.78 h -6 L 70.84,27.27 h -4.26 v 11.22 z m 5.54,-16.27 h 5.66 q 4.71,0 4.71,-4.32 0,-4.32 -4.71,-4.36 h -5.62 z"
           class="cls-5" />
        <path
           style="fill:#000000;fill-opacity:1"
           inkscape:connector-curvature="0"
           id="path18"
           d="m 86.17,26.49 v -4.32 h 9.38 v 4.32 z"
           class="cls-5" />
        <path
           style="fill:#000000;fill-opacity:1"
           inkscape:connector-curvature="0"
           id="path20"
           d="M 101.16,38.49 V 8.28 h 12.18 a 8.22,8.22 0 0 1 6.13,2.35 7.92,7.92 0 0 1 2.32,5.76 6.33,6.33 0 0 1 -3.12,5.74 v 0 a 6.9,6.9 0 0 1 3,2.62 7.65,7.65 0 0 1 1.17,4.29 9.52,9.52 0 0 1 -2.5,6.91 c -1.67,1.67 -4.41,2.5 -8.24,2.5 z m 5.53,-18 h 6 a 3.92,3.92 0 0 0 2.65,-0.84 3.15,3.15 0 0 0 1,-2.49 3.34,3.34 0 0 0 -0.94,-2.59 3.84,3.84 0 0 0 -2.67,-0.86 h -6 z m 0,12.64 h 6.69 c 2.62,0 3.94,-1.33 3.94,-4 a 3.81,3.81 0 0 0 -1,-2.87 3.91,3.91 0 0 0 -2.85,-1 h -6.73 z"
           class="cls-5" />
        <path
           style="fill:#000000;fill-opacity:1"
           inkscape:connector-curvature="0"
           id="path22"
           d="M 126.68,38.49 V 15.61 h 5 V 18 h 0.09 a 4.92,4.92 0 0 1 1.86,-2 4.8,4.8 0 0 1 4.61,-0.35 l -0.82,5.44 a 4.7,4.7 0 0 0 -1.68,-0.34 q -3.74,0 -3.73,5.22 v 12.52 z"
           class="cls-5" />
        <path
           style="fill:#000000;fill-opacity:1"
           inkscape:connector-curvature="0"
           id="path24"
           d="m 153.43,38.49 v -2.2 h -0.08 c -0.06,0.08 -0.13,0.19 -0.21,0.32 a 4.5,4.5 0 0 1 -0.61,0.67 6.32,6.32 0 0 1 -1.11,0.86 6.79,6.79 0 0 1 -1.68,0.7 8.47,8.47 0 0 1 -2.3,0.3 q -3.93,0 -5.88,-2 a 6.56,6.56 0 0 1 -1.95,-4.81 5.86,5.86 0 0 1 1.68,-4.53 13.43,13.43 0 0 1 5.7,-2.59 23,23 0 0 0 4.68,-1.51 1.79,1.79 0 0 0 0.94,-1.6 2.1,2.1 0 0 0 -0.92,-1.73 4.62,4.62 0 0 0 -2.77,-0.69 4.09,4.09 0 0 0 -3.12,1 6.86,6.86 0 0 0 -1.47,2.74 l -4.43,-1.94 a 8.93,8.93 0 0 1 3,-4.73 9.07,9.07 0 0 1 5.94,-1.75 9.6,9.6 0 0 1 6.52,2.2 c 1.69,1.46 2.54,3.74 2.54,6.82 v 14.5 z m -5.37,-9.37 a 5.64,5.64 0 0 0 -2.69,1.23 2.4,2.4 0 0 0 -0.63,1.62 c 0,1.56 1.06,2.33 3.19,2.33 a 5.68,5.68 0 0 0 3.63,-1 3,3 0 0 0 1.21,-2.39 V 27 h -0.08 a 1.74,1.74 0 0 1 -0.35,0.53 4.92,4.92 0 0 1 -1.25,0.65 22.88,22.88 0 0 1 -3.03,0.94 z"
           class="cls-5" />
        <path
           style="fill:#000000;fill-opacity:1"
           inkscape:connector-curvature="0"
           id="path26"
           d="M 162.55,12.29 V 7 h 5.33 v 5.31 z m 0,26.2 V 15.61 h 5.33 v 22.88 z"
           class="cls-5" />
        <path
           style="fill:#000000;fill-opacity:1"
           inkscape:connector-curvature="0"
           id="path28"
           d="M 172.93,38.49 V 15.61 h 5.13 v 2.2 h 0.08 a 7.11,7.11 0 0 1 2.46,-2 6.93,6.93 0 0 1 3.28,-0.82 7.23,7.23 0 0 1 5.66,2.26 9,9 0 0 1 2.05,6.28 v 15 h -5.33 V 24.89 a 6,6 0 0 0 -0.86,-3.56 3.4,3.4 0 0 0 -3,-1.18 4,4 0 0 0 -3.08,1.18 4.45,4.45 0 0 0 -1.1,3.17 v 14 z"
           class="cls-5" />
      </g>
    </g>
  </g>
</svg>
