<svg xmlns="http://www.w3.org/2000/svg" xmlns:xlink="http://www.w3.org/1999/xlink" id="Layer_1" x="0px" y="0px" viewBox="0 0 324 219.7" style="enable-background:new 0 0 324 219.7;" xml:space="preserve">
<style type="text/css">
	.st0{fill:#FFFFFF;}
	.st1{fill:#DF1995;}
</style>
<g>
	<path class="st0" d="M140.8,59.3c0,14.5-10,24.3-24.9,24.3c-14.1,0-23.4-9.6-23.4-24V2.4h-22v63.8c0,23.4,15.3,38.7,38.3,38.7   c13.6,0,24.5-5.5,32-15.7v13.4h22V2.4h-22V59.3z"></path>
	<path class="st0" d="M199.5,47.1c0-15.5,10.6-25.9,26.5-25.9c15.1,0,24.9,10.2,24.9,25.5v55.8h22v-63C272.9,15.7,257,0,233.3,0   c-14.3,0-25.9,5.7-33.8,16.3V2.4h-22v100.1h22V47.1z"></path>
	<g>
		<path class="st0" d="M22,16.3V2.4H0v100.1h22V47.1c0-15.5,10.6-25.9,26.5-25.9c2.6,0,5,0.4,7.3,1c0-12.7,0-22.2,0-22.2    C41.4,0,29.8,5.7,22,16.3z"></path>
	</g>
	<path class="st1" d="M272.7,117.2h-73.3V138h51.3v15.1h-27.1c-20.6,0-36.1,14.3-36.1,33.2c0,19,15.5,33.4,36.1,33.4   c12.6,0,23.2-5.3,29.7-13.7v11.4h29.3v-20h-9.8V117.2z M250.7,184.8c0,9.8-9.4,16.1-23.4,16.1c-9.8,0-17.3-6.3-17.3-14.7   c0-8.2,7.5-14.5,17.3-14.5h23.4V184.8z"></path>
	<path class="st1" d="M308.3,66.4c-8.8,0-15.7,6.9-15.7,15.7c0,8.8,6.9,15.5,15.7,15.5c9,0,15.7-6.7,15.7-15.5   C324,73.2,317.3,66.4,308.3,66.4z"></path>
	<path class="st0" d="M308.3,38.5c9,0,15.7-6.7,15.7-15.7c0-8.8-6.7-15.5-15.7-15.5c-8.8,0-15.7,6.7-15.7,15.5   C292.6,31.8,299.5,38.5,308.3,38.5z"></path>
	<rect x="297.3" y="117.2" class="st1" width="22" height="100.1"></rect>
</g>
</svg>