<?xml version="1.0" encoding="UTF-8" standalone="no"?>
<svg
   xmlns:dc="http://purl.org/dc/elements/1.1/"
   xmlns:cc="http://creativecommons.org/ns#"
   xmlns:rdf="http://www.w3.org/1999/02/22-rdf-syntax-ns#"
   xmlns:svg="http://www.w3.org/2000/svg"
   xmlns="http://www.w3.org/2000/svg"
   xmlns:sodipodi="http://sodipodi.sourceforge.net/DTD/sodipodi-0.dtd"
   xmlns:inkscape="http://www.inkscape.org/namespaces/inkscape"
   id="svg"
   version="1.1"
   width="400"
   height="297.22222222222223"
   viewBox="0, 0, 400,297.22222222222223"
   sodipodi:docname="image2vector.svg"
   inkscape:version="0.92.4 (unknown)">
  <metadata
     id="metadata10">
    <rdf:RDF>
      <cc:Work
         rdf:about="">
        <dc:format>image/svg+xml</dc:format>
        <dc:type
           rdf:resource="http://purl.org/dc/dcmitype/StillImage" />
        <dc:title></dc:title>
      </cc:Work>
    </rdf:RDF>
  </metadata>
  <defs
     id="defs8" />
  <sodipodi:namedview
     pagecolor="#ffffff"
     bordercolor="#666666"
     borderopacity="1"
     objecttolerance="10"
     gridtolerance="10"
     guidetolerance="10"
     inkscape:pageopacity="0"
     inkscape:pageshadow="2"
     inkscape:window-width="1450"
     inkscape:window-height="759"
     id="namedview6"
     showgrid="false"
     inkscape:pagecheckerboard="true"
     inkscape:zoom="0.79401867"
     inkscape:cx="72.798961"
     inkscape:cy="148.61111"
     inkscape:window-x="2021"
     inkscape:window-y="188"
     inkscape:window-maximized="0"
     inkscape:current-layer="svg" />
  <path
     style="fill:#1dbcb4;fill-rule:evenodd;stroke:none"
     inkscape:connector-curvature="0"
     d="m 161.041,32.457 c -1.963,0.139 -4.706,0.446 -6.097,0.682 -1.39,0.237 -3.398,0.514 -4.461,0.616 -3.192,0.308 -5.248,0.73 -6.71,1.377 -0.762,0.337 -2.778,0.864 -4.479,1.171 -3.185,0.574 -3.579,0.714 -5.318,1.894 -0.562,0.382 -1.962,0.924 -3.111,1.206 -1.243,0.304 -2.515,0.849 -3.137,1.344 -0.576,0.457 -1.747,0.996 -2.603,1.197 -1.88,0.441 -2.463,0.723 -3.681,1.781 -0.514,0.446 -1.547,1.045 -2.295,1.331 -0.747,0.285 -1.573,0.845 -1.834,1.245 -0.262,0.399 -1.036,0.968 -1.721,1.266 -0.684,0.297 -1.579,0.908 -1.988,1.358 -0.409,0.451 -1.413,1.131 -2.231,1.512 -0.817,0.38 -1.992,1.132 -2.611,1.67 -1.373,1.196 -4.158,3.757 -4.885,4.493 -0.293,0.297 -1.002,1.002 -1.574,1.565 -1.277,1.258 -1.247,1.227 -2.504,2.504 -1.177,1.195 -1.583,1.606 -3.489,3.519 -0.761,0.763 -1.472,1.686 -1.579,2.05 -0.108,0.363 -0.507,0.906 -0.888,1.206 -0.381,0.299 -1.096,1.34 -1.59,2.312 -0.494,0.973 -1.309,2.158 -1.811,2.635 -0.502,0.477 -1.06,1.311 -1.239,1.854 -0.18,0.543 -0.649,1.242 -1.044,1.552 -0.396,0.311 -1.1,1.373 -1.567,2.359 -0.467,0.987 -1.199,2.211 -1.628,2.72 -0.428,0.509 -0.871,1.424 -0.983,2.032 -0.33,1.793 -0.953,3.333 -1.712,4.235 -0.392,0.466 -0.941,1.788 -1.227,2.956 -0.285,1.162 -0.83,2.572 -1.211,3.134 -1.202,1.771 -1.308,2.111 -1.776,5.682 -0.252,1.921 -0.775,4.305 -1.164,5.299 -1.322,3.387 -1.642,6.043 -1.905,15.786 -0.261,9.693 -0.523,10.168 -6.048,10.997 -2.954,0.444 -3.548,0.639 -5.446,1.793 -0.654,0.398 -1.791,0.814 -2.527,0.924 -1.931,0.288 -3.496,0.893 -4.502,1.739 -0.483,0.407 -1.374,0.873 -1.98,1.037 -0.606,0.164 -1.815,0.834 -2.686,1.49 -0.871,0.655 -2.102,1.331 -2.735,1.501 -0.633,0.171 -1.395,0.621 -1.693,1 -0.299,0.379 -1.075,1.03 -1.726,1.446 -0.651,0.416 -1.786,1.304 -2.522,1.972 -0.736,0.668 -1.689,1.362 -2.117,1.54 -0.428,0.179 -0.959,0.663 -1.18,1.076 -0.221,0.413 -0.901,1.006 -1.512,1.317 -0.675,0.345 -1.304,0.976 -1.607,1.613 -0.273,0.576 -0.882,1.275 -1.353,1.553 -0.471,0.278 -0.94,0.768 -1.041,1.088 -0.102,0.321 -0.749,1.195 -1.438,1.943 -0.689,0.749 -1.66,1.964 -2.159,2.7 -0.499,0.736 -1.185,1.588 -1.525,1.894 -0.34,0.306 -0.772,1.042 -0.959,1.636 -0.188,0.594 -0.737,1.584 -1.221,2.201 -0.483,0.617 -1.215,1.888 -1.627,2.825 -0.411,0.937 -1.057,2.038 -1.435,2.447 -0.426,0.46 -0.915,1.678 -1.283,3.192 -0.341,1.403 -0.974,3.02 -1.482,3.787 -0.667,1.006 -0.973,1.948 -1.233,3.797 -0.618,4.381 -0.957,6.004 -1.521,7.293 -1.327,3.03 -1.667,17.479 -0.484,20.519 1.219,3.129 1.386,3.761 1.681,6.373 0.434,3.833 0.798,5.214 1.678,6.367 0.416,0.546 0.998,1.932 1.293,3.081 0.296,1.149 0.948,2.708 1.449,3.465 0.502,0.757 1.114,2.07 1.36,2.918 0.246,0.847 0.8,1.869 1.23,2.27 0.43,0.402 1.121,1.399 1.535,2.217 0.414,0.818 1.204,1.989 1.755,2.603 0.551,0.614 1.002,1.329 1.002,1.589 0,0.521 0.303,0.85 7.029,7.644 2.558,2.585 5.152,4.954 5.763,5.267 0.612,0.312 1.192,0.773 1.289,1.025 0.096,0.252 0.882,0.779 1.746,1.17 0.864,0.391 2.026,1.138 2.581,1.659 0.556,0.521 1.693,1.268 2.528,1.659 0.835,0.391 1.852,0.98 2.261,1.309 0.409,0.328 1.614,0.811 2.677,1.072 1.063,0.261 2.602,0.925 3.42,1.475 1.135,0.764 2.217,1.149 4.573,1.627 1.698,0.345 3.572,0.869 4.164,1.165 3.773,1.883 1.964,1.859 128.81,1.742 120.698,-0.112 118.483,-0.088 121.784,-1.323 1.431,-0.535 4.32,-1.371 7.087,-2.051 1.118,-0.274 2.402,-0.811 2.855,-1.192 0.453,-0.38 1.88,-0.978 3.173,-1.329 1.366,-0.37 2.661,-0.928 3.094,-1.335 0.41,-0.384 1.642,-1.105 2.739,-1.603 1.097,-0.497 2.13,-1.157 2.295,-1.466 0.166,-0.308 0.849,-0.78 1.518,-1.048 0.67,-0.268 1.554,-0.851 1.966,-1.295 0.412,-0.444 1.373,-1.172 2.137,-1.618 1.8,-1.051 10.287,-9.506 11.286,-11.244 0.423,-0.736 1.28,-1.904 1.904,-2.596 0.625,-0.691 1.135,-1.471 1.135,-1.732 0,-0.262 0.425,-0.901 0.945,-1.42 0.519,-0.519 1.335,-1.813 1.813,-2.877 0.479,-1.063 1.129,-2.214 1.446,-2.558 0.317,-0.343 0.854,-1.615 1.194,-2.825 0.34,-1.21 1.073,-2.942 1.63,-3.849 0.778,-1.269 1.115,-2.29 1.461,-4.432 0.248,-1.53 0.772,-3.598 1.166,-4.596 1.11,-2.815 1.373,-4.859 1.56,-12.101 0.25,-9.696 -0.265,-15.079 -1.846,-19.304 -0.275,-0.736 -0.763,-2.543 -1.083,-4.015 -0.321,-1.472 -0.899,-3.157 -1.285,-3.745 -0.386,-0.588 -0.986,-2.022 -1.333,-3.185 -0.346,-1.164 -0.941,-2.49 -1.322,-2.946 -0.821,-0.983 -1.513,-2.31 -1.774,-3.402 -0.104,-0.433 -0.667,-1.36 -1.253,-2.061 -0.585,-0.701 -1.332,-1.8 -1.66,-2.442 -0.328,-0.643 -1.054,-1.627 -1.614,-2.187 -0.56,-0.56 -1.018,-1.205 -1.018,-1.433 0,-0.228 -0.452,-0.792 -1.003,-1.254 -0.552,-0.461 -1.218,-1.261 -1.48,-1.777 -0.262,-0.516 -0.942,-1.225 -1.51,-1.576 -0.568,-0.351 -1.117,-0.903 -1.219,-1.226 -0.103,-0.324 -0.545,-0.81 -0.982,-1.082 -0.737,-0.457 -1.766,-1.389 -4.574,-4.144 -0.606,-0.594 -1.618,-1.312 -2.25,-1.594 -0.631,-0.283 -1.607,-0.917 -2.169,-1.41 -0.562,-0.493 -1.649,-1.19 -2.416,-1.55 -0.767,-0.36 -1.591,-0.955 -1.832,-1.323 -0.295,-0.451 -1.087,-0.844 -2.437,-1.209 -1.109,-0.3 -2.412,-0.895 -2.926,-1.335 -0.544,-0.465 -1.912,-1.071 -3.307,-1.465 -1.308,-0.369 -2.847,-0.985 -3.42,-1.37 -0.572,-0.384 -1.585,-0.842 -2.249,-1.016 -2.166,-0.568 -2.501,-1.216 -2.799,-5.414 -0.201,-2.831 -0.434,-4.096 -1.005,-5.467 -0.409,-0.982 -0.891,-2.855 -1.072,-4.164 -0.475,-3.448 -0.756,-4.476 -1.47,-5.383 -0.35,-0.445 -0.907,-1.703 -1.239,-2.796 -0.342,-1.125 -1.104,-2.652 -1.755,-3.519 -0.633,-0.842 -1.234,-1.912 -1.336,-2.377 -0.102,-0.465 -0.715,-1.347 -1.363,-1.96 -0.647,-0.614 -1.176,-1.245 -1.176,-1.403 0,-0.273 -5.318,-5.566 -8.176,-8.138 -0.727,-0.654 -1.716,-1.306 -2.198,-1.448 -0.482,-0.143 -1.494,-0.77 -2.251,-1.395 -0.769,-0.636 -2.073,-1.339 -2.96,-1.597 -0.873,-0.254 -1.762,-0.672 -1.976,-0.93 -0.642,-0.774 -1.934,-1.307 -4.369,-1.803 -1.27,-0.259 -3.226,-0.87 -4.348,-1.358 -4.534,-1.972 -19.653,-1.84 -23.692,0.207 -0.761,0.386 -2.488,0.976 -3.838,1.312 -1.461,0.364 -2.803,0.903 -3.313,1.333 -0.848,0.714 -1.618,1.028 -4.07,1.659 -0.785,0.202 -1.451,0.61 -1.755,1.075 -0.27,0.412 -1.008,1.013 -1.641,1.335 -0.632,0.323 -1.475,0.952 -1.872,1.398 -0.398,0.446 -1.447,1.203 -2.331,1.681 -0.884,0.478 -1.897,1.293 -2.252,1.81 -0.354,0.516 -0.958,1.108 -1.343,1.314 -0.385,0.206 -0.975,0.865 -1.313,1.465 -0.598,1.065 -2.46,3.395 -4.701,5.885 -0.613,0.681 -1.311,1.854 -1.551,2.608 -0.241,0.753 -0.75,1.707 -1.131,2.118 -0.954,1.03 -1.244,1.633 -1.616,3.369 -0.176,0.823 -0.712,1.989 -1.191,2.591 -0.478,0.602 -1.011,1.645 -1.184,2.318 -0.619,2.404 -0.937,3.184 -1.646,4.027 -0.396,0.47 -1.037,1.952 -1.426,3.294 -0.389,1.341 -0.995,2.727 -1.349,3.078 -0.353,0.352 -0.979,1.742 -1.391,3.09 -0.412,1.349 -1.053,2.821 -1.425,3.272 -0.773,0.938 -0.963,1.38 -1.561,3.634 -0.237,0.893 -0.767,2.064 -1.177,2.603 -0.761,0.998 -1.04,1.668 -1.594,3.837 -0.172,0.673 -0.699,1.71 -1.172,2.305 -0.522,0.657 -1.06,1.9 -1.369,3.162 -0.306,1.247 -0.848,2.506 -1.354,3.142 -0.831,1.046 -1.131,1.761 -1.753,4.179 -0.173,0.673 -0.699,1.707 -1.169,2.298 -0.501,0.631 -1.06,1.905 -1.354,3.088 -0.299,1.2 -0.853,2.455 -1.369,3.103 -0.478,0.599 -1.013,1.734 -1.19,2.523 -0.409,1.828 -1.353,3.972 -1.748,3.972 -0.168,0 -0.656,1.151 -1.085,2.557 -0.429,1.407 -1.166,3.113 -1.638,3.792 -0.472,0.679 -1.06,2.025 -1.307,2.99 -0.246,0.966 -0.65,2.036 -0.897,2.379 -0.247,0.343 -0.662,0.918 -0.922,1.277 -0.261,0.36 -0.676,1.538 -0.923,2.618 -1.116,4.897 -5.189,4.723 -6.362,-0.272 -0.41,-1.748 -0.936,-2.883 -1.585,-3.421 -0.251,-0.209 -0.808,-1.534 -1.239,-2.945 -0.43,-1.412 -1.103,-2.947 -1.495,-3.413 -0.392,-0.465 -1.002,-1.844 -1.357,-3.064 -0.354,-1.22 -0.944,-2.542 -1.31,-2.937 -0.612,-0.66 -1.305,-2.403 -1.739,-4.371 -0.096,-0.437 -0.515,-1.199 -0.931,-1.693 -0.7,-0.832 -1.342,-2.39 -1.735,-4.209 -0.089,-0.413 -0.577,-1.377 -1.085,-2.142 -0.507,-0.766 -1.232,-2.398 -1.611,-3.627 -0.379,-1.228 -1.015,-2.62 -1.413,-3.093 -0.397,-0.472 -0.967,-1.782 -1.264,-2.91 -0.298,-1.128 -0.854,-2.388 -1.235,-2.799 -0.732,-0.792 -1.387,-2.395 -1.724,-4.225 -0.112,-0.609 -0.513,-1.479 -0.892,-1.933 -0.967,-1.163 -1.304,-1.878 -1.67,-3.54 -0.175,-0.798 -0.727,-2.024 -1.225,-2.725 -0.499,-0.702 -1.21,-2.257 -1.58,-3.457 -0.371,-1.2 -1.006,-2.634 -1.412,-3.186 -0.406,-0.552 -0.978,-1.673 -1.269,-2.491 -0.828,-2.318 -1.15,-2.666 -3.977,-4.283 -3.164,-1.811 -4.644,-1.992 -6.297,-0.773 -0.554,0.409 -1.188,0.744 -1.409,0.744 -0.83,0 -3.583,3.122 -3.953,4.484 -0.519,1.91 -0.208,5.668 0.569,6.89 1.001,1.572 1.753,3.251 2.138,4.771 0.198,0.784 0.736,1.898 1.196,2.476 0.723,0.911 1.038,1.718 1.956,5.022 0.091,0.327 0.496,0.948 0.901,1.381 0.436,0.467 0.964,1.655 1.296,2.921 0.308,1.174 0.875,2.508 1.26,2.965 0.746,0.887 1.041,1.573 1.809,4.212 0.266,0.915 0.755,1.909 1.085,2.207 0.33,0.299 0.932,1.632 1.338,2.963 0.405,1.33 1.078,2.88 1.493,3.442 0.416,0.563 1.089,2.115 1.496,3.449 0.407,1.333 0.957,2.605 1.223,2.825 0.592,0.491 1.166,1.826 1.58,3.671 0.171,0.766 0.704,1.882 1.183,2.481 0.48,0.599 1.069,1.849 1.31,2.777 0.463,1.789 0.832,2.608 1.719,3.813 0.301,0.409 0.871,1.795 1.268,3.08 0.396,1.284 1.016,2.651 1.379,3.037 0.362,0.386 0.979,1.808 1.371,3.16 0.414,1.43 1.011,2.773 1.426,3.208 0.407,0.428 0.971,1.681 1.313,2.919 0.329,1.193 0.937,2.571 1.35,3.062 0.413,0.491 0.901,1.455 1.086,2.143 0.638,2.384 1.192,3.708 1.768,4.229 0.318,0.288 0.929,1.673 1.357,3.077 0.429,1.405 1.089,2.922 1.467,3.372 0.675,0.802 0.993,1.582 1.61,3.955 0.218,0.838 0.577,1.341 1.215,1.701 0.498,0.282 1.136,0.919 1.417,1.416 1.146,2.025 8.426,2.105 9.735,0.108 0.251,-0.385 0.989,-1.035 1.639,-1.445 0.651,-0.411 1.183,-0.921 1.183,-1.135 0,-0.974 0.978,-3.527 1.664,-4.342 0.416,-0.495 1.029,-1.873 1.362,-3.062 0.333,-1.19 0.92,-2.582 1.306,-3.094 0.726,-0.966 1.303,-2.338 1.886,-4.483 0.187,-0.688 0.691,-1.667 1.119,-2.176 0.439,-0.522 1.029,-1.859 1.35,-3.062 0.331,-1.239 0.871,-2.451 1.285,-2.885 0.416,-0.437 1.013,-1.782 1.431,-3.227 0.395,-1.363 1.007,-2.766 1.36,-3.117 0.353,-0.352 0.989,-1.777 1.413,-3.167 0.424,-1.391 1.077,-2.893 1.45,-3.338 0.672,-0.802 0.994,-1.6 1.607,-3.983 0.173,-0.673 0.698,-1.707 1.168,-2.298 0.501,-0.631 1.06,-1.905 1.355,-3.088 0.296,-1.189 0.852,-2.455 1.357,-3.089 0.473,-0.594 1.077,-1.924 1.349,-2.974 0.494,-1.906 1.267,-3.535 1.678,-3.535 0.121,0 0.565,-1.091 0.986,-2.424 0.421,-1.333 1.217,-3.173 1.769,-4.089 0.551,-0.916 1.162,-2.366 1.357,-3.222 0.195,-0.856 0.743,-2.045 1.218,-2.642 0.474,-0.597 1.004,-1.637 1.178,-2.31 0.621,-2.418 0.938,-3.186 1.676,-4.062 0.412,-0.49 0.981,-1.794 1.265,-2.898 0.567,-2.205 0.944,-3.045 1.62,-3.605 0.412,-0.342 1.089,-2.12 1.483,-3.893 0.09,-0.409 0.632,-1.467 1.204,-2.351 0.572,-0.885 1.185,-2.309 1.363,-3.165 0.185,-0.89 0.764,-2.177 1.35,-3.001 0.564,-0.794 1.026,-1.587 1.026,-1.763 0,-0.901 0.998,-3.48 1.643,-4.247 0.405,-0.481 1.017,-1.784 1.361,-2.896 0.384,-1.245 0.936,-2.314 1.435,-2.783 0.447,-0.418 1.05,-1.386 1.341,-2.15 0.683,-1.795 6.203,-7.122 10.28,-9.921 0.572,-0.393 1.311,-0.915 1.642,-1.16 0.331,-0.245 1.591,-0.654 2.8,-0.909 1.21,-0.254 2.612,-0.715 3.116,-1.025 2.562,-1.572 11.695,-1.667 14.881,-0.155 0.54,0.257 2.292,0.791 3.893,1.187 1.639,0.406 3.181,0.974 3.53,1.302 0.342,0.32 1.508,0.978 2.591,1.464 1.084,0.485 2.171,1.17 2.417,1.52 0.245,0.351 1.065,1.03 1.821,1.51 0.757,0.479 1.376,1.074 1.376,1.322 0,0.247 0.463,0.752 1.028,1.122 0.566,0.369 1.195,1.006 1.398,1.415 0.202,0.409 0.866,1.279 1.475,1.933 0.747,0.802 1.272,1.771 1.61,2.974 0.276,0.981 0.814,2.119 1.194,2.528 1.526,1.641 2.824,9.968 2.264,14.533 -0.966,7.875 -1.268,9.866 -1.669,11.003 l -0.436,1.237 1.103,0.717 c 1.437,0.933 6.323,2.085 11.363,2.681 3.386,0.399 4.341,0.632 6.097,1.484 1.145,0.555 2.95,1.227 4.011,1.492 1.138,0.285 2.242,0.782 2.692,1.213 0.419,0.402 1.619,1.066 2.665,1.476 1.047,0.411 2.244,1.067 2.662,1.458 0.417,0.392 1.18,0.964 1.696,1.272 2.037,1.216 10.809,9.65 10.809,10.392 0,0.144 0.525,0.835 1.166,1.536 0.641,0.702 1.372,1.881 1.624,2.621 0.252,0.74 0.845,1.706 1.317,2.148 0.591,0.552 1.071,1.519 1.542,3.104 0.376,1.266 0.769,2.302 0.873,2.302 0.514,0 1.331,2.145 1.961,5.145 0.385,1.832 1.009,4.134 1.387,5.115 0.653,1.694 0.688,2.162 0.688,9.22 v 7.435 l -0.842,2.016 c -0.463,1.109 -1.028,3.166 -1.255,4.572 -0.529,3.262 -0.641,3.612 -1.55,4.825 -0.414,0.552 -1.058,1.991 -1.43,3.197 -0.436,1.416 -1.053,2.634 -1.74,3.436 -0.585,0.684 -1.064,1.422 -1.064,1.642 0,0.22 -0.518,0.965 -1.151,1.657 -0.633,0.691 -1.255,1.591 -1.382,2 -0.345,1.11 -7.79,8.562 -9.363,9.372 -0.736,0.379 -1.493,0.947 -1.683,1.262 -0.189,0.314 -1.092,0.926 -2.007,1.359 -0.915,0.433 -1.663,0.92 -1.663,1.082 0,0.501 -1.319,1.192 -3.356,1.756 -1.072,0.298 -2.361,0.887 -2.864,1.31 -1.069,0.9 -1.073,0.901 -4.901,1.69 -1.618,0.333 -3.09,0.727 -3.271,0.874 -1.791,1.459 6.11,1.362 -119.586,1.457 -121.115,0.091 -119.186,0.11 -122.082,-1.173 -0.736,-0.326 -2.784,-0.915 -4.552,-1.309 -2.269,-0.505 -3.581,-0.972 -4.461,-1.588 -0.686,-0.48 -2.016,-1.088 -2.955,-1.352 -0.94,-0.264 -2.145,-0.861 -2.677,-1.325 -0.532,-0.465 -1.666,-1.198 -2.519,-1.628 -0.852,-0.43 -1.695,-1.052 -1.871,-1.382 -0.177,-0.33 -0.898,-0.871 -1.603,-1.202 -0.705,-0.331 -1.464,-0.943 -1.686,-1.359 -0.223,-0.416 -0.784,-0.953 -1.247,-1.192 -0.463,-0.239 -1.09,-0.844 -1.393,-1.343 -0.304,-0.499 -0.961,-1.156 -1.46,-1.459 -0.499,-0.304 -1.108,-0.94 -1.353,-1.413 -0.245,-0.474 -0.786,-1.085 -1.202,-1.357 -0.417,-0.273 -0.956,-0.972 -1.199,-1.553 -0.243,-0.582 -0.973,-1.661 -1.622,-2.399 -0.65,-0.738 -1.338,-1.832 -1.529,-2.432 -0.192,-0.599 -0.65,-1.424 -1.02,-1.833 -0.92,-1.02 -1.211,-1.666 -1.609,-3.569 -0.188,-0.9 -0.745,-2.201 -1.239,-2.893 -0.906,-1.27 -1.01,-1.693 -1.762,-7.19 -0.188,-1.374 -0.599,-3.153 -0.914,-3.951 -0.837,-2.124 -0.827,-9.192 0.018,-11.887 0.325,-1.037 0.733,-3.023 0.907,-4.414 0.556,-4.435 0.863,-5.718 1.598,-6.682 0.395,-0.518 1.069,-2.091 1.497,-3.495 0.429,-1.404 0.986,-2.725 1.24,-2.936 0.254,-0.21 0.865,-1.194 1.358,-2.185 0.494,-0.991 1.161,-2.01 1.482,-2.264 0.322,-0.254 0.944,-1.154 1.384,-2.001 0.893,-1.72 6.068,-7.476 7.923,-8.811 0.661,-0.476 1.594,-1.244 2.072,-1.705 0.478,-0.462 1.443,-1.059 2.146,-1.328 0.702,-0.268 1.487,-0.81 1.746,-1.204 0.258,-0.394 1.226,-1.051 2.151,-1.46 0.925,-0.409 2.095,-1.059 2.6,-1.444 0.505,-0.386 1.783,-0.94 2.841,-1.232 1.057,-0.292 2.747,-0.964 3.755,-1.494 1.298,-0.681 2.428,-1.02 3.867,-1.161 1.117,-0.109 3.236,-0.377 4.709,-0.596 1.472,-0.219 4.817,-0.55 7.434,-0.736 8.267,-0.589 7.799,-0.495 8.179,-1.646 0.388,-1.175 0.204,-2.49 -0.751,-5.352 -1.964,-5.891 -1.893,-24.944 0.11,-29.342 0.323,-0.709 0.747,-2.427 0.941,-3.818 0.617,-4.425 0.898,-5.546 1.637,-6.548 0.709,-0.961 1.404,-2.782 1.78,-4.663 0.104,-0.523 0.582,-1.445 1.061,-2.048 0.479,-0.603 1.013,-1.647 1.187,-2.32 0.174,-0.673 0.385,-1.462 0.469,-1.752 0.085,-0.291 0.679,-1.135 1.321,-1.877 0.642,-0.742 1.167,-1.544 1.167,-1.783 0,-0.239 0.511,-1.001 1.137,-1.692 0.625,-0.692 1.319,-1.713 1.541,-2.269 0.223,-0.557 0.915,-1.601 1.538,-2.321 0.623,-0.719 1.279,-1.582 1.458,-1.916 0.925,-1.728 11.957,-12.039 13.954,-13.042 0.736,-0.37 1.841,-1.123 2.454,-1.674 0.614,-0.551 1.32,-1.002 1.568,-1.002 0.249,0 1.018,-0.522 1.71,-1.159 0.72,-0.663 1.927,-1.379 2.822,-1.671 0.861,-0.282 2.041,-0.89 2.622,-1.352 0.61,-0.485 1.771,-0.993 2.747,-1.203 1.845,-0.397 2.757,-0.789 4.361,-1.878 0.653,-0.443 1.869,-0.841 3.206,-1.05 1.184,-0.184 3.558,-0.787 5.276,-1.339 7.601,-2.441 28.502,-2.36 34.052,0.133 0.654,0.294 2.394,0.74 3.866,0.991 3.172,0.54 4.105,0.866 5.255,1.833 0.472,0.398 1.357,0.814 1.966,0.924 1.6,0.29 4.118,1.264 4.521,1.75 0.19,0.229 1.272,0.771 2.404,1.203 1.327,0.507 2.264,1.076 2.638,1.602 0.321,0.451 1.09,0.967 1.723,1.157 0.628,0.188 1.551,0.741 2.05,1.23 0.499,0.488 1.603,1.236 2.454,1.663 0.85,0.427 1.708,1.046 1.907,1.375 0.198,0.33 0.874,0.864 1.501,1.188 0.626,0.323 1.359,0.971 1.627,1.438 0.269,0.468 0.921,1.057 1.449,1.309 0.529,0.252 1.167,0.855 1.418,1.341 0.251,0.485 0.721,0.966 1.044,1.069 0.324,0.102 1.43,0.806 2.457,1.563 2.945,2.17 5.977,2.183 8.456,0.038 0.764,-0.661 1.69,-1.317 2.058,-1.457 1.296,-0.492 1.998,-4.861 1.335,-8.299 -0.266,-1.377 -8.607,-10.131 -9.653,-10.131 -0.233,0 -0.751,-0.389 -1.151,-0.865 -0.4,-0.475 -1.315,-1.162 -2.033,-1.527 -0.719,-0.364 -1.747,-1.046 -2.284,-1.515 -0.538,-0.469 -1.609,-1.176 -2.38,-1.57 -0.771,-0.395 -1.572,-1 -1.78,-1.345 -0.208,-0.345 -1.078,-0.936 -1.933,-1.315 -0.855,-0.379 -1.745,-0.919 -1.977,-1.2 -0.513,-0.622 -1.74,-1.153 -3.81,-1.648 -0.856,-0.205 -2.049,-0.765 -2.652,-1.244 -0.602,-0.478 -1.441,-0.946 -1.864,-1.038 -2.468,-0.539 -3.85,-1.075 -4.467,-1.731 -0.686,-0.731 -1.125,-0.859 -6.859,-1.997 -0.899,-0.179 -2.111,-0.566 -2.693,-0.861 -1.111,-0.563 -3.301,-1.01 -6.526,-1.332 -1.063,-0.106 -3.138,-0.377 -4.61,-0.602 -2.435,-0.373 -10.586,-1.083 -11.301,-0.985 -0.164,0.023 -1.903,0.155 -3.866,0.295"
     id="path0" />
  <path
     style="fill:#a9e4e3;fill-rule:evenodd;stroke:none;fill-opacity:0.00414938"
     inkscape:connector-curvature="0"
     d="M 0,148.699 V 297.398 H 200 400 V 148.699 0 H 200 0 V 148.699 M 169.368,32.429 c 2.29,0.169 5.368,0.492 6.84,0.718 1.472,0.225 3.547,0.496 4.61,0.602 3.225,0.322 5.415,0.769 6.526,1.332 0.582,0.295 1.794,0.682 2.693,0.861 5.734,1.138 6.173,1.266 6.859,1.997 0.617,0.656 1.999,1.192 4.467,1.731 0.423,0.092 1.262,0.56 1.864,1.038 0.603,0.479 1.796,1.039 2.652,1.244 2.07,0.495 3.297,1.026 3.81,1.648 0.232,0.281 1.122,0.821 1.977,1.2 0.855,0.379 1.725,0.97 1.933,1.315 0.208,0.345 1.009,0.95 1.78,1.345 0.771,0.394 1.842,1.101 2.38,1.57 0.537,0.469 1.565,1.151 2.284,1.515 0.718,0.365 1.633,1.052 2.033,1.527 0.4,0.476 0.918,0.865 1.151,0.865 1.046,0 9.387,8.754 9.653,10.131 0.663,3.438 -0.039,7.807 -1.335,8.299 -0.368,0.14 -1.294,0.796 -2.058,1.457 -2.479,2.145 -5.511,2.132 -8.456,-0.038 -1.027,-0.757 -2.133,-1.461 -2.457,-1.563 -0.323,-0.103 -0.793,-0.584 -1.044,-1.069 -0.251,-0.486 -0.889,-1.089 -1.418,-1.341 -0.528,-0.252 -1.18,-0.841 -1.449,-1.309 -0.268,-0.467 -1.001,-1.115 -1.627,-1.438 -0.627,-0.324 -1.303,-0.858 -1.501,-1.188 -0.199,-0.329 -1.057,-0.948 -1.907,-1.375 -0.851,-0.427 -1.955,-1.175 -2.454,-1.663 -0.499,-0.489 -1.422,-1.042 -2.05,-1.23 -0.633,-0.19 -1.402,-0.706 -1.723,-1.157 -0.374,-0.526 -1.311,-1.095 -2.638,-1.602 -1.132,-0.432 -2.214,-0.974 -2.404,-1.203 -0.403,-0.486 -2.921,-1.46 -4.521,-1.75 -0.609,-0.11 -1.494,-0.526 -1.966,-0.924 -1.15,-0.967 -2.083,-1.293 -5.255,-1.833 -1.472,-0.251 -3.212,-0.697 -3.866,-0.991 -5.55,-2.493 -26.451,-2.574 -34.052,-0.133 -1.718,0.552 -4.092,1.155 -5.276,1.339 -1.337,0.209 -2.553,0.607 -3.206,1.05 -1.604,1.089 -2.516,1.481 -4.361,1.878 -0.976,0.21 -2.137,0.718 -2.747,1.203 -0.581,0.462 -1.761,1.07 -2.622,1.352 -0.895,0.292 -2.102,1.008 -2.822,1.671 -0.692,0.637 -1.461,1.159 -1.71,1.159 -0.248,0 -0.954,0.451 -1.568,1.002 -0.613,0.551 -1.718,1.304 -2.454,1.674 -1.997,1.003 -13.029,11.314 -13.954,13.042 -0.179,0.334 -0.835,1.197 -1.458,1.916 -0.623,0.72 -1.315,1.764 -1.538,2.321 -0.222,0.556 -0.916,1.577 -1.541,2.269 -0.626,0.691 -1.137,1.453 -1.137,1.692 0,0.239 -0.525,1.041 -1.167,1.783 -0.642,0.742 -1.236,1.586 -1.321,1.877 -0.084,0.29 -0.295,1.079 -0.469,1.752 -0.174,0.673 -0.708,1.717 -1.187,2.32 -0.479,0.603 -0.957,1.525 -1.061,2.048 -0.376,1.881 -1.071,3.702 -1.78,4.663 -0.739,1.002 -1.02,2.123 -1.637,6.548 -0.194,1.391 -0.618,3.109 -0.941,3.818 -2.003,4.398 -2.074,23.451 -0.11,29.342 0.955,2.862 1.139,4.177 0.751,5.352 -0.38,1.151 0.088,1.057 -8.179,1.646 -2.617,0.186 -5.962,0.517 -7.434,0.736 -1.473,0.219 -3.592,0.487 -4.709,0.596 -1.439,0.141 -2.569,0.48 -3.867,1.161 -1.008,0.53 -2.698,1.202 -3.755,1.494 -1.058,0.292 -2.336,0.846 -2.841,1.232 -0.505,0.385 -1.675,1.035 -2.6,1.444 -0.925,0.409 -1.893,1.066 -2.151,1.46 -0.259,0.394 -1.044,0.936 -1.746,1.204 -0.703,0.269 -1.668,0.866 -2.146,1.328 -0.478,0.461 -1.411,1.229 -2.072,1.705 -1.855,1.335 -7.03,7.091 -7.923,8.811 -0.44,0.847 -1.062,1.747 -1.384,2.001 -0.321,0.254 -0.988,1.273 -1.482,2.264 -0.493,0.991 -1.104,1.975 -1.358,2.185 -0.254,0.211 -0.811,1.532 -1.24,2.936 -0.428,1.404 -1.102,2.977 -1.497,3.495 -0.735,0.964 -1.042,2.247 -1.598,6.682 -0.174,1.391 -0.582,3.377 -0.907,4.414 -0.845,2.695 -0.855,9.763 -0.018,11.887 0.315,0.798 0.726,2.577 0.914,3.951 0.752,5.497 0.856,5.92 1.762,7.19 0.494,0.692 1.051,1.993 1.239,2.893 0.398,1.903 0.689,2.549 1.609,3.569 0.37,0.409 0.828,1.234 1.02,1.833 0.191,0.6 0.879,1.694 1.529,2.432 0.649,0.738 1.379,1.817 1.622,2.399 0.243,0.581 0.782,1.28 1.199,1.553 0.416,0.272 0.957,0.883 1.202,1.357 0.245,0.473 0.854,1.109 1.353,1.413 0.499,0.303 1.156,0.96 1.46,1.459 0.303,0.499 0.93,1.104 1.393,1.343 0.463,0.239 1.024,0.776 1.247,1.192 0.222,0.416 0.981,1.028 1.686,1.359 0.705,0.331 1.426,0.872 1.603,1.202 0.176,0.33 1.019,0.952 1.871,1.382 0.853,0.43 1.987,1.163 2.519,1.628 0.532,0.464 1.737,1.061 2.677,1.325 0.939,0.264 2.269,0.872 2.955,1.352 0.88,0.616 2.192,1.083 4.461,1.588 1.768,0.394 3.816,0.983 4.552,1.309 2.896,1.283 0.967,1.264 122.082,1.173 125.696,-0.095 117.795,0.002 119.586,-1.457 0.181,-0.147 1.653,-0.541 3.271,-0.874 3.828,-0.789 3.832,-0.79 4.901,-1.69 0.503,-0.423 1.792,-1.012 2.864,-1.31 2.037,-0.564 3.356,-1.255 3.356,-1.756 0,-0.162 0.748,-0.649 1.663,-1.082 0.915,-0.433 1.818,-1.045 2.007,-1.359 0.19,-0.315 0.947,-0.883 1.683,-1.262 1.573,-0.81 9.018,-8.262 9.363,-9.372 0.127,-0.409 0.749,-1.309 1.382,-2 0.633,-0.692 1.151,-1.437 1.151,-1.657 0,-0.22 0.479,-0.958 1.064,-1.642 0.687,-0.802 1.304,-2.02 1.74,-3.436 0.372,-1.206 1.016,-2.645 1.43,-3.197 0.909,-1.213 1.021,-1.563 1.55,-4.825 0.227,-1.406 0.792,-3.463 1.255,-4.572 l 0.842,-2.016 v -7.435 c 0,-7.058 -0.035,-7.526 -0.688,-9.22 -0.378,-0.981 -1.002,-3.283 -1.387,-5.115 -0.63,-3 -1.447,-5.145 -1.961,-5.145 -0.104,0 -0.497,-1.036 -0.873,-2.302 -0.471,-1.585 -0.951,-2.552 -1.542,-3.104 -0.472,-0.442 -1.065,-1.408 -1.317,-2.148 -0.252,-0.74 -0.983,-1.919 -1.624,-2.621 -0.641,-0.701 -1.166,-1.392 -1.166,-1.536 0,-0.742 -8.772,-9.176 -10.809,-10.392 -0.516,-0.308 -1.279,-0.88 -1.696,-1.272 -0.418,-0.391 -1.615,-1.047 -2.662,-1.458 -1.046,-0.41 -2.246,-1.074 -2.665,-1.476 -0.45,-0.431 -1.554,-0.928 -2.692,-1.213 -1.061,-0.265 -2.866,-0.937 -4.011,-1.492 -1.756,-0.852 -2.711,-1.085 -6.097,-1.484 -5.04,-0.596 -9.926,-1.748 -11.363,-2.681 l -1.103,-0.717 0.436,-1.237 c 0.401,-1.137 0.703,-3.128 1.669,-11.003 0.56,-4.565 -0.738,-12.892 -2.264,-14.533 -0.38,-0.409 -0.918,-1.547 -1.194,-2.528 -0.338,-1.203 -0.863,-2.172 -1.61,-2.974 -0.609,-0.654 -1.273,-1.524 -1.475,-1.933 -0.203,-0.409 -0.832,-1.046 -1.398,-1.415 -0.565,-0.37 -1.028,-0.875 -1.028,-1.122 0,-0.248 -0.619,-0.843 -1.376,-1.322 -0.756,-0.48 -1.576,-1.159 -1.821,-1.51 -0.246,-0.35 -1.333,-1.035 -2.417,-1.52 -1.083,-0.486 -2.249,-1.144 -2.591,-1.464 -0.349,-0.328 -1.891,-0.896 -3.53,-1.302 -1.601,-0.396 -3.353,-0.93 -3.893,-1.187 -3.186,-1.512 -12.319,-1.417 -14.881,0.155 -0.504,0.31 -1.906,0.771 -3.116,1.025 -1.209,0.255 -2.469,0.664 -2.8,0.909 -0.331,0.245 -1.07,0.767 -1.642,1.16 -4.077,2.799 -9.597,8.126 -10.28,9.921 -0.291,0.764 -0.894,1.732 -1.341,2.15 -0.499,0.469 -1.051,1.538 -1.435,2.783 -0.344,1.112 -0.956,2.415 -1.361,2.896 -0.645,0.767 -1.643,3.346 -1.643,4.247 0,0.176 -0.462,0.969 -1.026,1.763 -0.586,0.824 -1.165,2.111 -1.35,3.001 -0.178,0.856 -0.791,2.28 -1.363,3.165 -0.572,0.884 -1.114,1.942 -1.204,2.351 -0.394,1.773 -1.071,3.551 -1.483,3.893 -0.676,0.56 -1.053,1.4 -1.62,3.605 -0.284,1.104 -0.853,2.408 -1.265,2.898 -0.738,0.876 -1.055,1.644 -1.676,4.062 -0.174,0.673 -0.704,1.713 -1.178,2.31 -0.475,0.597 -1.023,1.786 -1.218,2.642 -0.195,0.856 -0.806,2.306 -1.357,3.222 -0.552,0.916 -1.348,2.756 -1.769,4.089 -0.421,1.333 -0.865,2.424 -0.986,2.424 -0.411,0 -1.184,1.629 -1.678,3.535 -0.272,1.05 -0.876,2.38 -1.349,2.974 -0.505,0.634 -1.061,1.9 -1.357,3.089 -0.295,1.183 -0.854,2.457 -1.355,3.088 -0.47,0.591 -0.995,1.625 -1.168,2.298 -0.613,2.383 -0.935,3.181 -1.607,3.983 -0.373,0.445 -1.026,1.947 -1.45,3.338 -0.424,1.39 -1.06,2.815 -1.413,3.167 -0.353,0.351 -0.965,1.754 -1.36,3.117 -0.418,1.445 -1.015,2.79 -1.431,3.227 -0.414,0.434 -0.954,1.646 -1.285,2.885 -0.321,1.203 -0.911,2.54 -1.35,3.062 -0.428,0.509 -0.932,1.488 -1.119,2.176 -0.583,2.145 -1.16,3.517 -1.886,4.483 -0.386,0.512 -0.973,1.904 -1.306,3.094 -0.333,1.189 -0.946,2.567 -1.362,3.062 -0.686,0.815 -1.664,3.368 -1.664,4.342 0,0.214 -0.532,0.724 -1.183,1.135 -0.65,0.41 -1.388,1.06 -1.639,1.445 -1.309,1.997 -8.589,1.917 -9.735,-0.108 -0.281,-0.497 -0.919,-1.134 -1.417,-1.416 -0.638,-0.36 -0.997,-0.863 -1.215,-1.701 -0.617,-2.373 -0.935,-3.153 -1.61,-3.955 -0.378,-0.45 -1.038,-1.967 -1.467,-3.372 -0.428,-1.404 -1.039,-2.789 -1.357,-3.077 -0.576,-0.521 -1.13,-1.845 -1.768,-4.229 -0.185,-0.688 -0.673,-1.652 -1.086,-2.143 -0.413,-0.491 -1.021,-1.869 -1.35,-3.062 -0.342,-1.238 -0.906,-2.491 -1.313,-2.919 -0.415,-0.435 -1.012,-1.778 -1.426,-3.208 -0.392,-1.352 -1.009,-2.774 -1.371,-3.16 -0.363,-0.386 -0.983,-1.753 -1.379,-3.037 -0.397,-1.285 -0.967,-2.671 -1.268,-3.08 -0.887,-1.205 -1.256,-2.024 -1.719,-3.813 -0.241,-0.928 -0.83,-2.178 -1.31,-2.777 -0.479,-0.599 -1.012,-1.715 -1.183,-2.481 -0.414,-1.845 -0.988,-3.18 -1.58,-3.671 -0.266,-0.22 -0.816,-1.492 -1.223,-2.825 -0.407,-1.334 -1.08,-2.886 -1.496,-3.449 -0.415,-0.562 -1.088,-2.112 -1.493,-3.442 -0.406,-1.331 -1.008,-2.664 -1.338,-2.963 -0.33,-0.298 -0.819,-1.292 -1.085,-2.207 -0.768,-2.639 -1.063,-3.325 -1.809,-4.212 -0.385,-0.457 -0.952,-1.791 -1.26,-2.965 -0.332,-1.266 -0.86,-2.454 -1.296,-2.921 -0.405,-0.433 -0.81,-1.054 -0.901,-1.381 -0.918,-3.304 -1.233,-4.111 -1.956,-5.022 -0.46,-0.578 -0.998,-1.692 -1.196,-2.476 -0.385,-1.52 -1.137,-3.199 -2.138,-4.771 -0.777,-1.222 -1.088,-4.98 -0.569,-6.89 0.37,-1.362 3.123,-4.484 3.953,-4.484 0.221,0 0.855,-0.335 1.409,-0.744 1.653,-1.219 3.133,-1.038 6.297,0.773 2.827,1.617 3.149,1.965 3.977,4.283 0.291,0.818 0.863,1.939 1.269,2.491 0.406,0.552 1.041,1.986 1.412,3.186 0.37,1.2 1.081,2.755 1.58,3.457 0.498,0.701 1.05,1.927 1.225,2.725 0.366,1.662 0.703,2.377 1.67,3.54 0.379,0.454 0.78,1.324 0.892,1.933 0.337,1.83 0.992,3.433 1.724,4.225 0.381,0.411 0.937,1.671 1.235,2.799 0.297,1.128 0.867,2.438 1.264,2.91 0.398,0.473 1.034,1.865 1.413,3.093 0.379,1.229 1.104,2.861 1.611,3.627 0.508,0.765 0.996,1.729 1.085,2.142 0.393,1.819 1.035,3.377 1.735,4.209 0.416,0.494 0.835,1.256 0.931,1.693 0.434,1.968 1.127,3.711 1.739,4.371 0.366,0.395 0.956,1.717 1.31,2.937 0.355,1.22 0.965,2.599 1.357,3.064 0.392,0.466 1.065,2.001 1.495,3.413 0.431,1.411 0.988,2.736 1.239,2.945 0.649,0.538 1.175,1.673 1.585,3.421 1.173,4.995 5.246,5.169 6.362,0.272 0.247,-1.08 0.662,-2.258 0.923,-2.618 0.26,-0.359 0.675,-0.934 0.922,-1.277 0.247,-0.343 0.651,-1.413 0.897,-2.379 0.247,-0.965 0.835,-2.311 1.307,-2.99 0.472,-0.679 1.209,-2.385 1.638,-3.792 0.429,-1.406 0.917,-2.557 1.085,-2.557 0.395,0 1.339,-2.144 1.748,-3.972 0.177,-0.789 0.712,-1.924 1.19,-2.523 0.516,-0.648 1.07,-1.903 1.369,-3.103 0.294,-1.183 0.853,-2.457 1.354,-3.088 0.47,-0.591 0.996,-1.625 1.169,-2.298 0.622,-2.418 0.922,-3.133 1.753,-4.179 0.506,-0.636 1.048,-1.895 1.354,-3.142 0.309,-1.262 0.847,-2.505 1.369,-3.162 0.473,-0.595 1,-1.632 1.172,-2.305 0.554,-2.169 0.833,-2.839 1.594,-3.837 0.41,-0.539 0.94,-1.71 1.177,-2.603 0.598,-2.254 0.788,-2.696 1.561,-3.634 0.372,-0.451 1.013,-1.923 1.425,-3.272 0.412,-1.348 1.038,-2.738 1.391,-3.09 0.354,-0.351 0.96,-1.737 1.349,-3.078 0.389,-1.342 1.03,-2.824 1.426,-3.294 0.709,-0.843 1.027,-1.623 1.646,-4.027 0.173,-0.673 0.706,-1.716 1.184,-2.318 0.479,-0.602 1.015,-1.768 1.191,-2.591 0.372,-1.736 0.662,-2.339 1.616,-3.369 0.381,-0.411 0.89,-1.365 1.131,-2.118 0.24,-0.754 0.938,-1.927 1.551,-2.608 2.241,-2.49 4.103,-4.82 4.701,-5.885 0.338,-0.6 0.928,-1.259 1.313,-1.465 0.385,-0.206 0.989,-0.798 1.343,-1.314 0.355,-0.517 1.368,-1.332 2.252,-1.81 0.884,-0.478 1.933,-1.235 2.331,-1.681 0.397,-0.446 1.24,-1.075 1.872,-1.398 0.633,-0.322 1.371,-0.923 1.641,-1.335 0.304,-0.465 0.97,-0.873 1.755,-1.075 2.452,-0.631 3.222,-0.945 4.07,-1.659 0.51,-0.43 1.852,-0.969 3.313,-1.333 1.35,-0.336 3.077,-0.926 3.838,-1.312 4.039,-2.047 19.158,-2.179 23.692,-0.207 1.122,0.488 3.078,1.099 4.348,1.358 2.435,0.496 3.727,1.029 4.369,1.803 0.214,0.258 1.103,0.676 1.976,0.93 0.887,0.258 2.191,0.961 2.96,1.597 0.757,0.625 1.769,1.252 2.251,1.395 0.482,0.142 1.471,0.794 2.198,1.448 2.858,2.572 8.176,7.865 8.176,8.138 0,0.158 0.529,0.789 1.176,1.403 0.648,0.613 1.261,1.495 1.363,1.96 0.102,0.465 0.703,1.535 1.336,2.377 0.651,0.867 1.413,2.394 1.755,3.519 0.332,1.093 0.889,2.351 1.239,2.796 0.714,0.907 0.995,1.935 1.47,5.383 0.181,1.309 0.663,3.182 1.072,4.164 0.571,1.371 0.804,2.636 1.005,5.467 0.298,4.198 0.633,4.846 2.799,5.414 0.664,0.174 1.677,0.632 2.249,1.016 0.573,0.385 2.112,1.001 3.42,1.37 1.395,0.394 2.763,1 3.307,1.465 0.514,0.44 1.817,1.035 2.926,1.335 1.35,0.365 2.142,0.758 2.437,1.209 0.241,0.368 1.065,0.963 1.832,1.323 0.767,0.36 1.854,1.057 2.416,1.55 0.562,0.493 1.538,1.127 2.169,1.41 0.632,0.282 1.644,1 2.25,1.594 2.808,2.755 3.837,3.687 4.574,4.144 0.437,0.272 0.879,0.758 0.982,1.082 0.102,0.323 0.651,0.875 1.219,1.226 0.568,0.351 1.248,1.06 1.51,1.576 0.262,0.516 0.928,1.316 1.48,1.777 0.551,0.462 1.003,1.026 1.003,1.254 0,0.228 0.458,0.873 1.018,1.433 0.56,0.56 1.286,1.544 1.614,2.187 0.328,0.642 1.075,1.741 1.66,2.442 0.586,0.701 1.149,1.628 1.253,2.061 0.261,1.092 0.953,2.419 1.774,3.402 0.381,0.456 0.976,1.782 1.322,2.946 0.347,1.163 0.947,2.597 1.333,3.185 0.386,0.588 0.964,2.273 1.285,3.745 0.32,1.472 0.808,3.279 1.083,4.015 1.581,4.225 2.096,9.608 1.846,19.304 -0.187,7.242 -0.45,9.286 -1.56,12.101 -0.394,0.998 -0.918,3.066 -1.166,4.596 -0.346,2.142 -0.683,3.163 -1.461,4.432 -0.557,0.907 -1.29,2.639 -1.63,3.849 -0.34,1.21 -0.877,2.482 -1.194,2.825 -0.317,0.344 -0.967,1.495 -1.446,2.558 -0.478,1.064 -1.294,2.358 -1.813,2.877 -0.52,0.519 -0.945,1.158 -0.945,1.42 0,0.261 -0.51,1.041 -1.135,1.732 -0.624,0.692 -1.481,1.86 -1.904,2.596 -0.999,1.738 -9.486,10.193 -11.286,11.244 -0.764,0.446 -1.725,1.174 -2.137,1.618 -0.412,0.444 -1.296,1.027 -1.966,1.295 -0.669,0.268 -1.352,0.74 -1.518,1.048 -0.165,0.309 -1.198,0.969 -2.295,1.466 -1.097,0.498 -2.329,1.219 -2.739,1.603 -0.433,0.407 -1.728,0.965 -3.094,1.335 -1.293,0.351 -2.72,0.949 -3.173,1.329 -0.453,0.381 -1.737,0.918 -2.855,1.192 -2.767,0.68 -5.656,1.516 -7.087,2.051 -3.301,1.235 -1.086,1.211 -121.784,1.323 -126.846,0.117 -125.037,0.141 -128.81,-1.742 -0.592,-0.296 -2.466,-0.82 -4.164,-1.165 -2.356,-0.478 -3.438,-0.863 -4.573,-1.627 -0.818,-0.55 -2.357,-1.214 -3.42,-1.475 -1.063,-0.261 -2.268,-0.744 -2.677,-1.072 -0.409,-0.329 -1.426,-0.918 -2.261,-1.309 -0.835,-0.391 -1.972,-1.138 -2.528,-1.659 -0.555,-0.521 -1.717,-1.268 -2.581,-1.659 -0.864,-0.391 -1.65,-0.918 -1.746,-1.17 -0.097,-0.252 -0.677,-0.713 -1.289,-1.025 -0.611,-0.313 -3.205,-2.682 -5.763,-5.267 -6.726,-6.794 -7.029,-7.123 -7.029,-7.644 0,-0.26 -0.451,-0.975 -1.002,-1.589 -0.551,-0.614 -1.341,-1.785 -1.755,-2.603 -0.414,-0.818 -1.105,-1.815 -1.535,-2.217 -0.43,-0.401 -0.984,-1.423 -1.23,-2.27 -0.246,-0.848 -0.858,-2.161 -1.36,-2.918 -0.501,-0.757 -1.153,-2.316 -1.449,-3.465 -0.295,-1.149 -0.877,-2.535 -1.293,-3.081 -0.88,-1.153 -1.244,-2.534 -1.678,-6.367 -0.295,-2.612 -0.462,-3.244 -1.681,-6.373 -1.183,-3.04 -0.843,-17.489 0.484,-20.519 0.564,-1.289 0.903,-2.912 1.521,-7.293 0.26,-1.849 0.566,-2.791 1.233,-3.797 0.508,-0.767 1.141,-2.384 1.482,-3.787 0.368,-1.514 0.857,-2.732 1.283,-3.192 0.378,-0.409 1.024,-1.51 1.435,-2.447 0.412,-0.937 1.144,-2.208 1.627,-2.825 0.484,-0.617 1.033,-1.607 1.221,-2.201 0.187,-0.594 0.619,-1.33 0.959,-1.636 0.34,-0.306 1.026,-1.158 1.525,-1.894 0.499,-0.736 1.47,-1.951 2.159,-2.7 0.689,-0.748 1.336,-1.622 1.438,-1.943 0.101,-0.32 0.57,-0.81 1.041,-1.088 0.471,-0.278 1.08,-0.977 1.353,-1.553 0.303,-0.637 0.932,-1.268 1.607,-1.613 0.611,-0.311 1.291,-0.904 1.512,-1.317 0.221,-0.413 0.752,-0.897 1.18,-1.076 0.428,-0.178 1.381,-0.872 2.117,-1.54 0.736,-0.668 1.871,-1.556 2.522,-1.972 0.651,-0.416 1.427,-1.067 1.726,-1.446 0.298,-0.379 1.06,-0.829 1.693,-1 0.633,-0.17 1.864,-0.846 2.735,-1.501 0.871,-0.656 2.08,-1.326 2.686,-1.49 0.606,-0.164 1.497,-0.63 1.98,-1.037 1.006,-0.846 2.571,-1.451 4.502,-1.739 0.736,-0.11 1.873,-0.526 2.527,-0.924 1.898,-1.154 2.492,-1.349 5.446,-1.793 5.525,-0.829 5.787,-1.304 6.048,-10.997 0.263,-9.743 0.583,-12.399 1.905,-15.786 0.389,-0.994 0.912,-3.378 1.164,-5.299 0.468,-3.571 0.574,-3.911 1.776,-5.682 0.381,-0.562 0.926,-1.972 1.211,-3.134 0.286,-1.168 0.835,-2.49 1.227,-2.956 0.759,-0.902 1.382,-2.442 1.712,-4.235 0.112,-0.608 0.555,-1.523 0.983,-2.032 0.429,-0.509 1.161,-1.733 1.628,-2.72 0.467,-0.986 1.171,-2.048 1.567,-2.359 0.395,-0.31 0.864,-1.009 1.044,-1.552 0.179,-0.543 0.737,-1.377 1.239,-1.854 0.502,-0.477 1.317,-1.662 1.811,-2.635 0.494,-0.972 1.209,-2.013 1.59,-2.312 0.381,-0.3 0.78,-0.843 0.888,-1.206 0.107,-0.364 0.818,-1.287 1.579,-2.05 1.906,-1.913 2.312,-2.324 3.489,-3.519 1.257,-1.277 1.227,-1.246 2.504,-2.504 0.572,-0.563 1.281,-1.268 1.574,-1.565 0.727,-0.736 3.512,-3.297 4.885,-4.493 0.619,-0.538 1.794,-1.29 2.611,-1.67 0.818,-0.381 1.822,-1.061 2.231,-1.512 0.409,-0.45 1.304,-1.061 1.988,-1.358 0.685,-0.298 1.459,-0.867 1.721,-1.266 0.261,-0.4 1.087,-0.96 1.834,-1.245 0.748,-0.286 1.781,-0.885 2.295,-1.331 1.218,-1.058 1.801,-1.34 3.681,-1.781 0.856,-0.201 2.027,-0.74 2.603,-1.197 0.622,-0.495 1.894,-1.04 3.137,-1.344 1.149,-0.282 2.549,-0.824 3.111,-1.206 1.739,-1.18 2.133,-1.32 5.318,-1.894 1.701,-0.307 3.717,-0.834 4.479,-1.171 1.462,-0.647 3.518,-1.069 6.71,-1.377 1.063,-0.102 3.071,-0.379 4.461,-0.616 1.391,-0.236 4.134,-0.543 6.097,-0.682 1.963,-0.14 3.702,-0.272 3.866,-0.295 0.164,-0.022 2.171,0.098 4.461,0.267"
     id="path1" />
</svg>
