<?xml version="1.0" encoding="utf-8"?>
<!-- Generator: Adobe Illustrator 22.0.1, SVG Export Plug-In . SVG Version: 6.00 Build 0)  -->
<svg version="1.1" id="Layer_1" xmlns="http://www.w3.org/2000/svg" xmlns:xlink="http://www.w3.org/1999/xlink" x="0px" y="0px"
	 viewBox="0 0 140 26" style="enable-background:new 0 0 140 26;" xml:space="preserve">
<style type="text/css">
	.st0{fill:url(#Fill-1_1_);}
	.st1{fill:#1A2949;}
	.st2{filter:url(#Adobe_OpacityMaskFilter);}
	.st3{fill:#FFFFFF;}
	.st4{mask:url(#mask-3_1_);fill:#1A2949;}
</style>
<title>Logo</title>
<desc>Created with Sketch.</desc>
<g id="v2">
	<g id="Home-v1" transform="translate(-170.000000, -40.000000)">
		<g id="Header" transform="translate(0.000000, -1.000000)">
			<g id="Logo" transform="translate(170.000000, 41.000000)">

					<linearGradient id="Fill-1_1_" gradientUnits="userSpaceOnUse" x1="46.2174" y1="37.3301" x2="46.2174" y2="36.3301" gradientTransform="matrix(14.9271 0 0 -14.9271 -682.4278 563.4399)">
					<stop  offset="0" style="stop-color:#D80947"/>
					<stop  offset="1" style="stop-color:#ED7820"/>
				</linearGradient>
				<polygon id="Fill-1" class="st0" points="0,21.1 14.9,21.1 0,6.2 				"/>
				<g id="Group-17" transform="translate(20.015307, 0.137654)">
					<path id="Fill-2" class="st1" d="M11.6,13.5c-0.3-0.4-0.7-0.8-1.3-1C9.8,12.2,9.1,12,8.3,12l-3.2-0.3c-0.4,0-0.7-0.1-1-0.2
						c-0.2-0.1-0.4-0.2-0.5-0.3c-0.1-0.1-0.2-0.2-0.2-0.3c0-0.2-0.1-0.3-0.1-0.6c0-0.5,0.1-0.8,0.4-1C4,9.3,4.5,9.1,5.5,9.1h1h1.2
						c0.4,0,1,0,1.5,0c0.6,0,1.3,0,2,0h0c0.1,0,0.3-0.1,0.3-0.2l0.5-2.4c0-0.1,0-0.2-0.1-0.2c-0.1-0.1-0.1-0.1-0.2-0.1
						c-1.2,0-2.3-0.1-3.2-0.1H5.9c-2,0-3.5,0.4-4.4,1.1C0.5,8,0.1,9.1,0.1,10.4v0.5c0,0.5,0.1,0.9,0.2,1.4c0.1,0.5,0.4,0.9,0.7,1.2
						c0.3,0.4,0.7,0.7,1.2,0.9c0.5,0.2,1.1,0.4,1.8,0.5l3.3,0.3c0.4,0,0.7,0.1,1,0.2c0.2,0.1,0.4,0.2,0.5,0.3
						C8.9,15.7,8.9,15.8,9,16C9,16.1,9,16.3,9,16.5c0,0.6-0.1,1-0.4,1.1c-0.2,0.1-0.8,0.3-2,0.3c-0.8,0-1.8,0-2.8,0c-1,0-2,0-3,0h0
						c-0.1,0-0.3,0.1-0.3,0.2L0,20.5c0,0.1,0,0.2,0.1,0.2s0.1,0.1,0.2,0.1c1.1,0,2.2,0,3.3,0c1.1,0,2.1,0,2.9,0c2,0,3.5-0.4,4.5-1.1
						c1-0.8,1.5-1.9,1.5-3.3v-0.4c0-0.4-0.1-0.9-0.2-1.3C12.1,14.4,11.9,14,11.6,13.5"/>
					<path id="Fill-4" class="st1" d="M23.7,12.7l6.6-6c0.1-0.1,0.1-0.1,0.1-0.2c0-0.2-0.1-0.3-0.3-0.3h0h-3.6c-0.1,0-0.1,0-0.2,0.1
						l-5.4,5.1v-11c0-0.2-0.1-0.3-0.3-0.3h-2.9c-0.2,0-0.3,0.1-0.3,0.3v20.3c0,0.2,0.1,0.3,0.3,0.3h2.9c0.2,0,0.3-0.1,0.3-0.3v-6
						l6,6.3c0.1,0.1,0.1,0.1,0.2,0.1h3.8c0.1,0,0.2-0.1,0.3-0.2c0-0.1,0-0.2-0.1-0.3L23.7,12.7z"/>
					<path id="Fill-6" class="st1" d="M37.1,19.3c1,0.7,2.4,1.1,4.2,1.1c0.7,0,1.2,0,1.7-0.1c0.5-0.1,0.9-0.2,1.2-0.3
						c0.3-0.1,0.6-0.3,0.8-0.4c0,0,0,0,0.1,0c0,0.6-0.1,1.1-0.2,1.5c-0.1,0.4-0.3,0.8-0.6,1c-0.3,0.2-0.6,0.4-1,0.5
						c-0.4,0.1-1,0.2-1.6,0.2h-2.1c-0.7,0-1.5,0-2.4-0.1h0c-0.1,0-0.3,0.1-0.3,0.2l-0.5,2.4c0,0.1,0,0.2,0.1,0.2
						c0.1,0.1,0.1,0.1,0.2,0.1c0.5,0,1,0,1.5,0c0.4,0,0.9,0,1.2,0h1.1h1.2c1.2,0,2.2-0.1,3-0.4c0.9-0.2,1.6-0.6,2.2-1.1
						c0.6-0.5,1-1.2,1.3-2c0.3-0.8,0.4-1.8,0.4-3V6.5c0-0.2-0.1-0.3-0.3-0.3h-2.9c-0.2,0-0.3,0.1-0.3,0.3v8.2c0,0.6,0,1-0.1,1.4
						c-0.1,0.3-0.2,0.6-0.4,0.8c-0.2,0.2-0.5,0.4-0.9,0.4c-0.4,0.1-1.1,0.1-1.8,0.1c-0.7,0-1.2-0.1-1.6-0.2
						c-0.3-0.1-0.6-0.2-0.8-0.4c-0.2-0.2-0.3-0.4-0.3-0.7c0-0.3-0.1-0.7-0.1-1.2V6.5c0-0.2-0.1-0.3-0.3-0.3h-2.9
						c-0.2,0-0.3,0.1-0.3,0.3v9.1C35.6,17.4,36.1,18.6,37.1,19.3"/>
					<path id="Fill-8" class="st1" d="M68.1,5.7c-1,0-1.9,0.1-2.7,0.4c-0.7,0.2-1.2,0.6-1.6,1c-0.4-0.4-0.9-0.7-1.6-1
						c-0.8-0.3-1.7-0.4-2.7-0.4c-1.9,0-3.4,0.4-4.4,1.1c-1,0.7-1.6,2-1.6,3.8v10c0,0.2,0.1,0.3,0.3,0.3h2.9c0.2,0,0.3-0.1,0.3-0.3
						v-9.4c0-0.4,0-0.8,0.1-1.2c0-0.3,0.1-0.5,0.3-0.7c0.1-0.2,0.4-0.3,0.7-0.4c0.4-0.1,0.8-0.2,1.5-0.2c0.6,0,1.1,0.1,1.5,0.2
						c0.3,0.1,0.6,0.2,0.7,0.4c0.2,0.2,0.3,0.4,0.3,0.7c0,0.3,0.1,0.7,0.1,1.2v9.4c0,0.2,0.1,0.3,0.3,0.3h2.9c0.2,0,0.3-0.1,0.3-0.3
						v-9.8c0-0.4,0-0.7,0.1-1c0.1-0.2,0.2-0.4,0.3-0.6c0.2-0.2,0.4-0.3,0.7-0.4c0.3-0.1,0.8-0.1,1.4-0.1c0.6,0,1.1,0.1,1.5,0.2
						c0.3,0.1,0.6,0.2,0.7,0.4c0.2,0.2,0.3,0.4,0.3,0.7c0,0.3,0.1,0.7,0.1,1.2v9.4c0,0.2,0.1,0.3,0.3,0.3h2.9c0.2,0,0.3-0.1,0.3-0.3
						v-10c0-1.8-0.5-3-1.6-3.8C71.6,6.1,70.1,5.7,68.1,5.7z"/>
					<path id="Fill-10" class="st1" d="M82.4,6.2h-2.9c-0.2,0-0.3,0.1-0.3,0.3v14.1c0,0.2,0.1,0.3,0.3,0.3h2.9
						c0.2,0,0.3-0.1,0.3-0.3V6.5C82.7,6.3,82.6,6.2,82.4,6.2"/>
					<path id="Fill-12" class="st1" d="M99.3,6.9c-1.1-0.7-2.7-1.1-4.9-1.1c-2.2,0-3.8,0.4-4.9,1.1c-1.1,0.8-1.6,2-1.6,3.8v10
						c0,0.2,0.1,0.3,0.3,0.3H91c0.2,0,0.3-0.1,0.3-0.3v-9.4c0-0.4,0-0.8,0.1-1.2c0-0.3,0.2-0.5,0.3-0.7c0.2-0.2,0.5-0.3,0.9-0.4
						c0.4-0.1,1-0.2,1.8-0.2c0.8,0,1.4,0.1,1.8,0.2c0.4,0.1,0.7,0.3,0.9,0.4c0.2,0.2,0.3,0.4,0.3,0.7c0.1,0.3,0.1,0.7,0.1,1.2v9.4
						c0,0.2,0.1,0.3,0.3,0.3h2.9c0.2,0,0.3-0.1,0.3-0.3v-10C101,8.9,100.4,7.6,99.3,6.9"/>
					<g id="Group-16" transform="translate(106.041545, 0.000000)">
						<g id="Clip-15">
						</g>
						<defs>
							<filter id="Adobe_OpacityMaskFilter" filterUnits="userSpaceOnUse" x="0" y="0" width="13.6" height="20.9">
								<feColorMatrix  type="matrix" values="1 0 0 0 0  0 1 0 0 0  0 0 1 0 0  0 0 0 1 0"/>
							</filter>
						</defs>
						<mask maskUnits="userSpaceOnUse" x="0" y="0" width="13.6" height="20.9" id="mask-3_1_">
							<g class="st2">
								<polygon id="path-2_1_" class="st3" points="13.6,20.9 13.6,0 6.8,0 0,0 0,20.9 								"/>
							</g>
						</mask>
						<path id="Fill-14" class="st4" d="M10.2,17.9H6.9c-0.8,0-1.4-0.1-1.8-0.2c-0.4-0.1-0.7-0.3-0.9-0.5C3.9,17,3.8,16.5,3.7,16
							c-0.1-0.6-0.1-1.3-0.1-2.3v-1c0-0.9,0-1.6,0.1-2.1c0.1-0.5,0.2-0.9,0.4-1.2C4.3,9.1,4.6,9,5,8.9c0.4-0.1,1-0.2,1.8-0.2
							c0.7,0,1.3,0,1.7,0.1c0.4,0.1,0.7,0.2,1,0.5c0.2,0.2,0.4,0.5,0.5,0.9c0.1,0.4,0.2,1,0.2,1.7V17.9z M13.3,0h-2.9
							c-0.2,0-0.3,0.1-0.3,0.3v6.2C9.8,6.3,9.5,6.2,9,6C8.3,5.8,7.5,5.7,6.6,5.7c-1.3,0-2.3,0.1-3.2,0.4C2.6,6.5,1.9,6.9,1.4,7.5
							c-0.5,0.6-0.9,1.3-1,2.2c-0.2,0.8-0.3,1.8-0.3,3v1C0,15,0.2,16.1,0.4,17c0.2,0.9,0.6,1.7,1.1,2.2c0.5,0.6,1.2,1,2.1,1.3
							c0.8,0.3,1.9,0.4,3.1,0.4h3.8c1.2,0,2-0.2,2.4-0.6c0.4-0.4,0.7-1.1,0.7-2V0.3C13.6,0.1,13.5,0,13.3,0L13.3,0z"/>
					</g>
				</g>
			</g>
		</g>
	</g>
</g>
</svg>
