<?xml version="1.0" encoding="UTF-8" standalone="no"?>
<svg
   xmlns:dc="http://purl.org/dc/elements/1.1/"
   xmlns:cc="http://creativecommons.org/ns#"
   xmlns:rdf="http://www.w3.org/1999/02/22-rdf-syntax-ns#"
   xmlns:svg="http://www.w3.org/2000/svg"
   xmlns="http://www.w3.org/2000/svg"
   xmlns:sodipodi="http://sodipodi.sourceforge.net/DTD/sodipodi-0.dtd"
   xmlns:inkscape="http://www.inkscape.org/namespaces/inkscape"
   width="190px"
   height="69px"
   viewBox="0 0 190 69"
   version="1.1"
   id="svg71"
   sodipodi:docname="source-ai.svg"
   inkscape:version="0.92.4 (unknown)">
  <metadata
     id="metadata75">
    <rdf:RDF>
      <cc:Work
         rdf:about="">
        <dc:format>image/svg+xml</dc:format>
        <dc:type
           rdf:resource="http://purl.org/dc/dcmitype/StillImage" />
      </cc:Work>
    </rdf:RDF>
  </metadata>
  <sodipodi:namedview
     pagecolor="#ffffff"
     bordercolor="#666666"
     borderopacity="1"
     objecttolerance="10"
     gridtolerance="10"
     guidetolerance="10"
     inkscape:pageopacity="0"
     inkscape:pageshadow="2"
     inkscape:window-width="2034"
     inkscape:window-height="1202"
     id="namedview73"
     showgrid="false"
     inkscape:zoom="1.7368421"
     inkscape:cx="98.454545"
     inkscape:cy="34.5"
     inkscape:window-x="1926"
     inkscape:window-y="36"
     inkscape:window-maximized="0"
     inkscape:current-layer="svg71" />
  <!-- Generator: Sketch 52.2 (67145) - http://www.bohemiancoding.com/sketch -->
  <title
     id="title2">Group 2</title>
  <desc
     id="desc4">Created with Sketch.</desc>
  <defs
     id="defs36">
    <linearGradient
       x1="31.616472"
       y1="17.644152"
       x2="15.508673"
       y2="9.1215078"
       id="linearGradient-1"
       gradientTransform="scale(0.72739297,1.3747727)"
       gradientUnits="userSpaceOnUse">
      <stop
         stop-color="#136452"
         offset="0%"
         id="stop6" />
      <stop
         stop-color="#4AB070"
         offset="100%"
         id="stop8" />
    </linearGradient>
    <linearGradient
       x1="37.476803"
       y1="23.765128"
       x2="17.913851"
       y2="11.872154"
       id="linearGradient-2"
       gradientTransform="scale(0.77969835,1.2825473)"
       gradientUnits="userSpaceOnUse">
      <stop
         stop-color="#136452"
         offset="0%"
         id="stop11" />
      <stop
         stop-color="#4AB070"
         offset="100%"
         id="stop13" />
    </linearGradient>
    <linearGradient
       x1="40.682658"
       y1="27.998618"
       x2="17.357121"
       y2="12.492189"
       id="linearGradient-3"
       gradientTransform="scale(0.81534252,1.2264784)"
       gradientUnits="userSpaceOnUse">
      <stop
         stop-color="#136452"
         offset="0%"
         id="stop16" />
      <stop
         stop-color="#4AB070"
         offset="100%"
         id="stop18" />
    </linearGradient>
    <linearGradient
       x1="52.149116"
       y1="46.734053"
       x2="52.149116"
       y2="29.159947"
       id="linearGradient-4"
       gradientTransform="scale(0.72739297,1.3747727)"
       gradientUnits="userSpaceOnUse">
      <stop
         stop-color="#136452"
         offset="0%"
         id="stop21" />
      <stop
         stop-color="#4AB070"
         offset="100%"
         id="stop23" />
    </linearGradient>
    <linearGradient
       x1="43.783728"
       y1="51.236318"
       x2="43.783728"
       y2="29.543472"
       id="linearGradient-5"
       gradientTransform="scale(0.77969835,1.2825473)"
       gradientUnits="userSpaceOnUse">
      <stop
         stop-color="#136452"
         offset="0%"
         id="stop26" />
      <stop
         stop-color="#4AB070"
         offset="100%"
         id="stop28" />
    </linearGradient>
    <linearGradient
       x1="37.160211"
       y1="53.97649"
       x2="37.160211"
       y2="18.757118"
       id="linearGradient-6"
       gradientTransform="scale(0.81534252,1.2264784)"
       gradientUnits="userSpaceOnUse">
      <stop
         stop-color="#136452"
         offset="0%"
         id="stop31" />
      <stop
         stop-color="#4AB070"
         offset="100%"
         id="stop33" />
    </linearGradient>
  </defs>
  <g
     style="fill:none;fill-rule:evenodd;stroke:none;stroke-width:1"
     id="Group">
    <path
       d="m 16.1,38 c -0.3,0 -0.5,-0.1 -0.7,-0.3 L 2.3,24.8 c -1,-1 -1.6,-2.3 -1.6,-3.8 0,-1.4 0.6,-2.8 1.6,-3.8 L 19,0.5 c 0.4,-0.4 1,-0.4 1.4,0 0.4,0.4 0.4,1 0,1.4 L 3.7,18.6 c -0.6,0.6 -1,1.5 -1,2.4 0,0.9 0.3,1.7 1,2.4 l 13.1,12.9 c 0.4,0.4 0.4,1 0,1.4 -0.1,0.2 -0.4,0.3 -0.7,0.3 z"
       id="Path"
       style="fill:url(#linearGradient-1)"
       inkscape:connector-curvature="0" />
    <path
       d="m 16.1,45.6 c -0.3,0 -0.5,-0.1 -0.7,-0.3 L 2.3,32.4 c -1,-1 -1.6,-2.3 -1.6,-3.8 0,-1.4 0.6,-2.8 1.6,-3.8 L 26.6,0.5 c 0.4,-0.4 1,-0.4 1.4,0 0.4,0.4 0.4,1 0,1.4 L 3.7,26.2 c -0.6,0.6 -1,1.5 -1,2.4 0,0.9 0.3,1.7 1,2.4 l 13.1,12.9 c 0.4,0.4 0.4,1 0,1.4 -0.1,0.2 -0.4,0.3 -0.7,0.3 z"
       id="path39"
       style="fill:url(#linearGradient-2)"
       inkscape:connector-curvature="0" />
    <path
       d="m 16.1,53.2 c -0.3,0 -0.5,-0.1 -0.7,-0.3 L 2.3,40 c -1,-1 -1.6,-2.3 -1.6,-3.8 0,-1.4 0.6,-2.8 1.6,-3.8 l 32,-32 c 0.4,-0.4 1,-0.4 1.4,0 0.4,0.4 0.4,1 0,1.4 l -32,32 c -0.6,0.6 -1,1.5 -1,2.4 0,0.9 0.3,1.7 1,2.4 l 13.1,12.9 c 0.4,0.4 0.4,1 0,1.4 -0.1,0.2 -0.4,0.3 -0.7,0.3 z"
       id="path41"
       style="fill:url(#linearGradient-3)"
       inkscape:connector-curvature="0" />
    <path
       d="m 29,68.6 c -0.3,0 -0.5,-0.1 -0.7,-0.3 -0.4,-0.4 -0.4,-1 0,-1.4 L 45,50.2 c 0.6,-0.6 1,-1.5 1,-2.4 0,-0.9 -0.3,-1.7 -1,-2.4 L 31.9,32.5 c -0.4,-0.4 -0.4,-1 0,-1.4 0.4,-0.4 1,-0.4 1.4,0 L 46.4,44 c 1,1 1.6,2.3 1.6,3.8 0,1.4 -0.6,2.8 -1.6,3.8 L 29.7,68.3 c -0.2,0.2 -0.5,0.3 -0.7,0.3 z"
       id="path43"
       style="fill:url(#linearGradient-4)"
       inkscape:connector-curvature="0" />
    <path
       d="m 21.4,68.6 c -0.3,0 -0.5,-0.1 -0.7,-0.3 -0.4,-0.4 -0.4,-1 0,-1.4 L 45,42.6 c 0.6,-0.6 1,-1.5 1,-2.4 0,-0.9 -0.3,-1.7 -1,-2.4 L 31.9,24.9 c -0.4,-0.4 -0.4,-1 0,-1.4 0.4,-0.4 1,-0.4 1.4,0 l 13.1,12.9 c 1,1 1.6,2.3 1.6,3.8 0,1.4 -0.6,2.8 -1.6,3.8 L 22.1,68.3 c -0.2,0.2 -0.5,0.3 -0.7,0.3 z"
       id="path45"
       style="fill:url(#linearGradient-5)"
       inkscape:connector-curvature="0" />
    <path
       d="M 13.7,68.7 C 13.4,68.7 13.2,68.6 13,68.4 12.6,68 12.6,67.4 13,67 L 45,35 c 0.6,-0.6 1,-1.5 1,-2.4 0,-0.9 -0.3,-1.7 -1,-2.4 L 31.9,17.3 c -0.4,-0.4 -0.4,-1 0,-1.4 0.4,-0.4 1,-0.4 1.4,0 l 13.1,12.9 c 1,1 1.6,2.3 1.6,3.8 0,1.4 -0.6,2.8 -1.6,3.8 l -32,32 c -0.2,0.2 -0.5,0.3 -0.7,0.3 z"
       id="path47"
       style="fill:url(#linearGradient-6)"
       inkscape:connector-curvature="0" />
  </g>
  <g
     id="g61"
     transform="translate(63,24)"
     style="fill:#242424;fill-rule:evenodd;stroke:none;stroke-width:1;fill-opacity:1">
    <path
       d="m 7.3,8.7 c 2.9,0.9 6.4,2.1 6.4,6.2 0,3 -2.9,5.3 -6.8,5.3 C 4.3,20.2 2.4,19.7 0.4,18.7 0.1,18.5 0,18.2 0.2,18 L 0.9,16.3 C 1,16 1.3,15.9 1.6,16 c 1.7,0.7 3.3,1.2 5.1,1.2 1.9,0 3.7,-0.9 3.7,-2.4 C 10.4,12.7 8.2,12.1 6,11.4 3.2,10.6 0.1,9.6 0.1,5.9 c 0,-3.4 2.5,-5.3 6,-5.3 1.1,0 3.4,0.2 6.1,1.4 0.3,0.1 0.4,0.5 0.3,0.7 L 11.8,4.4 C 11.7,4.7 11.3,4.8 11.1,4.7 9.8,4.2 7.8,3.7 6.8,3.7 5,3.7 3.5,4 3.4,5.8 c 0,1.7 1.9,2.3 3.9,2.9 z"
       id="path50"
       inkscape:connector-curvature="0"
       style="fill:#242424;fill-opacity:1" />
    <path
       d="m 33.8,10.3 c 0,4.1 -2.1,9.7 -9.3,9.7 -7.2,0 -9.3,-5.6 -9.3,-9.7 0,-3.9 2.1,-9.6 9.3,-9.6 7.2,0 9.3,5.7 9.3,9.6 z m -3.3,0 c 0,-1.7 -0.8,-6.7 -6.1,-6.7 -5.3,0 -6.1,4.9 -6.1,6.7 0,1.7 0.8,6.8 6.1,6.8 5.3,0 6.1,-5 6.1,-6.8 z"
       id="Shape"
       inkscape:connector-curvature="0"
       style="fill-rule:nonzero;fill:#242424;fill-opacity:1" />
    <path
       d="M 46.7,12.6 V 1.4 c 0,-0.3 0.2,-0.5 0.5,-0.5 h 2.2 c 0.3,0 0.5,0.2 0.5,0.5 v 11.2 c 0,3.2 -1.9,7.5 -7.5,7.5 -5.5,0 -7.4,-4.3 -7.4,-7.5 V 1.4 c 0,-0.3 0.2,-0.5 0.5,-0.5 h 2.2 c 0.3,0 0.5,0.2 0.5,0.5 v 11.2 c 0,1.3 0.8,4.6 4.2,4.6 3.4,0 4.3,-3.3 4.3,-4.6 z"
       id="path53"
       inkscape:connector-curvature="0"
       style="fill:#242424;fill-opacity:1" />
    <path
       d="m 55.1,19.4 c 0,0.3 -0.2,0.5 -0.5,0.5 H 52.5 C 52.2,19.9 52,19.7 52,19.4 V 1.5 C 52,1.2 52.2,1 52.5,1 h 6.6 c 5.1,0 6.6,3.5 6.6,6 0,2.8 -1.8,4.8 -4,5.7 l 3.2,6.8 C 65,19.7 64.8,20 64.6,20 h -2.4 c -0.3,0 -0.6,-0.2 -0.7,-0.5 l -3,-6.4 h -3.3 v 6.3 z m 4.2,-9.3 c 2.6,0 3.2,-2.2 3.2,-3.2 0,-1.1 -0.6,-3.1 -3.3,-3.1 h -4.1 v 6.3 z"
       id="path55"
       inkscape:connector-curvature="0"
       style="fill-rule:nonzero;fill:#242424;fill-opacity:1" />
    <path
       d="m 80.8,5.6 c -0.2,0.2 -0.5,0.2 -0.7,0 -1.2,-1.1 -3,-2 -4.7,-2 -5.3,0 -6.1,5.1 -6.1,6.8 0,1.8 0.8,6.8 6.1,6.9 1.9,0 3.6,-0.9 4.8,-1.9 0.2,-0.2 0.6,-0.2 0.7,0.1 l 1.2,1.5 c 0.2,0.2 0.2,0.6 -0.1,0.7 -1.7,1.6 -3.8,2.6 -6.7,2.6 -7.2,0 -9.4,-5.8 -9.4,-9.9 0,-3.9 2.1,-9.7 9.4,-9.7 3,0 5.1,1.1 6.8,2.9 0.2,0.2 0.2,0.5 0,0.7 z"
       id="path57"
       inkscape:connector-curvature="0"
       style="fill:#242424;fill-opacity:1" />
    <path
       d="m 87.1,12 v 5 H 96 c 0.3,0 0.5,0.2 0.5,0.5 v 1.8 c 0,0.3 -0.2,0.5 -0.5,0.5 H 84.4 c -0.3,0 -0.5,-0.2 -0.5,-0.5 V 1.4 c 0,-0.3 0.2,-0.5 0.5,-0.5 H 96 c 0.3,0 0.5,0.2 0.5,0.5 v 1.8 c 0,0.3 -0.2,0.5 -0.5,0.5 H 87.1 V 9 h 6.8 c 0.3,0 0.5,0.2 0.5,0.5 v 1.8 c 0,0.3 -0.2,0.5 -0.5,0.5 h -6.8 z"
       id="path59"
       inkscape:connector-curvature="0"
       style="fill:#242424;fill-opacity:1" />
  </g>
  <g
     id="g67"
     transform="translate(168,24)"
     style="fill:#242424;fill-rule:evenodd;stroke:none;stroke-width:1;fill-opacity:1">
    <path
       d="M 12,14.9 H 5 L 3.2,19.5 C 3.1,19.7 2.9,19.9 2.6,19.9 H 0.4 C 0.2,19.9 0.1,19.7 0.2,19.5 L 8.1,1 C 8.2,0.8 8.4,0.6 8.6,0.6 8.8,0.6 9,0.7 9.1,1 L 17,19.5 c 0.1,0.2 -0.1,0.4 -0.2,0.4 h -2.2 c -0.2,0 -0.5,-0.1 -0.6,-0.4 z M 6,12.5 h 5.1 L 8.6,6.2 Z"
       id="path63"
       inkscape:connector-curvature="0"
       style="fill-rule:nonzero;fill:#242424;fill-opacity:1" />
    <path
       d="m 21.2,19.5 c 0,0.2 -0.2,0.4 -0.4,0.4 h -2 c -0.2,0 -0.4,-0.2 -0.4,-0.4 V 1.3 c 0,-0.2 0.2,-0.4 0.4,-0.4 h 2 c 0.2,0 0.4,0.2 0.4,0.4 z"
       id="path65"
       inkscape:connector-curvature="0"
       style="fill:#242424;fill-opacity:1" />
  </g>
</svg>
