<svg id="Layer_1" data-name="Layer 1" xmlns="http://www.w3.org/2000/svg" viewBox="0 0 300 300"><defs><style>.cls-1{fill:#ec6e19;}.cls-2{fill:#de0024;}.cls-3{fill:#35859d;}.cls-4{fill:#576292;}.cls-5{fill:#f18c00;}.cls-6{fill:#153d75;}.cls-7{fill:#5999a7;}</style></defs><title>-icon-color</title><polygon id="Fill-1" class="cls-1" points="199.33 141.32 158.18 141.32 158.18 96.69 142.31 96.69 142.31 141.32 101.16 141.32 101.16 157.19 142.31 157.19 142.31 201.82 158.18 201.82 158.18 157.19 199.33 157.19 199.33 141.32"/><polygon id="Fill-2" class="cls-2" points="117.02 214.21 79.83 214.21 79.83 174.54 65.95 174.54 65.95 214.21 29.26 214.21 29.26 226.6 65.95 226.6 65.95 266.77 79.83 266.77 79.83 226.6 117.02 226.6 117.02 214.21"/><polygon id="Fill-3" class="cls-3" points="271.24 71.4 234.54 71.4 234.54 31.24 220.66 31.24 220.66 71.4 183.97 71.4 183.97 83.8 220.66 83.8 220.66 123.47 234.54 123.47 234.54 83.8 271.24 83.8 271.24 71.4"/><polygon id="Fill-4" class="cls-4" points="144.79 231.07 144.79 258.84 119.5 258.84 119.5 269.75 144.79 269.75 144.79 297.52 156.69 297.52 156.69 269.75 181.49 269.75 181.49 258.84 156.69 258.84 156.69 231.07 144.79 231.07"/><polygon id="Fill-5" class="cls-5" points="117.02 71.4 79.83 71.4 79.83 31.24 66.44 31.24 66.44 71.4 29.26 71.4 29.26 83.31 66.44 83.31 66.44 123.47 79.83 123.47 79.83 83.31 117.02 83.31 117.02 71.4"/><polygon id="Fill-6" class="cls-4" points="299.5 144.3 274.7 144.3 274.7 116.03 262.8 116.03 262.8 144.3 238.01 144.3 238.01 154.71 262.8 154.71 262.8 182.97 274.7 182.97 274.7 154.71 299.5 154.71 299.5 144.3"/><polygon id="Fill-7" class="cls-6" points="271.24 214.21 234.54 214.21 234.54 174.54 220.66 174.54 220.66 214.21 183.97 214.21 183.97 226.6 220.66 226.6 220.66 266.77 234.54 266.77 234.54 226.6 271.24 226.6 271.24 214.21"/><polygon id="Fill-8" class="cls-7" points="146.28 2.48 146.28 30.25 121.48 30.25 121.48 38.18 146.28 38.18 146.28 65.95 155.2 65.95 155.2 38.18 179.5 38.18 179.5 30.25 155.2 30.25 155.2 2.48 146.28 2.48"/><polygon id="Fill-9" class="cls-7" points="25.79 118.51 25.79 145.28 0.5 145.28 0.5 153.72 25.79 153.72 25.79 180.49 34.21 180.49 34.21 153.72 59 153.22 59 145.28 34.21 145.28 34.21 118.51 25.79 118.51"/></svg>