<svg xmlns="http://www.w3.org/2000/svg" width="136.455" height="50.813" viewBox="0 0 136.455 50.813">
  <g id="Group_863" data-name="Group 863" transform="translate(-36 -171.945)">
    <g id="Group_858" data-name="Group 858" transform="translate(92.728 184.782)">
      <path id="Path_739" data-name="Path 739" d="M355.131,244.112h-7.377V264.9H342.7V244.112h-7.378v-4.434h19.806Z" transform="translate(-335.325 -239.678)"/>
      <path id="Path_740" data-name="Path 740" d="M436.075,276.474v17.952h-4.761v-2.907a7.572,7.572,0,0,1-6.323,3.234c-4.724,0-8.177-3.888-8.177-9.3s3.452-9.339,8.177-9.339a7.665,7.665,0,0,1,6.323,3.234v-2.871Zm-4.761,8.976c0-3.052-2-5.233-4.8-5.233s-4.833,2.181-4.833,5.233a4.858,4.858,0,0,0,4.833,5.2C429.315,290.647,431.314,288.467,431.314,285.45Z" transform="translate(-401.37 -269.206)"/>
      <path id="Path_741" data-name="Path 741" d="M564.117,282.58v11.847h-4.76V283.27a3.169,3.169,0,1,0-6.323,0v11.157h-4.761V283.27c0-2.071-1.2-3.38-3.125-3.38a3.066,3.066,0,0,0-3.2,3.38v11.157h-4.725V276.474h4.725v2.871a5.573,5.573,0,0,1,5.269-3.234,5.406,5.406,0,0,1,5.233,3.452,5.963,5.963,0,0,1,5.6-3.452C561.683,276.111,564.117,278.728,564.117,282.58Z" transform="translate(-498.961 -269.206)"/>
      <path id="Path_742" data-name="Path 742" d="M707.977,274.96v4.724c-3.925,0-6.5,1.962-6.5,5.16v8.649h-4.725V275.541h4.725v4A6.919,6.919,0,0,1,707.977,274.96Z" transform="translate(-628.251 -268.273)"/>
    </g>
    <g id="Group_859" data-name="Group 859" transform="translate(55.738 191.68)">
      <path id="Path_743" data-name="Path 743" d="M151.481,281.743a5.668,5.668,0,1,1-5.668-5.668,5.668,5.668,0,0,1,5.668,5.668" transform="translate(-140.145 -276.075)" fill="#0859c6"/>
    </g>
    <g id="Group_861" data-name="Group 861" transform="translate(45.081 181.026)">
      <path id="Path_753" data-name="Path 753" d="M86.759,296.67a2.842,2.842,0,1,1,2.843-2.842,2.842,2.842,0,0,1-2.843,2.842" transform="translate(-83.917 -277.506)" fill="#089fff"/>
      <path id="Path_754" data-name="Path 754" d="M229.04,296.67a2.842,2.842,0,1,0-2.843-2.842,2.842,2.842,0,0,0,2.843,2.842" transform="translate(-199.232 -277.506)" fill="#089fff"/>
      <path id="Path_755" data-name="Path 755" d="M160.739,364.985a2.842,2.842,0,1,1-2.842-2.843,2.842,2.842,0,0,1,2.842,2.843" transform="translate(-141.572 -335.177)" fill="#089fff"/>
      <path id="Path_756" data-name="Path 756" d="M160.739,222.7a2.842,2.842,0,1,0-2.842,2.843,2.842,2.842,0,0,0,2.842-2.843" transform="translate(-141.572 -219.862)" fill="#089fff"/>
      <path id="Path_757" data-name="Path 757" d="M109.6,346.146a2.842,2.842,0,1,1,0-4.02,2.842,2.842,0,0,1,0,4.02" transform="translate(-100.802 -318.28)" fill="#089fff"/>
      <path id="Path_758" data-name="Path 758" d="M210.211,245.538a2.842,2.842,0,1,0-4.02,0,2.842,2.842,0,0,0,4.02,0" transform="translate(-182.343 -236.739)" fill="#089fff"/>
      <path id="Path_759" data-name="Path 759" d="M210.211,342.138a2.842,2.842,0,1,1-4.02,0,2.842,2.842,0,0,1,4.02,0" transform="translate(-182.343 -318.289)" fill="#089fff"/>
      <path id="Path_760" data-name="Path 760" d="M109.6,241.53a2.843,2.843,0,1,0,0,4.02,2.842,2.842,0,0,0,0-4.02" transform="translate(-100.802 -236.749)" fill="#089fff"/>
    </g>
    <g id="Group_862" data-name="Group 862" transform="translate(36 171.945)">
      <path id="Path_761" data-name="Path 761" d="M38.84,296.676a2.84,2.84,0,1,1,2.841-2.84,2.84,2.84,0,0,1-2.841,2.84" transform="translate(-36 -268.432)" fill="#0cf"/>
      <path id="Path_762" data-name="Path 762" d="M276.976,296.676a2.84,2.84,0,1,0-2.841-2.84,2.84,2.84,0,0,0,2.841,2.84" transform="translate(-229.003 -268.432)" fill="#0cf"/>
      <path id="Path_763" data-name="Path 763" d="M160.746,412.921a2.84,2.84,0,1,1-2.84-2.841,2.84,2.84,0,0,1,2.84,2.841" transform="translate(-132.5 -364.948)" fill="#0cf"/>
      <path id="Path_764" data-name="Path 764" d="M160.746,174.785a2.84,2.84,0,1,0-2.84,2.841,2.84,2.84,0,0,0,2.84-2.841" transform="translate(-132.5 -171.945)" fill="#0cf"/>
      <path id="Path_765" data-name="Path 765" d="M75.72,380.043a2.84,2.84,0,1,1,0-4.017,2.84,2.84,0,0,1,0,4.017" transform="translate(-64.262 -336.674)" fill="#0cf"/>
      <path id="Path_766" data-name="Path 766" d="M244.108,211.655a2.841,2.841,0,1,0-4.017,0,2.84,2.84,0,0,0,4.017,0" transform="translate(-200.737 -200.199)" fill="#0cf"/>
      <path id="Path_767" data-name="Path 767" d="M244.108,376.039a2.841,2.841,0,1,1-4.017,0,2.84,2.84,0,0,1,4.017,0" transform="translate(-200.737 -336.684)" fill="#0cf"/>
      <path id="Path_768" data-name="Path 768" d="M75.72,207.65a2.841,2.841,0,1,0,0,4.017,2.84,2.84,0,0,0,0-4.017" transform="translate(-64.262 -200.209)" fill="#0cf"/>
    </g>
  </g>
</svg>
