<svg id="svg" version="1.1" xmlns="http://www.w3.org/2000/svg" xmlns:xlink="http://www.w3.org/1999/xlink" width="400" height="92.06349206349206" viewBox="0, 0, 400,92.06349206349206"><g id="svgg"><path id="path0" d="M0.542 6.774 C 0.056 6.978,0.347 9.833,0.854 9.833 C 1.116 9.833,1.167 9.963,1.169 10.625 C 1.172 11.736,1.316 12.167,1.686 12.167 C 1.948 12.167,2.000 12.294,2.000 12.934 C 2.000 13.555,2.080 13.765,2.417 14.030 C 2.770 14.307,2.833 14.496,2.833 15.262 C 2.833 16.056,2.874 16.167,3.167 16.167 C 3.431 16.167,3.500 16.278,3.502 16.708 C 3.506 17.800,3.708 18.542,4.025 18.625 C 4.245 18.683,4.333 18.861,4.333 19.249 C 4.333 20.198,4.526 20.819,4.853 20.923 C 5.098 21.001,5.167 21.184,5.167 21.758 C 5.167 22.404,5.218 22.506,5.583 22.598 C 5.974 22.696,6.000 22.770,6.000 23.773 C 6.000 24.641,6.055 24.864,6.292 24.951 C 6.739 25.116,6.828 25.341,6.831 26.307 C 6.833 27.057,6.886 27.212,7.167 27.285 C 7.429 27.354,7.500 27.512,7.500 28.030 C 7.500 28.708,7.726 29.291,8.103 29.583 C 8.221 29.675,8.340 30.087,8.367 30.500 C 8.409 31.133,8.475 31.258,8.792 31.303 C 9.127 31.351,9.167 31.450,9.167 32.250 C 9.167 33.103,9.436 33.667,9.845 33.667 C 9.930 33.667,10.000 34.011,10.000 34.432 C 10.000 35.042,10.064 35.215,10.314 35.280 C 10.561 35.345,10.644 35.560,10.705 36.297 C 10.765 37.015,10.866 37.286,11.141 37.469 C 11.418 37.653,11.500 37.875,11.500 38.437 C 11.500 39.104,11.536 39.167,11.917 39.167 C 12.319 39.167,12.333 39.205,12.333 40.254 C 12.333 41.261,12.364 41.353,12.750 41.500 C 13.110 41.637,13.167 41.761,13.167 42.413 C 13.167 43.056,13.216 43.167,13.500 43.167 C 13.776 43.167,13.833 43.278,13.833 43.813 C 13.833 44.928,14.010 45.500,14.354 45.500 C 14.618 45.500,14.667 45.630,14.667 46.333 C 14.667 47.107,14.696 47.167,15.076 47.167 C 15.465 47.167,15.487 47.222,15.534 48.292 C 15.579 49.314,15.618 49.422,15.958 49.470 C 16.289 49.517,16.333 49.620,16.333 50.345 C 16.333 51.056,16.378 51.167,16.667 51.167 C 16.934 51.167,17.000 51.278,17.000 51.729 C 17.000 52.715,17.200 53.373,17.525 53.458 C 17.766 53.521,17.833 53.699,17.833 54.266 C 17.833 54.903,17.885 55.007,18.250 55.098 C 18.613 55.189,18.667 55.294,18.667 55.917 C 18.667 56.461,18.765 56.725,19.080 57.024 C 19.407 57.334,19.495 57.584,19.497 58.208 C 19.500 58.888,19.547 59.000,19.833 59.000 C 20.085 59.000,20.167 59.112,20.169 59.458 C 20.173 60.222,20.355 60.667,20.665 60.667 C 20.902 60.667,20.974 60.851,21.037 61.616 C 21.098 62.348,21.198 62.619,21.475 62.803 C 21.750 62.986,21.833 63.208,21.833 63.767 C 21.833 64.403,21.885 64.507,22.250 64.598 C 22.615 64.690,22.667 64.793,22.667 65.435 C 22.667 66.042,22.721 66.167,22.982 66.167 C 23.353 66.167,23.500 66.478,23.500 67.264 C 23.500 67.611,23.630 67.963,23.833 68.167 C 24.022 68.355,24.167 68.722,24.167 69.011 C 24.167 69.645,24.433 70.167,24.756 70.167 C 24.933 70.167,25.000 70.367,25.000 70.899 C 25.000 71.540,25.051 71.643,25.417 71.735 C 25.784 71.827,25.833 71.929,25.833 72.587 C 25.833 73.272,25.868 73.333,26.250 73.333 C 26.636 73.333,26.667 73.392,26.667 74.127 C 26.667 74.739,26.743 74.967,27.000 75.128 C 27.183 75.242,27.333 75.514,27.333 75.731 C 27.333 76.533,27.540 77.138,27.841 77.217 C 28.066 77.276,28.159 77.486,28.198 78.023 C 28.241 78.625,28.313 78.759,28.616 78.802 C 28.925 78.846,28.990 78.977,29.033 79.635 C 29.076 80.300,29.139 80.425,29.458 80.470 C 29.783 80.516,29.833 80.623,29.833 81.262 C 29.833 81.882,29.885 82.000,30.158 82.000 C 30.426 82.000,30.490 82.136,30.533 82.792 C 30.576 83.467,30.638 83.591,30.958 83.637 C 31.281 83.682,31.333 83.790,31.333 84.409 C 31.333 84.992,31.412 85.180,31.750 85.401 C 32.037 85.589,32.167 85.826,32.167 86.160 C 32.167 86.849,32.448 87.500,32.746 87.500 C 32.937 87.500,33.000 87.691,33.000 88.266 C 33.000 88.878,33.064 89.048,33.317 89.114 C 33.542 89.173,33.665 89.405,33.741 89.917 C 33.887 90.890,33.327 90.833,42.764 90.833 L 51.167 90.833 51.167 90.417 C 51.167 90.162,51.262 90.000,51.411 90.000 C 51.730 90.000,52.000 89.480,52.000 88.864 C 52.000 88.522,52.096 88.347,52.315 88.290 C 52.536 88.232,52.667 87.990,52.753 87.479 C 52.821 87.078,53.016 86.571,53.188 86.353 C 53.385 86.102,53.500 85.686,53.500 85.228 C 53.500 84.563,53.536 84.500,53.917 84.500 C 54.306 84.500,54.333 84.444,54.333 83.667 C 54.333 82.889,54.361 82.833,54.750 82.833 C 55.129 82.833,55.167 82.770,55.167 82.123 C 55.167 81.546,55.237 81.381,55.542 81.248 C 55.831 81.121,55.928 80.922,55.968 80.375 C 56.009 79.802,56.081 79.667,56.343 79.667 C 56.620 79.667,56.667 79.547,56.667 78.845 C 56.667 78.120,56.711 78.017,57.042 77.970 C 57.354 77.926,57.425 77.797,57.468 77.206 C 57.502 76.736,57.656 76.348,57.926 76.057 C 58.226 75.734,58.333 75.430,58.333 74.904 C 58.333 74.290,58.386 74.182,58.708 74.137 C 59.028 74.091,59.091 73.967,59.134 73.292 C 59.176 72.636,59.241 72.500,59.509 72.500 C 59.781 72.500,59.833 72.382,59.833 71.768 C 59.833 71.126,59.885 71.023,60.250 70.932 C 60.610 70.841,60.667 70.734,60.667 70.141 C 60.667 69.623,60.769 69.360,61.083 69.069 C 61.420 68.756,61.500 68.524,61.500 67.853 C 61.500 67.119,61.543 67.017,61.875 66.970 C 62.195 66.924,62.257 66.801,62.301 66.125 C 62.342 65.487,62.411 65.333,62.657 65.333 C 62.891 65.333,62.988 65.158,63.075 64.584 C 63.148 64.092,63.298 63.775,63.510 63.661 C 63.774 63.520,63.833 63.307,63.833 62.506 C 63.833 61.614,63.868 61.518,64.208 61.470 C 64.527 61.425,64.591 61.300,64.634 60.635 C 64.676 59.977,64.741 59.846,65.050 59.802 C 65.360 59.758,65.425 59.628,65.467 58.958 C 65.495 58.523,65.587 58.167,65.672 58.167 C 65.947 58.167,66.333 57.198,66.333 56.508 C 66.333 55.944,66.388 55.833,66.667 55.833 C 66.949 55.833,67.000 55.722,67.000 55.110 C 67.000 54.500,67.065 54.357,67.417 54.197 C 67.793 54.025,67.833 53.912,67.833 53.015 C 67.833 52.113,67.867 52.018,68.208 51.970 C 68.528 51.924,68.591 51.801,68.634 51.125 C 68.675 50.489,68.745 50.333,68.988 50.333 C 69.323 50.333,69.500 49.749,69.500 48.646 C 69.500 48.111,69.557 48.000,69.833 48.000 C 70.122 48.000,70.167 47.889,70.167 47.178 C 70.167 46.453,70.211 46.350,70.542 46.303 C 70.882 46.255,70.921 46.147,70.966 45.125 C 71.013 44.055,71.035 44.000,71.424 44.000 C 71.804 44.000,71.833 43.940,71.833 43.167 C 71.833 42.463,71.882 42.333,72.146 42.333 C 72.490 42.333,72.667 41.762,72.667 40.646 C 72.667 40.111,72.724 40.000,73.000 40.000 C 73.289 40.000,73.333 39.889,73.333 39.167 C 73.333 38.460,73.381 38.333,73.649 38.333 C 74.053 38.333,74.167 38.021,74.167 36.903 C 74.167 36.051,74.190 36.000,74.583 36.000 C 74.972 36.000,75.000 35.944,75.000 35.167 C 75.000 34.531,75.060 34.333,75.254 34.333 C 75.575 34.333,75.833 33.668,75.833 32.842 C 75.833 32.346,75.907 32.186,76.167 32.118 C 76.437 32.048,76.500 31.891,76.500 31.286 C 76.500 30.708,76.581 30.487,76.859 30.303 C 77.134 30.119,77.235 29.848,77.295 29.129 C 77.363 28.313,77.423 28.180,77.770 28.093 C 78.136 28.001,78.167 27.912,78.167 26.932 C 78.167 25.938,78.193 25.863,78.583 25.765 C 78.949 25.673,79.000 25.571,79.000 24.921 C 79.000 24.407,79.127 23.994,79.417 23.567 C 79.652 23.220,79.833 22.715,79.833 22.405 C 79.833 22.006,79.923 21.827,80.159 21.752 C 80.433 21.666,80.493 21.470,80.534 20.533 C 80.579 19.520,80.618 19.412,80.958 19.363 C 81.306 19.314,81.333 19.226,81.333 18.155 C 81.333 17.034,81.346 17.000,81.750 17.000 C 82.139 17.000,82.167 16.944,82.167 16.167 C 82.167 15.464,82.215 15.333,82.478 15.333 C 82.805 15.333,82.994 14.680,82.998 13.542 C 83.000 13.112,83.069 13.000,83.333 13.000 C 83.635 13.000,83.667 12.889,83.667 11.833 C 83.667 10.700,83.679 10.667,84.083 10.667 C 84.472 10.667,84.500 10.611,84.500 9.833 C 84.500 9.198,84.560 9.000,84.754 9.000 C 85.075 9.000,85.333 8.335,85.333 7.511 C 85.333 6.649,85.580 6.671,75.817 6.669 C 65.904 6.666,66.342 6.584,66.336 8.458 C 66.334 8.968,66.265 9.167,66.089 9.167 C 65.723 9.167,65.500 9.716,65.500 10.616 C 65.500 11.291,65.439 11.448,65.125 11.585 C 64.803 11.727,64.743 11.897,64.701 12.783 C 64.661 13.614,64.591 13.835,64.344 13.913 C 63.977 14.030,63.839 14.472,63.836 15.542 C 63.834 16.221,63.786 16.333,63.500 16.333 C 63.198 16.333,63.167 16.444,63.167 17.500 C 63.167 18.633,63.155 18.667,62.750 18.667 C 62.346 18.667,62.333 18.701,62.333 19.822 C 62.333 20.893,62.306 20.981,61.958 21.030 C 61.632 21.076,61.577 21.196,61.533 21.958 C 61.500 22.535,61.409 22.833,61.268 22.833 C 60.963 22.833,60.667 23.571,60.667 24.330 C 60.667 24.831,60.591 25.001,60.333 25.083 C 60.046 25.175,60.000 25.336,60.000 26.250 C 60.000 27.223,59.969 27.315,59.625 27.363 C 59.281 27.412,59.246 27.516,59.201 28.625 C 59.154 29.784,59.135 29.833,58.743 29.833 C 58.369 29.833,58.333 29.898,58.333 30.576 C 58.333 31.145,58.236 31.415,57.917 31.735 C 57.592 32.060,57.500 32.322,57.500 32.925 C 57.500 33.558,57.440 33.714,57.167 33.785 C 56.886 33.858,56.833 34.012,56.833 34.756 C 56.833 35.854,56.719 36.167,56.316 36.167 C 56.036 36.167,56.000 36.300,56.000 37.333 C 56.000 38.467,55.988 38.500,55.583 38.500 C 55.195 38.500,55.167 38.556,55.167 39.322 C 55.167 39.982,55.105 40.164,54.851 40.244 C 54.485 40.361,54.339 40.800,54.336 41.792 C 54.334 42.372,54.277 42.500,54.022 42.500 C 53.695 42.500,53.506 43.154,53.502 44.292 C 53.500 44.722,53.431 44.833,53.167 44.833 C 52.878 44.833,52.833 44.944,52.833 45.667 C 52.833 46.287,52.771 46.500,52.589 46.500 C 52.220 46.500,52.000 47.051,52.000 47.977 C 52.000 48.714,51.957 48.816,51.625 48.863 C 51.295 48.910,51.244 49.028,51.200 49.833 C 51.161 50.552,51.061 50.833,50.741 51.132 C 50.441 51.412,50.333 51.688,50.333 52.173 C 50.333 52.722,50.277 52.833,50.000 52.833 C 49.698 52.833,49.667 52.944,49.667 54.000 C 49.667 55.133,49.655 55.167,49.250 55.167 C 48.867 55.167,48.833 55.227,48.833 55.922 C 48.833 56.489,48.761 56.704,48.542 56.785 C 48.091 56.951,48.005 57.175,48.003 58.197 C 48.000 59.051,47.963 59.149,47.625 59.197 C 47.315 59.241,47.241 59.370,47.200 59.941 C 47.162 60.461,47.069 60.653,46.825 60.717 C 46.545 60.790,46.500 60.952,46.500 61.889 C 46.500 62.890,46.470 62.981,46.125 63.030 C 45.806 63.075,45.742 63.200,45.700 63.865 C 45.657 64.523,45.592 64.654,45.283 64.698 C 44.977 64.741,44.908 64.873,44.866 65.500 C 44.831 66.025,44.711 66.331,44.465 66.520 C 44.205 66.721,44.094 67.032,44.036 67.729 C 43.972 68.507,43.906 68.667,43.646 68.667 C 43.387 68.667,43.333 68.794,43.333 69.417 C 43.333 70.106,43.299 70.167,42.917 70.167 C 42.555 70.167,42.500 70.093,42.500 69.604 C 42.500 68.618,42.300 67.960,41.975 67.875 C 41.736 67.813,41.667 67.635,41.667 67.082 C 41.667 66.461,41.613 66.356,41.250 66.265 C 40.883 66.173,40.833 66.071,40.833 65.413 C 40.833 64.728,40.799 64.667,40.417 64.667 C 40.014 64.667,40.000 64.629,40.000 63.568 C 40.000 62.618,39.956 62.457,39.675 62.384 C 39.422 62.318,39.339 62.128,39.300 61.524 C 39.258 60.866,39.194 60.742,38.875 60.697 C 38.555 60.651,38.500 60.542,38.498 59.947 C 38.495 58.972,38.347 58.527,37.991 58.414 C 37.761 58.341,37.672 58.120,37.634 57.533 C 37.591 56.866,37.528 56.742,37.208 56.697 C 36.864 56.648,36.833 56.556,36.833 55.583 C 36.833 54.679,36.786 54.507,36.509 54.420 C 36.268 54.343,36.172 54.137,36.134 53.617 C 36.092 53.041,36.018 52.907,35.716 52.864 C 35.384 52.817,35.343 52.702,35.299 51.698 C 35.256 50.726,35.202 50.562,34.875 50.419 C 34.570 50.285,34.500 50.121,34.500 49.536 C 34.500 48.993,34.399 48.717,34.083 48.402 C 33.767 48.085,33.667 47.811,33.667 47.262 C 33.667 46.679,33.602 46.522,33.333 46.452 C 33.081 46.386,33.000 46.224,33.000 45.786 C 33.000 44.803,32.811 44.182,32.480 44.077 C 32.237 44.000,32.167 43.816,32.167 43.256 C 32.167 42.705,32.069 42.443,31.753 42.142 C 31.427 41.833,31.338 41.582,31.336 40.962 C 31.334 40.261,31.287 40.161,30.917 40.068 C 30.526 39.970,30.500 39.897,30.500 38.883 C 30.500 37.942,30.457 37.791,30.167 37.715 C 29.940 37.656,29.833 37.487,29.831 37.189 C 29.827 36.194,29.614 35.455,29.308 35.375 C 29.070 35.313,29.000 35.135,29.000 34.588 C 29.000 34.070,28.891 33.765,28.593 33.442 C 28.304 33.131,28.170 32.772,28.134 32.210 C 28.091 31.533,28.028 31.409,27.708 31.363 C 27.361 31.314,27.333 31.226,27.333 30.155 C 27.333 29.133,27.297 29.000,27.018 29.000 C 26.619 29.000,26.500 28.687,26.500 27.637 C 26.500 26.942,26.444 26.787,26.167 26.715 C 25.903 26.646,25.833 26.488,25.833 25.955 C 25.833 25.493,25.702 25.109,25.417 24.735 C 25.113 24.337,25.000 23.983,25.000 23.428 C 25.000 22.727,24.967 22.667,24.583 22.667 C 24.179 22.667,24.167 22.632,24.167 21.518 C 24.167 20.432,24.144 20.364,23.750 20.265 C 23.358 20.167,23.333 20.094,23.333 19.065 C 23.333 18.109,23.291 17.958,23.000 17.882 C 22.753 17.817,22.667 17.654,22.667 17.251 C 22.667 16.302,22.474 15.681,22.147 15.577 C 21.901 15.499,21.833 15.315,21.833 14.731 C 21.833 14.157,21.737 13.889,21.417 13.568 C 21.084 13.236,21.000 12.984,21.000 12.326 C 21.000 11.556,20.972 11.500,20.583 11.500 C 20.179 11.500,20.167 11.467,20.167 10.333 C 20.167 9.306,20.129 9.167,19.856 9.167 C 19.594 9.167,19.532 8.997,19.458 8.074 C 19.410 7.473,19.318 6.929,19.255 6.866 C 19.121 6.732,0.855 6.642,0.542 6.774 M197.932 8.750 C 197.662 9.163,197.635 9.167,195.256 9.167 C 193.011 9.167,192.836 9.189,192.609 9.513 C 192.390 9.826,192.148 9.869,190.103 9.955 C 188.125 10.038,187.828 10.087,187.745 10.348 C 187.693 10.511,187.486 10.669,187.284 10.698 L 186.917 10.750 186.867 41.333 C 186.816 73.360,186.825 73.985,187.349 74.122 C 187.638 74.198,187.667 74.376,187.667 76.100 C 187.667 77.972,187.671 77.995,188.076 78.096 C 188.453 78.191,188.489 78.288,188.534 79.308 C 188.579 80.313,188.618 80.422,188.958 80.470 C 189.283 80.516,189.333 80.623,189.333 81.262 C 189.333 81.875,189.387 82.000,189.649 82.000 C 190.020 82.000,190.167 82.312,190.167 83.097 C 190.167 83.543,190.235 83.667,190.479 83.667 C 190.715 83.667,190.817 83.832,190.900 84.350 C 190.978 84.835,191.105 85.059,191.338 85.120 C 191.549 85.175,191.667 85.348,191.667 85.603 C 191.667 85.915,191.755 86.000,192.083 86.000 C 192.417 86.000,192.500 86.083,192.500 86.417 C 192.500 86.750,192.583 86.833,192.917 86.833 C 193.250 86.833,193.333 86.917,193.333 87.250 C 193.333 87.562,193.421 87.667,193.682 87.667 C 193.888 87.667,194.066 87.800,194.116 87.992 C 194.178 88.229,194.402 88.348,194.934 88.428 C 195.502 88.513,195.667 88.609,195.667 88.852 C 195.667 89.074,195.786 89.167,196.072 89.167 C 196.365 89.167,196.492 89.270,196.530 89.542 C 196.576 89.862,196.699 89.924,197.375 89.967 C 198.011 90.008,198.167 90.078,198.167 90.322 C 198.167 90.656,198.751 90.833,199.854 90.833 C 200.375 90.833,200.500 90.894,200.500 91.146 C 200.500 91.523,201.079 91.667,202.604 91.667 C 203.201 91.667,203.667 91.740,203.667 91.833 C 203.667 91.942,206.389 92.000,211.500 92.000 C 216.611 92.000,219.333 91.942,219.333 91.833 C 219.333 91.737,219.876 91.666,220.625 91.665 C 222.429 91.662,223.194 91.514,223.290 91.148 C 223.354 90.903,223.573 90.839,224.476 90.799 C 225.434 90.757,225.605 90.700,225.745 90.382 C 225.884 90.064,226.057 90.007,226.995 89.965 C 227.979 89.921,228.088 89.881,228.137 89.542 C 228.175 89.269,228.302 89.167,228.600 89.167 L 229.011 89.167 228.964 87.292 C 228.919 85.491,228.902 85.415,228.542 85.363 C 228.180 85.312,228.167 85.247,228.167 83.585 C 228.167 81.638,228.097 81.333,227.649 81.333 C 227.362 81.333,227.333 81.193,227.333 79.763 C 227.333 78.331,227.297 78.149,226.917 77.697 C 226.688 77.425,226.500 77.044,226.500 76.851 C 226.500 76.520,226.414 76.500,225.000 76.500 C 223.517 76.500,223.500 76.505,223.500 76.910 C 223.500 77.313,223.472 77.322,221.958 77.369 C 220.503 77.414,220.414 77.438,220.363 77.792 C 220.311 78.163,220.282 78.167,217.639 78.167 C 215.109 78.167,214.964 78.184,214.882 78.500 C 214.754 78.988,213.177 78.988,212.872 78.500 C 212.685 78.201,212.483 78.167,210.911 78.167 C 209.195 78.167,209.155 78.158,209.000 77.750 C 208.867 77.401,208.733 77.333,208.171 77.333 C 207.613 77.333,207.500 77.278,207.500 77.003 C 207.500 76.790,207.352 76.636,207.083 76.568 C 206.823 76.503,206.667 76.346,206.667 76.149 C 206.667 75.950,206.550 75.833,206.351 75.833 C 206.154 75.833,205.997 75.677,205.932 75.417 C 205.864 75.148,205.710 75.000,205.497 75.000 C 205.266 75.000,205.166 74.887,205.164 74.625 C 205.160 73.920,204.967 73.500,204.647 73.500 C 204.375 73.500,204.333 73.368,204.333 72.512 C 204.333 71.563,204.081 71.000,203.655 71.000 C 203.561 71.000,203.500 65.088,203.500 55.917 L 203.500 40.833 215.000 40.833 L 226.500 40.833 226.500 34.119 L 226.500 27.405 226.016 27.119 C 225.572 26.857,224.624 26.833,214.516 26.833 L 203.500 26.833 203.500 17.583 L 203.500 8.333 200.853 8.333 C 198.212 8.333,198.204 8.335,197.932 8.750 M390.000 19.000 C 390.229 19.179,390.483 19.328,390.564 19.330 C 390.645 19.332,390.521 19.183,390.288 19.000 C 390.055 18.817,389.801 18.668,389.724 18.670 C 389.647 18.672,389.771 18.821,390.000 19.000 M98.048 26.167 C 97.975 26.445,97.820 26.500,97.106 26.502 C 95.729 26.505,95.021 26.672,94.910 27.021 C 94.839 27.243,94.652 27.333,94.260 27.333 C 93.302 27.333,92.681 27.525,92.577 27.853 C 92.502 28.090,92.317 28.167,91.819 28.167 C 91.277 28.167,91.126 28.241,90.970 28.583 C 90.814 28.925,90.662 29.000,90.124 29.000 C 89.608 29.000,89.450 29.071,89.381 29.335 C 89.333 29.519,89.115 29.715,88.897 29.770 C 88.666 29.828,88.500 29.993,88.500 30.163 C 88.500 30.377,88.320 30.486,87.843 30.562 C 87.043 30.690,87.024 30.719,86.892 31.986 C 86.804 32.825,86.732 33.000,86.476 33.000 C 86.223 33.000,86.167 33.129,86.167 33.710 C 86.167 34.287,86.096 34.452,85.792 34.585 C 85.470 34.727,85.410 34.897,85.367 35.781 C 85.323 36.699,85.278 36.818,84.951 36.864 C 84.640 36.909,84.576 37.038,84.533 37.708 C 84.491 38.355,84.424 38.500,84.168 38.500 C 83.922 38.500,83.829 38.668,83.738 39.272 C 83.674 39.697,83.482 40.185,83.311 40.356 C 83.083 40.584,83.000 40.911,83.000 41.583 C 83.000 42.450,82.977 42.500,82.583 42.500 C 82.201 42.500,82.167 42.561,82.167 43.250 C 82.167 43.663,82.097 44.000,82.012 44.000 C 81.608 44.000,81.333 44.563,81.333 45.389 C 81.333 46.126,81.278 46.279,80.958 46.419 C 80.671 46.545,80.572 46.745,80.533 47.275 C 80.495 47.794,80.402 47.987,80.158 48.051 C 79.889 48.121,79.833 48.283,79.833 48.996 C 79.833 49.829,79.586 50.333,79.179 50.333 C 79.076 50.333,79.000 50.682,79.000 51.155 C 79.000 51.880,78.956 51.983,78.625 52.030 C 78.305 52.076,78.243 52.199,78.199 52.875 C 78.163 53.437,78.077 53.667,77.903 53.667 C 77.578 53.667,77.333 54.350,77.333 55.261 C 77.333 55.889,77.283 56.000,77.000 56.000 C 76.717 56.000,76.667 56.111,76.667 56.732 C 76.667 57.374,76.615 57.477,76.250 57.568 C 75.860 57.666,75.833 57.741,75.833 58.742 C 75.833 59.723,75.803 59.815,75.458 59.863 C 75.138 59.909,75.076 60.033,75.033 60.708 C 74.992 61.347,74.923 61.500,74.675 61.500 C 74.238 61.500,74.166 61.814,74.169 63.722 C 74.172 65.729,74.263 66.167,74.681 66.167 C 74.961 66.167,74.994 66.347,75.036 68.125 C 75.081 70.003,75.099 70.085,75.452 70.136 C 75.798 70.185,75.824 70.283,75.869 71.719 C 75.914 73.163,75.938 73.253,76.292 73.303 C 76.617 73.350,76.667 73.455,76.667 74.111 C 76.667 74.724,76.729 74.881,77.000 74.952 C 77.270 75.022,77.333 75.179,77.333 75.777 C 77.333 76.342,77.431 76.613,77.750 76.932 C 77.979 77.161,78.167 77.486,78.167 77.655 C 78.167 77.824,78.354 78.085,78.583 78.235 C 78.896 78.439,79.000 78.653,79.000 79.087 C 79.000 79.594,79.052 79.667,79.417 79.667 C 79.738 79.667,79.833 79.753,79.833 80.043 C 79.833 80.250,79.980 80.511,80.158 80.623 C 80.337 80.734,80.533 81.090,80.594 81.413 C 80.672 81.829,80.792 82.000,81.007 82.000 C 81.194 82.000,81.330 82.143,81.363 82.375 C 81.398 82.616,81.551 82.769,81.792 82.803 C 82.063 82.842,82.167 82.968,82.167 83.262 C 82.167 83.583,82.253 83.667,82.583 83.667 C 82.891 83.667,83.000 83.755,83.000 84.004 C 83.000 84.211,83.162 84.403,83.417 84.500 C 83.646 84.587,83.833 84.773,83.833 84.913 C 83.833 85.052,83.975 85.167,84.149 85.167 C 84.346 85.167,84.503 85.323,84.568 85.583 C 84.661 85.950,84.762 86.000,85.420 86.000 C 86.100 86.000,86.167 86.036,86.167 86.405 C 86.167 86.698,86.270 86.825,86.542 86.863 C 86.783 86.898,86.936 87.051,86.970 87.292 C 87.016 87.616,87.123 87.667,87.762 87.667 C 88.380 87.667,88.500 87.719,88.500 87.989 C 88.500 88.177,88.656 88.360,88.875 88.429 C 89.081 88.495,89.348 88.687,89.468 88.857 C 89.625 89.081,89.894 89.167,90.438 89.167 C 91.163 89.167,91.667 89.435,91.667 89.821 C 91.667 89.924,92.015 90.000,92.488 90.000 C 93.214 90.000,93.316 90.044,93.363 90.375 C 93.412 90.716,93.519 90.755,94.542 90.799 C 95.501 90.841,95.667 90.893,95.667 91.152 C 95.667 91.510,96.348 91.662,97.958 91.665 C 98.540 91.666,99.000 91.740,99.000 91.833 C 99.000 91.943,102.389 92.000,108.833 92.000 C 114.378 92.000,118.667 91.936,118.667 91.853 C 118.667 91.773,119.614 91.675,120.771 91.637 C 122.694 91.573,122.902 91.535,123.173 91.200 C 123.424 90.890,123.638 90.833,124.558 90.833 C 125.797 90.833,126.500 90.624,126.500 90.254 C 126.500 90.052,126.724 90.000,127.587 90.000 C 128.585 90.000,128.689 89.966,128.864 89.583 C 129.025 89.230,129.166 89.167,129.794 89.167 L 130.535 89.167 130.475 87.840 C 130.430 86.852,130.344 86.458,130.138 86.298 C 129.916 86.126,129.850 85.712,129.803 84.219 C 129.753 82.605,129.696 82.288,129.373 81.851 C 129.038 81.398,129.000 81.153,129.000 79.443 C 129.000 77.595,128.988 77.530,128.583 77.265 C 128.272 77.061,128.167 76.847,128.167 76.416 C 128.167 75.730,127.773 75.563,126.581 75.742 C 125.991 75.830,125.833 75.922,125.833 76.177 C 125.833 76.460,125.712 76.500,124.854 76.500 C 123.473 76.500,122.803 76.662,122.710 77.019 C 122.642 77.278,122.415 77.328,121.107 77.369 C 119.671 77.414,119.580 77.438,119.530 77.792 L 119.477 78.167 115.822 78.167 C 112.389 78.167,112.146 78.187,111.833 78.500 C 111.354 78.979,109.622 78.979,109.211 78.500 C 108.948 78.192,108.720 78.167,106.213 78.167 C 103.662 78.167,103.500 78.148,103.500 77.851 C 103.500 77.447,103.187 77.333,102.070 77.333 C 101.295 77.333,101.167 77.289,101.167 77.018 C 101.167 76.652,100.856 76.500,100.110 76.500 C 99.772 76.500,99.509 76.387,99.385 76.187 C 99.278 76.015,98.922 75.825,98.595 75.763 C 98.154 75.680,98.000 75.567,98.000 75.326 C 98.000 75.108,97.886 75.000,97.656 75.000 C 97.297 75.000,95.650 73.472,95.455 72.958 C 95.394 72.798,95.234 72.667,95.100 72.667 C 94.966 72.667,94.833 72.498,94.803 72.292 C 94.769 72.051,94.616 71.898,94.375 71.863 C 94.107 71.825,94.000 71.698,94.000 71.417 C 94.000 71.136,93.893 71.008,93.625 70.970 C 93.314 70.926,93.241 70.797,93.199 70.217 C 93.161 69.697,93.065 69.490,92.824 69.414 C 92.560 69.330,92.500 69.157,92.500 68.478 C 92.500 67.551,92.280 67.000,91.911 67.000 C 91.720 67.000,91.667 66.747,91.667 65.833 L 91.667 64.667 112.761 64.667 C 126.983 64.667,133.960 64.610,134.178 64.494 C 134.488 64.328,134.500 64.073,134.500 57.430 L 134.500 50.538 134.083 50.265 C 133.677 49.999,133.667 49.941,133.667 47.998 C 133.667 46.183,133.637 45.984,133.333 45.795 C 133.063 45.626,133.000 45.406,133.000 44.638 C 133.000 43.736,132.741 43.167,132.329 43.167 C 132.249 43.167,132.160 42.698,132.133 42.125 C 132.090 41.230,132.031 41.060,131.708 40.919 C 131.404 40.785,131.333 40.621,131.333 40.044 C 131.333 39.397,131.296 39.333,130.917 39.333 C 130.533 39.333,130.500 39.273,130.500 38.568 C 130.500 37.942,130.439 37.786,130.167 37.715 C 129.983 37.667,129.833 37.527,129.833 37.404 C 129.833 37.281,129.651 37.008,129.429 36.798 C 129.206 36.588,129.000 36.192,128.970 35.917 C 128.930 35.545,128.820 35.403,128.542 35.363 C 128.270 35.325,128.167 35.198,128.167 34.905 C 128.167 34.584,128.080 34.500,127.750 34.500 C 127.417 34.500,127.333 34.417,127.333 34.083 C 127.333 33.750,127.250 33.667,126.917 33.667 C 126.611 33.667,126.500 33.578,126.500 33.333 C 126.500 33.111,126.389 33.000,126.167 33.000 C 125.922 33.000,125.833 32.889,125.833 32.583 C 125.833 32.250,125.750 32.167,125.417 32.167 C 125.083 32.167,125.000 32.083,125.000 31.750 C 125.000 31.420,124.916 31.333,124.595 31.333 C 124.302 31.333,124.175 31.230,124.137 30.958 C 124.103 30.724,123.949 30.564,123.725 30.532 C 123.528 30.504,123.332 30.347,123.289 30.182 C 123.237 29.983,122.987 29.847,122.542 29.776 C 122.065 29.700,121.848 29.573,121.785 29.335 C 121.714 29.061,121.559 29.000,120.932 29.000 C 120.227 29.000,120.167 28.967,120.167 28.583 C 120.167 28.202,120.105 28.167,119.428 28.167 C 118.789 28.167,118.683 28.116,118.637 27.792 C 118.588 27.451,118.480 27.412,117.467 27.368 C 116.554 27.327,116.333 27.263,116.253 27.011 C 116.131 26.624,115.693 26.505,114.381 26.502 C 113.517 26.500,113.315 26.445,113.167 26.167 C 112.992 25.841,112.818 25.833,105.562 25.833 C 98.276 25.833,98.134 25.840,98.048 26.167 M160.048 26.167 C 159.968 26.475,159.821 26.500,158.087 26.500 C 155.568 26.500,154.644 26.636,154.543 27.020 C 154.475 27.280,154.245 27.328,152.857 27.369 C 151.342 27.414,151.247 27.438,151.198 27.786 C 151.148 28.132,151.050 28.157,149.614 28.202 C 148.170 28.247,148.080 28.271,148.030 28.625 C 147.980 28.980,147.902 29.000,146.578 29.000 C 145.349 29.000,145.157 29.041,145.000 29.333 C 144.902 29.517,144.655 29.668,144.452 29.669 C 144.249 29.670,143.915 29.716,143.708 29.772 L 143.333 29.872 143.333 60.353 L 143.333 90.833 151.583 90.833 L 159.833 90.833 159.833 65.833 L 159.833 40.833 160.667 40.833 C 161.148 40.833,161.500 40.758,161.500 40.655 C 161.500 40.023,161.757 40.000,168.893 40.000 L 175.810 40.000 175.863 40.375 C 175.914 40.729,176.003 40.753,177.458 40.798 C 178.690 40.836,179.000 40.896,179.000 41.094 C 179.000 41.445,179.699 41.667,180.811 41.667 C 182.075 41.667,182.167 41.545,182.167 39.868 C 182.167 38.627,182.208 38.437,182.535 38.172 C 182.861 37.908,182.911 37.681,182.970 36.201 C 183.029 34.734,183.076 34.519,183.352 34.447 C 183.638 34.372,183.667 34.186,183.667 32.432 L 183.667 30.500 184.083 30.500 C 184.487 30.500,184.500 30.465,184.500 29.356 C 184.500 27.733,184.099 27.333,182.471 27.333 C 181.538 27.333,181.224 27.262,180.813 26.958 C 180.374 26.633,180.061 26.576,178.451 26.526 C 176.937 26.479,176.522 26.410,176.192 26.151 C 175.546 25.643,160.181 25.658,160.048 26.167 M245.715 26.167 C 245.635 26.474,245.488 26.500,243.835 26.500 C 241.669 26.500,240.981 26.619,240.879 27.010 C 240.814 27.260,240.557 27.311,239.136 27.360 C 237.646 27.411,237.438 27.456,237.167 27.792 C 236.932 28.082,236.691 28.167,236.098 28.167 L 235.333 28.167 235.333 30.175 C 235.333 32.102,235.350 32.198,235.750 32.569 C 236.154 32.943,236.167 33.023,236.167 35.138 C 236.167 37.151,236.193 37.336,236.500 37.500 C 236.794 37.657,236.835 37.859,236.850 39.214 C 236.875 41.531,236.897 41.574,238.108 41.632 C 239.033 41.677,239.142 41.645,239.397 41.257 C 239.655 40.863,239.765 40.833,240.985 40.833 C 242.198 40.833,242.315 40.803,242.568 40.417 C 242.838 40.004,242.864 40.000,245.248 40.000 C 247.484 40.000,247.668 39.976,247.833 39.667 C 248.006 39.344,248.182 39.333,253.161 39.333 C 258.164 39.333,258.314 39.343,258.417 39.667 C 258.509 39.958,258.669 40.000,259.678 40.000 C 260.582 40.000,260.833 40.053,260.833 40.244 C 260.833 40.549,261.346 40.833,261.894 40.833 C 262.159 40.833,262.348 40.950,262.412 41.153 C 262.480 41.366,262.731 41.510,263.164 41.583 C 263.661 41.667,263.826 41.777,263.865 42.055 C 263.897 42.277,264.055 42.436,264.275 42.468 C 264.535 42.505,264.662 42.675,264.740 43.091 C 264.799 43.405,264.989 43.738,265.162 43.831 C 265.335 43.924,265.501 44.168,265.530 44.375 C 265.564 44.616,265.717 44.769,265.958 44.803 C 266.299 44.852,266.333 44.947,266.333 45.844 C 266.333 46.650,266.394 46.869,266.667 47.039 C 266.975 47.231,267.000 47.427,267.000 49.623 L 267.000 52.000 265.012 52.000 C 263.076 52.000,263.022 51.990,262.970 51.625 L 262.917 51.250 256.708 51.206 L 250.500 51.163 250.500 51.581 L 250.500 52.000 248.083 52.000 C 245.842 52.000,245.667 52.022,245.667 52.309 C 245.667 52.576,245.481 52.631,244.292 52.721 C 243.194 52.805,242.861 52.894,242.640 53.163 C 242.447 53.398,242.163 53.500,241.701 53.500 C 241.178 53.500,240.981 53.588,240.765 53.917 C 240.563 54.225,240.346 54.333,239.930 54.333 C 239.548 54.333,239.243 54.466,238.976 54.747 C 238.753 54.982,238.393 55.162,238.142 55.164 C 237.892 55.165,237.532 55.346,237.309 55.580 C 237.093 55.808,236.748 55.996,236.542 55.997 C 236.279 55.999,236.167 56.100,236.167 56.333 C 236.167 56.578,236.056 56.667,235.750 56.667 C 235.417 56.667,235.333 56.750,235.333 57.083 C 235.333 57.417,235.250 57.500,234.917 57.500 C 234.587 57.500,234.500 57.584,234.500 57.905 C 234.500 58.198,234.396 58.325,234.125 58.363 C 233.884 58.398,233.731 58.551,233.697 58.792 C 233.663 59.033,233.529 59.167,233.322 59.167 C 233.115 59.167,233.000 59.282,233.000 59.488 C 233.000 59.695,232.866 59.829,232.625 59.863 C 232.398 59.896,232.231 60.050,232.202 60.255 C 232.175 60.441,231.987 60.666,231.785 60.755 C 231.503 60.879,231.405 61.082,231.365 61.625 C 231.325 62.182,231.249 62.333,231.008 62.333 C 230.660 62.333,230.500 62.648,230.500 63.336 C 230.500 63.664,230.397 63.843,230.167 63.917 C 229.867 64.012,229.833 64.169,229.833 65.493 C 229.833 66.925,229.822 66.967,229.414 67.069 L 228.995 67.174 229.039 71.712 C 229.083 76.239,229.084 76.250,229.458 76.415 C 229.808 76.568,229.833 76.682,229.833 78.123 C 229.833 79.541,229.860 79.667,230.158 79.667 C 230.426 79.667,230.490 79.803,230.533 80.458 C 230.575 81.128,230.640 81.258,230.949 81.302 C 231.249 81.345,231.324 81.479,231.366 82.052 C 231.408 82.630,231.481 82.759,231.792 82.803 C 232.063 82.842,232.167 82.968,232.167 83.262 C 232.167 83.583,232.253 83.667,232.583 83.667 C 232.965 83.667,233.000 83.729,233.000 84.405 C 233.000 85.044,233.051 85.151,233.375 85.197 C 233.616 85.231,233.769 85.384,233.803 85.625 C 233.836 85.856,233.972 86.000,234.159 86.000 C 234.325 86.000,234.502 86.156,234.552 86.346 C 234.601 86.536,234.795 86.731,234.982 86.780 C 235.169 86.829,235.365 87.005,235.418 87.171 C 235.479 87.363,235.746 87.512,236.152 87.581 C 236.606 87.658,236.843 87.806,236.975 88.094 C 237.082 88.329,237.301 88.500,237.496 88.500 C 237.682 88.500,237.833 88.604,237.833 88.732 C 237.833 89.011,238.192 89.167,238.835 89.167 C 239.201 89.167,239.322 89.253,239.363 89.542 C 239.412 89.882,239.520 89.921,240.531 89.966 C 241.535 90.010,241.651 90.051,241.698 90.382 C 241.745 90.714,241.860 90.755,242.866 90.799 C 243.777 90.839,244.000 90.904,244.079 91.154 C 244.203 91.544,244.828 91.667,246.688 91.667 C 247.563 91.667,248.167 91.735,248.167 91.833 C 248.167 91.943,251.639 92.000,258.250 92.000 C 264.242 92.000,268.333 91.938,268.333 91.847 C 268.333 91.763,269.602 91.670,271.164 91.639 C 273.879 91.586,274.005 91.568,274.256 91.208 C 274.506 90.852,274.628 90.833,276.665 90.833 C 278.898 90.833,279.667 90.685,279.667 90.254 C 279.667 90.043,279.952 90.000,281.344 90.000 C 282.267 90.000,283.167 89.922,283.344 89.827 C 283.861 89.551,283.850 49.861,283.333 49.539 C 283.022 49.344,283.000 49.149,282.998 46.540 C 282.996 43.186,282.909 42.500,282.484 42.500 C 282.214 42.500,282.174 42.324,282.131 40.958 C 282.086 39.503,282.062 39.414,281.708 39.363 C 281.377 39.316,281.333 39.214,281.333 38.477 C 281.333 37.551,281.114 37.000,280.744 37.000 C 280.578 37.000,280.500 36.821,280.500 36.441 C 280.500 36.076,280.356 35.726,280.083 35.432 C 279.854 35.185,279.667 34.874,279.667 34.741 C 279.667 34.609,279.517 34.500,279.333 34.500 C 279.118 34.500,279.000 34.389,279.000 34.186 C 279.000 34.013,278.818 33.752,278.595 33.606 C 278.363 33.454,278.167 33.143,278.136 32.879 C 278.103 32.592,277.941 32.354,277.708 32.252 C 277.502 32.162,277.333 31.996,277.333 31.883 C 277.333 31.770,277.165 31.589,276.958 31.481 C 276.752 31.372,276.418 31.107,276.216 30.891 C 276.014 30.676,275.658 30.500,275.425 30.500 C 275.111 30.500,275.000 30.413,275.000 30.167 C 275.000 29.943,274.889 29.833,274.663 29.833 C 274.456 29.833,274.264 29.672,274.167 29.417 C 274.034 29.068,273.899 29.000,273.341 29.000 C 272.768 29.000,272.658 28.941,272.568 28.583 C 272.477 28.219,272.373 28.167,271.743 28.167 C 271.184 28.167,271.000 28.096,270.923 27.853 C 270.819 27.525,270.198 27.333,269.240 27.333 C 268.848 27.333,268.661 27.243,268.590 27.021 C 268.477 26.666,267.769 26.505,266.311 26.502 C 265.513 26.500,265.359 26.450,265.285 26.167 C 265.199 25.838,265.058 25.833,255.500 25.833 C 245.942 25.833,245.801 25.838,245.715 26.167 M333.474 26.151 C 333.140 26.414,332.729 26.480,331.121 26.526 C 329.322 26.579,329.152 26.612,328.910 26.958 C 328.675 27.295,328.508 27.334,327.282 27.336 C 325.633 27.338,325.209 27.438,325.078 27.851 C 324.999 28.098,324.817 28.167,324.239 28.167 L 323.500 28.167 323.485 28.958 C 323.426 32.116,323.516 33.250,323.841 33.479 C 324.132 33.683,324.167 33.914,324.169 35.645 C 324.172 37.867,324.248 38.284,324.679 38.420 C 324.945 38.505,324.994 38.729,325.036 40.051 L 325.083 41.583 326.167 41.583 C 327.163 41.583,327.254 41.553,327.303 41.208 C 327.354 40.850,327.425 40.833,328.928 40.833 C 330.482 40.833,330.500 40.829,330.500 40.428 L 330.500 40.023 333.095 39.970 C 335.360 39.923,335.711 39.879,335.854 39.625 C 336.125 39.139,346.500 39.180,346.500 39.667 C 346.500 39.968,346.611 40.000,347.655 40.000 C 348.726 40.000,348.814 40.027,348.863 40.375 C 348.909 40.694,349.033 40.758,349.698 40.800 C 350.357 40.843,350.487 40.908,350.531 41.217 C 350.563 41.443,350.720 41.603,350.941 41.634 C 351.138 41.662,351.335 41.823,351.379 41.991 C 351.433 42.198,351.682 42.335,352.146 42.413 C 352.818 42.527,352.833 42.545,352.833 43.197 C 352.833 43.722,352.904 43.883,353.163 43.951 C 353.379 44.007,353.529 44.235,353.600 44.613 C 353.659 44.930,353.849 45.278,354.021 45.385 C 354.246 45.525,354.333 45.776,354.333 46.279 C 354.333 47.162,354.584 47.833,354.913 47.833 C 355.127 47.833,355.167 48.161,355.167 49.917 L 355.167 52.000 353.178 52.000 C 351.243 52.000,351.188 51.990,351.137 51.625 L 351.083 51.250 344.924 51.206 L 338.764 51.162 338.404 51.581 C 338.055 51.987,337.981 52.000,335.945 52.000 C 334.016 52.000,333.831 52.027,333.667 52.333 C 333.545 52.560,333.317 52.667,332.952 52.668 C 331.597 52.672,330.667 52.876,330.667 53.170 C 330.667 53.406,330.476 53.474,329.637 53.534 C 328.814 53.594,328.559 53.682,328.367 53.971 C 328.229 54.179,327.952 54.333,327.719 54.333 C 327.178 54.333,326.667 54.620,326.667 54.923 C 326.667 55.096,326.474 55.167,325.996 55.167 C 325.443 55.167,325.293 55.239,325.136 55.583 C 325.013 55.855,324.811 56.000,324.557 56.000 C 324.278 56.000,324.167 56.095,324.167 56.333 C 324.167 56.540,324.056 56.667,323.873 56.667 C 323.712 56.667,323.483 56.822,323.364 57.012 C 323.246 57.202,322.890 57.466,322.574 57.598 C 322.258 57.730,322.000 57.937,322.000 58.059 C 322.000 58.180,321.817 58.363,321.592 58.466 C 321.315 58.592,321.149 58.840,321.074 59.242 C 320.994 59.669,320.876 59.833,320.651 59.833 C 320.458 59.833,320.300 59.991,320.235 60.250 C 320.170 60.511,320.013 60.667,319.815 60.667 C 319.567 60.667,319.500 60.789,319.500 61.238 C 319.500 61.649,319.383 61.901,319.083 62.137 C 318.762 62.390,318.667 62.618,318.667 63.137 C 318.667 63.708,318.610 63.818,318.292 63.863 C 317.948 63.912,317.913 64.016,317.868 65.125 C 317.826 66.166,317.777 66.333,317.515 66.333 C 317.068 66.333,317.004 67.012,317.004 71.750 C 317.004 76.442,317.073 77.173,317.525 77.292 C 317.787 77.360,317.833 77.544,317.833 78.519 C 317.833 79.224,317.902 79.667,318.012 79.667 C 318.398 79.667,318.650 80.164,318.699 81.020 C 318.744 81.804,318.797 81.923,319.125 81.970 C 319.396 82.008,319.500 82.135,319.500 82.428 C 319.500 82.718,319.592 82.833,319.823 82.833 C 320.077 82.833,320.170 82.990,320.256 83.568 C 320.335 84.094,320.457 84.327,320.683 84.386 C 320.863 84.433,321.000 84.615,321.000 84.806 C 321.000 85.029,321.127 85.162,321.375 85.197 C 321.616 85.231,321.769 85.384,321.803 85.625 C 321.842 85.896,321.968 86.000,322.262 86.000 C 322.583 86.000,322.667 86.087,322.667 86.417 C 322.667 86.747,322.751 86.833,323.072 86.833 C 323.365 86.833,323.492 86.937,323.530 87.208 C 323.563 87.443,323.717 87.602,323.941 87.634 C 324.138 87.662,324.335 87.823,324.379 87.991 C 324.433 88.196,324.680 88.335,325.130 88.410 C 325.594 88.489,325.827 88.623,325.885 88.845 C 325.950 89.095,326.117 89.167,326.633 89.167 C 327.202 89.167,327.312 89.226,327.402 89.583 C 327.501 89.978,327.568 90.000,328.670 90.000 C 329.800 90.000,329.833 90.012,329.833 90.417 C 329.833 90.821,329.867 90.833,331.000 90.833 C 332.031 90.833,332.167 90.870,332.167 91.147 C 332.167 91.568,332.597 91.662,334.542 91.664 C 335.512 91.666,336.167 91.734,336.167 91.833 C 336.167 91.943,339.583 92.000,346.083 92.000 C 352.583 92.000,356.000 91.943,356.000 91.833 C 356.000 91.729,356.965 91.667,358.563 91.667 C 361.500 91.667,362.179 91.573,362.289 91.153 C 362.358 90.889,362.637 90.851,364.871 90.803 C 367.255 90.753,367.389 90.732,367.625 90.375 C 367.854 90.030,368.001 90.000,369.437 90.000 L 371.000 90.000 371.000 66.678 L 371.000 43.357 370.625 43.303 C 370.270 43.253,370.246 43.158,370.167 41.528 C 370.100 40.143,370.026 39.764,369.792 39.593 C 369.608 39.459,369.500 39.160,369.500 38.787 C 369.500 37.978,369.356 37.667,368.982 37.667 C 368.719 37.667,368.667 37.541,368.667 36.917 C 368.667 36.232,368.631 36.167,368.259 36.167 C 367.891 36.167,367.847 36.090,367.801 35.375 C 367.757 34.699,367.695 34.576,367.375 34.530 C 367.104 34.492,367.000 34.365,367.000 34.072 C 367.000 33.778,366.909 33.667,366.667 33.667 C 366.444 33.667,366.333 33.556,366.333 33.333 C 366.333 33.089,366.222 33.000,365.917 33.000 C 365.583 33.000,365.500 32.917,365.500 32.583 C 365.500 32.250,365.417 32.167,365.083 32.167 C 364.750 32.167,364.667 32.083,364.667 31.750 C 364.667 31.417,364.583 31.333,364.250 31.333 C 363.917 31.333,363.833 31.250,363.833 30.917 C 363.833 30.583,363.750 30.500,363.417 30.500 C 363.111 30.500,363.000 30.411,363.000 30.167 C 363.000 29.945,362.889 29.833,362.668 29.833 C 362.486 29.833,362.242 29.681,362.126 29.496 C 362.007 29.303,361.663 29.117,361.324 29.063 C 360.935 29.001,360.678 28.844,360.574 28.609 C 360.448 28.322,360.233 28.233,359.500 28.167 C 358.753 28.099,358.553 28.014,358.419 27.708 C 358.282 27.397,358.123 27.333,357.480 27.333 C 356.867 27.333,356.689 27.269,356.625 27.025 C 356.535 26.682,355.788 26.505,354.412 26.502 C 353.782 26.500,353.503 26.417,353.289 26.167 C 352.852 25.657,334.121 25.643,333.474 26.151 M383.217 27.067 C 383.143 27.196,382.896 27.327,382.667 27.359 L 382.250 27.417 382.250 59.083 L 382.250 90.750 390.542 90.793 L 398.833 90.836 398.829 59.127 L 398.825 27.417 398.239 27.125 C 397.437 26.726,383.442 26.672,383.217 27.067 M109.039 39.667 C 109.194 39.916,109.427 40.000,109.961 40.000 C 110.569 40.000,110.698 40.062,110.833 40.417 C 110.965 40.764,111.101 40.833,111.651 40.833 C 112.208 40.833,112.318 40.892,112.363 41.208 C 112.398 41.449,112.551 41.602,112.792 41.637 C 113.033 41.671,113.167 41.805,113.167 42.012 C 113.167 42.221,113.282 42.333,113.497 42.333 C 113.710 42.333,113.864 42.481,113.932 42.750 C 113.995 43.004,114.155 43.167,114.340 43.167 C 114.528 43.167,114.664 43.309,114.697 43.542 C 114.731 43.783,114.884 43.936,115.125 43.970 C 115.393 44.008,115.500 44.136,115.500 44.416 C 115.500 44.637,115.683 44.953,115.917 45.137 C 116.240 45.391,116.333 45.618,116.333 46.148 C 116.333 46.650,116.421 46.886,116.667 47.039 C 116.879 47.171,117.001 47.429,117.002 47.748 C 117.006 48.848,117.199 49.500,117.522 49.500 C 117.798 49.500,117.833 49.640,117.833 50.750 L 117.833 52.000 104.750 52.000 L 91.667 52.000 91.667 51.167 C 91.667 50.460,91.715 50.333,91.982 50.333 C 92.385 50.333,92.500 50.021,92.500 48.922 C 92.500 48.179,92.553 48.025,92.833 47.952 C 93.106 47.880,93.167 47.724,93.167 47.099 C 93.167 46.393,93.199 46.333,93.583 46.333 C 93.966 46.333,94.000 46.272,94.000 45.583 C 94.000 44.894,94.034 44.833,94.417 44.833 C 94.747 44.833,94.833 44.749,94.833 44.428 C 94.833 44.135,94.937 44.008,95.208 43.970 C 95.449 43.936,95.602 43.783,95.637 43.542 C 95.671 43.301,95.805 43.167,96.012 43.167 C 96.216 43.167,96.333 43.052,96.333 42.851 C 96.333 42.654,96.489 42.497,96.750 42.432 C 97.019 42.364,97.167 42.210,97.167 41.997 C 97.167 41.765,97.279 41.667,97.544 41.667 C 97.775 41.667,97.985 41.522,98.085 41.292 C 98.206 41.016,98.416 40.903,98.874 40.865 C 99.376 40.823,99.519 40.734,99.601 40.407 C 99.696 40.028,99.777 40.000,100.784 40.000 C 101.724 40.000,101.876 39.957,101.952 39.667 C 102.035 39.347,102.179 39.333,105.435 39.333 C 108.650 39.333,108.842 39.351,109.039 39.667 M263.252 63.375 C 263.406 63.726,263.532 63.753,265.208 63.797 L 267.000 63.845 267.000 71.422 L 267.000 79.000 264.776 79.000 C 262.763 79.000,262.523 79.032,262.250 79.333 C 261.782 79.850,255.253 79.850,255.118 79.333 C 255.040 79.033,254.891 79.000,253.620 79.000 C 251.749 79.000,251.167 78.876,251.167 78.479 C 251.167 78.216,251.037 78.167,250.345 78.167 C 249.620 78.167,249.517 78.123,249.470 77.792 C 249.426 77.480,249.297 77.408,248.708 77.365 C 248.082 77.320,248.000 77.267,248.000 76.907 C 248.000 76.584,247.914 76.500,247.583 76.500 C 247.220 76.500,247.167 76.427,247.167 75.926 C 247.167 75.554,247.057 75.275,246.855 75.134 C 246.678 75.010,246.490 74.600,246.420 74.187 C 246.334 73.677,246.203 73.435,245.982 73.377 C 245.498 73.250,245.497 69.333,245.981 69.333 C 246.225 69.333,246.320 69.168,246.407 68.592 C 246.486 68.063,246.611 67.821,246.842 67.747 C 247.021 67.691,247.167 67.504,247.167 67.333 C 247.167 67.162,247.313 66.976,247.491 66.919 C 247.670 66.863,247.860 66.678,247.914 66.509 C 247.967 66.341,248.159 66.164,248.339 66.117 C 248.519 66.070,248.667 65.917,248.667 65.777 C 248.667 65.637,248.835 65.499,249.042 65.470 C 249.248 65.441,249.491 65.248,249.581 65.042 C 249.709 64.750,249.883 64.667,250.362 64.667 C 251.170 64.667,251.833 64.405,251.833 64.087 C 251.833 63.879,252.099 63.833,253.325 63.833 C 254.851 63.833,255.667 63.621,255.667 63.223 C 255.667 62.765,263.049 62.913,263.252 63.375 M351.303 63.417 C 351.489 63.824,351.532 63.833,353.330 63.833 L 355.167 63.833 355.167 71.405 L 355.167 78.976 352.655 79.030 C 350.470 79.076,350.121 79.121,349.980 79.375 C 349.711 79.856,343.245 79.817,343.118 79.333 C 343.040 79.032,342.890 79.000,341.557 78.998 C 339.799 78.995,339.377 78.901,339.244 78.482 C 339.166 78.235,338.984 78.167,338.405 78.167 C 337.999 78.167,337.667 78.097,337.667 78.012 C 337.667 77.698,337.129 77.333,336.666 77.333 C 336.299 77.333,336.178 77.247,336.137 76.958 C 336.102 76.717,335.949 76.564,335.708 76.530 C 335.476 76.497,335.333 76.361,335.333 76.173 C 335.333 75.988,335.170 75.829,334.917 75.765 C 334.552 75.673,334.500 75.570,334.500 74.931 C 334.500 74.371,334.404 74.111,334.086 73.809 C 333.447 73.203,333.445 69.571,334.083 68.932 C 334.350 68.666,334.500 68.328,334.500 67.996 C 334.500 67.479,334.815 67.000,335.155 67.000 C 335.253 67.000,335.333 66.813,335.333 66.583 C 335.333 66.255,335.418 66.167,335.731 66.167 C 335.977 66.167,336.158 66.050,336.208 65.858 C 336.264 65.647,336.506 65.515,336.978 65.440 C 337.517 65.353,337.667 65.258,337.667 64.998 C 337.667 64.718,337.779 64.667,338.397 64.667 C 338.993 64.667,339.179 64.590,339.401 64.250 C 339.662 63.852,339.749 63.833,341.308 63.833 C 342.835 63.833,342.967 63.806,343.333 63.417 L 343.725 63.000 347.419 63.000 L 351.113 63.000 351.303 63.417 M310.000 75.417 C 310.114 75.554,310.282 75.667,310.374 75.667 C 310.467 75.667,310.449 75.556,310.333 75.417 C 310.219 75.279,310.051 75.167,309.959 75.167 C 309.866 75.167,309.884 75.277,310.000 75.417 " stroke="none" fill="#24dcc4" fill-rule="evenodd"></path><path id="path1" d="M387.667 0.167 C 387.667 0.258,387.310 0.334,386.875 0.336 C 385.788 0.339,385.333 0.485,385.333 0.832 C 385.333 1.097,384.540 1.434,384.111 1.351 C 384.034 1.336,383.932 1.476,383.883 1.662 C 383.805 1.958,383.537 2.085,383.125 2.020 C 383.056 2.009,383.000 2.182,383.000 2.405 C 383.000 2.698,382.896 2.825,382.625 2.863 C 382.314 2.908,382.241 3.036,382.199 3.615 C 382.158 4.187,382.083 4.322,381.783 4.365 C 381.473 4.409,381.409 4.539,381.366 5.208 C 381.320 5.923,381.210 6.081,380.801 6.023 C 380.291 5.950,380.426 12.403,380.944 12.822 C 381.190 13.021,381.324 13.347,381.365 13.848 C 381.416 14.458,381.489 14.592,381.796 14.637 C 382.063 14.675,382.167 14.803,382.167 15.095 C 382.167 15.416,382.253 15.500,382.583 15.500 C 382.884 15.500,383.000 15.590,383.000 15.822 C 383.000 15.999,383.150 16.192,383.333 16.250 C 383.636 16.346,383.741 16.531,383.686 16.875 C 383.676 16.944,383.849 17.000,384.072 17.000 C 384.365 17.000,384.492 17.104,384.530 17.375 C 384.576 17.695,384.699 17.757,385.375 17.801 C 386.090 17.847,386.167 17.891,386.167 18.259 C 386.167 18.639,388.158 18.874,389.769 18.684 C 389.872 18.672,390.059 18.788,390.186 18.942 C 390.396 19.196,390.383 19.203,390.042 19.021 C 389.801 18.893,389.667 18.883,389.667 18.994 C 389.667 19.089,389.760 19.173,389.875 19.181 C 389.990 19.188,390.408 19.219,390.805 19.250 C 391.202 19.280,391.487 19.264,391.438 19.216 C 391.123 18.900,391.924 18.667,393.321 18.667 C 394.186 18.667,394.833 18.598,394.833 18.505 C 394.833 18.416,394.950 18.389,395.093 18.444 C 395.267 18.510,395.384 18.425,395.446 18.188 C 395.506 17.957,395.671 17.833,395.918 17.833 C 396.183 17.833,396.329 17.708,396.402 17.417 C 396.499 17.030,397.088 16.856,397.875 16.980 C 397.944 16.991,398.000 16.821,398.000 16.601 C 398.000 16.311,398.118 16.173,398.432 16.094 C 398.699 16.027,398.831 15.901,398.778 15.763 C 398.664 15.467,398.979 15.169,399.283 15.286 C 399.429 15.342,399.511 15.287,399.490 15.148 C 399.434 14.776,399.695 13.833,399.854 13.833 C 399.934 13.833,400.000 11.883,400.000 9.500 C 400.000 6.722,399.940 5.167,399.833 5.167 C 399.742 5.167,399.666 4.923,399.664 4.625 C 399.661 4.003,399.536 3.770,399.125 3.618 C 398.965 3.559,398.833 3.358,398.833 3.172 C 398.833 2.924,398.724 2.833,398.428 2.833 C 398.135 2.833,398.008 2.730,397.970 2.458 C 397.936 2.217,397.783 2.064,397.542 2.030 C 397.270 1.992,397.167 1.865,397.167 1.572 C 397.167 1.204,397.099 1.167,396.435 1.167 C 395.793 1.167,395.690 1.115,395.598 0.750 C 395.504 0.375,395.410 0.333,394.663 0.333 C 394.207 0.333,393.833 0.258,393.833 0.167 C 393.833 0.062,392.694 0.000,390.750 0.000 C 388.806 0.000,387.667 0.062,387.667 0.167 M301.290 72.186 C 301.123 72.417,300.739 72.485,299.277 72.542 C 297.531 72.609,297.325 72.672,297.128 73.203 C 297.103 73.269,296.783 73.345,296.417 73.372 C 295.872 73.413,295.740 73.491,295.697 73.795 C 295.658 74.063,295.531 74.167,295.238 74.167 C 294.917 74.167,294.833 74.253,294.833 74.583 C 294.833 74.917,294.750 75.000,294.417 75.000 C 294.116 75.000,294.000 75.090,294.000 75.322 C 294.000 75.499,293.855 75.690,293.677 75.747 C 293.500 75.803,293.331 76.014,293.302 76.216 C 293.268 76.455,293.133 76.583,292.917 76.583 C 292.638 76.583,292.575 76.711,292.533 77.359 C 292.490 78.025,292.425 78.149,292.072 78.238 L 291.661 78.341 291.705 82.546 L 291.750 86.750 292.125 86.803 C 292.448 86.849,292.500 86.956,292.500 87.583 C 292.500 88.210,292.552 88.317,292.875 88.363 C 293.116 88.398,293.269 88.551,293.303 88.792 C 293.337 89.033,293.471 89.167,293.678 89.167 C 293.910 89.167,294.000 89.283,294.000 89.583 C 294.000 89.917,294.083 90.000,294.417 90.000 C 294.721 90.000,294.833 90.089,294.833 90.330 C 294.833 90.543,294.981 90.697,295.250 90.765 C 295.622 90.858,295.738 91.014,295.691 91.360 C 295.683 91.421,296.049 91.521,296.505 91.584 C 296.961 91.647,297.333 91.766,297.333 91.849 C 297.333 92.062,306.623 92.047,306.694 91.835 C 306.742 91.693,307.130 91.608,308.125 91.519 C 308.240 91.508,308.333 91.355,308.333 91.178 C 308.333 90.971,308.467 90.837,308.708 90.803 C 308.949 90.769,309.102 90.616,309.137 90.375 C 309.168 90.153,309.306 90.000,309.475 90.000 C 309.951 90.000,310.487 89.515,310.633 88.951 C 310.728 88.583,310.871 88.418,311.094 88.417 C 311.302 88.417,311.436 88.283,311.470 88.042 C 311.499 87.835,311.588 87.667,311.666 87.667 C 312.091 87.667,312.333 87.095,312.333 86.090 C 312.333 85.200,312.377 85.041,312.618 85.060 C 313.145 85.103,313.299 80.204,312.780 79.884 C 312.678 79.821,312.669 79.871,312.756 80.016 C 312.876 80.215,312.855 80.216,312.615 80.021 C 312.414 79.858,312.333 79.537,312.333 78.906 C 312.333 78.419,312.257 77.973,312.164 77.915 C 312.071 77.857,312.041 77.735,312.097 77.644 C 312.154 77.552,312.043 77.436,311.850 77.386 C 311.618 77.325,311.500 77.161,311.500 76.897 C 311.500 76.585,311.411 76.500,311.083 76.500 C 310.762 76.500,310.667 76.414,310.667 76.123 C 310.667 75.893,310.520 75.679,310.292 75.575 C 310.085 75.481,309.935 75.313,309.958 75.202 C 309.982 75.087,309.822 75.000,309.583 75.000 C 309.250 75.000,309.167 74.917,309.167 74.583 C 309.167 74.255,309.082 74.167,308.768 74.167 C 308.482 74.167,308.340 74.049,308.265 73.750 C 308.173 73.383,308.071 73.333,307.413 73.333 C 306.792 73.333,306.667 73.280,306.667 73.018 C 306.667 72.570,306.362 72.500,304.403 72.500 C 302.729 72.500,302.592 72.460,302.636 71.992 C 302.658 71.755,301.478 71.926,301.290 72.186 " stroke="none" fill="#6c64fc" fill-rule="evenodd"></path></g></svg>