<svg id="svg" version="1.1" xmlns="http://www.w3.org/2000/svg" xmlns:xlink="http://www.w3.org/1999/xlink" width="400" height="189.6551724137931" viewBox="0, 0, 400,189.6551724137931"><g id="svgg"><path id="path0" d="M243.103 68.966 L 243.103 129.310 248.276 129.310 L 253.448 129.310 253.448 68.966 L 253.448 8.621 248.276 8.621 L 243.103 8.621 243.103 68.966 M24.012 73.040 C 42.873 94.583,43.084 89.619,22.313 113.129 L 4.970 132.759 11.600 132.759 C 17.829 132.759,19.101 131.759,32.622 116.227 C 46.456 100.336,47.130 99.819,49.999 102.865 C 51.641 104.608,67.874 123.297,86.072 144.397 C 117.677 181.040,119.435 182.759,125.308 182.759 C 132.746 182.759,136.594 188.104,92.413 137.069 C 73.532 115.259,57.036 96.184,55.756 94.681 C 53.729 92.301,55.433 89.628,68.947 73.991 L 84.466 56.034 78.910 55.465 C 73.075 54.867,69.547 57.853,53.203 77.227 L 46.961 84.626 34.256 69.904 C 22.440 56.210,21.091 55.181,14.960 55.177 L 8.369 55.172 24.012 73.040 M99.889 59.914 C 59.218 80.537,85.710 140.066,129.678 126.853 C 143.074 122.827,146.291 119.992,142.376 115.666 C 139.376 112.351,139.275 112.351,133.894 115.632 C 125.968 120.465,110.927 120.176,103.313 115.045 C 72.567 94.325,98.648 51.914,132.650 67.340 C 140.169 70.750,140.358 70.753,143.579 67.532 C 153.349 57.762,116.725 51.376,99.889 59.914 M177.638 57.091 C 159.773 64.220,150.409 83.492,155.800 102.035 C 162.902 126.465,192.484 135.863,214.018 120.529 L 218.966 117.007 218.966 123.158 C 218.966 128.571,219.484 129.310,223.276 129.310 L 227.586 129.310 227.586 92.241 L 227.586 55.172 223.276 55.172 C 219.828 55.172,218.966 56.034,218.966 59.483 C 218.966 64.809,218.409 64.808,207.897 59.476 C 198.868 54.895,185.734 53.859,177.638 57.091 M284.369 59.914 C 250.268 77.202,263.211 127.931,301.724 127.931 C 311.410 127.931,319.884 124.972,326.293 119.352 C 329.099 116.892,329.310 117.149,329.310 123.009 C 329.310 128.581,329.809 129.310,333.621 129.310 L 337.931 129.310 337.931 92.241 L 337.931 55.172 333.621 55.172 C 330.172 55.172,329.310 56.034,329.310 59.483 C 329.310 64.854,328.075 64.857,318.710 59.504 C 308.267 53.533,296.682 53.672,284.369 59.914 M353.448 92.241 L 353.448 129.310 358.448 129.310 L 363.447 129.310 364.102 107.328 C 364.979 77.895,370.928 68.043,389.894 64.615 C 395.236 63.650,396.132 62.838,395.929 59.154 C 395.636 53.848,384.570 54.470,374.598 60.353 C 366.744 64.988,363.793 64.750,363.793 59.483 C 363.793 55.843,362.989 55.172,358.621 55.172 L 353.448 55.172 353.448 92.241 M207.869 69.795 C 234.354 89.996,208.471 130.510,178.244 116.167 C 163.005 108.935,158.889 87.452,170.173 74.042 C 179.791 62.611,196.049 60.779,207.869 69.795 M316.939 68.452 C 345.308 89.464,318.634 132.566,287.938 115.314 C 268.244 104.245,270.305 74.498,291.380 65.636 C 297.732 62.965,311.592 64.493,316.939 68.452 " stroke="none" fill="#000000" fill-rule="evenodd"></path></g></svg>