<svg xmlns="http://www.w3.org/2000/svg" role="img" viewBox="-4.22 -4.22 219.18 48.18"><title>Confluent KSQL (Stream Processing) logo</title><path fill="#FF671D" d="M6 20c0 1.104-.672 2-1.5 2h-3C.672 22 0 21.104 0 20s.672-2 1.5-2h3c.828 0 1.5.896 1.5 2m15 0c0 1.104-.756 2-1.688 2h-8.625C9.756 22 9 21.104 9 20s.756-2 1.688-2h8.624c.932 0 1.688.896 1.688 2"/><path fill="#ABC8E7" d="M10 11c0 1.104-.672 2-1.5 2h-3c-.828 0-1.5-.896-1.5-2s.672-2 1.5-2h3c.828 0 1.5.896 1.5 2m15 0c0 1.104-.756 2-1.688 2h-8.625C13.756 13 13 12.104 13 11s.756-2 1.688-2h8.624C24.244 9 25 9.896 25 11M10 29c0 1.104-.672 2-1.5 2h-3c-.828 0-1.5-.896-1.5-2s.672-2 1.5-2h3c.828 0 1.5.896 1.5 2m15 0c0 1.104-.756 2-1.688 2h-8.625C13.756 31 13 30.104 13 29s.756-2 1.688-2h8.624c.932 0 1.688.896 1.688 2"/><path fill="#4197CB" d="M26 1.5c0 .825-.742 1.5-1.65 1.5h-7.7C15.743 3 15 2.325 15 1.5S15.742 0 16.65 0h7.7C25.257 0 26 .675 26 1.5m11 0c0 .825-.709 1.5-1.575 1.5h-3.85C30.709 3 30 2.325 30 1.5S30.709 0 31.575 0h3.85C36.291 0 37 .675 37 1.5m-11 37c0 .825-.742 1.5-1.65 1.5h-7.7c-.907 0-1.65-.675-1.65-1.5s.742-1.5 1.65-1.5h7.7c.907 0 1.65.675 1.65 1.5m11 0c0 .825-.709 1.5-1.575 1.5h-3.85C30.709 40 30 39.325 30 38.5s.709-1.5 1.575-1.5h3.85c.866 0 1.575.675 1.575 1.5"/><path fill="#FF671D" d="M61 13.571c-4.11 0-7.455 2.884-7.455 6.429 0 3.545 3.344 6.429 7.455 6.429 4.11 0 7.455-2.884 7.455-6.429 0-3.545-3.344-6.429-7.455-6.429M61 29c-5.514 0-10-4.037-10-9s4.486-9 10-9 10 4.037 10 9-4.486 9-10 9m-21.898 0C33.532 29 29 24.963 29 20s4.532-9 10.102-9c2.864 0 5.604 1.088 7.518 2.985a1.285 1.285 0 1 1-1.81 1.826c-1.436-1.423-3.517-2.24-5.708-2.24-4.153 0-7.53 2.884-7.53 6.429 0 3.545 3.377 6.429 7.53 6.429 2.191 0 4.271-.817 5.707-2.24a1.286 1.286 0 0 1 1.81 1.827C44.706 27.912 41.966 29 39.102 29m37.138 0c-.685 0-1.24-.563-1.24-1.257V11.98l1.124-.233c.346-.086 8.617-2.063 12.931.794 3.004 1.988 3.02 4.637 2.916 14.491l.016.546a1.243 1.243 0 0 1-1.242 1.243 1.245 1.245 0 0 1-1.222-1.27l.009-.546c.1-9.362-.115-11.163-1.923-12.36-2.48-1.642-7.648-1.15-10.128-.66v13.76c0 .693-.556 1.256-1.24 1.256M117.5 30c-.829 0-1.5-.568-1.5-1.268V6.268c0-.7.671-1.268 1.5-1.268s1.5.568 1.5 1.268v22.464c0 .7-.671 1.268-1.5 1.268m19.294-1c-2.393 0-4.962-.363-6.823-1.588-3.07-2.023-3.045-4.33-2.939-14.039l.012-1.09a1.29 1.29 0 0 1 1.3-1.283c.711.008 1.28.595 1.274 1.311l-.013 1.091c-.102 9.396-.194 10.662 1.59 11.837 2.582 1.7 7.29 1.188 10.232.68v-13.41c0-.717.575-1.298 1.286-1.298.71 0 1.287.581 1.287 1.298v15.483l-.801.24c-.212.05-3.043.768-6.405.768m40.446 0c-.685 0-1.24-.563-1.24-1.257V11.98l1.124-.233c.346-.086 8.617-2.063 12.931.794 3.004 1.988 3.02 4.637 2.916 14.491l.016.546a1.245 1.245 0 0 1-1.242 1.243 1.245 1.245 0 0 1-1.222-1.27l.009-.546c.1-9.362-.115-11.163-1.923-12.36-2.48-1.642-7.648-1.15-10.128-.66v13.76c0 .693-.555 1.256-1.24 1.256M162.463 29c-3.59 0-7.4-.607-9.855-2.702-1.73-1.475-2.608-3.493-2.608-6 0-3.1 1.152-5.606 3.33-7.245 3.066-2.307 7.56-2.433 10.654-1.536 5.475 1.588 6.156 6.756 5.752 9.268l-.176 1.094h-12.501a1.301 1.301 0 0 1 0-2.603h10.168c-.041-1.488-.616-4.287-3.967-5.259-2.392-.693-6.031-.64-8.367 1.117-1.521 1.145-2.292 2.882-2.292 5.164 0 1.733.553 3.048 1.693 4.019 3.428 2.924 11.072 2.066 14.199 1.56a1.301 1.301 0 1 1 .414 2.57c-1.735.281-4.04.553-6.444.553M109.966 1.934c-.181-.676-1.038-1.074-1.697-.889-.33.094-8.269 2.35-8.269 8.18V27.73c0 .701.554 1.27 1.237 1.27.682 0 1.236-.569 1.236-1.27V16.119c0-.892.386-1.547.798-1.947.478-.464 1.364-.667 2.46-.6.085.004.193.007.23.007.684 0 1.27-.569 1.27-1.27 0-.701-.533-1.27-1.215-1.27l-.237-.003c-1.23-.074-2.6.112-3.306.539v-2.35c0-3.887 6.36-5.704 6.452-5.73.658-.187 1.222-.885 1.04-1.561m99.789 24.478c-5.347 0-6.261-1.6-6.261-3.328v-7.025c0-.992.4-1.718.839-2.158.44-.443 1.224-.648 2.153-.618.054.002.14.003.168.003.684 0 1.255-.573 1.261-1.283.006-.71-.536-1.293-1.22-1.306l-.219-.001c-1.215-.047-2.27.213-2.982.566V8.294c0-.715-.558-1.294-1.247-1.294-.688 0-1.246.58-1.246 1.294v14.79C201 29 207.633 29 209.754 29c.688 0 1.246-.58 1.246-1.294 0-.715-.558-1.294-1.246-1.294"/></svg>