<svg xmlns="http://www.w3.org/2000/svg" role="img" viewBox="-10.43 -8.68 217.36 51.61"><title>Crunchy Data Crunchy Certified PostgreSQL with Crunchy PostgreSQL for Kubernetes (Relational Databases) logo</title><path fill="#066ab5" stroke-width="9.585" d="M-6.133-4.369h209.067v43.358H-6.133z"/><path fill="#FFF" d="M30.521 17.933c-.038-.11-.07-.21-.108-.307a27.174 27.174 0 0 0-.713-1.682c-.672-1.448-1.468-2.83-2.326-4.181-.122-.192-.237-.386-.361-.576-.395-.604-.872-1.138-1.346-1.675-.414-.469-.826-.94-1.175-1.463-.328-.491-.763-.914-1.176-1.343-.523-.545-1.144-.965-1.887-1.128-.075-.016-.151-.028-.226-.043.076.169.141.336.198.503.063.186.114.371.145.56.026.154.044.31.042.469a.76.76 0 0 1-.12.431.718.718 0 0 1-.359.269c-.209.077-.42.148-.696.244l-.416.206.164-.535-.224-.08c.178-.503.362-.983.843-1.295-.027.087-.074.172-.077.259-.002.107.033.214.052.321.096-.025.206-.028.286-.079.155-.1.249-.237.181-.446-.019-.058-.031-.12-.044-.183-.007-.035-.017-.072-.023-.109l-.042-.227c-.341.219-.667.415-.879.717a1.25 1.25 0 0 0-.17.343c-.012.037-.022.083-.049.106-.116.097-.238.187-.358.279-.068-.16-.211-.334-.185-.477.037-.204.197-.385.293-.555.281-.445 1.188-.684 1.387-.731-.604-.126-1.214-.235-1.826-.27-2.182-.124-4.275.118-6.054 1.586-.289.239-.682.375-1.047.495-.405.134-.561.418-.359.8a.833.833 0 0 0 .154.209c.175.174.412.25.667.28.274.033.551.03.83.042v.001c-.012.024-.015.047-.028.057-1.292.981-2.581 1.965-3.877 2.94a2.818 2.818 0 0 1-1.602.567h-.001c-.37.016-.742-.013-1.112-.011-.558.002-.788.198-.875.681.128.015.186.148.2.296.013.148-.019.31-.071.381-.123.167-.413.243-.659.255-.083.004-.16.001-.225-.008-.005-.02.008-.039.006-.059-.066.044-.133.086-.197.133-.139.102-.21.211-.215.318-.005.107.056.21.182.3a.886.886 0 0 0 .678.141.977.977 0 0 0 .594-.364l-.056.102.777-.545h-.001.001s-.18.39-.552.753a2.27 2.27 0 0 1-.54.395 1.884 1.884 0 0 1-.341.138 2.694 2.694 0 0 1-.465-.055c-.114-.023-.18-.046-.18-.046l-.058.178-.016.001.01.019c-.625 1.884-.807 3.233-.729 3.797.028.198.103.326.201.407.294.243.79.06.79.06a10.99 10.99 0 0 1 3.14-.416c.39.008.701.038.914.066.214.028.33.054.33.054.964.319 1.865.452 2.615.493 1.25.069 2.079-.115 2.079-.115s.126-.017.327-.058a6.598 6.598 0 0 0 1.4-.443c.207-.095.411-.207.595-.337.552-.391.93-.95.728-1.737-.049-.34-.286-.686-.576-1.006a5.667 5.667 0 0 0-.539-.525 8.918 8.918 0 0 0-.69-.522c-.186-.128-.308-.201-.308-.201.645-.046 1.32.2 1.857.613.241.185.447.407.618.648.211.297.363.625.416.969.064.411.031.838.033 1.257.002.469-.208.84-.593 1.085-.922.587-1.914 1.017-2.976 1.215-1.447.182-2.995-.062-4.535-.263s-3.072-.355-4.488.005a.283.283 0 0 0-.106.051c-.112.09-.112.258-.035.371.038.057.096.1.168.111a.287.287 0 0 0 .119-.006c.219-.057.442-.1.666-.133.047-.008.095-.01.142-.016a8.67 8.67 0 0 1 .538-.055c.033-.002.067-.001.101-.003.196-.011.394-.017.593-.016h.002c2.955.023 6.118 1.199 8.835-.059l-.001.001c.049-.023.099-.039.148-.063.326.022.651.04 1 .061-.178.172-.358.392-.583.547-.187.13-.426.188-.645.269-.142.054-.265.127-.193.297.115.27.122.519-.096.764.199-.026.384-.036.531-.116a35.18 35.18 0 0 0 1.75-1.004c.236-.146.492-.325.631-.554.387-.643.715-1.319 1.073-1.979.047-.086.118-.183.202-.218.177-.074.37-.111.571-.167.168.3.321.598.317.912 0 .013.005.024.004.037a.938.938 0 0 1-.084.336c-.217.471-.531.854-1.143.752-.01-.002-.02.002-.029.002-.213.011-.356.08-.422.32a.396.396 0 0 0 .002.252c.034.088.105.154.213.214.129.072.255.147.381.225.074.044.149.089.224.132.148.082.296.15.445.2.149.049.299.081.451.093.303.024.61-.033.922-.192 1.602-.814 2.965-1.9 3.822-3.512.105-.198.208-.399.303-.604.095-.204.182-.411.256-.623.147-.423.241-.861.239-1.32 0-.025-.005-.049-.006-.074-.012-.67-.134-1.339-.207-2.014.041.096.091.181.149.252.176.213.431.307.787.22l-.044.626c-.023.36-.068.72-.063 1.079.003.22.022.439.041.658.019.219.038.438.042.657.014 1.022-.123 2.023-.547 3.035l.138-.099.105-.075c-.105.312-.219.603-.298.901-.1.384-.159.755-.172 1.111l.001.018a3.372 3.372 0 0 0 .39 1.713c.209.393.498.765.898 1.108a19.398 19.398 0 0 0 2.885 2.051c.2.117.403.23.635.362-.153.061-.3.111-.44.163-.14.052-.275.105-.405.168-.992.478-2.016.904-2.96 1.465-.591.353-1.011.88-1.293 1.472a4.631 4.631 0 0 0-.236.608 5.196 5.196 0 0 0-.221 1.242c-.023.402.003.783.067 1.107.003.014.01.023.015.036a17.594 17.594 0 0 0 8.712-10.823c-.297-.354-.603-.7-.928-1.031-.935-.953-1.838-1.957-2.955-2.697a6.96 6.96 0 0 0-1.198-.641c.262-.08.53-.164.814-.253M8.658 13.896c-.034-.293.155-.42.38-.499.233-.081.453-.042.607.088a.566.566 0 0 1 .13.159c.017.029.022.063.035.094.126.303.083.66-.131.854-.098.088-.197.135-.301.133a.386.386 0 0 1-.161-.038.702.702 0 0 1-.171-.115l.28-.063c-.194-.123-.295-.27-.276-.465a.718.718 0 0 1 .061-.212 22.71 22.71 0 0 1-.237.034l-.216.03zm-.335-1.407l-.003.003-.007-.001.01-.002m1.601 3.334a2.97 2.97 0 0 1-.735-.017 1.92 1.92 0 0 1-.537-.165 1.463 1.463 0 0 1-.6-.531c-.145-.227-.177-.419-.177-.419l.013-.074c.147.23.369.416.646.543.16.073.334.131.534.154.188.022.373.03.555.021a2.398 2.398 0 0 0 1.533-.63c-.004.348.105.584.309.736-.611.228-1.119.344-1.541.382m1.017-2.851c-.205-.36-.516-.584-.887-.731a3.003 3.003 0 0 0-.577-.17c.175 0 .358-.021.536-.029.089-.004.177-.005.263.002.086.006.17.019.25.044a1.92 1.92 0 0 0 .843.073c.134-.019.266-.051.398-.094.131-.042.262-.096.393-.157.078-.036.158-.068.248-.106l-1.467 1.168m6.594-3.613s.008.903-.762.892c-.41-.051-.612-.395-.574-.6-.155.08-.399.231-.68.493 0 0 .834-1.631 2.447-.861 0 0-.232.023-.431.076"/><path fill="#FFF" d="M7.694 27.514c.085.864.283 1.696.551 2.509.069.212.143.423.223.632.069.184.136.368.212.551.081.192.17.384.256.575.225.499.458.995.686 1.493l.093-.029.052-.162c.484-1.462.925-2.941 1.475-4.378.049-.131.081-.25.096-.361a.852.852 0 0 0-.12-.582 1.187 1.187 0 0 0-.211-.246 1.183 1.183 0 0 0-.348-.206c-.129-.054-.266-.099-.393-.151a.692.692 0 0 0-.186-.034c-.058-.005-.121-.008-.192-.017h-.001a2.636 2.636 0 0 1 1.379-.318c.153.005.307.021.461.047.203.034.291-.006.376-.192.458-1.003.931-2 1.398-2.999.048-.102.09-.208.172-.399-.458-.026-.901-.064-1.338-.096-.047-.004-.096-.005-.143-.009-.455-.03-.903-.052-1.349-.04-.809.023-1.106.054-1.417.321a3.682 3.682 0 0 0-.414.447l-.275.335c-.599.729-.955 1.52-1.044 2.399a4.69 4.69 0 0 0 .001.91m5.283-.891c-.073.301.074.424.54.619l5.343 1.423c.955.251 1.916.471 2.911.482.5.007.96-.055 1.369-.201a2.56 2.56 0 0 0 .745-.416c.335-.272.61-.644.813-1.135a.432.432 0 0 1 .026-.053c.833-1.439 1.014-3.038 1.115-4.654.019-.296.057-.569.232-.828.109-.16.138-.375.224-.629l-.088.062a.117.117 0 0 0-.036.03c-.517.729-1.233 1.147-2.089 1.359a.957.957 0 0 0-.343.2c-.673.548-1.316 1.136-2.016 1.648-.426.312-.868.552-1.323.732s-.922.301-1.398.376-.962.104-1.453.101l-.028-.001a14.094 14.094 0 0 1-1.397-.091l-.063-.006-.043-.006a4.59 4.59 0 0 1-.58-.1c-.303-.075-.586-.19-.831-.376s-.45-.442-.595-.8c-.311.658-.605 1.273-.893 1.893-.069.151-.118.27-.142.371m-.081 2.35a2.43 2.43 0 0 0-.558.383 2.955 2.955 0 0 0-.47.549 6.424 6.424 0 0 0-.711 1.34 22.755 22.755 0 0 0-.762 2.486 17.49 17.49 0 0 0 7.478 1.688c2.095 0 4.096-.386 5.959-1.059-.495-1.726-1.529-3.005-3.173-3.861a15.828 15.828 0 0 0-3.104-1.217 16.857 16.857 0 0 0-3.284-.553c-.515-.036-.974.047-1.375.244"/><path fill="none" d="M8.514 32.701a18.828 18.828 0 0 1-.854-2.009 15.006 15.006 0 0 1-.619-2.313"/><path fill="none" stroke="#FFF" stroke-miterlimit="8" stroke-width=".6" d="M34.788 22.557c.24-1.162.659-3.479.659-4.712a17.49 17.49 0 0 0-2.978-9.786 17.742 17.742 0 0 0-2.14-2.591A17.559 17.559 0 0 0 17.873.3C12.407.3 7.514 2.802 4.279 6.72c-.355.428-.688.876-1.001 1.338A17.478 17.478 0 0 0 .3 17.845c0 5.983 4.719 12.18 9.288 15.353"/><path fill="none" d="M7.041 28.378a7.848 7.848 0 0 1-.124-1.12 6.362 6.362 0 0 1 .06-1.126c.072-.499.241-.947.468-1.368.228-.42.514-.81.822-1.188l.204-.249c.005-.006.004-.019.013-.058-.794-.103-1.368-.486-1.671-1.222-.13-.314-.361-.448-.633-.515a2.51 2.51 0 0 0-.284-.048c-.165-.02-.333-.012-.497-.037-.312-.049-.526-.217-.613-.477a.944.944 0 0 1-.043-.29c.001-.154-.009-.258-.196-.287a1.648 1.648 0 0 1-.706-.279 1.311 1.311 0 0 1-.242-.227 1.447 1.447 0 0 1-.205-.35 1.948 1.948 0 0 1-.148-.846v-.008c.005-.107.017-.214.036-.316.117-.651.289-1.293.426-1.94.116-.543.215-1.09.324-1.634.12-.595.505-1.007.976-1.341.129-.091.23-.192.307-.309.077-.116.13-.248.163-.399.116-.532.396-.831.833-.903.146-.023.31-.022.491.005.135.021.268.053.404.068.16.019.318.028.473.024a2.261 2.261 0 0 0 1.31-.428c.585-.424 1.184-.83 1.766-1.258.074-.054.117-.195.119-.297.009-.419-.019-.84-.004-1.26.009-.246.047-.469.114-.67.201-.603.662-1.002 1.374-1.181.501-.126.911-.393 1.278-.737a.347.347 0 0 0 .075-.12c.018-.046.026-.092.012-.117a1.374 1.374 0 0 1-.181-.729c.007-.155.041-.306.094-.453.08-.222.205-.438.347-.651.043-.065.089-.128.157-.223.103.111.212.217.318.325.32.321.624.651.726 1.156.587-.126 1.187-.246 1.783-.383.441-.102.88-.169 1.317-.204 1.313-.104 2.61.083 3.887.491.359.114.691.28 1.005.473.264.162.518.34.749.55.168.153.327.318.476.494.281.331.561.662.839.995.555.667 1.1 1.34 1.625 2.027.262.344.519.691.77 1.043.501.703.976 1.424 1.414 2.171.439.746.84 1.518 1.193 2.322.4.911.763 1.839 1.154 2.755.062.144.162.289.281.389a29.346 29.346 0 0 1 3.339 3.254"/><path fill="#FFF" d="M53.103 15.303h-3.574c-.321-.987-1.201-1.627-2.481-1.627-1.948 0-3.122 1.521-3.122 3.761 0 2.107 1.174 3.788 3.228 3.788 1.387 0 2.188-.826 2.534-1.76h3.655c-.72 2.614-2.668 4.828-6.242 4.828-3.788 0-6.829-2.694-6.829-6.883 0-3.734 2.587-6.775 6.802-6.775 3.655 0 5.629 2.533 6.029 4.668m11.173-1.148a9.27 9.27 0 0 0-1.707-.16c-2.134 0-3.201 1.334-3.201 3.628v6.216h-3.602V11.062h3.521v1.974h.081c.693-1.254 2.027-2.348 3.734-2.348.507 0 .827.027 1.174.107v3.36zm13.844 9.684h-3.575v-1.602h-.08c-1.04 1.521-2.347 2.028-3.735 2.028-2.08 0-4.641-1.281-4.641-5.629V11.06h3.601v7.123c0 1.867.881 2.881 2.267 2.881 1.574 0 2.561-1.094 2.561-3.228V11.06h3.602v12.779zm3.303-12.777h3.548v1.6h.106c.881-1.413 2.322-2 3.789-2 2.881 0 4.882 1.92 4.882 5.842v7.336h-3.602v-7.096c0-1.921-.907-2.908-2.401-2.908-1.574 0-2.721 1.121-2.721 3.255v6.749h-3.601V11.062zm27.474 4.241h-3.575c-.32-.987-1.2-1.627-2.481-1.627-1.946 0-3.121 1.521-3.121 3.761 0 2.107 1.175 3.788 3.229 3.788 1.387 0 2.188-.826 2.534-1.76h3.653c-.72 2.614-2.667 4.828-6.241 4.828-3.788 0-6.83-2.694-6.83-6.883 0-3.734 2.588-6.775 6.803-6.775 3.655 0 5.629 2.533 6.029 4.668m2.663-10.671h3.603v8.03h.106c.88-1.414 2.32-2.001 3.761-2.001 2.854 0 4.855 1.894 4.855 5.842v7.336h-3.602v-7.123c0-1.893-.906-2.88-2.401-2.88-1.573 0-2.72 1.093-2.72 3.254v6.749h-3.603V4.632zm19.177 25.476h-3.415l2.348-6.375-4.642-12.672h3.735l1.841 5.549c.293.933.666 2.107.854 3.147h.106c.241-1.227.48-2.027.828-3.147l1.787-5.549h3.547l-6.989 19.047zm23.966-6.269h-2.108v-1.708h-.053c-.934 1.121-2.508 2.161-4.775 2.161-3.468 0-6.456-2.694-6.456-6.856 0-3.868 2.747-6.802 6.456-6.802 2.401 0 3.682.96 4.775 2.241h.053V4.632h2.108v19.207zm-6.564-1.414c2.481 0 4.643-2.001 4.643-4.908 0-3.041-2.027-5.042-4.588-5.042-3.122 0-4.695 2.481-4.695 4.961 0 2.455 1.573 4.989 4.64 4.989m22.751 1.414h-2.108v-1.708h-.052a6.002 6.002 0 0 1-4.669 2.161c-3.467 0-6.563-2.694-6.563-6.856 0-3.947 2.882-6.802 6.697-6.802 2.32 0 3.681 1.227 4.561 2.268h.026v-1.841h2.108v12.778zm-6.535-1.414c2.4 0 4.615-2.028 4.615-4.908 0-3.041-2.055-5.042-4.562-5.042-3.201 0-4.722 2.507-4.722 4.961 0 2.455 1.521 4.989 4.669 4.989m8.825-11.363h1.682V6.979h2.107v4.082h3.414v1.761h-3.414v6.75c0 2.079.64 2.641 2 2.641.533 0 1.068-.08 1.547-.214v1.733c-.56.188-1.227.268-1.974.268-3.094 0-3.681-2.081-3.681-4.508v-6.669h-1.682v-1.761zm22.167 12.777h-2.108v-1.708h-.052a6.002 6.002 0 0 1-4.669 2.161c-3.468 0-6.563-2.694-6.563-6.856 0-3.947 2.882-6.802 6.697-6.802 2.32 0 3.681 1.227 4.561 2.268h.026v-1.841h2.108v12.778zm-6.535-1.414c2.4 0 4.614-2.028 4.614-4.908 0-3.041-2.054-5.042-4.562-5.042-3.201 0-4.722 2.507-4.722 4.961.001 2.455 1.522 4.989 4.67 4.989"/></svg>