<svg xmlns="http://www.w3.org/2000/svg" role="img" viewBox="-5.42 -10.42 619.84 213.34"><title>Dremio (Analytics Engine) logo</title><g fill="none" fill-rule="evenodd"><path d="M522.22 57.966c0 3.433-1.182 6.183-3.542 8.144-2.31 2.012-5.081 2.992-8.263 2.992-3.178 0-5.95-.98-8.261-2.992-2.363-1.961-3.54-4.71-3.54-8.144 0-3.483 1.177-6.181 3.54-8.193 2.31-1.963 5.083-2.943 8.261-2.943 3.182 0 5.952.98 8.263 2.943 2.36 2.012 3.543 4.71 3.543 8.193" fill="#393C42"/><path fill="#393C42" d="M500.616 78.475h19.756v66.628h-19.756z"/><path d="M301.95 93.979c-1.794-.443-3.95-.883-6.361-1.375-2.465-.49-5.083-.685-7.904-.685-1.232 0-2.77.097-4.517.293-1.795.244-3.128.442-4.003.736v52.154h-20.219V80.487c3.592-1.227 7.902-2.355 12.828-3.435 4.928-1.08 10.42-1.618 16.474-1.618 1.08 0 2.413.048 3.953.196 1.541.097 3.079.293 4.617.489 1.542.245 3.08.492 4.618.785 1.54.295 2.824.686 3.902 1.128L301.95 93.98" fill="#393C42"/><path d="M582.315 110.856c0-5.985-1.233-10.696-3.696-14.081-2.516-3.434-6.056-5.151-10.673-5.151-4.62 0-8.16 1.717-10.73 5.15-2.512 3.386-3.794 8.097-3.794 14.082 0 5.936 1.282 10.695 3.794 14.177 2.57 3.536 6.11 5.251 10.73 5.251 4.617 0 8.157-1.715 10.673-5.25 2.463-3.483 3.696-8.242 3.696-14.178m20.683 0c0 5.35-.824 10.253-2.463 14.719-1.644 4.465-4.007 8.244-7.087 11.432-3.076 3.138-6.72 5.593-11.03 7.31-4.312 1.718-9.136 2.6-14.472 2.6-5.236 0-10.01-.882-14.319-2.6-4.312-1.717-8.008-4.172-11.033-7.31-3.08-3.188-5.494-6.967-7.238-11.432-1.69-4.466-2.565-9.37-2.565-14.719 0-5.396.875-10.256 2.67-14.67 1.746-4.415 4.209-8.193 7.337-11.283 3.08-3.14 6.826-5.546 11.085-7.263 4.31-1.765 8.979-2.6 14.063-2.6 5.184 0 9.904.835 14.213 2.6 4.259 1.717 7.956 4.123 11.035 7.263 3.078 3.09 5.49 6.868 7.185 11.284 1.744 4.413 2.619 9.273 2.619 14.669" fill="#393C42"/><path d="M356.905 104.083c-.05-1.618-.363-3.236-.873-4.806-.512-1.52-1.286-2.943-2.31-4.12-1.024-1.228-2.36-2.208-3.952-2.994-1.54-.785-3.542-1.177-5.902-1.177-2.258 0-4.21.392-5.798 1.128-1.644.737-2.976 1.668-4.106 2.895-1.078 1.225-1.899 2.6-2.515 4.22a33.81 33.81 0 0 0-1.28 4.854h26.736zm-47.473 7.411c0-6.085.977-11.383 2.928-15.897 1.896-4.563 4.461-8.339 7.642-11.334a32.464 32.464 0 0 1 10.936-6.916c4.107-1.52 8.362-2.308 12.675-2.308 10.159 0 18.168 2.946 24.017 8.882 5.903 5.937 8.827 14.621 8.827 26.15 0 1.127-.052 2.356-.103 3.68a162.122 162.122 0 0 1-.308 3.58H330.17c.46 3.976 2.412 7.114 5.847 9.47 3.44 2.354 8.057 3.482 13.858 3.482 3.694 0 7.335-.293 10.928-.93 3.544-.687 6.467-1.472 8.724-2.406l2.722 15.702c-1.078.49-2.514 1.03-4.31 1.521-1.85.537-3.849.98-6.056 1.372a92.112 92.112 0 0 1-7.136.983 78.678 78.678 0 0 1-7.593.392c-6.413 0-12.007-.932-16.781-2.747-4.72-1.817-8.675-4.27-11.802-7.457-3.13-3.142-5.44-6.87-6.929-11.186-1.49-4.368-2.21-9.028-2.21-14.033z" fill="#393C42"/><path d="M426.902 108.891c0-6.229-.819-10.644-2.515-13.245-1.695-2.6-4.568-3.875-8.619-3.875-1.285 0-2.565.05-3.954.195-1.336.097-2.668.295-3.902.443v52.693h-20.268v-65.94c1.746-.443 3.748-.883 6.055-1.373 2.31-.442 4.775-.884 7.34-1.278 2.564-.392 5.233-.685 7.955-.882a89.405 89.405 0 0 1 8.004-.343c5.134 0 9.341.636 12.522 1.864 3.232 1.276 5.904 2.747 7.952 4.513 2.93-2.01 6.212-3.58 10.01-4.709 3.745-1.128 7.186-1.668 10.365-1.668 5.697 0 10.368.736 14.061 2.256 3.646 1.52 6.571 3.68 8.726 6.428 2.205 2.796 3.697 6.084 4.516 9.861.77 3.828 1.18 8.046 1.18 12.706v38.565h-20.22v-36.21c0-6.23-.819-10.645-2.513-13.246-1.644-2.6-4.518-3.875-8.624-3.875-1.078 0-2.566.246-4.516.784-1.948.491-3.542 1.128-4.822 1.914a31.93 31.93 0 0 1 1.23 6.33c.152 2.206.258 4.562.258 7.064v37.24h-20.222V108.89" fill="#393C42"/><path d="M223.896 129.646c-1.027.197-2.259.344-3.797.443-1.542.146-3.234.194-5.031.194-5.541 0-9.699-1.814-12.52-5.444-2.77-3.632-4.21-8.44-4.21-14.376 0-12.461 4.825-18.692 14.422-18.692 2.05 0 4.105.246 6.156.786 2.055.489 3.699 1.174 4.98 1.912v35.177zm0-77.585v26.316a46.922 46.922 0 0 0-6.724-2.208c-2.207-.49-4.72-.735-7.543-.735-5.081 0-9.598.783-13.497 2.453a26.614 26.614 0 0 0-10.008 7.114c-2.719 3.14-4.77 6.917-6.21 11.381-1.435 4.465-2.206 9.419-2.206 14.964 0 5.445.873 10.353 2.513 14.717 1.695 4.368 4.107 8.098 7.29 11.188 3.181 3.043 7.029 5.448 11.649 7.066 4.617 1.668 9.852 2.453 15.755 2.453a107 107 0 0 0 7.7-.293c2.666-.247 5.284-.492 7.849-.884 2.565-.346 5.028-.738 7.39-1.228 2.362-.442 4.415-.931 6.26-1.472V46.83l-20.218 5.23z" fill="#393C42"/><path d="M51.002 122.63c-5.924 2.687-17.453 8.7-16.36 15.218 1.504 4.006 6.199-.228 7.93-1.914 3.737-3.51 6.698-8.384 8.43-13.304m35.36-14.397c-3.919 10.25-15.356 15.127-18.545 13.396-1.596-.867.136-4.101.18-6.333-2.323.91-6.151 2.596-8.475 3.553 5.56 4.145 8.43 11.299 8.385 18.088 0 6.97-2.87 13.393-8.248 17.813 9.57 14.167 4.696 26.376-8.474 35.899l-.822.547-.273-.956c-1.957-6.743-4.42-12.438-9.068-17.815-2.324-2.687-4.968-5.148-7.564-7.608-3.417-3.235-6.697-6.513-9.797-10.021-13.032-13.851-18.183-37.86-16.495-56.403.864-9.567 3.783-18.724 8.247-27.199 3.554-6.742 8.065-12.938 13.26-18.494 11.484-12.303 26.704-22.008 42.88-26.791 14.217-4.235 30.484-4.965 44.02 2.005 2.186 1.139 5.468 3.143 7.29 4.647 1.142 1.047 2.278 2.141 3.372 3.19a1.4 1.4 0 0 1 .366.362l63.294-32.3c5.239-2.596 9.158-2.596 10.754-.727 1.868 2.186-.728 6.74-4.42 9.43l-54.227 39.362c.956 3.143-.639 7.699-3.01 10.387 7.249 2.505.867 13.12-2.322 16.903-9.068 10.752-25.7 19.18-40.51 25.33-3.965 1.686-6.242 2.416-9.798 3.735" fill="#393C42"/><path d="M135.987 71.104c4.056-5.103 1.23-8.064-1.595-5.193-5.56 5.693-13.99 7.652-21.599 6.422-11.121-1.868-11.618-3.553-9.752-5.194 13.124 4.785 28.388-1.456 34.722-11.8 2.734-3.916-6.424-7.06-11.846-14.395C99.987 5.954 18.831 36.48 11.084 97.665c-2.37 18.404 2.779 38.768 15.45 53.119 9.475 10.753 19.774 15.219 25.606 32.121 11.348-9.75 9.57-20.774 1.279-30.433 14.169-7.381 12.118-26.563 2.14-32.393-4.647 17.084-21.327 29.704-25.2 17.585-2.506-12.347 17.818-20.545 50.398-32.892 27.25-10.207 44.84-18.635 55.23-33.668" fill="#55BFCE"/><path d="M135.987 71.104c4.056-5.103 1.23-8.064-1.595-5.193-4.783 4.92-11.984 7.062-18.547 6.742-11.21-.82-20.141-3.006-28.342-2.142-16.134 1.64-31.854 11.845-40.283 20.456-14.217 14.58-29.893 44.829-14.08 50.708-1.185-.731-2.143-2.051-2.781-4.011-2.506-12.347 17.818-20.545 50.398-32.892 27.25-10.207 44.84-18.635 55.23-33.668" fill="#FFF"/><path d="M66.22 94.976c8.385 4.1 6.7 18.496 5.47 22.097 15.902-4.512 11.163-28.064 18.547-35.264-9.252-.273-26.569 9.02-24.017 13.167" fill="#55BFCE"/><path d="M93.107 52.333c2.278-1.184 5.06-.364 6.29 1.915 1.184 2.232.317 5.01-1.916 6.24-2.232 1.185-5.056.364-6.243-1.912-1.23-2.234-.364-5.012 1.87-6.243" fill="#393C42"/><path d="M131.703 54.292L195.5 9.872c1.776-1.274 4.148-4.01 3.19-5.33-.955-1.32-3.736-.592-6.106.456L123.59 42.264c-2.23 4.647 2.28 14.443 8.113 12.028" fill="#55BFCE"/><path d="M126.099 45.5l66.666-39.226c2.916-1.732 4.056-1.686 5.831-1.869-1.001-1.137-3.736-.455-6.013.592L123.59 42.264c-1.684 3.508.502 10.024 4.193 11.892-1.321-2.87-2.187-5.878-1.685-8.656" fill="#FFF"/><path d="M27.898 62.948c2.187-.364 3.875 1.14 3.828 3.373 0 2.231-1.776 4.328-3.962 4.692-2.143.363-3.831-1.14-3.783-3.326 0-2.232 1.775-4.328 3.917-4.739" fill="#25ABAD"/><path d="M40.84 48.688c1.915-.319 3.418 1.003 3.371 2.963-.045 2.005-1.595 3.825-3.508 4.19-1.913.32-3.419-1.002-3.372-2.961.045-1.959 1.595-3.828 3.51-4.192" fill="#25ABAD"/><path d="M79.984 29.828c1.96.09 3.144 1.73 2.642 3.644-.456 1.915-2.414 3.372-4.328 3.28-1.917-.09-3.1-1.732-2.644-3.644.455-1.915 2.415-3.372 4.33-3.28" fill="#25ABAD"/><path d="M91.968 27.869c1.594.364 2.368 1.82 1.732 3.37-.639 1.503-2.462 2.462-4.01 2.142-1.594-.364-2.372-1.823-1.733-3.371.637-1.503 2.46-2.461 4.01-2.141" fill="#25ABAD"/><path d="M40.977 57.617c1.411-.228 2.552.775 2.506 2.234 0 1.457-1.186 2.824-2.598 3.053-1.412.273-2.505-.73-2.505-2.188.045-1.457 1.184-2.825 2.597-3.099" fill="#25ABAD"/><path d="M20.79 74.383c1.458-.272 2.644.774 2.598 2.28 0 1.548-1.23 2.96-2.69 3.233-1.503.228-2.643-.775-2.643-2.277.048-1.55 1.23-3.007 2.735-3.236" fill="#25ABAD"/><path d="M140.088 33.38l-2.96 1.595c.226 4.328 3.78 9.568 6.331 10.434-2.004-3.052-3.825-8.34-3.37-12.028m15.902-8.61l-2.596 1.412c.319 3.872 3.508 8.519 5.103 8.792-1.23-1.866-2.826-7.06-2.507-10.204m15.721-8.52l-2.005 1.094c-.045 2.55 1.824 6.377 3.917 6.925-1-1.595-2.232-4.876-1.912-8.019m15.13-8.154l-1.734.956c.14 1.686 2.098 4.829 3.191 5.33-.41-1.23-1.64-3.734-1.457-6.286" fill="#25ABAD"/></g></svg>