<svg xmlns="http://www.w3.org/2000/svg" role="img" viewBox="-3.15 -3.15 163.80 144.30"><title>UIPath RPA Platform (Model Serving) logo</title><path fill="none" stroke="#000" stroke-width="5" d="M2.5 2.5h152.702v133.048H2.5z"/><path d="M58.573 43.212h3.744l9.112 15.578V43.212h2.698v18.621h-3.744L61.27 46.255v15.578h-2.697zm29.429 1.708q-3.028 0-4.818 2.046-1.775 2.045-1.775 5.575 0 3.517 1.775 5.563 1.79 2.045 4.818 2.045 3.029 0 4.79-2.045 1.776-2.046 1.776-5.563 0-3.53-1.776-5.575-1.761-2.046-4.79-2.046zm0-2.045q4.322 0 6.91 2.632Q97.5 48.126 97.5 52.54q0 4.403-2.588 7.035-2.588 2.619-6.91 2.619-4.336 0-6.937-2.62-2.588-2.619-2.588-7.034 0-4.415 2.588-7.034 2.601-2.632 6.937-2.632zM34.649 75.142h2.78v18.621h-2.78zm8.314 0h4.143l5.245 12.672 5.272-12.672h4.143v18.621h-2.712V77.412l-5.3 12.772H50.96l-5.3-12.772v16.351h-2.697zm31.205 2.482l-3.771 9.267h7.557zM72.6 75.142h3.152l7.833 18.621h-2.891l-1.872-4.777h-9.264l-1.872 4.777h-2.932zm27.488 15.964v-5.001h-4.543v-2.07h7.296v7.994q-1.61 1.036-3.551 1.572-1.941.524-4.144.524-4.817 0-7.543-2.545-2.712-2.556-2.712-7.109 0-4.565 2.712-7.11 2.726-2.556 7.543-2.556 2.01 0 3.813.449 1.817.449 3.345 1.322v2.681q-1.542-1.184-3.276-1.783-1.734-.599-3.648-.599-3.771 0-5.67 1.909-1.887 1.908-1.887 5.687 0 3.767 1.886 5.675 1.9 1.908 5.671 1.908 1.473 0 2.63-.224 1.156-.237 2.078-.724zm7.846-15.964h12.994v2.12h-10.213v5.513h9.787v2.12h-9.787v6.748h10.461v2.12h-13.242z" style="text-align:center" stroke-width=".671" text-anchor="middle"/></svg>