<svg xmlns="http://www.w3.org/2000/svg" role="img" viewBox="30.14 59.64 421.72 261.22"><title>Zepl (Dashboards and Charts) logo</title><path fill="#3071a9" d="M335.362 67.924c-37.8-.147-79.7 11.665-102.282 25.593-8.44 5.207-17.101 11.036-25.78 17.188 0 0-78.322 60.306-102.657 90.656a95.668 95.668 0 0 0-8.813 13.063c-.174.33-.36.666-.53 1-.243.444-.485.895-.72 1.343-.055.113-.1.231-.156.344-3.845 7.86-6.775 16.372-8.219 24.969-.012.072-.019.146-.03.219a78.74 78.74 0 0 0-.126.906c-1.308 9.968-.77 20.605 3.313 29.625 4.962 10.964 13.221 19.148 25.187 25.875 11.54 6.487 32.656 12 32.656 12l-.343.156c17.6 3.122 35.83 2.073 53.625.344a935.536 935.536 0 0 0 26.187-2.906h.344c-.576-2.931-1.505-8.543-.375-8.844 11.962-3.183 19.084-5.104 28.406-8.344 8.914-3.098 15.437-5.921 22.656-9.906 1.804-.996 3.232-2.656 5.125-3.469 5.977-2.568 12.632-3.17 19.063-4.156 5.137-.788 10.334-1.305 15.531-1.406 3.37-.067 6.784-.14 10.094.5 2.535.49 5.1 1.2 7.312 2.53 1.48.891 2.853 2.096 3.813 3.532.512 1.091.936 2.24 1.344 3.375 18.898-7.081 38.095-15.62 52.687-29.469 21.585-20.485 38.735-47.258 47.219-75.781 4.609-15.495 5.41-32.907 1.031-48.469-2.707-9.62-6.88-15.812-16.187-25.25-19.042-19.305-46.781-31.244-73.72-34.343-4.986-.574-10.256-.855-15.655-.875zm-128.063 42.78a641.237 641.237 0 0 0-11.594 8.407l11.594-8.406zm81.531 18.22c12.246-.037 19.032 1.843 19.032 1.843s-20.147 1.88-31.344 3.875c-8.869 1.58-23.134 4.327-34.25 8.094-21.675 7.345-42.294 17.615-62.656 28.063-15.651 8.03-30.648 17.306-45.625 26.53-10.237 6.305-30.22 19.688-30.22 19.688s17.03-22.004 62.313-47.437c12.948-7.272 26.163-14.094 39.72-20.156 10.592-4.738 21.333-9.253 32.437-12.625 8.436-2.563 17.14-4.337 25.843-5.75 6.34-1.03 13.081-1.679 19.157-1.97 1.967-.093 3.844-.15 5.593-.155zm-155.343 21c-4.011.023-7.45 4.73-9.563 8.28-2.707 4.55-3.91 12.357-4.469 18.595 8.691-7.434 17.364-14.348 23.375-19.032-2.322-3.901-5.232-7.275-8.53-7.781a5.167 5.167 0 0 0-.813-.062zm175.093 19.875s-37.81 14.347-56.593 21.843c-21.639 8.635-43.209 17.486-64.625 26.657a1897.813 1897.813 0 0 0-44.688 19.843c-13.617 6.25-40.625 19.25-40.625 19.25s22.999-18.854 65.656-37.5c24.894-10.88 41.68-20.414 68.47-29.156 12.508-4.082 24.853-8.679 37.5-12.312 11.516-3.31 34.905-8.625 34.905-8.625zm13.125 38.375s-5.307 6.32-17.156 14.156c-5.924 3.918-11.119 8.026-16.937 11.625-7.531 4.658-15.261 8.991-23.22 12.875-9.863 4.814-20.105 8.838-30.312 12.875-10.005 3.957-20.068 7.806-30.312 11.094-12.64 4.056-25.403 7.808-38.375 10.625-9.413 2.043-28.531 4.53-28.531 4.53s23.59-7.991 35.343-12.124c12.41-4.364 24.177-8.482 37.125-13.375 13.386-5.058 22.957-8.743 34.344-13.344 9.311-3.762 18.686-7.398 27.781-11.656 6.956-3.257 13.707-6.951 20.47-10.594 10.019-5.398 29.78-16.687 29.78-16.687zm27.47 24.78s-.317 3.92-10.282 14.126c-4.023 4.12-11.112 9.437-15.625 12.219-17.492 10.779-26.813 13.53-26.813 13.53s17.269-11.294 25.625-17.343c4.921-3.562 9.773-7.265 14.438-11.156 4.356-3.634 12.656-11.375 12.656-11.375zM80.892 270.3c-5.875 2.642-12.955 5.921-17.594 8.406-8.602 4.607-25.527 12.665-24.969 15.281.854 3.998 20.016-3.735 30-5.719a1366.89 1366.89 0 0 0 19-3.937c-2.554-4.467-4.774-9.17-6.437-14.031zm234.219 6.406c-2.544.016-5.262.165-8.563.531-10.11 1.121-12.848 2.025-20.937 4.656-2.883.938-4.583 2.445-6.844 3.688-4.063 2.233-7.89 4.928-12.125 6.812-6.087 2.708-12.562 4.444-18.938 6.375-5.257 1.593-5.984 1.904-15.906 4.282-1.722.412-.102 3.226 1.438 5.375 23.539.477 94.737 1.615 95.687-2.344l5.25-21.813c.468-.167.939-.33 1.406-.5-.197-.75-.452-1.5-.75-2-.868-1.458-2.134-2.78-3.656-3.531-2.557-1.26-5.592-1.061-8.437-1.25-2.689-.178-5.082-.297-7.625-.281zm12.875 5.875c2.821.047 5.108.476 5.093 1.875-.032 3.01-6.501 2.863-9.468 3.156-19.137 1.892-25.849 1.57-38.782 1.625-2.484.01-7.437-.25-7.437-.25s12.427-2.95 23.469-4.281c6.42-.775 12.681-1.575 18.843-1.781 2.114-.071 5.46-.391 8.282-.344zm-14.657 12c2.3-.044 4.603.028 6.875.344 1.797.25 3.824.34 5.22 1.5.622.517 1.344 1.626 1.093 2.156-.51 1.076-2.434 1.127-6.531 1.406-4.913.335-9.704.73-14.563.875-12.047.36-36.156-.062-36.156-.062s7.519-1.998 11.344-2.688c8.531-1.54 17.159-2.659 25.812-3.187 2.29-.14 4.606-.3 6.906-.344z"/></svg>