<svg xmlns="http://www.w3.org/2000/svg" role="img" viewBox="-2.02 -2.02 104.91 52.91"><title>OmniSciDB (Analytics Database/Data Warehouse) logo</title><path d="M47.875 17V7.906c0-.462-.031-.906-.094-1.334a3.32 3.32 0 0 0-.343-1.104 2.044 2.044 0 0 0-.672-.74c-.282-.187-.652-.28-1.11-.28-.437 0-.817.098-1.14.296a2.588 2.588 0 0 0-.813.79 3.55 3.55 0 0 0-.484 1.136 5.616 5.616 0 0 0-.157 1.334V17h-5.124V7.51c0-.944-.178-1.69-.532-2.24-.354-.548-.917-.823-1.687-.823-.813 0-1.443.34-1.89 1.021-.45.681-.673 1.515-.673 2.503V17H28V.461h4.969v2.273h.062c.188-.35.422-.691.703-1.021.281-.33.62-.62 1.016-.873A5.359 5.359 0 0 1 37.687 0c1.125 0 2.079.242 2.86.725.781.483 1.39 1.175 1.828 2.075a6.082 6.082 0 0 1 2-2.042C45.188.253 46.177 0 47.344 0c1.062 0 1.953.203 2.672.61a5.066 5.066 0 0 1 1.734 1.58c.437.648.755 1.373.953 2.174.198.802.297 1.587.297 2.356V17h-5.125m28.759-.004V7.904c0-.462-.038-.9-.114-1.318a3.685 3.685 0 0 0-.374-1.103 1.96 1.96 0 0 0-.731-.757c-.315-.186-.711-.28-1.187-.28-.478 0-.895.094-1.252.28a2.54 2.54 0 0 0-.895.773 3.51 3.51 0 0 0-.536 1.137 4.94 4.94 0 0 0-.18 1.333V17H66V.461h5.17v2.272h.066A5.42 5.42 0 0 1 72 1.696c.314-.34.683-.63 1.106-.873A6.87 6.87 0 0 1 74.488.23 5.396 5.396 0 0 1 76.08 0c1.084 0 2.005.198 2.764.593.76.395 1.371.905 1.838 1.531a6.072 6.072 0 0 1 1.008 2.157c.206.813.309 1.625.309 2.437v10.278h-5.366M95 17h5V1h-5zM53.11 37.228a5.886 5.886 0 0 0-1.509-1.026 4.175 4.175 0 0 0-1.83-.417c-.493 0-.947.096-1.365.289-.418.192-.626.524-.626.994 0 .45.23.77.69.962.46.193 1.204.407 2.232.642.599.128 1.204.31 1.814.545.61.236 1.16.545 1.653.93a4.46 4.46 0 0 1 1.189 1.412c.3.556.45 1.218.45 1.988 0 1.006-.205 1.856-.61 2.55a4.999 4.999 0 0 1-1.59 1.684 6.853 6.853 0 0 1-2.2.93c-.814.193-1.627.289-2.44.289-1.306 0-2.585-.209-3.837-.625-1.252-.417-2.296-1.032-3.131-1.845l2.954-3.11c.47.512 1.049.94 1.734 1.282a4.817 4.817 0 0 0 2.183.513c.429 0 .852-.1 1.269-.304.417-.203.626-.562.626-1.075 0-.492-.257-.855-.77-1.09-.514-.235-1.317-.482-2.409-.738-.557-.128-1.113-.3-1.67-.514a5.277 5.277 0 0 1-1.493-.866 4.301 4.301 0 0 1-1.075-1.347c-.279-.534-.418-1.175-.418-1.924 0-.963.203-1.78.61-2.454a5.165 5.165 0 0 1 1.574-1.652 7.007 7.007 0 0 1 2.135-.946A9.222 9.222 0 0 1 49.578 32c1.199 0 2.37.188 3.516.562 1.145.374 2.114.935 2.906 1.683l-2.89 2.983M8.473 12.597a4.097 4.097 0 1 1 0-8.194c2.262 0 3.88 1.835 3.88 4.097 0 2.263-1.618 4.097-3.88 4.097zM8.5 0a8.5 8.5 0 1 0 0 17 8.5 8.5 0 0 0 0-17zm69.604 43.357a3.65 3.65 0 0 1-2.774 1.24c-2.225 0-4.028-1.835-4.028-4.097 0-2.262 1.803-4.096 4.028-4.096a3.65 3.65 0 0 1 2.774 1.239L81 34.232A8.248 8.248 0 0 0 75.357 32C70.742 32 67 35.806 67 40.5s3.742 8.5 8.357 8.5A8.248 8.248 0 0 0 81 46.768l-2.896-3.41M101 24a3 3 0 1 1-6 0 3 3 0 0 1 6 0m-6 24h5V32h-5z" fill="#333" fill-rule="evenodd"/></svg>