<svg xmlns="http://www.w3.org/2000/svg" role="img" viewBox="-1.76 -1.63 85.02 45.77"><title>One Convergence DKube (Workflows) logo</title><path fill="none" d="M0-99.521h400v245H0z" pointer-events="none"/><defs><linearGradient id="a" x1="34.641" x2="0" y1="17.321" y2="17.321" gradientTransform="scale(2.35856 1.2284)" gradientUnits="userSpaceOnUse"><stop offset="0%" stop-color="#B57CFF"/><stop offset="100%" stop-color="#7E46FF"/></linearGradient></defs><path fill="url(#a)" stroke-width="1.702" d="M73.314 31.976c-4.184 4.492-10.642 6.34-16.703 4.783-6.06-1.561-10.693-6.262-11.983-12.162a13.518 13.518 0 0 1-.196-1.086v-4.444a19.883 19.883 0 0 1 .198-1.086c1.513-6.884 7.527-12.01 14.819-12.633 7.292-.623 14.153 3.402 16.907 9.92l5.33-1.37C78.462 5.556 70.185.016 60.922 0c-8.068.01-15.49 4.235-19.377 11.03C36.676 2.52 26.426-1.745 16.637.671 6.846 3.083 0 11.563 0 21.275 0 30.99 6.846 39.47 16.637 41.882c9.789 2.415 20.039-1.848 24.907-10.36 3.682 6.449 10.574 10.609 18.218 11 7.644.392 14.956-3.045 19.33-9.082a20.819 20.819 0 0 0 2.61-4.785l-5.33-1.37a15.898 15.898 0 0 1-3.058 4.69zm-51.19 5.322c-8.684 0-15.911-6.413-16.6-14.732-.692-8.318 5.385-15.751 13.96-17.074C28.058 4.168 36.252 9.4 38.308 17.506c.169.666.29 1.343.364 2.026v3.511c-.032.296-.08.587-.127.878-.068.387-.147.77-.242 1.146-1.828 7.159-8.5 12.199-16.172 12.214z"/></svg>