<svg xmlns="http://www.w3.org/2000/svg" role="img" viewBox="-1.12 -1.12 58.45 48.95"><title>Open Data Hub (Pre-defined Models as a Service) logo</title><g fill="#4d5258" stroke-width=".006"><path fill="#bbb" d="M2.706 36.582c-1.435 0-2.522 1.013-2.522 2.381 0 1.362 1.087 2.395 2.522 2.395 1.436 0 2.522-1.04 2.522-2.395 0-1.362-1.086-2.381-2.522-2.381zm.014.926c.785 0 1.422.63 1.422 1.455 0 .825-.637 1.469-1.422 1.469a1.46 1.46 0 0 1-1.449-1.469c0-.825.657-1.455 1.45-1.455zm5.202-.893H5.93v4.696h1.06v-1.342h.932c1.194 0 1.878-.63 1.878-1.724 0-1.04-.683-1.63-1.878-1.63zm-.056 2.469h-.879v-1.59h.879c.59 0 .925.262.925.785 0 .536-.335.805-.925.805zm2.61-2.469v4.696h3.649v-.879h-2.59v-1.04h2.268v-.878h-2.267v-1.02h2.515v-.879zm4.481 0v4.696h1.012v-3.012l2.274 3.012h.966v-4.696h-1.006v3.019l-2.28-3.019z"/><path d="M23.84 36.615h-1.992v4.696H23.8c1.482 0 2.508-.966 2.508-2.348 0-1.388-1.013-2.348-2.468-2.348zm.028 3.804h-.96v-2.911h.913c.805 0 1.409.597 1.409 1.462 0 .858-.577 1.449-1.362 1.449zm6.478.891h1.134l-2.006-4.695h-1.093l-2.04 4.696h1.094l.37-.912h2.172zm-2.193-1.763l.744-1.825.738 1.825zm2.874-2.932v.9h1.429v3.796h1.06v-3.797h1.435v-.899zm7.481 4.695h1.134l-2.006-4.695h-1.093l-2.04 4.696h1.094l.369-.912h2.173zm-2.193-1.763l.744-1.825.738 1.825zm5.433-2.932v4.696h1.06v-1.852h2.126v1.852h1.06v-4.696h-1.06v1.959h-2.127v-1.959zM48 39.345v-2.73h-1.06v2.73c0 1.241.832 2.013 2.133 2.013 1.295 0 2.106-.772 2.106-2.013v-2.73h-1.06v2.73c0 .678-.415 1.087-1.046 1.087-.63 0-1.073-.41-1.073-1.087zm6.283-2.73h-2.16v4.696h2.234c1.093 0 1.77-.497 1.77-1.302 0-.617-.375-1.073-.978-1.187.503-.127.811-.523.811-1.033 0-.724-.643-1.174-1.677-1.174zm-.056 1.892H53.18v-1.026h1.046c.396 0 .644.18.644.503 0 .328-.248.523-.644.523zm0 1.938H53.18v-1.12h1.046c.503 0 .805.208.805.55 0 .363-.302.57-.805.57z"/></g><path d="M1.927 46.132h.269l-.968-2.165H.971L0 46.132h.263l.24-.554h1.18zm-1.32-.783l.485-1.113.492 1.113zm1.932-1.382v2.165h.247v-2.165zm2.565 0H4.29v2.165h.247v-.687h.566c.535 0 .845-.275.845-.751 0-.461-.31-.727-.845-.727zm-.007 1.25H4.54v-1.021h.557c.39 0 .615.173.615.504 0 .34-.226.516-.615.516zm1.247-1.38v2.295h.241v-2.295zm2.088 2.295l-.003-1.076c-.003-.347-.225-.56-.628-.56-.278 0-.454.08-.665.22l.103.17c.17-.121.337-.19.516-.19.288 0 .437.146.437.384v.102h-.535c-.384.003-.61.183-.61.467 0 .279.217.492.554.492.26 0 .467-.087.597-.263v.254zm-.785-.192c-.229 0-.374-.12-.374-.3 0-.182.142-.266.414-.266h.508v.198c-.064.232-.273.368-.548.368zm2.094-.105a.56.56 0 0 1-.26.083c-.138 0-.216-.08-.216-.278v-.897h.516v-.188h-.516v-.427h-.238v.427h-.235v.188h.235v.937c0 .322.176.464.414.461a.65.65 0 0 0 .368-.12zm1.01-1.791a.44.44 0 0 1 .248.084l.099-.186a.59.59 0 0 0-.35-.114c-.272-.003-.522.191-.522.544v.183h-.21v.188h.21v1.389h.237v-1.389h.468v-.188h-.468v-.214c0-.192.13-.3.288-.297zm1.059.452c-.482 0-.825.337-.825.82 0 .488.343.825.826.825.482 0 .825-.337.825-.826 0-.482-.343-.82-.825-.82zm0 .213c.34 0 .585.25.585.61 0 .364-.244.612-.584.612-.34 0-.585-.248-.585-.613 0-.358.244-.609.585-.609zm1.489.158v-.362h-.242v1.627h.242v-.866c.028-.328.241-.541.584-.535v-.235a.608.608 0 0 0-.584.371zm2.994-.371c-.313.003-.542.139-.643.423-.07-.269-.278-.423-.585-.423-.293.003-.513.123-.621.377v-.368h-.238v1.627h.238v-.801c0-.353.2-.597.535-.606.284 0 .451.173.451.467v.94h.245v-.801c0-.353.194-.597.532-.606.281 0 .451.173.451.467v.94h.242V45.13c0-.396-.226-.634-.607-.634zm2.874 0a.68.68 0 0 0-.628.358v-.349h-.241v2.227h.24v-.95c.122.226.345.359.635.359.46 0 .776-.337.776-.82 0-.485-.322-.825-.783-.825zm-.042 1.432c-.343 0-.585-.254-.585-.613 0-.355.242-.612.585-.612.34 0 .581.26.581.612 0 .356-.241.613-.581.613zm1.909-1.432c-.482 0-.825.337-.825.82 0 .488.343.825.825.825.483 0 .826-.337.826-.826 0-.482-.343-.82-.826-.82zm0 .213c.34 0 .585.25.585.61 0 .364-.244.612-.585.612-.34 0-.584-.248-.584-.613 0-.358.244-.609.584-.609zm.911-.204l.61 1.627h.25l.476-1.333.48 1.333h.25l.604-1.627h-.251l-.476 1.382-.48-1.382h-.253l-.473 1.382-.482-1.382zm3.541-.009c-.473.003-.807.337-.807.822 0 .486.33.823.81.823a.864.864 0 0 0 .655-.269l-.133-.14a.683.683 0 0 1-.504.208c-.318 0-.55-.21-.59-.532h1.33c.028-.55-.236-.912-.761-.912zm-.569.72c.035-.315.257-.52.569-.52.318 0 .528.205.544.52zm1.985-.349v-.362h-.241v1.627h.24v-.866c.03-.328.242-.541.585-.535v-.235a.608.608 0 0 0-.584.371zm1.55-.371c-.473.003-.808.337-.808.822 0 .486.331.823.81.823a.864.864 0 0 0 .656-.269l-.132-.14a.683.683 0 0 1-.504.208c-.318 0-.55-.21-.59-.532h1.329c.028-.55-.235-.912-.76-.912zm-.57.72c.036-.315.258-.52.57-.52.318 0 .528.205.544.52zm3-1.379v1.02c-.12-.231-.346-.364-.637-.364-.46 0-.783.337-.783.822 0 .486.322.83.786.83.29 0 .513-.134.634-.363v.35h.241v-2.295zm-.588 2.1c-.346 0-.59-.257-.59-.616 0-.358.244-.618.59-.618.343 0 .588.26.588.618 0 .36-.244.616-.588.616zm3.165-1.441a.68.68 0 0 0-.628.358v-1.017h-.242v2.295h.242v-.35c.12.226.343.359.634.359.46 0 .776-.337.776-.82 0-.485-.322-.825-.783-.825zm-.042 1.432c-.343 0-.585-.254-.585-.613 0-.355.242-.612.585-.612.34 0 .581.26.581.612 0 .356-.241.613-.581.613zm1.713.436l.748-1.859h-.248l-.516 1.355-.542-1.355h-.253l.674 1.614-.07.155c-.064.155-.17.235-.298.235a.384.384 0 0 1-.228-.077l-.103.192c.1.08.208.117.343.117.217 0 .387-.13.489-.377zm2.843-2.404c-.634 0-1.135.48-1.135 1.09 0 .609.501 1.091 1.135 1.091.63 0 1.132-.482 1.132-1.092 0-.609-.501-1.088-1.132-1.088zm0 .23c.483 0 .878.38.878.86a.873.873 0 0 1-.878.865.878.878 0 0 1-.885-.866c0-.479.403-.86.885-.86zm2.432.306a.68.68 0 0 0-.628.358v-.349h-.241v2.227h.241v-.95c.121.226.343.359.634.359.46 0 .776-.337.776-.82 0-.485-.322-.825-.782-.825zm-.042 1.432c-.343 0-.584-.254-.584-.613 0-.355.241-.612.584-.612.34 0 .582.26.582.612 0 .356-.242.613-.582.613zm1.891-1.432c-.473.003-.807.337-.807.822 0 .486.331.823.81.823a.864.864 0 0 0 .656-.269l-.133-.14a.683.683 0 0 1-.504.208c-.319 0-.55-.21-.591-.532h1.33c.028-.55-.235-.912-.761-.912zm-.569.72c.036-.315.257-.52.57-.52.317 0 .528.205.543.52zm2.616-.72c-.297.003-.516.12-.63.368v-.359h-.242v1.627h.241v-.872c.029-.316.226-.53.548-.532.288 0 .46.173.46.464v.94h.242V45.13c0-.396-.229-.634-.618-.634zm3.262-.118l.105-.22a1.28 1.28 0 0 0-.686-.2c-.449 0-.749.216-.749.556 0 .777 1.219.47 1.216 1.049 0 .21-.195.337-.508.337-.244 0-.52-.111-.72-.303l-.112.213c.204.195.513.331.829.331.464 0 .782-.232.782-.59.004-.786-1.215-.492-1.215-1.055 0-.186.183-.297.46-.297.174 0 .403.053.598.18zm1.294.118c-.483 0-.826.337-.826.82 0 .488.343.825.826.825.483 0 .826-.337.826-.826 0-.482-.344-.82-.826-.82zm0 .213c.34 0 .584.25.584.61 0 .364-.244.612-.584.612-.34 0-.584-.248-.584-.613 0-.358.244-.609.584-.609zm2.419-.204v.798c0 .353-.198.6-.535.606-.282 0-.452-.173-.452-.464v-.94h-.241v1.002c0 .393.229.634.61.634.293-.003.51-.124.617-.377v.368h.242v-1.627zm1.068.362v-.362h-.24v1.627h.24v-.866c.029-.328.242-.541.585-.535v-.235a.608.608 0 0 0-.585.371zm2.046.037l.132-.167a.858.858 0 0 0-.628-.241c-.47 0-.808.34-.808.822 0 .486.334.823.808.823.281 0 .507-.105.652-.281l-.139-.143c-.114.136-.29.21-.503.21-.338 0-.58-.247-.58-.609 0-.358.242-.606.58-.606.197 0 .362.071.485.192zm1.16-.408c-.474.003-.808.337-.808.822 0 .486.331.823.81.823a.864.864 0 0 0 .656-.269l-.133-.14a.683.683 0 0 1-.504.208c-.319 0-.55-.21-.59-.532h1.329c.028-.55-.235-.912-.76-.912zm-.57.72c.036-.315.257-.52.57-.52.318 0 .528.205.543.52z" fill="#58595b" stroke-width=".01"/><g><path d="M31.678 0c-.597.009-1.073.5-1.063 1.097v20.317c-.054.63.443 1.17 1.074 1.17.632 0 1.172-.54 1.118-1.17v-4.787l.026-.379a6.109 6.109 0 0 1 6.12-6.132 6.118 6.118 0 0 1 6.132 6.132l.002.034a1.06 1.06 0 0 0-.002.082v6.775a1.08 1.08 0 0 0 2.16 0v-6.775l-.002-.06.002-.056c0-4.562-3.73-8.28-8.292-8.28a8.263 8.263 0 0 0-6.19 2.79v-9.66A1.078 1.078 0 0 0 31.678 0z" style="text-indent:0;text-align:start;text-decoration-line:none;text-decoration-style:solid;text-decoration-color:#000;text-transform:none;text-orientation:mixed;shape-padding:0;isolation:auto;mix-blend-mode:normal;solid-color:#000;solid-opacity:1" fill="#a586f3" stroke-linecap="round" stroke-linejoin="round" stroke-width="35" color="#000" overflow="visible"/><path d="M29.029.058h-.007c-.597.008-1.073.5-1.063 1.097v15.093a6.115 6.115 0 0 1-4.03 5.763 6.136 6.136 0 0 1-6.802-1.836 6.119 6.119 0 0 1-.589-7.01 6.115 6.115 0 0 1 6.386-2.945 1.08 1.08 0 0 0 .393-2.125 8.294 8.294 0 0 0-8.638 3.984 8.297 8.297 0 0 0 .797 9.481 8.286 8.286 0 0 0 9.18 2.472 8.293 8.293 0 0 0 5.303-6.169s.122-.294.16-.564c.037-.27 0-1.05 0-1.05V1.154a1.078 1.078 0 0 0-1.09-1.097z" style="text-indent:0;text-align:start;text-decoration-line:none;text-decoration-style:solid;text-decoration-color:#000;text-transform:none;text-orientation:mixed;shape-padding:0;isolation:auto;mix-blend-mode:normal;solid-color:#000;solid-opacity:1" fill="#5ed3ee" stroke-linecap="round" stroke-linejoin="round" stroke-width="35" color="#000" overflow="visible"/><g fill="none" stroke-width=".365" transform="translate(-449.265 -83.342) scale(5.91262)"><circle cx="79.677" cy="16.823" r=".645" stroke="#c6ea70"/><path stroke="#dff3b1" stroke-linecap="round" stroke-linejoin="round" d="M80.809 18.234a1.809 1.809 0 0 1-2.31-.038 1.809 1.809 0 0 1-.389-2.277 1.809 1.809 0 0 1 2.165-.803"/><path stroke="#f2fadf" stroke-linecap="round" stroke-linejoin="round" d="M82.216 17.249a2.456 2.443 0 0 1-2.468 2.016 2.456 2.443 0 0 1-2.384-2.115 2.456 2.443 0 0 1 1.733-2.668"/></g></g></svg>